G75*
G70*
%OFA0B0*%
%FSLAX24Y24*%
%IPPOS*%
%LPD*%
%AMOC8*
5,1,8,0,0,1.08239X$1,22.5*
%
%ADD10C,0.0160*%
%ADD11C,0.0039*%
%ADD12C,0.0060*%
%ADD13C,0.0000*%
%ADD14C,0.0050*%
D10*
X000977Y000973D02*
X000977Y044280D01*
X058064Y044280D01*
X058064Y000973D01*
X000977Y000973D01*
D11*
X002158Y002745D02*
X002160Y002793D01*
X002166Y002841D01*
X002176Y002888D01*
X002189Y002934D01*
X002207Y002979D01*
X002227Y003023D01*
X002252Y003065D01*
X002280Y003104D01*
X002310Y003141D01*
X002344Y003175D01*
X002381Y003207D01*
X002419Y003236D01*
X002460Y003261D01*
X002503Y003283D01*
X002548Y003301D01*
X002594Y003315D01*
X002641Y003326D01*
X002689Y003333D01*
X002737Y003336D01*
X002785Y003335D01*
X002833Y003330D01*
X002881Y003321D01*
X002927Y003309D01*
X002972Y003292D01*
X003016Y003272D01*
X003058Y003249D01*
X003098Y003222D01*
X003136Y003192D01*
X003171Y003159D01*
X003203Y003123D01*
X003233Y003085D01*
X003259Y003044D01*
X003281Y003001D01*
X003301Y002957D01*
X003316Y002912D01*
X003328Y002865D01*
X003336Y002817D01*
X003340Y002769D01*
X003340Y002721D01*
X003336Y002673D01*
X003328Y002625D01*
X003316Y002578D01*
X003301Y002533D01*
X003281Y002489D01*
X003259Y002446D01*
X003233Y002405D01*
X003203Y002367D01*
X003171Y002331D01*
X003136Y002298D01*
X003098Y002268D01*
X003058Y002241D01*
X003016Y002218D01*
X002972Y002198D01*
X002927Y002181D01*
X002881Y002169D01*
X002833Y002160D01*
X002785Y002155D01*
X002737Y002154D01*
X002689Y002157D01*
X002641Y002164D01*
X002594Y002175D01*
X002548Y002189D01*
X002503Y002207D01*
X002460Y002229D01*
X002419Y002254D01*
X002381Y002283D01*
X002344Y002315D01*
X002310Y002349D01*
X002280Y002386D01*
X002252Y002425D01*
X002227Y002467D01*
X002207Y002511D01*
X002189Y002556D01*
X002176Y002602D01*
X002166Y002649D01*
X002160Y002697D01*
X002158Y002745D01*
X055701Y041721D02*
X055703Y041769D01*
X055709Y041817D01*
X055719Y041864D01*
X055732Y041910D01*
X055750Y041955D01*
X055770Y041999D01*
X055795Y042041D01*
X055823Y042080D01*
X055853Y042117D01*
X055887Y042151D01*
X055924Y042183D01*
X055962Y042212D01*
X056003Y042237D01*
X056046Y042259D01*
X056091Y042277D01*
X056137Y042291D01*
X056184Y042302D01*
X056232Y042309D01*
X056280Y042312D01*
X056328Y042311D01*
X056376Y042306D01*
X056424Y042297D01*
X056470Y042285D01*
X056515Y042268D01*
X056559Y042248D01*
X056601Y042225D01*
X056641Y042198D01*
X056679Y042168D01*
X056714Y042135D01*
X056746Y042099D01*
X056776Y042061D01*
X056802Y042020D01*
X056824Y041977D01*
X056844Y041933D01*
X056859Y041888D01*
X056871Y041841D01*
X056879Y041793D01*
X056883Y041745D01*
X056883Y041697D01*
X056879Y041649D01*
X056871Y041601D01*
X056859Y041554D01*
X056844Y041509D01*
X056824Y041465D01*
X056802Y041422D01*
X056776Y041381D01*
X056746Y041343D01*
X056714Y041307D01*
X056679Y041274D01*
X056641Y041244D01*
X056601Y041217D01*
X056559Y041194D01*
X056515Y041174D01*
X056470Y041157D01*
X056424Y041145D01*
X056376Y041136D01*
X056328Y041131D01*
X056280Y041130D01*
X056232Y041133D01*
X056184Y041140D01*
X056137Y041151D01*
X056091Y041165D01*
X056046Y041183D01*
X056003Y041205D01*
X055962Y041230D01*
X055924Y041259D01*
X055887Y041291D01*
X055853Y041325D01*
X055823Y041362D01*
X055795Y041401D01*
X055770Y041443D01*
X055750Y041487D01*
X055732Y041532D01*
X055719Y041578D01*
X055709Y041625D01*
X055703Y041673D01*
X055701Y041721D01*
D12*
X055701Y002745D02*
X055703Y002793D01*
X055709Y002841D01*
X055719Y002888D01*
X055732Y002934D01*
X055750Y002979D01*
X055770Y003023D01*
X055795Y003065D01*
X055823Y003104D01*
X055853Y003141D01*
X055887Y003175D01*
X055924Y003207D01*
X055962Y003236D01*
X056003Y003261D01*
X056046Y003283D01*
X056091Y003301D01*
X056137Y003315D01*
X056184Y003326D01*
X056232Y003333D01*
X056280Y003336D01*
X056328Y003335D01*
X056376Y003330D01*
X056424Y003321D01*
X056470Y003309D01*
X056515Y003292D01*
X056559Y003272D01*
X056601Y003249D01*
X056641Y003222D01*
X056679Y003192D01*
X056714Y003159D01*
X056746Y003123D01*
X056776Y003085D01*
X056802Y003044D01*
X056824Y003001D01*
X056844Y002957D01*
X056859Y002912D01*
X056871Y002865D01*
X056879Y002817D01*
X056883Y002769D01*
X056883Y002721D01*
X056879Y002673D01*
X056871Y002625D01*
X056859Y002578D01*
X056844Y002533D01*
X056824Y002489D01*
X056802Y002446D01*
X056776Y002405D01*
X056746Y002367D01*
X056714Y002331D01*
X056679Y002298D01*
X056641Y002268D01*
X056601Y002241D01*
X056559Y002218D01*
X056515Y002198D01*
X056470Y002181D01*
X056424Y002169D01*
X056376Y002160D01*
X056328Y002155D01*
X056280Y002154D01*
X056232Y002157D01*
X056184Y002164D01*
X056137Y002175D01*
X056091Y002189D01*
X056046Y002207D01*
X056003Y002229D01*
X055962Y002254D01*
X055924Y002283D01*
X055887Y002315D01*
X055853Y002349D01*
X055823Y002386D01*
X055795Y002425D01*
X055770Y002467D01*
X055750Y002511D01*
X055732Y002556D01*
X055719Y002602D01*
X055709Y002649D01*
X055703Y002697D01*
X055701Y002745D01*
X002158Y041721D02*
X002160Y041769D01*
X002166Y041817D01*
X002176Y041864D01*
X002189Y041910D01*
X002207Y041955D01*
X002227Y041999D01*
X002252Y042041D01*
X002280Y042080D01*
X002310Y042117D01*
X002344Y042151D01*
X002381Y042183D01*
X002419Y042212D01*
X002460Y042237D01*
X002503Y042259D01*
X002548Y042277D01*
X002594Y042291D01*
X002641Y042302D01*
X002689Y042309D01*
X002737Y042312D01*
X002785Y042311D01*
X002833Y042306D01*
X002881Y042297D01*
X002927Y042285D01*
X002972Y042268D01*
X003016Y042248D01*
X003058Y042225D01*
X003098Y042198D01*
X003136Y042168D01*
X003171Y042135D01*
X003203Y042099D01*
X003233Y042061D01*
X003259Y042020D01*
X003281Y041977D01*
X003301Y041933D01*
X003316Y041888D01*
X003328Y041841D01*
X003336Y041793D01*
X003340Y041745D01*
X003340Y041697D01*
X003336Y041649D01*
X003328Y041601D01*
X003316Y041554D01*
X003301Y041509D01*
X003281Y041465D01*
X003259Y041422D01*
X003233Y041381D01*
X003203Y041343D01*
X003171Y041307D01*
X003136Y041274D01*
X003098Y041244D01*
X003058Y041217D01*
X003016Y041194D01*
X002972Y041174D01*
X002927Y041157D01*
X002881Y041145D01*
X002833Y041136D01*
X002785Y041131D01*
X002737Y041130D01*
X002689Y041133D01*
X002641Y041140D01*
X002594Y041151D01*
X002548Y041165D01*
X002503Y041183D01*
X002460Y041205D01*
X002419Y041230D01*
X002381Y041259D01*
X002344Y041291D01*
X002310Y041325D01*
X002280Y041362D01*
X002252Y041401D01*
X002227Y041443D01*
X002207Y041487D01*
X002189Y041532D01*
X002176Y041578D01*
X002166Y041625D01*
X002160Y041673D01*
X002158Y041721D01*
D13*
X002160Y041769D01*
X002166Y041817D01*
X002176Y041864D01*
X002189Y041910D01*
X002207Y041955D01*
X002227Y041999D01*
X002252Y042041D01*
X002280Y042080D01*
X002310Y042117D01*
X002344Y042151D01*
X002381Y042183D01*
X002419Y042212D01*
X002460Y042237D01*
X002503Y042259D01*
X002548Y042277D01*
X002594Y042291D01*
X002641Y042302D01*
X002689Y042309D01*
X002737Y042312D01*
X002785Y042311D01*
X002833Y042306D01*
X002881Y042297D01*
X002927Y042285D01*
X002972Y042268D01*
X003016Y042248D01*
X003058Y042225D01*
X003098Y042198D01*
X003136Y042168D01*
X003171Y042135D01*
X003203Y042099D01*
X003233Y042061D01*
X003259Y042020D01*
X003281Y041977D01*
X003301Y041933D01*
X003316Y041888D01*
X003328Y041841D01*
X003336Y041793D01*
X003340Y041745D01*
X003340Y041697D01*
X003336Y041649D01*
X003328Y041601D01*
X003316Y041554D01*
X003301Y041509D01*
X003281Y041465D01*
X003259Y041422D01*
X003233Y041381D01*
X003203Y041343D01*
X003171Y041307D01*
X003136Y041274D01*
X003098Y041244D01*
X003058Y041217D01*
X003016Y041194D01*
X002972Y041174D01*
X002927Y041157D01*
X002881Y041145D01*
X002833Y041136D01*
X002785Y041131D01*
X002737Y041130D01*
X002689Y041133D01*
X002641Y041140D01*
X002594Y041151D01*
X002548Y041165D01*
X002503Y041183D01*
X002460Y041205D01*
X002419Y041230D01*
X002381Y041259D01*
X002344Y041291D01*
X002310Y041325D01*
X002280Y041362D01*
X002252Y041401D01*
X002227Y041443D01*
X002207Y041487D01*
X002189Y041532D01*
X002176Y041578D01*
X002166Y041625D01*
X002160Y041673D01*
X002158Y041721D01*
X002158Y002745D02*
X002160Y002793D01*
X002166Y002841D01*
X002176Y002888D01*
X002189Y002934D01*
X002207Y002979D01*
X002227Y003023D01*
X002252Y003065D01*
X002280Y003104D01*
X002310Y003141D01*
X002344Y003175D01*
X002381Y003207D01*
X002419Y003236D01*
X002460Y003261D01*
X002503Y003283D01*
X002548Y003301D01*
X002594Y003315D01*
X002641Y003326D01*
X002689Y003333D01*
X002737Y003336D01*
X002785Y003335D01*
X002833Y003330D01*
X002881Y003321D01*
X002927Y003309D01*
X002972Y003292D01*
X003016Y003272D01*
X003058Y003249D01*
X003098Y003222D01*
X003136Y003192D01*
X003171Y003159D01*
X003203Y003123D01*
X003233Y003085D01*
X003259Y003044D01*
X003281Y003001D01*
X003301Y002957D01*
X003316Y002912D01*
X003328Y002865D01*
X003336Y002817D01*
X003340Y002769D01*
X003340Y002721D01*
X003336Y002673D01*
X003328Y002625D01*
X003316Y002578D01*
X003301Y002533D01*
X003281Y002489D01*
X003259Y002446D01*
X003233Y002405D01*
X003203Y002367D01*
X003171Y002331D01*
X003136Y002298D01*
X003098Y002268D01*
X003058Y002241D01*
X003016Y002218D01*
X002972Y002198D01*
X002927Y002181D01*
X002881Y002169D01*
X002833Y002160D01*
X002785Y002155D01*
X002737Y002154D01*
X002689Y002157D01*
X002641Y002164D01*
X002594Y002175D01*
X002548Y002189D01*
X002503Y002207D01*
X002460Y002229D01*
X002419Y002254D01*
X002381Y002283D01*
X002344Y002315D01*
X002310Y002349D01*
X002280Y002386D01*
X002252Y002425D01*
X002227Y002467D01*
X002207Y002511D01*
X002189Y002556D01*
X002176Y002602D01*
X002166Y002649D01*
X002160Y002697D01*
X002158Y002745D01*
X055701Y002745D02*
X055703Y002793D01*
X055709Y002841D01*
X055719Y002888D01*
X055732Y002934D01*
X055750Y002979D01*
X055770Y003023D01*
X055795Y003065D01*
X055823Y003104D01*
X055853Y003141D01*
X055887Y003175D01*
X055924Y003207D01*
X055962Y003236D01*
X056003Y003261D01*
X056046Y003283D01*
X056091Y003301D01*
X056137Y003315D01*
X056184Y003326D01*
X056232Y003333D01*
X056280Y003336D01*
X056328Y003335D01*
X056376Y003330D01*
X056424Y003321D01*
X056470Y003309D01*
X056515Y003292D01*
X056559Y003272D01*
X056601Y003249D01*
X056641Y003222D01*
X056679Y003192D01*
X056714Y003159D01*
X056746Y003123D01*
X056776Y003085D01*
X056802Y003044D01*
X056824Y003001D01*
X056844Y002957D01*
X056859Y002912D01*
X056871Y002865D01*
X056879Y002817D01*
X056883Y002769D01*
X056883Y002721D01*
X056879Y002673D01*
X056871Y002625D01*
X056859Y002578D01*
X056844Y002533D01*
X056824Y002489D01*
X056802Y002446D01*
X056776Y002405D01*
X056746Y002367D01*
X056714Y002331D01*
X056679Y002298D01*
X056641Y002268D01*
X056601Y002241D01*
X056559Y002218D01*
X056515Y002198D01*
X056470Y002181D01*
X056424Y002169D01*
X056376Y002160D01*
X056328Y002155D01*
X056280Y002154D01*
X056232Y002157D01*
X056184Y002164D01*
X056137Y002175D01*
X056091Y002189D01*
X056046Y002207D01*
X056003Y002229D01*
X055962Y002254D01*
X055924Y002283D01*
X055887Y002315D01*
X055853Y002349D01*
X055823Y002386D01*
X055795Y002425D01*
X055770Y002467D01*
X055750Y002511D01*
X055732Y002556D01*
X055719Y002602D01*
X055709Y002649D01*
X055703Y002697D01*
X055701Y002745D01*
X055701Y041721D02*
X055703Y041769D01*
X055709Y041817D01*
X055719Y041864D01*
X055732Y041910D01*
X055750Y041955D01*
X055770Y041999D01*
X055795Y042041D01*
X055823Y042080D01*
X055853Y042117D01*
X055887Y042151D01*
X055924Y042183D01*
X055962Y042212D01*
X056003Y042237D01*
X056046Y042259D01*
X056091Y042277D01*
X056137Y042291D01*
X056184Y042302D01*
X056232Y042309D01*
X056280Y042312D01*
X056328Y042311D01*
X056376Y042306D01*
X056424Y042297D01*
X056470Y042285D01*
X056515Y042268D01*
X056559Y042248D01*
X056601Y042225D01*
X056641Y042198D01*
X056679Y042168D01*
X056714Y042135D01*
X056746Y042099D01*
X056776Y042061D01*
X056802Y042020D01*
X056824Y041977D01*
X056844Y041933D01*
X056859Y041888D01*
X056871Y041841D01*
X056879Y041793D01*
X056883Y041745D01*
X056883Y041697D01*
X056879Y041649D01*
X056871Y041601D01*
X056859Y041554D01*
X056844Y041509D01*
X056824Y041465D01*
X056802Y041422D01*
X056776Y041381D01*
X056746Y041343D01*
X056714Y041307D01*
X056679Y041274D01*
X056641Y041244D01*
X056601Y041217D01*
X056559Y041194D01*
X056515Y041174D01*
X056470Y041157D01*
X056424Y041145D01*
X056376Y041136D01*
X056328Y041131D01*
X056280Y041130D01*
X056232Y041133D01*
X056184Y041140D01*
X056137Y041151D01*
X056091Y041165D01*
X056046Y041183D01*
X056003Y041205D01*
X055962Y041230D01*
X055924Y041259D01*
X055887Y041291D01*
X055853Y041325D01*
X055823Y041362D01*
X055795Y041401D01*
X055770Y041443D01*
X055750Y041487D01*
X055732Y041532D01*
X055719Y041578D01*
X055709Y041625D01*
X055703Y041673D01*
X055701Y041721D01*
D14*
X019875Y039359D02*
X019875Y038178D01*
X019873Y038116D01*
X019867Y038055D01*
X019858Y037994D01*
X019844Y037933D01*
X019827Y037874D01*
X019806Y037816D01*
X019781Y037759D01*
X019753Y037704D01*
X019722Y037651D01*
X019687Y037600D01*
X019649Y037551D01*
X019608Y037504D01*
X019565Y037461D01*
X019518Y037420D01*
X019469Y037382D01*
X019418Y037347D01*
X019365Y037316D01*
X019310Y037288D01*
X019253Y037263D01*
X019195Y037242D01*
X019136Y037225D01*
X019075Y037211D01*
X019014Y037202D01*
X018953Y037196D01*
X018891Y037194D01*
X018829Y037196D01*
X018768Y037202D01*
X018707Y037211D01*
X018646Y037225D01*
X018587Y037242D01*
X018529Y037263D01*
X018472Y037288D01*
X018417Y037316D01*
X018364Y037347D01*
X018313Y037382D01*
X018264Y037420D01*
X018217Y037461D01*
X018174Y037504D01*
X018133Y037551D01*
X018095Y037600D01*
X018060Y037651D01*
X018029Y037704D01*
X018001Y037759D01*
X017976Y037816D01*
X017955Y037874D01*
X017938Y037933D01*
X017924Y037994D01*
X017915Y038055D01*
X017909Y038116D01*
X017907Y038178D01*
X017906Y038178D02*
X017906Y039359D01*
X017907Y039359D02*
X017909Y039421D01*
X017915Y039482D01*
X017924Y039543D01*
X017938Y039604D01*
X017955Y039663D01*
X017976Y039721D01*
X018001Y039778D01*
X018029Y039833D01*
X018060Y039886D01*
X018095Y039937D01*
X018133Y039986D01*
X018174Y040033D01*
X018217Y040076D01*
X018264Y040117D01*
X018313Y040155D01*
X018364Y040190D01*
X018417Y040221D01*
X018472Y040249D01*
X018529Y040274D01*
X018587Y040295D01*
X018646Y040312D01*
X018707Y040326D01*
X018768Y040335D01*
X018829Y040341D01*
X018891Y040343D01*
X018953Y040341D01*
X019014Y040335D01*
X019075Y040326D01*
X019136Y040312D01*
X019195Y040295D01*
X019253Y040274D01*
X019310Y040249D01*
X019365Y040221D01*
X019418Y040190D01*
X019469Y040155D01*
X019518Y040117D01*
X019565Y040076D01*
X019608Y040033D01*
X019649Y039986D01*
X019687Y039937D01*
X019722Y039886D01*
X019753Y039833D01*
X019781Y039778D01*
X019806Y039721D01*
X019827Y039663D01*
X019844Y039604D01*
X019858Y039543D01*
X019867Y039482D01*
X019873Y039421D01*
X019875Y039359D01*
X019875Y007076D02*
X019875Y005894D01*
X019873Y005832D01*
X019867Y005771D01*
X019858Y005710D01*
X019844Y005649D01*
X019827Y005590D01*
X019806Y005532D01*
X019781Y005475D01*
X019753Y005420D01*
X019722Y005367D01*
X019687Y005316D01*
X019649Y005267D01*
X019608Y005220D01*
X019565Y005177D01*
X019518Y005136D01*
X019469Y005098D01*
X019418Y005063D01*
X019365Y005032D01*
X019310Y005004D01*
X019253Y004979D01*
X019195Y004958D01*
X019136Y004941D01*
X019075Y004927D01*
X019014Y004918D01*
X018953Y004912D01*
X018891Y004910D01*
X018829Y004912D01*
X018768Y004918D01*
X018707Y004927D01*
X018646Y004941D01*
X018587Y004958D01*
X018529Y004979D01*
X018472Y005004D01*
X018417Y005032D01*
X018364Y005063D01*
X018313Y005098D01*
X018264Y005136D01*
X018217Y005177D01*
X018174Y005220D01*
X018133Y005267D01*
X018095Y005316D01*
X018060Y005367D01*
X018029Y005420D01*
X018001Y005475D01*
X017976Y005532D01*
X017955Y005590D01*
X017938Y005649D01*
X017924Y005710D01*
X017915Y005771D01*
X017909Y005832D01*
X017907Y005894D01*
X017906Y005894D02*
X017906Y007076D01*
X017907Y007076D02*
X017909Y007138D01*
X017915Y007199D01*
X017924Y007260D01*
X017938Y007321D01*
X017955Y007380D01*
X017976Y007438D01*
X018001Y007495D01*
X018029Y007550D01*
X018060Y007603D01*
X018095Y007654D01*
X018133Y007703D01*
X018174Y007750D01*
X018217Y007793D01*
X018264Y007834D01*
X018313Y007872D01*
X018364Y007907D01*
X018417Y007938D01*
X018472Y007966D01*
X018529Y007991D01*
X018587Y008012D01*
X018646Y008029D01*
X018707Y008043D01*
X018768Y008052D01*
X018829Y008058D01*
X018891Y008060D01*
X018953Y008058D01*
X019014Y008052D01*
X019075Y008043D01*
X019136Y008029D01*
X019195Y008012D01*
X019253Y007991D01*
X019310Y007966D01*
X019365Y007938D01*
X019418Y007907D01*
X019469Y007872D01*
X019518Y007834D01*
X019565Y007793D01*
X019608Y007750D01*
X019649Y007703D01*
X019687Y007654D01*
X019722Y007603D01*
X019753Y007550D01*
X019781Y007495D01*
X019806Y007438D01*
X019827Y007380D01*
X019844Y007321D01*
X019858Y007260D01*
X019867Y007199D01*
X019873Y007138D01*
X019875Y007076D01*
M02*
