G75*
G70*
%OFA0B0*%
%FSLAX24Y24*%
%IPPOS*%
%LPD*%
%AMOC8*
5,1,8,0,0,1.08239X$1,22.5*
%
%ADD10R,0.0500X0.0500*%
%ADD11C,0.0500*%
%ADD12OC8,0.0520*%
%ADD13R,0.1181X0.1181*%
%ADD14C,0.0709*%
%ADD15R,0.0709X0.0709*%
%ADD16C,0.1000*%
%ADD17R,0.0630X0.0630*%
%ADD18C,0.0600*%
%ADD19C,0.0160*%
%ADD20R,0.0945X0.0945*%
%ADD21C,0.1181*%
%ADD22C,0.0400*%
D10*
X038576Y010635D03*
X038576Y034619D03*
D11*
X038576Y036619D03*
X038576Y008635D03*
D12*
X045269Y015828D03*
X045269Y016828D03*
X048025Y017221D03*
X048025Y016221D03*
X048025Y018977D03*
X048025Y019977D03*
X045269Y023308D03*
X045269Y024308D03*
X045269Y026064D03*
X045269Y027064D03*
X048418Y028820D03*
X048418Y029820D03*
X045269Y032363D03*
X045269Y033363D03*
X053438Y027753D03*
X053438Y026753D03*
D13*
X034639Y030501D03*
X034639Y022627D03*
X034639Y014753D03*
X003143Y019083D03*
X003143Y026170D03*
D14*
X045269Y028713D03*
X045269Y029713D03*
X052355Y029713D03*
X052355Y028713D03*
X052355Y019871D03*
X052355Y018871D03*
X045269Y018871D03*
X045269Y019871D03*
D15*
X045269Y020871D03*
X052355Y020871D03*
X052355Y030713D03*
X045269Y030713D03*
D16*
X004430Y028827D02*
X003430Y028827D01*
X003430Y037687D02*
X004430Y037687D01*
D17*
X047271Y010422D03*
X047271Y009635D03*
X047271Y008847D03*
X047271Y008060D03*
X047271Y007272D03*
X047271Y006485D03*
X047271Y005698D03*
X047271Y004910D03*
D18*
X040651Y027051D02*
X040651Y027651D01*
X039651Y027651D02*
X039651Y027051D01*
D19*
X001537Y043720D02*
X001537Y001533D01*
X057504Y001533D01*
X057504Y043720D01*
X001537Y043720D01*
X001537Y043713D02*
X057504Y043713D01*
X057504Y043554D02*
X001537Y043554D01*
X001537Y043396D02*
X057504Y043396D01*
X057504Y043237D02*
X001537Y043237D01*
X001537Y043079D02*
X057504Y043079D01*
X057504Y042920D02*
X001537Y042920D01*
X001537Y042762D02*
X002496Y042762D01*
X002608Y042792D02*
X002336Y042719D01*
X002092Y042578D01*
X001892Y042379D01*
X001751Y042134D01*
X001678Y041862D01*
X001678Y041580D01*
X001751Y041308D01*
X001892Y041064D01*
X002092Y040865D01*
X002336Y040724D01*
X002608Y040651D01*
X002890Y040651D01*
X003162Y040724D01*
X003406Y040865D01*
X003606Y041064D01*
X003747Y041308D01*
X003819Y041580D01*
X003819Y041862D01*
X003747Y042134D01*
X003606Y042379D01*
X003406Y042578D01*
X003162Y042719D01*
X002890Y042792D01*
X002608Y042792D01*
X003002Y042762D02*
X056039Y042762D01*
X056151Y042792D02*
X055879Y042719D01*
X055635Y042578D01*
X055436Y042379D01*
X055295Y042134D01*
X055222Y041862D01*
X055222Y041580D01*
X055295Y041308D01*
X055436Y041064D01*
X055635Y040865D01*
X055879Y040724D01*
X056151Y040651D01*
X056433Y040651D01*
X056705Y040724D01*
X056950Y040865D01*
X057149Y041064D01*
X057290Y041308D01*
X057363Y041580D01*
X057363Y041862D01*
X057290Y042134D01*
X057149Y042379D01*
X056950Y042578D01*
X056705Y042719D01*
X056433Y042792D01*
X056151Y042792D01*
X056545Y042762D02*
X057504Y042762D01*
X057504Y042603D02*
X056906Y042603D01*
X057083Y042445D02*
X057504Y042445D01*
X057504Y042286D02*
X057202Y042286D01*
X057292Y042128D02*
X057504Y042128D01*
X057504Y041969D02*
X057334Y041969D01*
X057363Y041811D02*
X057504Y041811D01*
X057504Y041652D02*
X057363Y041652D01*
X057339Y041493D02*
X057504Y041493D01*
X057504Y041335D02*
X057297Y041335D01*
X057214Y041176D02*
X057504Y041176D01*
X057504Y041018D02*
X057103Y041018D01*
X056940Y040859D02*
X057504Y040859D01*
X057504Y040701D02*
X056620Y040701D01*
X055965Y040701D02*
X003076Y040701D01*
X003397Y040859D02*
X055644Y040859D01*
X055482Y041018D02*
X003559Y041018D01*
X003670Y041176D02*
X055371Y041176D01*
X055287Y041335D02*
X003754Y041335D01*
X003796Y041493D02*
X055245Y041493D01*
X055222Y041652D02*
X003819Y041652D01*
X003819Y041811D02*
X055222Y041811D01*
X055250Y041969D02*
X003791Y041969D01*
X003748Y042128D02*
X055293Y042128D01*
X055382Y042286D02*
X003659Y042286D01*
X003539Y042445D02*
X055502Y042445D01*
X055679Y042603D02*
X003362Y042603D01*
X002136Y042603D02*
X001537Y042603D01*
X001537Y042445D02*
X001958Y042445D01*
X001839Y042286D02*
X001537Y042286D01*
X001537Y042128D02*
X001750Y042128D01*
X001707Y041969D02*
X001537Y041969D01*
X001537Y041811D02*
X001678Y041811D01*
X001678Y041652D02*
X001537Y041652D01*
X001537Y041493D02*
X001702Y041493D01*
X001744Y041335D02*
X001537Y041335D01*
X001537Y041176D02*
X001827Y041176D01*
X001938Y041018D02*
X001537Y041018D01*
X001537Y040859D02*
X002101Y040859D01*
X002421Y040701D02*
X001537Y040701D01*
X001537Y040542D02*
X057504Y040542D01*
X057504Y040384D02*
X001537Y040384D01*
X001537Y040225D02*
X057504Y040225D01*
X057504Y040067D02*
X001537Y040067D01*
X001537Y039908D02*
X057504Y039908D01*
X057504Y039749D02*
X001537Y039749D01*
X001537Y039591D02*
X057504Y039591D01*
X057504Y039432D02*
X001537Y039432D01*
X001537Y039274D02*
X057504Y039274D01*
X057504Y039115D02*
X001537Y039115D01*
X001537Y038957D02*
X057504Y038957D01*
X057504Y038798D02*
X001537Y038798D01*
X001537Y038640D02*
X057504Y038640D01*
X057504Y038481D02*
X001537Y038481D01*
X001537Y038323D02*
X003241Y038323D01*
X003299Y038347D02*
X003056Y038246D01*
X002871Y038061D01*
X002770Y037818D01*
X002770Y037555D01*
X002871Y037313D01*
X003056Y037127D01*
X003299Y037027D01*
X004561Y037027D01*
X004804Y037127D01*
X004990Y037313D01*
X005090Y037555D01*
X005090Y037818D01*
X004990Y038061D01*
X004804Y038246D01*
X004561Y038347D01*
X003299Y038347D01*
X002974Y038164D02*
X001537Y038164D01*
X001537Y038005D02*
X002848Y038005D01*
X002782Y037847D02*
X001537Y037847D01*
X001537Y037688D02*
X002770Y037688D01*
X002781Y037530D02*
X001537Y037530D01*
X001537Y037371D02*
X002846Y037371D01*
X002971Y037213D02*
X001537Y037213D01*
X001537Y037054D02*
X003232Y037054D01*
X004628Y037054D02*
X057504Y037054D01*
X057504Y036896D02*
X038907Y036896D01*
X038940Y036862D02*
X038819Y036983D01*
X038661Y037049D01*
X038576Y037049D01*
X038576Y036619D01*
X039006Y036619D01*
X039006Y036704D01*
X038940Y036862D01*
X038992Y036737D02*
X057504Y036737D01*
X057504Y036579D02*
X039006Y036579D01*
X039006Y036619D02*
X038576Y036619D01*
X038576Y036619D01*
X038576Y036619D01*
X038576Y037049D01*
X038490Y037049D01*
X038332Y036983D01*
X038211Y036862D01*
X038146Y036704D01*
X038146Y036619D01*
X038575Y036619D01*
X038575Y036619D01*
X038146Y036619D01*
X038146Y036533D01*
X038211Y036375D01*
X038332Y036254D01*
X038490Y036189D01*
X038576Y036189D01*
X038661Y036189D01*
X038819Y036254D01*
X038940Y036375D01*
X039006Y036533D01*
X039006Y036619D01*
X038959Y036420D02*
X057504Y036420D01*
X057504Y036261D02*
X038826Y036261D01*
X038576Y036261D02*
X038576Y036261D01*
X038576Y036189D02*
X038576Y036618D01*
X038576Y036618D01*
X038576Y036189D01*
X038576Y036420D02*
X038576Y036420D01*
X038576Y036579D02*
X038576Y036579D01*
X038576Y036737D02*
X038576Y036737D01*
X038576Y036896D02*
X038576Y036896D01*
X038244Y036896D02*
X001537Y036896D01*
X001537Y036737D02*
X038159Y036737D01*
X038146Y036579D02*
X001537Y036579D01*
X001537Y036420D02*
X038193Y036420D01*
X038325Y036261D02*
X001537Y036261D01*
X001537Y036103D02*
X057504Y036103D01*
X057504Y035944D02*
X001537Y035944D01*
X001537Y035786D02*
X057504Y035786D01*
X057504Y035627D02*
X001537Y035627D01*
X001537Y035469D02*
X057504Y035469D01*
X057504Y035310D02*
X001537Y035310D01*
X001537Y035152D02*
X057504Y035152D01*
X057504Y034993D02*
X038928Y034993D01*
X038892Y035029D02*
X038986Y034935D01*
X038986Y034303D01*
X038892Y034209D01*
X038259Y034209D01*
X038166Y034303D01*
X038166Y034935D01*
X038259Y035029D01*
X038892Y035029D01*
X038986Y034835D02*
X057504Y034835D01*
X057504Y034676D02*
X038986Y034676D01*
X038986Y034518D02*
X057504Y034518D01*
X057504Y034359D02*
X038986Y034359D01*
X038166Y034359D02*
X001537Y034359D01*
X001537Y034518D02*
X038166Y034518D01*
X038166Y034676D02*
X001537Y034676D01*
X001537Y034835D02*
X038166Y034835D01*
X038224Y034993D02*
X001537Y034993D01*
X001537Y034200D02*
X057504Y034200D01*
X057504Y034042D02*
X001537Y034042D01*
X001537Y033883D02*
X057504Y033883D01*
X057504Y033725D02*
X045529Y033725D01*
X045451Y033803D02*
X045709Y033545D01*
X045709Y033363D01*
X045269Y033363D01*
X045269Y033363D01*
X045709Y033363D01*
X045709Y033181D01*
X045451Y032923D01*
X045269Y032923D01*
X045269Y033363D01*
X045268Y033363D01*
X045268Y033363D01*
X044829Y033363D01*
X044829Y033545D01*
X045086Y033803D01*
X045268Y033803D01*
X045268Y033363D01*
X044829Y033363D01*
X044829Y033181D01*
X045086Y032923D01*
X045268Y032923D01*
X045268Y033363D01*
X045269Y033363D01*
X045269Y033803D01*
X045451Y033803D01*
X045268Y033725D02*
X045269Y033725D01*
X045268Y033566D02*
X045269Y033566D01*
X045268Y033408D02*
X045269Y033408D01*
X045268Y033249D02*
X045269Y033249D01*
X045268Y033091D02*
X045269Y033091D01*
X045268Y032932D02*
X045269Y032932D01*
X045460Y032932D02*
X057504Y032932D01*
X057504Y032774D02*
X045452Y032774D01*
X045443Y032783D02*
X045095Y032783D01*
X044849Y032537D01*
X044849Y032189D01*
X045095Y031943D01*
X045443Y031943D01*
X045689Y032189D01*
X045689Y032537D01*
X045443Y032783D01*
X045611Y032615D02*
X057504Y032615D01*
X057504Y032456D02*
X045689Y032456D01*
X045689Y032298D02*
X057504Y032298D01*
X057504Y032139D02*
X045639Y032139D01*
X045480Y031981D02*
X057504Y031981D01*
X057504Y031822D02*
X001537Y031822D01*
X001537Y031664D02*
X057504Y031664D01*
X057504Y031505D02*
X001537Y031505D01*
X001537Y031347D02*
X057504Y031347D01*
X057504Y031188D02*
X052815Y031188D01*
X052776Y031228D02*
X052870Y031134D01*
X052870Y030293D01*
X052776Y030199D01*
X052527Y030199D01*
X052647Y030149D01*
X052791Y030005D01*
X052870Y029816D01*
X052870Y029611D01*
X052791Y029422D01*
X052647Y029277D01*
X052492Y029213D01*
X052647Y029149D01*
X052791Y029005D01*
X052870Y028816D01*
X052870Y028611D01*
X052791Y028422D01*
X052647Y028277D01*
X052458Y028199D01*
X052253Y028199D01*
X052064Y028277D01*
X051919Y028422D01*
X051841Y028611D01*
X051841Y028816D01*
X051919Y029005D01*
X052064Y029149D01*
X052218Y029213D01*
X052064Y029277D01*
X051919Y029422D01*
X051841Y029611D01*
X051841Y029816D01*
X051919Y030005D01*
X052064Y030149D01*
X052184Y030199D01*
X051935Y030199D01*
X051841Y030293D01*
X051841Y031134D01*
X051935Y031228D01*
X052776Y031228D01*
X052870Y031030D02*
X057504Y031030D01*
X057504Y030871D02*
X052870Y030871D01*
X052870Y030712D02*
X057504Y030712D01*
X057504Y030554D02*
X052870Y030554D01*
X052870Y030395D02*
X057504Y030395D01*
X057504Y030237D02*
X052814Y030237D01*
X052718Y030078D02*
X057504Y030078D01*
X057504Y029920D02*
X052826Y029920D01*
X052870Y029761D02*
X057504Y029761D01*
X057504Y029603D02*
X052866Y029603D01*
X052800Y029444D02*
X057504Y029444D01*
X057504Y029286D02*
X052655Y029286D01*
X052669Y029127D02*
X057504Y029127D01*
X057504Y028969D02*
X052806Y028969D01*
X052870Y028810D02*
X057504Y028810D01*
X057504Y028651D02*
X052870Y028651D01*
X052821Y028493D02*
X057504Y028493D01*
X057504Y028334D02*
X052704Y028334D01*
X053109Y028017D02*
X040935Y028017D01*
X040911Y028041D02*
X040742Y028111D01*
X040559Y028111D01*
X040390Y028041D01*
X040261Y027912D01*
X040191Y027743D01*
X040191Y026960D01*
X040261Y026791D01*
X040390Y026661D01*
X040559Y026591D01*
X040742Y026591D01*
X040911Y026661D01*
X041040Y026791D01*
X041111Y026960D01*
X041111Y027743D01*
X041040Y027912D01*
X040911Y028041D01*
X041062Y027859D02*
X053018Y027859D01*
X053018Y027927D02*
X053018Y027579D01*
X053264Y027333D01*
X053612Y027333D01*
X053858Y027579D01*
X053858Y027927D01*
X053612Y028173D01*
X053264Y028173D01*
X053018Y027927D01*
X053018Y027700D02*
X041111Y027700D01*
X041111Y027542D02*
X053055Y027542D01*
X053214Y027383D02*
X045543Y027383D01*
X045443Y027484D02*
X045689Y027238D01*
X045689Y026890D01*
X045443Y026644D01*
X045095Y026644D01*
X044849Y026890D01*
X044849Y027238D01*
X045095Y027484D01*
X045443Y027484D01*
X045689Y027225D02*
X057504Y027225D01*
X057504Y027383D02*
X053662Y027383D01*
X053620Y027193D02*
X053438Y027193D01*
X053438Y026753D01*
X053438Y026753D01*
X053438Y027193D01*
X053256Y027193D01*
X052998Y026935D01*
X052998Y026753D01*
X053438Y026753D01*
X053878Y026753D01*
X053878Y026935D01*
X053620Y027193D01*
X053747Y027066D02*
X057504Y027066D01*
X057504Y026907D02*
X053878Y026907D01*
X053878Y026753D02*
X053438Y026753D01*
X053438Y026753D01*
X053438Y026753D01*
X052998Y026753D01*
X052998Y026571D01*
X053256Y026313D01*
X053438Y026313D01*
X053620Y026313D01*
X053878Y026571D01*
X053878Y026753D01*
X053878Y026749D02*
X057504Y026749D01*
X057504Y026590D02*
X053878Y026590D01*
X053739Y026432D02*
X057504Y026432D01*
X057504Y026273D02*
X045681Y026273D01*
X045709Y026246D02*
X045451Y026504D01*
X045269Y026504D01*
X045269Y026064D01*
X045709Y026064D01*
X045709Y026246D01*
X045709Y026115D02*
X057504Y026115D01*
X057504Y025956D02*
X045709Y025956D01*
X045709Y025882D02*
X045709Y026064D01*
X045269Y026064D01*
X045269Y026064D01*
X045268Y026064D01*
X045268Y026064D01*
X044829Y026064D01*
X044829Y026246D01*
X045086Y026504D01*
X045268Y026504D01*
X045268Y026064D01*
X044829Y026064D01*
X044829Y025882D01*
X045086Y025624D01*
X045268Y025624D01*
X045268Y026063D01*
X045269Y026063D01*
X045269Y025624D01*
X045451Y025624D01*
X045709Y025882D01*
X045625Y025798D02*
X057504Y025798D01*
X057504Y025639D02*
X045466Y025639D01*
X045269Y025639D02*
X045268Y025639D01*
X045268Y025798D02*
X045269Y025798D01*
X045268Y025956D02*
X045269Y025956D01*
X045268Y026115D02*
X045269Y026115D01*
X045268Y026273D02*
X045269Y026273D01*
X045268Y026432D02*
X045269Y026432D01*
X045523Y026432D02*
X053137Y026432D01*
X052998Y026590D02*
X039792Y026590D01*
X039746Y026571D02*
X039922Y026644D01*
X040057Y026779D01*
X040131Y026956D01*
X040131Y027331D01*
X039671Y027331D01*
X039671Y027371D01*
X040131Y027371D01*
X040131Y027747D01*
X040057Y027923D01*
X039922Y028058D01*
X039746Y028131D01*
X039671Y028131D01*
X039671Y027371D01*
X039630Y027371D01*
X039630Y027331D01*
X039171Y027331D01*
X039171Y026956D01*
X039244Y026779D01*
X039379Y026644D01*
X039555Y026571D01*
X039630Y026571D01*
X039630Y027331D01*
X039671Y027331D01*
X039671Y026571D01*
X039746Y026571D01*
X039671Y026590D02*
X039630Y026590D01*
X039509Y026590D02*
X003893Y026590D01*
X003893Y026432D02*
X045014Y026432D01*
X044856Y026273D02*
X003893Y026273D01*
X003893Y026115D02*
X044829Y026115D01*
X044829Y025956D02*
X003893Y025956D01*
X003893Y025798D02*
X044913Y025798D01*
X045071Y025639D02*
X003893Y025639D01*
X003893Y025513D02*
X003799Y025420D01*
X002486Y025420D01*
X002392Y025513D01*
X002392Y026827D01*
X002486Y026921D01*
X003799Y026921D01*
X003893Y026827D01*
X003893Y025513D01*
X003861Y025481D02*
X057504Y025481D01*
X057504Y025322D02*
X001537Y025322D01*
X001537Y025163D02*
X057504Y025163D01*
X057504Y025005D02*
X001537Y025005D01*
X001537Y024846D02*
X057504Y024846D01*
X057504Y024688D02*
X045511Y024688D01*
X045451Y024748D02*
X045709Y024490D01*
X045709Y024308D01*
X045269Y024308D01*
X045269Y024308D01*
X045268Y024308D01*
X045268Y024308D01*
X044829Y024308D01*
X044829Y024490D01*
X045086Y024748D01*
X045268Y024748D01*
X045268Y024308D01*
X044829Y024308D01*
X044829Y024126D01*
X045086Y023868D01*
X045268Y023868D01*
X045268Y024307D01*
X045269Y024307D01*
X045269Y023868D01*
X045451Y023868D01*
X045709Y024126D01*
X045709Y024308D01*
X045269Y024308D01*
X045269Y024748D01*
X045451Y024748D01*
X045269Y024688D02*
X045268Y024688D01*
X045268Y024529D02*
X045269Y024529D01*
X045268Y024371D02*
X045269Y024371D01*
X045268Y024212D02*
X045269Y024212D01*
X045268Y024054D02*
X045269Y024054D01*
X045268Y023895D02*
X045269Y023895D01*
X045478Y023895D02*
X057504Y023895D01*
X057504Y023737D02*
X001537Y023737D01*
X001537Y023895D02*
X045059Y023895D01*
X045095Y023728D02*
X044849Y023482D01*
X044849Y023134D01*
X045095Y022888D01*
X045443Y022888D01*
X045689Y023134D01*
X045689Y023482D01*
X045443Y023728D01*
X045095Y023728D01*
X044945Y023578D02*
X001537Y023578D01*
X001537Y023419D02*
X044849Y023419D01*
X044849Y023261D02*
X035409Y023261D01*
X035409Y023292D02*
X035304Y023397D01*
X034719Y023397D01*
X034719Y022707D01*
X035409Y022707D01*
X035409Y023292D01*
X035409Y023102D02*
X044880Y023102D01*
X045039Y022944D02*
X035409Y022944D01*
X035409Y022785D02*
X057504Y022785D01*
X057504Y022627D02*
X034719Y022627D01*
X034719Y022547D02*
X034719Y022707D01*
X034559Y022707D01*
X034559Y023397D01*
X033974Y023397D01*
X033868Y023292D01*
X033868Y022707D01*
X034559Y022707D01*
X034559Y022547D01*
X034719Y022547D01*
X035409Y022547D01*
X035409Y021962D01*
X035304Y021856D01*
X034719Y021856D01*
X034719Y022547D01*
X034719Y022468D02*
X034559Y022468D01*
X034559Y022547D02*
X034559Y021856D01*
X033974Y021856D01*
X033868Y021962D01*
X033868Y022547D01*
X034559Y022547D01*
X034559Y022627D02*
X001537Y022627D01*
X001537Y022785D02*
X033868Y022785D01*
X033868Y022944D02*
X001537Y022944D01*
X001537Y023102D02*
X033868Y023102D01*
X033868Y023261D02*
X001537Y023261D01*
X001537Y024054D02*
X044901Y024054D01*
X044829Y024212D02*
X001537Y024212D01*
X001537Y024371D02*
X044829Y024371D01*
X044868Y024529D02*
X001537Y024529D01*
X001537Y024688D02*
X045026Y024688D01*
X045669Y024529D02*
X057504Y024529D01*
X057504Y024371D02*
X045709Y024371D01*
X045709Y024212D02*
X057504Y024212D01*
X057504Y024054D02*
X045637Y024054D01*
X045592Y023578D02*
X057504Y023578D01*
X057504Y023419D02*
X045689Y023419D01*
X045689Y023261D02*
X057504Y023261D01*
X057504Y023102D02*
X045657Y023102D01*
X045499Y022944D02*
X057504Y022944D01*
X057504Y022468D02*
X035409Y022468D01*
X035409Y022310D02*
X057504Y022310D01*
X057504Y022151D02*
X035409Y022151D01*
X035409Y021993D02*
X057504Y021993D01*
X057504Y021834D02*
X001537Y021834D01*
X001537Y021676D02*
X057504Y021676D01*
X057504Y021517D02*
X001537Y021517D01*
X001537Y021358D02*
X044793Y021358D01*
X044840Y021405D02*
X044734Y021300D01*
X044734Y020909D01*
X045230Y020909D01*
X045230Y020833D01*
X044734Y020833D01*
X044734Y020442D01*
X044840Y020337D01*
X045049Y020337D01*
X044977Y020307D01*
X044833Y020162D01*
X044754Y019973D01*
X044754Y019769D01*
X044833Y019579D01*
X044977Y019435D01*
X045132Y019371D01*
X044977Y019307D01*
X044833Y019162D01*
X044754Y018973D01*
X044754Y018769D01*
X044833Y018579D01*
X044977Y018435D01*
X045166Y018357D01*
X045371Y018357D01*
X045560Y018435D01*
X045705Y018579D01*
X045783Y018769D01*
X045783Y018973D01*
X045705Y019162D01*
X045560Y019307D01*
X045405Y019371D01*
X045560Y019435D01*
X045705Y019579D01*
X045783Y019769D01*
X045783Y019973D01*
X045705Y020162D01*
X045560Y020307D01*
X045488Y020337D01*
X045698Y020337D01*
X045803Y020442D01*
X045803Y020833D01*
X045307Y020833D01*
X045307Y020909D01*
X045803Y020909D01*
X045803Y021300D01*
X045698Y021405D01*
X045307Y021405D01*
X045307Y020909D01*
X045230Y020909D01*
X045230Y021405D01*
X044840Y021405D01*
X044734Y021200D02*
X001537Y021200D01*
X001537Y021041D02*
X044734Y021041D01*
X044734Y020724D02*
X001537Y020724D01*
X001537Y020566D02*
X044734Y020566D01*
X044769Y020407D02*
X001537Y020407D01*
X001537Y020249D02*
X044919Y020249D01*
X044803Y020090D02*
X001537Y020090D01*
X001537Y019932D02*
X044754Y019932D01*
X044754Y019773D02*
X003860Y019773D01*
X003893Y019740D02*
X003799Y019834D01*
X002486Y019834D01*
X002392Y019740D01*
X002392Y018427D01*
X002486Y018333D01*
X003799Y018333D01*
X003893Y018427D01*
X003893Y019740D01*
X003893Y019614D02*
X044818Y019614D01*
X044956Y019456D02*
X003893Y019456D01*
X003893Y019297D02*
X044968Y019297D01*
X044823Y019139D02*
X003893Y019139D01*
X003893Y018980D02*
X044757Y018980D01*
X044754Y018822D02*
X003893Y018822D01*
X003893Y018663D02*
X044798Y018663D01*
X044907Y018505D02*
X003893Y018505D01*
X003813Y018346D02*
X057504Y018346D01*
X057504Y018188D02*
X001537Y018188D01*
X001537Y018346D02*
X002473Y018346D01*
X002392Y018505D02*
X001537Y018505D01*
X001537Y018663D02*
X002392Y018663D01*
X002392Y018822D02*
X001537Y018822D01*
X001537Y018980D02*
X002392Y018980D01*
X002392Y019139D02*
X001537Y019139D01*
X001537Y019297D02*
X002392Y019297D01*
X002392Y019456D02*
X001537Y019456D01*
X001537Y019614D02*
X002392Y019614D01*
X002425Y019773D02*
X001537Y019773D01*
X001537Y020883D02*
X045230Y020883D01*
X045307Y020883D02*
X051841Y020883D01*
X051841Y021041D02*
X045803Y021041D01*
X045803Y021200D02*
X051841Y021200D01*
X051841Y021291D02*
X051841Y020450D01*
X051935Y020357D01*
X052184Y020357D01*
X052064Y020307D01*
X051919Y020162D01*
X051841Y019973D01*
X051841Y019769D01*
X051919Y019579D01*
X052064Y019435D01*
X052218Y019371D01*
X052064Y019307D01*
X051919Y019162D01*
X051841Y018973D01*
X051841Y018769D01*
X051919Y018579D01*
X052064Y018435D01*
X052253Y018357D01*
X052458Y018357D01*
X052647Y018435D01*
X052791Y018579D01*
X052870Y018769D01*
X052870Y018973D01*
X052791Y019162D01*
X052647Y019307D01*
X052492Y019371D01*
X052647Y019435D01*
X052791Y019579D01*
X052870Y019769D01*
X052870Y019973D01*
X052791Y020162D01*
X052647Y020307D01*
X052527Y020357D01*
X052776Y020357D01*
X052870Y020450D01*
X052870Y021291D01*
X052776Y021385D01*
X051935Y021385D01*
X051841Y021291D01*
X051908Y021358D02*
X045744Y021358D01*
X045307Y021358D02*
X045230Y021358D01*
X045230Y021200D02*
X045307Y021200D01*
X045307Y021041D02*
X045230Y021041D01*
X045803Y020724D02*
X051841Y020724D01*
X051841Y020566D02*
X045803Y020566D01*
X045768Y020407D02*
X051884Y020407D01*
X052006Y020249D02*
X048347Y020249D01*
X048445Y020151D02*
X048199Y020397D01*
X047851Y020397D01*
X047605Y020151D01*
X047605Y019803D01*
X047851Y019557D01*
X048199Y019557D01*
X048445Y019803D01*
X048445Y020151D01*
X048445Y020090D02*
X051889Y020090D01*
X051841Y019932D02*
X048445Y019932D01*
X048414Y019773D02*
X051841Y019773D01*
X051905Y019614D02*
X048256Y019614D01*
X048207Y019417D02*
X048025Y019417D01*
X048025Y018978D01*
X048024Y018978D01*
X048024Y019417D01*
X047842Y019417D01*
X047585Y019159D01*
X047585Y018977D01*
X047585Y018795D01*
X047842Y018537D01*
X048024Y018537D01*
X048024Y018977D01*
X047585Y018977D01*
X048024Y018977D01*
X048024Y018977D01*
X048025Y018977D01*
X048025Y018977D01*
X048465Y018977D01*
X048465Y018795D01*
X048207Y018537D01*
X048025Y018537D01*
X048025Y018977D01*
X048465Y018977D01*
X048465Y019159D01*
X048207Y019417D01*
X048327Y019297D02*
X052054Y019297D01*
X052043Y019456D02*
X045581Y019456D01*
X045569Y019297D02*
X047723Y019297D01*
X047585Y019139D02*
X045714Y019139D01*
X045780Y018980D02*
X047585Y018980D01*
X047585Y018822D02*
X045783Y018822D01*
X045739Y018663D02*
X047716Y018663D01*
X048024Y018663D02*
X048025Y018663D01*
X048024Y018822D02*
X048025Y018822D01*
X048024Y018980D02*
X048025Y018980D01*
X048024Y019139D02*
X048025Y019139D01*
X048024Y019297D02*
X048025Y019297D01*
X047793Y019614D02*
X045719Y019614D01*
X045783Y019773D02*
X047635Y019773D01*
X047605Y019932D02*
X045783Y019932D01*
X045735Y020090D02*
X047605Y020090D01*
X047702Y020249D02*
X045618Y020249D01*
X045630Y018505D02*
X051994Y018505D01*
X051885Y018663D02*
X048333Y018663D01*
X048465Y018822D02*
X051841Y018822D01*
X051844Y018980D02*
X048465Y018980D01*
X048465Y019139D02*
X051910Y019139D01*
X052656Y019297D02*
X057504Y019297D01*
X057504Y019139D02*
X052801Y019139D01*
X052867Y018980D02*
X057504Y018980D01*
X057504Y018822D02*
X052870Y018822D01*
X052826Y018663D02*
X057504Y018663D01*
X057504Y018505D02*
X052716Y018505D01*
X052668Y019456D02*
X057504Y019456D01*
X057504Y019614D02*
X052806Y019614D01*
X052870Y019773D02*
X057504Y019773D01*
X057504Y019932D02*
X052870Y019932D01*
X052821Y020090D02*
X057504Y020090D01*
X057504Y020249D02*
X052705Y020249D01*
X052826Y020407D02*
X057504Y020407D01*
X057504Y020566D02*
X052870Y020566D01*
X052870Y020724D02*
X057504Y020724D01*
X057504Y020883D02*
X052870Y020883D01*
X052870Y021041D02*
X057504Y021041D01*
X057504Y021200D02*
X052870Y021200D01*
X052803Y021358D02*
X057504Y021358D01*
X057504Y018029D02*
X001537Y018029D01*
X001537Y017870D02*
X057504Y017870D01*
X057504Y017712D02*
X001537Y017712D01*
X001537Y017553D02*
X047763Y017553D01*
X047851Y017641D02*
X047605Y017395D01*
X001537Y017395D01*
X001537Y017236D02*
X045083Y017236D01*
X045095Y017248D02*
X044849Y017001D01*
X044849Y016654D01*
X045095Y016408D01*
X045443Y016408D01*
X045689Y016654D01*
X045689Y017001D01*
X045443Y017248D01*
X045095Y017248D01*
X044925Y017078D02*
X001537Y017078D01*
X001537Y016919D02*
X044849Y016919D01*
X044849Y016761D02*
X001537Y016761D01*
X001537Y016602D02*
X044900Y016602D01*
X045059Y016444D02*
X001537Y016444D01*
X001537Y016285D02*
X047585Y016285D01*
X047585Y016221D02*
X048024Y016221D01*
X047585Y016221D01*
X047585Y016039D01*
X047842Y015781D01*
X048024Y015781D01*
X048024Y016221D01*
X048024Y016221D01*
X048025Y016221D01*
X048025Y016221D01*
X048465Y016221D01*
X048465Y016039D01*
X048207Y015781D01*
X048025Y015781D01*
X048025Y016221D01*
X048465Y016221D01*
X048465Y016403D01*
X048207Y016661D01*
X048025Y016661D01*
X048025Y016222D01*
X048024Y016222D01*
X048024Y016661D01*
X047842Y016661D01*
X047585Y016403D01*
X047585Y016221D01*
X047585Y016126D02*
X045592Y016126D01*
X045709Y016010D02*
X045451Y016268D01*
X045269Y016268D01*
X045269Y015828D01*
X045268Y015828D01*
X045268Y015827D01*
X044829Y015827D01*
X044829Y015645D01*
X045086Y015388D01*
X045268Y015388D01*
X045268Y015827D01*
X045269Y015827D01*
X045269Y015388D01*
X045451Y015388D01*
X045709Y015645D01*
X045709Y015827D01*
X045269Y015827D01*
X045269Y015828D01*
X045709Y015828D01*
X045709Y016010D01*
X045709Y015968D02*
X047656Y015968D01*
X047814Y015809D02*
X045709Y015809D01*
X045709Y015651D02*
X057504Y015651D01*
X057504Y015809D02*
X048235Y015809D01*
X048025Y015809D02*
X048024Y015809D01*
X048024Y015968D02*
X048025Y015968D01*
X048024Y016126D02*
X048025Y016126D01*
X048024Y016285D02*
X048025Y016285D01*
X048024Y016444D02*
X048025Y016444D01*
X048024Y016602D02*
X048025Y016602D01*
X048266Y016602D02*
X057504Y016602D01*
X057504Y016444D02*
X048424Y016444D01*
X048465Y016285D02*
X057504Y016285D01*
X057504Y016126D02*
X048465Y016126D01*
X048393Y015968D02*
X057504Y015968D01*
X057504Y015492D02*
X045556Y015492D01*
X045269Y015492D02*
X045268Y015492D01*
X045268Y015651D02*
X045269Y015651D01*
X045268Y015809D02*
X045269Y015809D01*
X045268Y015828D02*
X044829Y015828D01*
X044829Y016010D01*
X045086Y016268D01*
X045268Y016268D01*
X045268Y015828D01*
X045268Y015968D02*
X045269Y015968D01*
X045268Y016126D02*
X045269Y016126D01*
X044945Y016126D02*
X001537Y016126D01*
X001537Y015968D02*
X044829Y015968D01*
X044829Y015809D02*
X001537Y015809D01*
X001537Y015651D02*
X044829Y015651D01*
X044982Y015492D02*
X035306Y015492D01*
X035296Y015503D02*
X033982Y015503D01*
X033888Y015410D01*
X033888Y014096D01*
X033982Y014002D01*
X035296Y014002D01*
X035389Y014096D01*
X035389Y015410D01*
X035296Y015503D01*
X035389Y015334D02*
X057504Y015334D01*
X057504Y015175D02*
X035389Y015175D01*
X035389Y015017D02*
X057504Y015017D01*
X057504Y014858D02*
X035389Y014858D01*
X035389Y014700D02*
X057504Y014700D01*
X057504Y014541D02*
X035389Y014541D01*
X035389Y014383D02*
X057504Y014383D01*
X057504Y014224D02*
X035389Y014224D01*
X035359Y014065D02*
X057504Y014065D01*
X057504Y013907D02*
X001537Y013907D01*
X001537Y014065D02*
X033919Y014065D01*
X033888Y014224D02*
X001537Y014224D01*
X001537Y014383D02*
X033888Y014383D01*
X033888Y014541D02*
X001537Y014541D01*
X001537Y014700D02*
X033888Y014700D01*
X033888Y014858D02*
X001537Y014858D01*
X001537Y015017D02*
X033888Y015017D01*
X033888Y015175D02*
X001537Y015175D01*
X001537Y015334D02*
X033888Y015334D01*
X033971Y015492D02*
X001537Y015492D01*
X001537Y013748D02*
X057504Y013748D01*
X057504Y013590D02*
X001537Y013590D01*
X001537Y013431D02*
X057504Y013431D01*
X057504Y013273D02*
X001537Y013273D01*
X001537Y013114D02*
X057504Y013114D01*
X057504Y012956D02*
X001537Y012956D01*
X001537Y012797D02*
X057504Y012797D01*
X057504Y012639D02*
X001537Y012639D01*
X001537Y012480D02*
X057504Y012480D01*
X057504Y012321D02*
X001537Y012321D01*
X001537Y012163D02*
X057504Y012163D01*
X057504Y012004D02*
X001537Y012004D01*
X001537Y011846D02*
X057504Y011846D01*
X057504Y011687D02*
X001537Y011687D01*
X001537Y011529D02*
X057504Y011529D01*
X057504Y011370D02*
X001537Y011370D01*
X001537Y011212D02*
X057504Y011212D01*
X057504Y011053D02*
X038912Y011053D01*
X038900Y011065D02*
X038576Y011065D01*
X038576Y010635D01*
X038576Y010635D01*
X039006Y010635D01*
X039006Y010959D01*
X038900Y011065D01*
X039006Y010895D02*
X046859Y010895D01*
X046881Y010917D02*
X046776Y010812D01*
X046776Y010422D01*
X046776Y010033D01*
X046796Y010013D01*
X046796Y009253D01*
X046808Y009241D01*
X046796Y009228D01*
X046796Y008466D01*
X046808Y008454D01*
X046796Y008441D01*
X046796Y007679D01*
X046808Y007666D01*
X046796Y007654D01*
X046796Y006891D01*
X046808Y006879D01*
X046796Y006866D01*
X046796Y006104D01*
X046808Y006091D01*
X046796Y006079D01*
X046796Y005316D01*
X046808Y005304D01*
X046796Y005291D01*
X046796Y004529D01*
X046889Y004435D01*
X047652Y004435D01*
X047746Y004529D01*
X047746Y005291D01*
X047733Y005304D01*
X047746Y005316D01*
X047746Y006079D01*
X047733Y006091D01*
X047746Y006104D01*
X047746Y006866D01*
X047733Y006879D01*
X047746Y006891D01*
X047746Y007654D01*
X047733Y007666D01*
X047746Y007679D01*
X047746Y008441D01*
X047733Y008454D01*
X047746Y008466D01*
X047746Y009228D01*
X047733Y009241D01*
X047746Y009253D01*
X047746Y010013D01*
X047766Y010033D01*
X047766Y010422D01*
X047766Y010812D01*
X047660Y010917D01*
X047271Y010917D01*
X047271Y010422D01*
X047766Y010422D01*
X047271Y010422D01*
X047271Y010422D01*
X047270Y010422D01*
X046776Y010422D01*
X047270Y010422D01*
X047270Y010422D01*
X047270Y010917D01*
X046881Y010917D01*
X046776Y010736D02*
X039006Y010736D01*
X039006Y010634D02*
X039006Y010310D01*
X038900Y010205D01*
X038576Y010205D01*
X038576Y010634D01*
X038576Y010634D01*
X038576Y010635D01*
X038576Y011065D01*
X038251Y011065D01*
X038146Y010959D01*
X038146Y010635D01*
X038575Y010635D01*
X038575Y010634D01*
X038146Y010634D01*
X038146Y010310D01*
X038251Y010205D01*
X038576Y010205D01*
X038576Y010634D01*
X039006Y010634D01*
X039006Y010577D02*
X046776Y010577D01*
X046776Y010419D02*
X039006Y010419D01*
X038956Y010260D02*
X046776Y010260D01*
X046776Y010102D02*
X001537Y010102D01*
X001537Y010260D02*
X038195Y010260D01*
X038146Y010419D02*
X001537Y010419D01*
X001537Y010577D02*
X038146Y010577D01*
X038146Y010736D02*
X001537Y010736D01*
X001537Y010895D02*
X038146Y010895D01*
X038240Y011053D02*
X001537Y011053D01*
X001537Y009943D02*
X046796Y009943D01*
X046796Y009785D02*
X001537Y009785D01*
X001537Y009626D02*
X046796Y009626D01*
X046796Y009468D02*
X001537Y009468D01*
X001537Y009309D02*
X046796Y009309D01*
X046796Y009151D02*
X001537Y009151D01*
X001537Y008992D02*
X038367Y008992D01*
X038344Y008982D02*
X038228Y008867D01*
X038166Y008716D01*
X038166Y008553D01*
X038228Y008402D01*
X038344Y008287D01*
X038494Y008225D01*
X038657Y008225D01*
X038808Y008287D01*
X038923Y008402D01*
X038986Y008553D01*
X038986Y008716D01*
X038923Y008867D01*
X038808Y008982D01*
X038657Y009045D01*
X038494Y009045D01*
X038344Y008982D01*
X038214Y008834D02*
X001537Y008834D01*
X001537Y008675D02*
X038166Y008675D01*
X038181Y008516D02*
X001537Y008516D01*
X001537Y008358D02*
X038273Y008358D01*
X038879Y008358D02*
X046796Y008358D01*
X046796Y008516D02*
X038971Y008516D01*
X038986Y008675D02*
X046796Y008675D01*
X046796Y008834D02*
X038937Y008834D01*
X038784Y008992D02*
X046796Y008992D01*
X046796Y008199D02*
X001537Y008199D01*
X001537Y008041D02*
X046796Y008041D01*
X046796Y007882D02*
X001537Y007882D01*
X001537Y007724D02*
X046796Y007724D01*
X046796Y007565D02*
X001537Y007565D01*
X001537Y007407D02*
X046796Y007407D01*
X046796Y007248D02*
X001537Y007248D01*
X001537Y007090D02*
X046796Y007090D01*
X046796Y006931D02*
X001537Y006931D01*
X001537Y006772D02*
X046796Y006772D01*
X046796Y006614D02*
X001537Y006614D01*
X001537Y006455D02*
X046796Y006455D01*
X046796Y006297D02*
X001537Y006297D01*
X001537Y006138D02*
X046796Y006138D01*
X046796Y005980D02*
X001537Y005980D01*
X001537Y005821D02*
X046796Y005821D01*
X046796Y005663D02*
X001537Y005663D01*
X001537Y005504D02*
X046796Y005504D01*
X046796Y005346D02*
X001537Y005346D01*
X001537Y005187D02*
X046796Y005187D01*
X046796Y005028D02*
X001537Y005028D01*
X001537Y004870D02*
X036843Y004870D01*
X036852Y004873D02*
X036576Y004759D01*
X036365Y004548D01*
X036250Y004272D01*
X036250Y003974D01*
X036365Y003698D01*
X036576Y003487D01*
X036852Y003372D01*
X037150Y003372D01*
X037426Y003487D01*
X037637Y003698D01*
X037751Y003974D01*
X037751Y004272D01*
X037637Y004548D01*
X037426Y004759D01*
X037150Y004873D01*
X036852Y004873D01*
X037159Y004870D02*
X039206Y004870D01*
X039214Y004873D02*
X038938Y004759D01*
X038727Y004548D01*
X038613Y004272D01*
X038613Y003974D01*
X038727Y003698D01*
X038938Y003487D01*
X039214Y003372D01*
X039512Y003372D01*
X039788Y003487D01*
X039999Y003698D01*
X040114Y003974D01*
X040114Y004272D01*
X039999Y004548D01*
X039788Y004759D01*
X039512Y004873D01*
X039214Y004873D01*
X039521Y004870D02*
X041568Y004870D01*
X041576Y004873D02*
X041300Y004759D01*
X041089Y004548D01*
X040975Y004272D01*
X040975Y003974D01*
X041089Y003698D01*
X041300Y003487D01*
X041576Y003372D01*
X041875Y003372D01*
X042150Y003487D01*
X042362Y003698D01*
X042476Y003974D01*
X042476Y004272D01*
X042362Y004548D01*
X042150Y004759D01*
X041875Y004873D01*
X041576Y004873D01*
X041883Y004870D02*
X043930Y004870D01*
X043938Y004873D02*
X043662Y004759D01*
X043451Y004548D01*
X043337Y004272D01*
X043337Y003974D01*
X043451Y003698D01*
X043662Y003487D01*
X043938Y003372D01*
X044237Y003372D01*
X044513Y003487D01*
X044724Y003698D01*
X044838Y003974D01*
X044838Y004272D01*
X044724Y004548D01*
X044513Y004759D01*
X044237Y004873D01*
X043938Y004873D01*
X044245Y004870D02*
X046796Y004870D01*
X046796Y004711D02*
X044560Y004711D01*
X044719Y004553D02*
X046796Y004553D01*
X047746Y004553D02*
X057504Y004553D01*
X057504Y004711D02*
X047746Y004711D01*
X047746Y004870D02*
X057504Y004870D01*
X057504Y005028D02*
X047746Y005028D01*
X047746Y005187D02*
X057504Y005187D01*
X057504Y005346D02*
X047746Y005346D01*
X047746Y005504D02*
X057504Y005504D01*
X057504Y005663D02*
X047746Y005663D01*
X047746Y005821D02*
X057504Y005821D01*
X057504Y005980D02*
X047746Y005980D01*
X047746Y006138D02*
X057504Y006138D01*
X057504Y006297D02*
X047746Y006297D01*
X047746Y006455D02*
X057504Y006455D01*
X057504Y006614D02*
X047746Y006614D01*
X047746Y006772D02*
X057504Y006772D01*
X057504Y006931D02*
X047746Y006931D01*
X047746Y007090D02*
X057504Y007090D01*
X057504Y007248D02*
X047746Y007248D01*
X047746Y007407D02*
X057504Y007407D01*
X057504Y007565D02*
X047746Y007565D01*
X047746Y007724D02*
X057504Y007724D01*
X057504Y007882D02*
X047746Y007882D01*
X047746Y008041D02*
X057504Y008041D01*
X057504Y008199D02*
X047746Y008199D01*
X047746Y008358D02*
X057504Y008358D01*
X057504Y008516D02*
X047746Y008516D01*
X047746Y008675D02*
X057504Y008675D01*
X057504Y008834D02*
X047746Y008834D01*
X047746Y008992D02*
X057504Y008992D01*
X057504Y009151D02*
X047746Y009151D01*
X047746Y009309D02*
X057504Y009309D01*
X057504Y009468D02*
X047746Y009468D01*
X047746Y009626D02*
X057504Y009626D01*
X057504Y009785D02*
X047746Y009785D01*
X047746Y009943D02*
X057504Y009943D01*
X057504Y010102D02*
X047766Y010102D01*
X047766Y010260D02*
X057504Y010260D01*
X057504Y010419D02*
X047766Y010419D01*
X047766Y010577D02*
X057504Y010577D01*
X057504Y010736D02*
X047766Y010736D01*
X047683Y010895D02*
X057504Y010895D01*
X057504Y016761D02*
X045689Y016761D01*
X045689Y016919D02*
X047733Y016919D01*
X047851Y016801D02*
X047605Y017047D01*
X047605Y017395D01*
X047605Y017236D02*
X045454Y017236D01*
X045612Y017078D02*
X047605Y017078D01*
X047851Y016801D02*
X048199Y016801D01*
X048445Y017047D01*
X048445Y017395D01*
X057504Y017395D01*
X057504Y017553D02*
X048286Y017553D01*
X048199Y017641D02*
X047851Y017641D01*
X048199Y017641D02*
X048445Y017395D01*
X048445Y017236D02*
X057504Y017236D01*
X057504Y017078D02*
X048445Y017078D01*
X048316Y016919D02*
X057504Y016919D01*
X047783Y016602D02*
X045637Y016602D01*
X045479Y016444D02*
X047625Y016444D01*
X047270Y010895D02*
X047271Y010895D01*
X047270Y010736D02*
X047271Y010736D01*
X047270Y010577D02*
X047271Y010577D01*
X043615Y004711D02*
X042198Y004711D01*
X042357Y004553D02*
X043456Y004553D01*
X043388Y004394D02*
X042425Y004394D01*
X042476Y004236D02*
X043337Y004236D01*
X043337Y004077D02*
X042476Y004077D01*
X042453Y003919D02*
X043360Y003919D01*
X043425Y003760D02*
X042387Y003760D01*
X042266Y003602D02*
X043547Y003602D01*
X043767Y003443D02*
X042045Y003443D01*
X041405Y003443D02*
X039683Y003443D01*
X039903Y003602D02*
X041185Y003602D01*
X041063Y003760D02*
X040025Y003760D01*
X040091Y003919D02*
X040998Y003919D01*
X040975Y004077D02*
X040114Y004077D01*
X040114Y004236D02*
X040975Y004236D01*
X041025Y004394D02*
X040063Y004394D01*
X039995Y004553D02*
X041094Y004553D01*
X041252Y004711D02*
X039836Y004711D01*
X038890Y004711D02*
X037474Y004711D01*
X037632Y004553D02*
X038732Y004553D01*
X038663Y004394D02*
X037701Y004394D01*
X037751Y004236D02*
X038613Y004236D01*
X038613Y004077D02*
X037751Y004077D01*
X037729Y003919D02*
X038635Y003919D01*
X038701Y003760D02*
X037663Y003760D01*
X037541Y003602D02*
X038823Y003602D01*
X039043Y003443D02*
X037321Y003443D01*
X036681Y003443D02*
X003565Y003443D01*
X003606Y003402D02*
X003406Y003601D01*
X003406Y003602D02*
X036461Y003602D01*
X036339Y003760D02*
X003096Y003760D01*
X003162Y003742D02*
X002890Y003815D01*
X002608Y003815D01*
X002336Y003742D01*
X002092Y003601D01*
X002092Y003602D02*
X001537Y003602D01*
X001537Y003760D02*
X002402Y003760D01*
X002092Y003601D02*
X001892Y003402D01*
X001751Y003158D01*
X001678Y002886D01*
X001678Y002604D01*
X001751Y002332D01*
X001892Y002088D01*
X002092Y001888D01*
X002336Y001747D01*
X002608Y001674D01*
X002890Y001674D01*
X003162Y001747D01*
X003406Y001888D01*
X003606Y002088D01*
X003747Y002332D01*
X003819Y002604D01*
X003819Y002886D01*
X003747Y003158D01*
X003606Y003402D01*
X003674Y003284D02*
X055368Y003284D01*
X055436Y003402D02*
X055295Y003158D01*
X055222Y002886D01*
X055222Y002604D01*
X055295Y002332D01*
X055436Y002088D01*
X055635Y001888D01*
X055879Y001747D01*
X056151Y001674D01*
X056433Y001674D01*
X056705Y001747D01*
X056950Y001888D01*
X057149Y002088D01*
X057290Y002332D01*
X057363Y002604D01*
X057363Y002886D01*
X057290Y003158D01*
X057149Y003402D01*
X056950Y003601D01*
X056705Y003742D01*
X056433Y003815D01*
X056151Y003815D01*
X055879Y003742D01*
X055635Y003601D01*
X055436Y003402D01*
X055476Y003443D02*
X044408Y003443D01*
X044628Y003602D02*
X055635Y003602D01*
X055945Y003760D02*
X044750Y003760D01*
X044815Y003919D02*
X057504Y003919D01*
X057504Y004077D02*
X044838Y004077D01*
X044838Y004236D02*
X057504Y004236D01*
X057504Y004394D02*
X044787Y004394D01*
X038576Y010260D02*
X038576Y010260D01*
X038576Y010419D02*
X038576Y010419D01*
X038576Y010577D02*
X038576Y010577D01*
X038576Y010736D02*
X038576Y010736D01*
X038576Y010895D02*
X038576Y010895D01*
X038576Y011053D02*
X038576Y011053D01*
X036528Y004711D02*
X001537Y004711D01*
X001537Y004553D02*
X036370Y004553D01*
X036301Y004394D02*
X001537Y004394D01*
X001537Y004236D02*
X036250Y004236D01*
X036250Y004077D02*
X001537Y004077D01*
X001537Y003919D02*
X036273Y003919D01*
X055222Y002809D02*
X003819Y002809D01*
X003819Y002650D02*
X055222Y002650D01*
X055252Y002492D02*
X003789Y002492D01*
X003747Y002333D02*
X055294Y002333D01*
X055385Y002175D02*
X003656Y002175D01*
X003534Y002016D02*
X055507Y002016D01*
X055688Y001858D02*
X003353Y001858D01*
X002982Y001699D02*
X056059Y001699D01*
X056525Y001699D02*
X057504Y001699D01*
X057504Y001541D02*
X001537Y001541D01*
X001537Y001699D02*
X002516Y001699D01*
X002145Y001858D02*
X001537Y001858D01*
X001537Y002016D02*
X001964Y002016D01*
X001842Y002175D02*
X001537Y002175D01*
X001537Y002333D02*
X001751Y002333D01*
X001708Y002492D02*
X001537Y002492D01*
X001537Y002650D02*
X001678Y002650D01*
X001678Y002809D02*
X001537Y002809D01*
X001537Y002967D02*
X001700Y002967D01*
X001743Y003126D02*
X001537Y003126D01*
X001537Y003284D02*
X001824Y003284D01*
X001933Y003443D02*
X001537Y003443D01*
X003162Y003742D02*
X003406Y003601D01*
X003755Y003126D02*
X055286Y003126D01*
X055244Y002967D02*
X003798Y002967D01*
X001537Y021993D02*
X033868Y021993D01*
X033868Y022151D02*
X001537Y022151D01*
X001537Y022310D02*
X033868Y022310D01*
X033868Y022468D02*
X001537Y022468D01*
X001537Y025481D02*
X002425Y025481D01*
X002392Y025639D02*
X001537Y025639D01*
X001537Y025798D02*
X002392Y025798D01*
X002392Y025956D02*
X001537Y025956D01*
X001537Y026115D02*
X002392Y026115D01*
X002392Y026273D02*
X001537Y026273D01*
X001537Y026432D02*
X002392Y026432D01*
X002392Y026590D02*
X001537Y026590D01*
X001537Y026749D02*
X002392Y026749D01*
X002473Y026907D02*
X001537Y026907D01*
X001537Y027066D02*
X039171Y027066D01*
X039171Y027225D02*
X001537Y027225D01*
X001537Y027383D02*
X039171Y027383D01*
X039171Y027371D02*
X039630Y027371D01*
X039630Y028131D01*
X039555Y028131D01*
X039379Y028058D01*
X039244Y027923D01*
X039171Y027747D01*
X039171Y027371D01*
X039171Y027542D02*
X001537Y027542D01*
X001537Y027700D02*
X039171Y027700D01*
X039217Y027859D02*
X001537Y027859D01*
X001537Y028017D02*
X039338Y028017D01*
X039630Y028017D02*
X039671Y028017D01*
X039671Y027859D02*
X039630Y027859D01*
X039630Y027700D02*
X039671Y027700D01*
X039671Y027542D02*
X039630Y027542D01*
X039630Y027383D02*
X039671Y027383D01*
X039671Y027225D02*
X039630Y027225D01*
X039630Y027066D02*
X039671Y027066D01*
X039671Y026907D02*
X039630Y026907D01*
X039630Y026749D02*
X039671Y026749D01*
X040027Y026749D02*
X040302Y026749D01*
X040212Y026907D02*
X040111Y026907D01*
X040131Y027066D02*
X040191Y027066D01*
X040191Y027225D02*
X040131Y027225D01*
X040131Y027383D02*
X040191Y027383D01*
X040191Y027542D02*
X040131Y027542D01*
X040131Y027700D02*
X040191Y027700D01*
X040239Y027859D02*
X040084Y027859D01*
X039963Y028017D02*
X040366Y028017D01*
X041111Y027383D02*
X044994Y027383D01*
X044849Y027225D02*
X041111Y027225D01*
X041111Y027066D02*
X044849Y027066D01*
X044849Y026907D02*
X041089Y026907D01*
X040999Y026749D02*
X044990Y026749D01*
X045548Y026749D02*
X052998Y026749D01*
X052998Y026907D02*
X045689Y026907D01*
X045689Y027066D02*
X053129Y027066D01*
X053438Y027066D02*
X053438Y027066D01*
X053438Y026907D02*
X053438Y026907D01*
X053438Y026752D02*
X053438Y026313D01*
X053438Y026752D01*
X053438Y026752D01*
X053438Y026749D02*
X053438Y026749D01*
X053438Y026590D02*
X053438Y026590D01*
X053438Y026432D02*
X053438Y026432D01*
X053821Y027542D02*
X057504Y027542D01*
X057504Y027700D02*
X053858Y027700D01*
X053858Y027859D02*
X057504Y027859D01*
X057504Y028017D02*
X053767Y028017D01*
X052007Y028334D02*
X045617Y028334D01*
X045560Y028277D02*
X045705Y028422D01*
X045783Y028611D01*
X045783Y028816D01*
X045705Y029005D01*
X045560Y029149D01*
X045432Y029203D01*
X045571Y029260D01*
X045722Y029411D01*
X045803Y029607D01*
X045803Y029675D01*
X045307Y029675D01*
X045307Y029751D01*
X045803Y029751D01*
X045803Y029820D01*
X045722Y030016D01*
X045571Y030166D01*
X045492Y030199D01*
X045689Y030199D01*
X045783Y030293D01*
X045783Y031134D01*
X045689Y031228D01*
X044848Y031228D01*
X044754Y031134D01*
X044754Y030293D01*
X044848Y030199D01*
X045045Y030199D01*
X044966Y030166D01*
X044816Y030016D01*
X044734Y029820D01*
X044734Y029751D01*
X045230Y029751D01*
X045230Y029675D01*
X044734Y029675D01*
X044734Y029607D01*
X044816Y029411D01*
X044966Y029260D01*
X045106Y029203D01*
X044977Y029149D01*
X044833Y029005D01*
X044754Y028816D01*
X044754Y028611D01*
X044833Y028422D01*
X044977Y028277D01*
X045166Y028199D01*
X045371Y028199D01*
X045560Y028277D01*
X045734Y028493D02*
X048123Y028493D01*
X048236Y028380D02*
X047978Y028637D01*
X047978Y028819D01*
X048418Y028819D01*
X048418Y028819D01*
X048418Y028380D01*
X048236Y028380D01*
X048418Y028380D02*
X048418Y028819D01*
X048418Y028820D01*
X048418Y029260D01*
X048236Y029260D01*
X047978Y029002D01*
X047978Y028820D01*
X048418Y028820D01*
X048418Y028820D01*
X048418Y029260D01*
X048600Y029260D01*
X048858Y029002D01*
X048858Y028820D01*
X048419Y028820D01*
X048419Y028819D01*
X048858Y028819D01*
X048858Y028637D01*
X048600Y028380D01*
X048418Y028380D01*
X048418Y028493D02*
X048418Y028493D01*
X048418Y028651D02*
X048418Y028651D01*
X048418Y028810D02*
X048418Y028810D01*
X048418Y028969D02*
X048418Y028969D01*
X048418Y029127D02*
X048418Y029127D01*
X048103Y029127D02*
X045582Y029127D01*
X045596Y029286D02*
X052056Y029286D01*
X052042Y029127D02*
X048733Y029127D01*
X048858Y028969D02*
X051904Y028969D01*
X051841Y028810D02*
X048858Y028810D01*
X048858Y028651D02*
X051841Y028651D01*
X051890Y028493D02*
X048714Y028493D01*
X047978Y028651D02*
X045783Y028651D01*
X045783Y028810D02*
X047978Y028810D01*
X047978Y028969D02*
X045720Y028969D01*
X045735Y029444D02*
X048200Y029444D01*
X048244Y029400D02*
X047998Y029646D01*
X047998Y029994D01*
X048244Y030240D01*
X048592Y030240D01*
X048838Y029994D01*
X048838Y029646D01*
X048592Y029400D01*
X048244Y029400D01*
X048041Y029603D02*
X045801Y029603D01*
X045803Y029761D02*
X047998Y029761D01*
X047998Y029920D02*
X045761Y029920D01*
X045659Y030078D02*
X048083Y030078D01*
X048241Y030237D02*
X045727Y030237D01*
X045783Y030395D02*
X051841Y030395D01*
X051841Y030554D02*
X045783Y030554D01*
X045783Y030712D02*
X051841Y030712D01*
X051841Y030871D02*
X045783Y030871D01*
X045783Y031030D02*
X051841Y031030D01*
X051895Y031188D02*
X045729Y031188D01*
X044808Y031188D02*
X035359Y031188D01*
X035389Y031158D02*
X035296Y031251D01*
X033982Y031251D01*
X033888Y031158D01*
X033888Y029844D01*
X033982Y029750D01*
X035296Y029750D01*
X035389Y029844D01*
X035389Y031158D01*
X035389Y031030D02*
X044754Y031030D01*
X044754Y030871D02*
X035389Y030871D01*
X035389Y030712D02*
X044754Y030712D01*
X044754Y030554D02*
X035389Y030554D01*
X035389Y030395D02*
X044754Y030395D01*
X044810Y030237D02*
X035389Y030237D01*
X035389Y030078D02*
X044878Y030078D01*
X044776Y029920D02*
X035389Y029920D01*
X035307Y029761D02*
X044734Y029761D01*
X044736Y029603D02*
X001537Y029603D01*
X001537Y029761D02*
X033971Y029761D01*
X033888Y029920D02*
X001537Y029920D01*
X001537Y030078D02*
X033888Y030078D01*
X033888Y030237D02*
X001537Y030237D01*
X001537Y030395D02*
X033888Y030395D01*
X033888Y030554D02*
X001537Y030554D01*
X001537Y030712D02*
X033888Y030712D01*
X033888Y030871D02*
X001537Y030871D01*
X001537Y031030D02*
X033888Y031030D01*
X033919Y031188D02*
X001537Y031188D01*
X001537Y031981D02*
X045057Y031981D01*
X044898Y032139D02*
X001537Y032139D01*
X001537Y032298D02*
X044849Y032298D01*
X044849Y032456D02*
X001537Y032456D01*
X001537Y032615D02*
X044927Y032615D01*
X045085Y032774D02*
X001537Y032774D01*
X001537Y032932D02*
X045077Y032932D01*
X044919Y033091D02*
X001537Y033091D01*
X001537Y033249D02*
X044829Y033249D01*
X044829Y033408D02*
X001537Y033408D01*
X001537Y033566D02*
X044850Y033566D01*
X045008Y033725D02*
X001537Y033725D01*
X004889Y037213D02*
X057504Y037213D01*
X057504Y037371D02*
X005014Y037371D01*
X005079Y037530D02*
X057504Y037530D01*
X057504Y037688D02*
X005090Y037688D01*
X005078Y037847D02*
X057504Y037847D01*
X057504Y038005D02*
X005012Y038005D01*
X004886Y038164D02*
X057504Y038164D01*
X057504Y038323D02*
X004620Y038323D01*
X004561Y029487D02*
X003299Y029487D01*
X003056Y029386D01*
X002871Y029201D01*
X002770Y028958D01*
X002770Y028695D01*
X002871Y028453D01*
X003056Y028267D01*
X003299Y028167D01*
X004561Y028167D01*
X004804Y028267D01*
X004990Y028453D01*
X005090Y028695D01*
X005090Y028958D01*
X004990Y029201D01*
X004804Y029386D01*
X004561Y029487D01*
X004664Y029444D02*
X044802Y029444D01*
X044941Y029286D02*
X004904Y029286D01*
X005020Y029127D02*
X044955Y029127D01*
X044818Y028969D02*
X005086Y028969D01*
X005090Y028810D02*
X044754Y028810D01*
X044754Y028651D02*
X005072Y028651D01*
X005006Y028493D02*
X044803Y028493D01*
X044920Y028334D02*
X004871Y028334D01*
X004583Y028176D02*
X057504Y028176D01*
X051993Y030078D02*
X048754Y030078D01*
X048838Y029920D02*
X051884Y029920D01*
X051841Y029761D02*
X048838Y029761D01*
X048795Y029603D02*
X051844Y029603D01*
X051910Y029444D02*
X048637Y029444D01*
X048595Y030237D02*
X051897Y030237D01*
X057504Y033091D02*
X045619Y033091D01*
X045709Y033249D02*
X057504Y033249D01*
X057504Y033408D02*
X045709Y033408D01*
X045688Y033566D02*
X057504Y033566D01*
X039274Y026749D02*
X003893Y026749D01*
X003813Y026907D02*
X039191Y026907D01*
X034719Y023261D02*
X034559Y023261D01*
X034559Y023102D02*
X034719Y023102D01*
X034719Y022944D02*
X034559Y022944D01*
X034559Y022785D02*
X034719Y022785D01*
X034719Y022310D02*
X034559Y022310D01*
X034559Y022151D02*
X034719Y022151D01*
X034719Y021993D02*
X034559Y021993D01*
X056640Y003760D02*
X057504Y003760D01*
X057504Y003602D02*
X056949Y003602D01*
X057108Y003443D02*
X057504Y003443D01*
X057504Y003284D02*
X057217Y003284D01*
X057298Y003126D02*
X057504Y003126D01*
X057504Y002967D02*
X057341Y002967D01*
X057363Y002809D02*
X057504Y002809D01*
X057504Y002650D02*
X057363Y002650D01*
X057333Y002492D02*
X057504Y002492D01*
X057504Y002333D02*
X057290Y002333D01*
X057199Y002175D02*
X057504Y002175D01*
X057504Y002016D02*
X057078Y002016D01*
X056897Y001858D02*
X057504Y001858D01*
X003277Y028176D02*
X001537Y028176D01*
X001537Y028334D02*
X002989Y028334D01*
X002854Y028493D02*
X001537Y028493D01*
X001537Y028651D02*
X002788Y028651D01*
X002770Y028810D02*
X001537Y028810D01*
X001537Y028969D02*
X002774Y028969D01*
X002840Y029127D02*
X001537Y029127D01*
X001537Y029286D02*
X002956Y029286D01*
X003196Y029444D02*
X001537Y029444D01*
D20*
X041725Y033946D03*
X048812Y033946D03*
X048812Y014457D03*
X041725Y014457D03*
D21*
X041725Y004123D03*
X041725Y002548D03*
X039363Y002548D03*
X039363Y004123D03*
X037001Y004123D03*
X037001Y002548D03*
X044088Y002548D03*
X044088Y004123D03*
D22*
X053143Y004517D03*
X037395Y015540D03*
X039757Y023808D03*
X048025Y024595D03*
X054717Y028532D03*
X053143Y031682D03*
X053536Y037587D03*
X046843Y039556D03*
X031489Y039556D03*
X008261Y037194D03*
X007473Y008060D03*
X025584Y002548D03*
M02*
