%
M48
M72
T01C0.0240
T02C0.0300
T03C0.0315
T04C0.0320
T05C0.0400
T06C0.0472
T07C0.0520
T08C0.0630
T09C0.0787
T10C0.1181
%
T01
X7473Y8060
X25584Y2548
X37395Y15540
X39757Y23808
X48025Y24595
X54717Y28532
X53143Y31682
X53536Y37587
X46843Y39556
X31489Y39556
X8261Y37194
X53143Y4517
T02
X38576Y8635
X38576Y10635
X38576Y34619
X38576Y36619
T03
X47271Y10422
X47271Y9635
X47271Y8847
X47271Y8060
X47271Y7272
X47271Y6485
X47271Y5698
X47271Y4910
T04
X45269Y15828
X45269Y16828
X48025Y17221
X48025Y16221
X48025Y18977
X48025Y19977
X45269Y23308
X45269Y24308
X45269Y26064
X45269Y27064
X48418Y28820
X48418Y29820
X45269Y32363
X45269Y33363
X53438Y27753
X53438Y26753
T05
X40651Y27351
X39651Y27351
T06
X45269Y28713
X45269Y29713
X45269Y30713
X52355Y30713
X52355Y29713
X52355Y28713
X52355Y20871
X52355Y19871
X52355Y18871
X45269Y18871
X45269Y19871
X45269Y20871
T07
X3930Y28827
X3930Y37687
T08
X41725Y33946
X48812Y33946
X48812Y14457
X41725Y14457
T09
X34639Y14753
X34639Y22627
X34639Y30501
X3143Y26170
X3143Y19083
X37001Y4123
X37001Y2548
X39363Y2548
X39363Y4123
X41725Y4123
X41725Y2548
X44088Y2548
X44088Y4123
T10
X2749Y2745
X2749Y41721
X56292Y41721
X56292Y2745
M30
