G75*
G70*
%OFA0B0*%
%FSLAX24Y24*%
%IPPOS*%
%LPD*%
%AMOC8*
5,1,8,0,0,1.08239X$1,22.5*
%
%ADD10C,0.0049*%
%ADD11C,0.0039*%
%ADD12C,0.0060*%
%ADD13C,0.0080*%
%ADD14C,0.0100*%
%ADD15R,0.0118X0.0500*%
%ADD16C,0.0050*%
%ADD17C,0.0120*%
%ADD18C,0.0020*%
%ADD19R,0.0450X0.0250*%
%ADD20R,0.1600X0.0250*%
%ADD21R,0.0200X0.4000*%
%ADD22R,0.0050X0.1550*%
%ADD23R,0.0200X0.1687*%
D10*
X042513Y012587D02*
X042513Y035816D01*
X043694Y035816D01*
X043694Y012587D01*
X042513Y012587D01*
X049599Y012587D02*
X049599Y035816D01*
X050780Y035816D01*
X050780Y012587D01*
X049599Y012587D01*
X049599Y012784D02*
X049599Y035619D01*
X050780Y035619D02*
X050780Y012784D01*
D11*
X051922Y018887D02*
X051924Y018928D01*
X051930Y018969D01*
X051940Y019009D01*
X051953Y019048D01*
X051970Y019085D01*
X051991Y019121D01*
X052015Y019155D01*
X052042Y019186D01*
X052071Y019214D01*
X052104Y019240D01*
X052138Y019262D01*
X052175Y019281D01*
X052213Y019296D01*
X052253Y019308D01*
X052293Y019316D01*
X052334Y019320D01*
X052376Y019320D01*
X052417Y019316D01*
X052457Y019308D01*
X052497Y019296D01*
X052535Y019281D01*
X052571Y019262D01*
X052606Y019240D01*
X052639Y019214D01*
X052668Y019186D01*
X052695Y019155D01*
X052719Y019121D01*
X052740Y019085D01*
X052757Y019048D01*
X052770Y019009D01*
X052780Y018969D01*
X052786Y018928D01*
X052788Y018887D01*
X052786Y018846D01*
X052780Y018805D01*
X052770Y018765D01*
X052757Y018726D01*
X052740Y018689D01*
X052719Y018653D01*
X052695Y018619D01*
X052668Y018588D01*
X052639Y018560D01*
X052606Y018534D01*
X052572Y018512D01*
X052535Y018493D01*
X052497Y018478D01*
X052457Y018466D01*
X052417Y018458D01*
X052376Y018454D01*
X052334Y018454D01*
X052293Y018458D01*
X052253Y018466D01*
X052213Y018478D01*
X052175Y018493D01*
X052139Y018512D01*
X052104Y018534D01*
X052071Y018560D01*
X052042Y018588D01*
X052015Y018619D01*
X051991Y018653D01*
X051970Y018689D01*
X051953Y018726D01*
X051940Y018765D01*
X051930Y018805D01*
X051924Y018846D01*
X051922Y018887D01*
X051922Y019871D02*
X051924Y019912D01*
X051930Y019953D01*
X051940Y019993D01*
X051953Y020032D01*
X051970Y020069D01*
X051991Y020105D01*
X052015Y020139D01*
X052042Y020170D01*
X052071Y020198D01*
X052104Y020224D01*
X052138Y020246D01*
X052175Y020265D01*
X052213Y020280D01*
X052253Y020292D01*
X052293Y020300D01*
X052334Y020304D01*
X052376Y020304D01*
X052417Y020300D01*
X052457Y020292D01*
X052497Y020280D01*
X052535Y020265D01*
X052571Y020246D01*
X052606Y020224D01*
X052639Y020198D01*
X052668Y020170D01*
X052695Y020139D01*
X052719Y020105D01*
X052740Y020069D01*
X052757Y020032D01*
X052770Y019993D01*
X052780Y019953D01*
X052786Y019912D01*
X052788Y019871D01*
X052786Y019830D01*
X052780Y019789D01*
X052770Y019749D01*
X052757Y019710D01*
X052740Y019673D01*
X052719Y019637D01*
X052695Y019603D01*
X052668Y019572D01*
X052639Y019544D01*
X052606Y019518D01*
X052572Y019496D01*
X052535Y019477D01*
X052497Y019462D01*
X052457Y019450D01*
X052417Y019442D01*
X052376Y019438D01*
X052334Y019438D01*
X052293Y019442D01*
X052253Y019450D01*
X052213Y019462D01*
X052175Y019477D01*
X052139Y019496D01*
X052104Y019518D01*
X052071Y019544D01*
X052042Y019572D01*
X052015Y019603D01*
X051991Y019637D01*
X051970Y019673D01*
X051953Y019710D01*
X051940Y019749D01*
X051930Y019789D01*
X051924Y019830D01*
X051922Y019871D01*
X051912Y020412D02*
X052158Y020412D01*
X051912Y020412D02*
X051912Y020658D01*
X051912Y021052D02*
X051912Y021298D01*
X052158Y021298D01*
X052552Y021298D02*
X052798Y021298D01*
X052798Y021052D01*
X052798Y020658D02*
X052798Y020412D01*
X052552Y020412D01*
X045712Y020412D02*
X045712Y020658D01*
X045712Y020412D02*
X045466Y020412D01*
X045072Y020412D02*
X044826Y020412D01*
X044826Y020658D01*
X044826Y021052D02*
X044826Y021298D01*
X045072Y021298D01*
X045466Y021298D02*
X045712Y021298D01*
X045712Y021052D01*
X044836Y019871D02*
X044838Y019912D01*
X044844Y019953D01*
X044854Y019993D01*
X044867Y020032D01*
X044884Y020069D01*
X044905Y020105D01*
X044929Y020139D01*
X044956Y020170D01*
X044985Y020198D01*
X045018Y020224D01*
X045052Y020246D01*
X045089Y020265D01*
X045127Y020280D01*
X045167Y020292D01*
X045207Y020300D01*
X045248Y020304D01*
X045290Y020304D01*
X045331Y020300D01*
X045371Y020292D01*
X045411Y020280D01*
X045449Y020265D01*
X045485Y020246D01*
X045520Y020224D01*
X045553Y020198D01*
X045582Y020170D01*
X045609Y020139D01*
X045633Y020105D01*
X045654Y020069D01*
X045671Y020032D01*
X045684Y019993D01*
X045694Y019953D01*
X045700Y019912D01*
X045702Y019871D01*
X045700Y019830D01*
X045694Y019789D01*
X045684Y019749D01*
X045671Y019710D01*
X045654Y019673D01*
X045633Y019637D01*
X045609Y019603D01*
X045582Y019572D01*
X045553Y019544D01*
X045520Y019518D01*
X045486Y019496D01*
X045449Y019477D01*
X045411Y019462D01*
X045371Y019450D01*
X045331Y019442D01*
X045290Y019438D01*
X045248Y019438D01*
X045207Y019442D01*
X045167Y019450D01*
X045127Y019462D01*
X045089Y019477D01*
X045053Y019496D01*
X045018Y019518D01*
X044985Y019544D01*
X044956Y019572D01*
X044929Y019603D01*
X044905Y019637D01*
X044884Y019673D01*
X044867Y019710D01*
X044854Y019749D01*
X044844Y019789D01*
X044838Y019830D01*
X044836Y019871D01*
X044836Y018887D02*
X044838Y018928D01*
X044844Y018969D01*
X044854Y019009D01*
X044867Y019048D01*
X044884Y019085D01*
X044905Y019121D01*
X044929Y019155D01*
X044956Y019186D01*
X044985Y019214D01*
X045018Y019240D01*
X045052Y019262D01*
X045089Y019281D01*
X045127Y019296D01*
X045167Y019308D01*
X045207Y019316D01*
X045248Y019320D01*
X045290Y019320D01*
X045331Y019316D01*
X045371Y019308D01*
X045411Y019296D01*
X045449Y019281D01*
X045485Y019262D01*
X045520Y019240D01*
X045553Y019214D01*
X045582Y019186D01*
X045609Y019155D01*
X045633Y019121D01*
X045654Y019085D01*
X045671Y019048D01*
X045684Y019009D01*
X045694Y018969D01*
X045700Y018928D01*
X045702Y018887D01*
X045700Y018846D01*
X045694Y018805D01*
X045684Y018765D01*
X045671Y018726D01*
X045654Y018689D01*
X045633Y018653D01*
X045609Y018619D01*
X045582Y018588D01*
X045553Y018560D01*
X045520Y018534D01*
X045486Y018512D01*
X045449Y018493D01*
X045411Y018478D01*
X045371Y018466D01*
X045331Y018458D01*
X045290Y018454D01*
X045248Y018454D01*
X045207Y018458D01*
X045167Y018466D01*
X045127Y018478D01*
X045089Y018493D01*
X045053Y018512D01*
X045018Y018534D01*
X044985Y018560D01*
X044956Y018588D01*
X044929Y018619D01*
X044905Y018653D01*
X044884Y018689D01*
X044867Y018726D01*
X044854Y018765D01*
X044844Y018805D01*
X044838Y018846D01*
X044836Y018887D01*
X044836Y028729D02*
X044838Y028770D01*
X044844Y028811D01*
X044854Y028851D01*
X044867Y028890D01*
X044884Y028927D01*
X044905Y028963D01*
X044929Y028997D01*
X044956Y029028D01*
X044985Y029056D01*
X045018Y029082D01*
X045052Y029104D01*
X045089Y029123D01*
X045127Y029138D01*
X045167Y029150D01*
X045207Y029158D01*
X045248Y029162D01*
X045290Y029162D01*
X045331Y029158D01*
X045371Y029150D01*
X045411Y029138D01*
X045449Y029123D01*
X045485Y029104D01*
X045520Y029082D01*
X045553Y029056D01*
X045582Y029028D01*
X045609Y028997D01*
X045633Y028963D01*
X045654Y028927D01*
X045671Y028890D01*
X045684Y028851D01*
X045694Y028811D01*
X045700Y028770D01*
X045702Y028729D01*
X045700Y028688D01*
X045694Y028647D01*
X045684Y028607D01*
X045671Y028568D01*
X045654Y028531D01*
X045633Y028495D01*
X045609Y028461D01*
X045582Y028430D01*
X045553Y028402D01*
X045520Y028376D01*
X045486Y028354D01*
X045449Y028335D01*
X045411Y028320D01*
X045371Y028308D01*
X045331Y028300D01*
X045290Y028296D01*
X045248Y028296D01*
X045207Y028300D01*
X045167Y028308D01*
X045127Y028320D01*
X045089Y028335D01*
X045053Y028354D01*
X045018Y028376D01*
X044985Y028402D01*
X044956Y028430D01*
X044929Y028461D01*
X044905Y028495D01*
X044884Y028531D01*
X044867Y028568D01*
X044854Y028607D01*
X044844Y028647D01*
X044838Y028688D01*
X044836Y028729D01*
X044836Y029713D02*
X044838Y029754D01*
X044844Y029795D01*
X044854Y029835D01*
X044867Y029874D01*
X044884Y029911D01*
X044905Y029947D01*
X044929Y029981D01*
X044956Y030012D01*
X044985Y030040D01*
X045018Y030066D01*
X045052Y030088D01*
X045089Y030107D01*
X045127Y030122D01*
X045167Y030134D01*
X045207Y030142D01*
X045248Y030146D01*
X045290Y030146D01*
X045331Y030142D01*
X045371Y030134D01*
X045411Y030122D01*
X045449Y030107D01*
X045485Y030088D01*
X045520Y030066D01*
X045553Y030040D01*
X045582Y030012D01*
X045609Y029981D01*
X045633Y029947D01*
X045654Y029911D01*
X045671Y029874D01*
X045684Y029835D01*
X045694Y029795D01*
X045700Y029754D01*
X045702Y029713D01*
X045700Y029672D01*
X045694Y029631D01*
X045684Y029591D01*
X045671Y029552D01*
X045654Y029515D01*
X045633Y029479D01*
X045609Y029445D01*
X045582Y029414D01*
X045553Y029386D01*
X045520Y029360D01*
X045486Y029338D01*
X045449Y029319D01*
X045411Y029304D01*
X045371Y029292D01*
X045331Y029284D01*
X045290Y029280D01*
X045248Y029280D01*
X045207Y029284D01*
X045167Y029292D01*
X045127Y029304D01*
X045089Y029319D01*
X045053Y029338D01*
X045018Y029360D01*
X044985Y029386D01*
X044956Y029414D01*
X044929Y029445D01*
X044905Y029479D01*
X044884Y029515D01*
X044867Y029552D01*
X044854Y029591D01*
X044844Y029631D01*
X044838Y029672D01*
X044836Y029713D01*
X044826Y030255D02*
X045072Y030255D01*
X044826Y030255D02*
X044826Y030501D01*
X044826Y030894D02*
X044826Y031141D01*
X045072Y031141D01*
X045466Y031141D02*
X045712Y031141D01*
X045712Y030894D01*
X045712Y030501D02*
X045712Y030255D01*
X045466Y030255D01*
X051912Y030255D02*
X052158Y030255D01*
X051912Y030255D02*
X051912Y030501D01*
X051912Y030894D02*
X051912Y031141D01*
X052158Y031141D01*
X052552Y031141D02*
X052798Y031141D01*
X052798Y030894D01*
X052798Y030501D02*
X052798Y030255D01*
X052552Y030255D01*
X051922Y029713D02*
X051924Y029754D01*
X051930Y029795D01*
X051940Y029835D01*
X051953Y029874D01*
X051970Y029911D01*
X051991Y029947D01*
X052015Y029981D01*
X052042Y030012D01*
X052071Y030040D01*
X052104Y030066D01*
X052138Y030088D01*
X052175Y030107D01*
X052213Y030122D01*
X052253Y030134D01*
X052293Y030142D01*
X052334Y030146D01*
X052376Y030146D01*
X052417Y030142D01*
X052457Y030134D01*
X052497Y030122D01*
X052535Y030107D01*
X052571Y030088D01*
X052606Y030066D01*
X052639Y030040D01*
X052668Y030012D01*
X052695Y029981D01*
X052719Y029947D01*
X052740Y029911D01*
X052757Y029874D01*
X052770Y029835D01*
X052780Y029795D01*
X052786Y029754D01*
X052788Y029713D01*
X052786Y029672D01*
X052780Y029631D01*
X052770Y029591D01*
X052757Y029552D01*
X052740Y029515D01*
X052719Y029479D01*
X052695Y029445D01*
X052668Y029414D01*
X052639Y029386D01*
X052606Y029360D01*
X052572Y029338D01*
X052535Y029319D01*
X052497Y029304D01*
X052457Y029292D01*
X052417Y029284D01*
X052376Y029280D01*
X052334Y029280D01*
X052293Y029284D01*
X052253Y029292D01*
X052213Y029304D01*
X052175Y029319D01*
X052139Y029338D01*
X052104Y029360D01*
X052071Y029386D01*
X052042Y029414D01*
X052015Y029445D01*
X051991Y029479D01*
X051970Y029515D01*
X051953Y029552D01*
X051940Y029591D01*
X051930Y029631D01*
X051924Y029672D01*
X051922Y029713D01*
X051922Y028729D02*
X051924Y028770D01*
X051930Y028811D01*
X051940Y028851D01*
X051953Y028890D01*
X051970Y028927D01*
X051991Y028963D01*
X052015Y028997D01*
X052042Y029028D01*
X052071Y029056D01*
X052104Y029082D01*
X052138Y029104D01*
X052175Y029123D01*
X052213Y029138D01*
X052253Y029150D01*
X052293Y029158D01*
X052334Y029162D01*
X052376Y029162D01*
X052417Y029158D01*
X052457Y029150D01*
X052497Y029138D01*
X052535Y029123D01*
X052571Y029104D01*
X052606Y029082D01*
X052639Y029056D01*
X052668Y029028D01*
X052695Y028997D01*
X052719Y028963D01*
X052740Y028927D01*
X052757Y028890D01*
X052770Y028851D01*
X052780Y028811D01*
X052786Y028770D01*
X052788Y028729D01*
X052786Y028688D01*
X052780Y028647D01*
X052770Y028607D01*
X052757Y028568D01*
X052740Y028531D01*
X052719Y028495D01*
X052695Y028461D01*
X052668Y028430D01*
X052639Y028402D01*
X052606Y028376D01*
X052572Y028354D01*
X052535Y028335D01*
X052497Y028320D01*
X052457Y028308D01*
X052417Y028300D01*
X052376Y028296D01*
X052334Y028296D01*
X052293Y028300D01*
X052253Y028308D01*
X052213Y028320D01*
X052175Y028335D01*
X052139Y028354D01*
X052104Y028376D01*
X052071Y028402D01*
X052042Y028430D01*
X052015Y028461D01*
X051991Y028495D01*
X051970Y028531D01*
X051953Y028568D01*
X051940Y028607D01*
X051930Y028647D01*
X051924Y028688D01*
X051922Y028729D01*
D12*
X052155Y027741D02*
X052082Y027668D01*
X052082Y027521D01*
X052155Y027448D01*
X052229Y027448D01*
X052302Y027521D01*
X052302Y027741D01*
X052449Y027741D02*
X052155Y027741D01*
X052449Y027741D02*
X052522Y027668D01*
X052522Y027521D01*
X052449Y027448D01*
X052449Y027281D02*
X052522Y027208D01*
X052522Y027061D01*
X052449Y026987D01*
X052155Y026987D01*
X052082Y027061D01*
X052082Y027208D01*
X052155Y027281D01*
X052988Y027903D02*
X052988Y026603D01*
X052990Y026577D01*
X052995Y026551D01*
X053003Y026526D01*
X053015Y026503D01*
X053029Y026481D01*
X053047Y026462D01*
X053066Y026444D01*
X053088Y026430D01*
X053111Y026418D01*
X053136Y026410D01*
X053162Y026405D01*
X053188Y026403D01*
X053688Y026403D01*
X053714Y026405D01*
X053740Y026410D01*
X053765Y026418D01*
X053788Y026430D01*
X053810Y026444D01*
X053829Y026462D01*
X053847Y026481D01*
X053861Y026503D01*
X053873Y026526D01*
X053881Y026551D01*
X053886Y026577D01*
X053888Y026603D01*
X053888Y027903D01*
X053886Y027929D01*
X053881Y027955D01*
X053873Y027980D01*
X053861Y028003D01*
X053847Y028025D01*
X053829Y028044D01*
X053810Y028062D01*
X053788Y028076D01*
X053765Y028088D01*
X053740Y028096D01*
X053714Y028101D01*
X053688Y028103D01*
X053188Y028103D01*
X053162Y028101D01*
X053136Y028096D01*
X053111Y028088D01*
X053088Y028076D01*
X053066Y028062D01*
X053047Y028044D01*
X053029Y028025D01*
X053015Y028003D01*
X053003Y027980D01*
X052995Y027955D01*
X052990Y027929D01*
X052988Y027903D01*
X053172Y029216D02*
X053539Y029216D01*
X053613Y029290D01*
X053613Y029436D01*
X053539Y029510D01*
X053172Y029510D01*
X053246Y029677D02*
X053172Y029750D01*
X053172Y029897D01*
X053246Y029970D01*
X053319Y029970D01*
X053393Y029897D01*
X053466Y029970D01*
X053539Y029970D01*
X053613Y029897D01*
X053613Y029750D01*
X053539Y029677D01*
X053393Y029823D02*
X053393Y029897D01*
X055535Y031318D02*
X055535Y031759D01*
X055755Y031759D01*
X055828Y031685D01*
X055828Y031538D01*
X055755Y031465D01*
X055535Y031465D01*
X055682Y031465D02*
X055828Y031318D01*
X055995Y031318D02*
X056289Y031318D01*
X056142Y031318D02*
X056142Y031759D01*
X055995Y031612D01*
X056069Y032893D02*
X055995Y032966D01*
X056069Y032893D02*
X056215Y032893D01*
X056289Y032966D01*
X056289Y033040D01*
X056215Y033113D01*
X056142Y033113D01*
X056215Y033113D02*
X056289Y033187D01*
X056289Y033260D01*
X056215Y033333D01*
X056069Y033333D01*
X055995Y033260D01*
X055828Y033260D02*
X055828Y033113D01*
X055755Y033040D01*
X055535Y033040D01*
X055682Y033040D02*
X055828Y032893D01*
X055535Y032893D02*
X055535Y033333D01*
X055755Y033333D01*
X055828Y033260D01*
X052319Y034461D02*
X051879Y034461D01*
X051879Y034682D01*
X051952Y034755D01*
X052099Y034755D01*
X052172Y034682D01*
X052172Y034461D01*
X052172Y034608D02*
X052319Y034755D01*
X052246Y034922D02*
X052319Y034995D01*
X052319Y035142D01*
X052246Y035215D01*
X052099Y035215D01*
X052025Y035142D01*
X052025Y035069D01*
X052099Y034922D01*
X051879Y034922D01*
X051879Y035215D01*
X048315Y031285D02*
X048388Y031211D01*
X048388Y031065D01*
X048315Y030991D01*
X048315Y030824D02*
X048388Y030751D01*
X048388Y030604D01*
X048315Y030531D01*
X048021Y030531D01*
X047948Y030604D01*
X047948Y030751D01*
X048021Y030824D01*
X048021Y030991D02*
X047948Y031065D01*
X047948Y031211D01*
X048021Y031285D01*
X048095Y031285D01*
X048168Y031211D01*
X048241Y031285D01*
X048315Y031285D01*
X048168Y031211D02*
X048168Y031138D01*
X048168Y030170D02*
X048668Y030170D01*
X048694Y030168D01*
X048720Y030163D01*
X048745Y030155D01*
X048768Y030143D01*
X048790Y030129D01*
X048809Y030111D01*
X048827Y030092D01*
X048841Y030070D01*
X048853Y030047D01*
X048861Y030022D01*
X048866Y029996D01*
X048868Y029970D01*
X048868Y028670D01*
X048866Y028644D01*
X048861Y028618D01*
X048853Y028593D01*
X048841Y028570D01*
X048827Y028548D01*
X048809Y028529D01*
X048790Y028511D01*
X048768Y028497D01*
X048745Y028485D01*
X048720Y028477D01*
X048694Y028472D01*
X048668Y028470D01*
X048168Y028470D01*
X048142Y028472D01*
X048116Y028477D01*
X048091Y028485D01*
X048068Y028497D01*
X048046Y028511D01*
X048027Y028529D01*
X048009Y028548D01*
X047995Y028570D01*
X047983Y028593D01*
X047975Y028618D01*
X047970Y028644D01*
X047968Y028670D01*
X047968Y029970D01*
X047970Y029996D01*
X047975Y030022D01*
X047983Y030047D01*
X047995Y030070D01*
X048009Y030092D01*
X048027Y030111D01*
X048046Y030129D01*
X048068Y030143D01*
X048091Y030155D01*
X048116Y030163D01*
X048142Y030168D01*
X048168Y030170D01*
X046485Y029945D02*
X046485Y029651D01*
X046485Y029798D02*
X046044Y029798D01*
X046191Y029651D01*
X046044Y029484D02*
X046411Y029484D01*
X046485Y029411D01*
X046485Y029264D01*
X046411Y029191D01*
X046044Y029191D01*
X045519Y027414D02*
X045019Y027414D01*
X044993Y027412D01*
X044967Y027407D01*
X044942Y027399D01*
X044919Y027387D01*
X044897Y027373D01*
X044878Y027355D01*
X044860Y027336D01*
X044846Y027314D01*
X044834Y027291D01*
X044826Y027266D01*
X044821Y027240D01*
X044819Y027214D01*
X044819Y025914D01*
X044821Y025888D01*
X044826Y025862D01*
X044834Y025837D01*
X044846Y025814D01*
X044860Y025792D01*
X044878Y025773D01*
X044897Y025755D01*
X044919Y025741D01*
X044942Y025729D01*
X044967Y025721D01*
X044993Y025716D01*
X045019Y025714D01*
X045519Y025714D01*
X045545Y025716D01*
X045571Y025721D01*
X045596Y025729D01*
X045619Y025741D01*
X045641Y025755D01*
X045660Y025773D01*
X045678Y025792D01*
X045692Y025814D01*
X045704Y025837D01*
X045712Y025862D01*
X045717Y025888D01*
X045719Y025914D01*
X045719Y027214D01*
X045717Y027240D01*
X045712Y027266D01*
X045704Y027291D01*
X045692Y027314D01*
X045678Y027336D01*
X045660Y027355D01*
X045641Y027373D01*
X045619Y027387D01*
X045596Y027399D01*
X045571Y027407D01*
X045545Y027412D01*
X045519Y027414D01*
X045979Y026954D02*
X046053Y026807D01*
X046200Y026660D01*
X046200Y026881D01*
X046273Y026954D01*
X046346Y026954D01*
X046420Y026881D01*
X046420Y026734D01*
X046346Y026660D01*
X046200Y026660D01*
X046346Y026494D02*
X046420Y026420D01*
X046420Y026273D01*
X046346Y026200D01*
X046053Y026200D01*
X045979Y026273D01*
X045979Y026420D01*
X046053Y026494D01*
X045519Y024658D02*
X045019Y024658D01*
X044993Y024656D01*
X044967Y024651D01*
X044942Y024643D01*
X044919Y024631D01*
X044897Y024617D01*
X044878Y024599D01*
X044860Y024580D01*
X044846Y024558D01*
X044834Y024535D01*
X044826Y024510D01*
X044821Y024484D01*
X044819Y024458D01*
X044819Y023158D01*
X044821Y023132D01*
X044826Y023106D01*
X044834Y023081D01*
X044846Y023058D01*
X044860Y023036D01*
X044878Y023017D01*
X044897Y022999D01*
X044919Y022985D01*
X044942Y022973D01*
X044967Y022965D01*
X044993Y022960D01*
X045019Y022958D01*
X045519Y022958D01*
X045545Y022960D01*
X045571Y022965D01*
X045596Y022973D01*
X045619Y022985D01*
X045641Y022999D01*
X045660Y023017D01*
X045678Y023036D01*
X045692Y023058D01*
X045704Y023081D01*
X045712Y023106D01*
X045717Y023132D01*
X045719Y023158D01*
X045719Y024458D01*
X045717Y024484D01*
X045712Y024510D01*
X045704Y024535D01*
X045692Y024558D01*
X045678Y024580D01*
X045660Y024599D01*
X045641Y024617D01*
X045619Y024631D01*
X045596Y024643D01*
X045571Y024651D01*
X045545Y024656D01*
X045519Y024658D01*
X045979Y024198D02*
X046053Y024198D01*
X046346Y023905D01*
X046420Y023905D01*
X046346Y023738D02*
X046420Y023664D01*
X046420Y023518D01*
X046346Y023444D01*
X046053Y023444D01*
X045979Y023518D01*
X045979Y023664D01*
X046053Y023738D01*
X045979Y023905D02*
X045979Y024198D01*
X041332Y026564D02*
X041332Y029713D01*
X038969Y029713D01*
X038969Y026564D01*
X041332Y026564D01*
X041038Y026989D02*
X041151Y027101D01*
X041151Y027601D01*
X041038Y027713D01*
X040263Y027713D02*
X040151Y027601D01*
X040038Y027713D01*
X040151Y027601D02*
X040151Y027101D01*
X040038Y026989D01*
X040151Y027101D02*
X040263Y026989D01*
X039263Y026989D02*
X039151Y027101D01*
X039151Y027601D01*
X039263Y027713D01*
X039226Y026140D02*
X039226Y025700D01*
X038933Y026140D01*
X038933Y025700D01*
X038766Y025700D02*
X038766Y025994D01*
X038619Y026140D01*
X038472Y025994D01*
X038472Y025700D01*
X038472Y025920D02*
X038766Y025920D01*
X038306Y026140D02*
X038012Y026140D01*
X038012Y025700D01*
X038012Y025920D02*
X038159Y025920D01*
X045019Y032013D02*
X045519Y032013D01*
X045545Y032015D01*
X045571Y032020D01*
X045596Y032028D01*
X045619Y032040D01*
X045641Y032054D01*
X045660Y032072D01*
X045678Y032091D01*
X045692Y032113D01*
X045704Y032136D01*
X045712Y032161D01*
X045717Y032187D01*
X045719Y032213D01*
X045719Y033513D01*
X045717Y033539D01*
X045712Y033565D01*
X045704Y033590D01*
X045692Y033613D01*
X045678Y033635D01*
X045660Y033654D01*
X045641Y033672D01*
X045619Y033686D01*
X045596Y033698D01*
X045571Y033706D01*
X045545Y033711D01*
X045519Y033713D01*
X045019Y033713D01*
X044993Y033711D01*
X044967Y033706D01*
X044942Y033698D01*
X044919Y033686D01*
X044897Y033672D01*
X044878Y033654D01*
X044860Y033635D01*
X044846Y033613D01*
X044834Y033590D01*
X044826Y033565D01*
X044821Y033539D01*
X044819Y033513D01*
X044819Y032213D01*
X044821Y032187D01*
X044826Y032161D01*
X044834Y032136D01*
X044846Y032113D01*
X044860Y032091D01*
X044878Y032072D01*
X044897Y032054D01*
X044919Y032040D01*
X044942Y032028D01*
X044967Y032020D01*
X044993Y032015D01*
X045019Y032013D01*
X046144Y032352D02*
X046217Y032279D01*
X046511Y032279D01*
X046584Y032352D01*
X046584Y032499D01*
X046511Y032572D01*
X046511Y032739D02*
X046584Y032812D01*
X046584Y032959D01*
X046511Y033032D01*
X046364Y033032D01*
X046290Y032959D01*
X046290Y032886D01*
X046364Y032739D01*
X046144Y032739D01*
X046144Y033032D01*
X046217Y032572D02*
X046144Y032499D01*
X046144Y032352D01*
X035002Y033287D02*
X034709Y033580D01*
X034635Y033580D01*
X034562Y033507D01*
X034562Y033360D01*
X034635Y033287D01*
X035002Y033287D02*
X035002Y033580D01*
X035002Y033747D02*
X034709Y034041D01*
X034635Y034041D01*
X034562Y033967D01*
X034562Y033820D01*
X034635Y033747D01*
X035002Y033747D02*
X035002Y034041D01*
X034929Y034207D02*
X034635Y034501D01*
X034929Y034501D01*
X035002Y034428D01*
X035002Y034281D01*
X034929Y034207D01*
X034635Y034207D01*
X034562Y034281D01*
X034562Y034428D01*
X034635Y034501D01*
X034635Y034668D02*
X034562Y034741D01*
X034562Y034888D01*
X034635Y034961D01*
X034929Y034668D01*
X035002Y034741D01*
X035002Y034888D01*
X034929Y034961D01*
X034635Y034961D01*
X034709Y035128D02*
X034929Y035128D01*
X035002Y035201D01*
X035002Y035422D01*
X034709Y035422D01*
X034782Y035588D02*
X034782Y035735D01*
X034562Y035588D02*
X034562Y035882D01*
X034562Y035588D02*
X035002Y035588D01*
X034929Y034668D02*
X034635Y034668D01*
X034215Y034041D02*
X034215Y033747D01*
X034215Y033894D02*
X033775Y033894D01*
X033921Y033747D01*
X033848Y033580D02*
X033775Y033507D01*
X033775Y033360D01*
X033848Y033287D01*
X034142Y033287D01*
X034215Y033360D01*
X034215Y033507D01*
X034142Y033580D01*
X046159Y020128D02*
X046086Y020054D01*
X046086Y019908D01*
X046159Y019834D01*
X046086Y019667D02*
X046453Y019667D01*
X046526Y019594D01*
X046526Y019447D01*
X046453Y019374D01*
X046086Y019374D01*
X046526Y019834D02*
X046232Y020128D01*
X046159Y020128D01*
X046526Y020128D02*
X046526Y019834D01*
X047575Y020127D02*
X047575Y018827D01*
X047577Y018801D01*
X047582Y018775D01*
X047590Y018750D01*
X047602Y018727D01*
X047616Y018705D01*
X047634Y018686D01*
X047653Y018668D01*
X047675Y018654D01*
X047698Y018642D01*
X047723Y018634D01*
X047749Y018629D01*
X047775Y018627D01*
X048275Y018627D01*
X048301Y018629D01*
X048327Y018634D01*
X048352Y018642D01*
X048375Y018654D01*
X048397Y018668D01*
X048416Y018686D01*
X048434Y018705D01*
X048448Y018727D01*
X048460Y018750D01*
X048468Y018775D01*
X048473Y018801D01*
X048475Y018827D01*
X048475Y020127D01*
X048473Y020153D01*
X048468Y020179D01*
X048460Y020204D01*
X048448Y020227D01*
X048434Y020249D01*
X048416Y020268D01*
X048397Y020286D01*
X048375Y020300D01*
X048352Y020312D01*
X048327Y020320D01*
X048301Y020325D01*
X048275Y020327D01*
X047775Y020327D01*
X047749Y020325D01*
X047723Y020320D01*
X047698Y020312D01*
X047675Y020300D01*
X047653Y020286D01*
X047634Y020268D01*
X047616Y020249D01*
X047602Y020227D01*
X047590Y020204D01*
X047582Y020179D01*
X047577Y020153D01*
X047575Y020127D01*
X048842Y019661D02*
X049062Y019440D01*
X049062Y019734D01*
X049282Y019661D02*
X048842Y019661D01*
X048915Y019274D02*
X048842Y019200D01*
X048842Y019054D01*
X048915Y018980D01*
X049209Y018980D01*
X049282Y019054D01*
X049282Y019200D01*
X049209Y019274D01*
X048275Y017571D02*
X047775Y017571D01*
X047749Y017569D01*
X047723Y017564D01*
X047698Y017556D01*
X047675Y017544D01*
X047653Y017530D01*
X047634Y017512D01*
X047616Y017493D01*
X047602Y017471D01*
X047590Y017448D01*
X047582Y017423D01*
X047577Y017397D01*
X047575Y017371D01*
X047575Y016071D01*
X047577Y016045D01*
X047582Y016019D01*
X047590Y015994D01*
X047602Y015971D01*
X047616Y015949D01*
X047634Y015930D01*
X047653Y015912D01*
X047675Y015898D01*
X047698Y015886D01*
X047723Y015878D01*
X047749Y015873D01*
X047775Y015871D01*
X048275Y015871D01*
X048301Y015873D01*
X048327Y015878D01*
X048352Y015886D01*
X048375Y015898D01*
X048397Y015912D01*
X048416Y015930D01*
X048434Y015949D01*
X048448Y015971D01*
X048460Y015994D01*
X048468Y016019D01*
X048473Y016045D01*
X048475Y016071D01*
X048475Y017371D01*
X048473Y017397D01*
X048468Y017423D01*
X048460Y017448D01*
X048448Y017471D01*
X048434Y017493D01*
X048416Y017512D01*
X048397Y017530D01*
X048375Y017544D01*
X048352Y017556D01*
X048327Y017564D01*
X048301Y017569D01*
X048275Y017571D01*
X048842Y017102D02*
X048915Y017175D01*
X049209Y016881D01*
X049282Y016955D01*
X049282Y017102D01*
X049209Y017175D01*
X048915Y017175D01*
X048842Y017102D02*
X048842Y016955D01*
X048915Y016881D01*
X049209Y016881D01*
X049282Y016715D02*
X049282Y016421D01*
X049282Y016568D02*
X048842Y016568D01*
X048988Y016421D01*
X048915Y016254D02*
X048842Y016181D01*
X048842Y016034D01*
X048915Y015961D01*
X049209Y015961D01*
X049282Y016034D01*
X049282Y016181D01*
X049209Y016254D01*
X046535Y016375D02*
X046461Y016302D01*
X046388Y016302D01*
X046315Y016375D01*
X046315Y016522D01*
X046388Y016595D01*
X046461Y016595D01*
X046535Y016522D01*
X046535Y016375D01*
X046315Y016375D02*
X046241Y016302D01*
X046168Y016302D01*
X046094Y016375D01*
X046094Y016522D01*
X046168Y016595D01*
X046241Y016595D01*
X046315Y016522D01*
X046461Y016135D02*
X046535Y016062D01*
X046535Y015915D01*
X046461Y015842D01*
X046168Y015842D01*
X046094Y015915D01*
X046094Y016062D01*
X046168Y016135D01*
X045719Y015678D02*
X045719Y016978D01*
X045717Y017004D01*
X045712Y017030D01*
X045704Y017055D01*
X045692Y017078D01*
X045678Y017100D01*
X045660Y017119D01*
X045641Y017137D01*
X045619Y017151D01*
X045596Y017163D01*
X045571Y017171D01*
X045545Y017176D01*
X045519Y017178D01*
X045019Y017178D01*
X044993Y017176D01*
X044967Y017171D01*
X044942Y017163D01*
X044919Y017151D01*
X044897Y017137D01*
X044878Y017119D01*
X044860Y017100D01*
X044846Y017078D01*
X044834Y017055D01*
X044826Y017030D01*
X044821Y017004D01*
X044819Y016978D01*
X044819Y015678D01*
X044821Y015652D01*
X044826Y015626D01*
X044834Y015601D01*
X044846Y015578D01*
X044860Y015556D01*
X044878Y015537D01*
X044897Y015519D01*
X044919Y015505D01*
X044942Y015493D01*
X044967Y015485D01*
X044993Y015480D01*
X045019Y015478D01*
X045519Y015478D01*
X045545Y015480D01*
X045571Y015485D01*
X045596Y015493D01*
X045619Y015505D01*
X045641Y015519D01*
X045660Y015537D01*
X045678Y015556D01*
X045692Y015578D01*
X045704Y015601D01*
X045712Y015626D01*
X045717Y015652D01*
X045719Y015678D01*
X043036Y011483D02*
X043036Y011189D01*
X042889Y011043D01*
X042743Y011189D01*
X042743Y011483D01*
X042576Y011410D02*
X042503Y011483D01*
X042356Y011483D01*
X042282Y011410D01*
X042576Y011410D02*
X042576Y011336D01*
X042282Y011043D01*
X042576Y011043D01*
X042116Y011043D02*
X041822Y011043D01*
X041969Y011043D02*
X041969Y011483D01*
X041822Y011336D01*
X041655Y011263D02*
X041362Y011263D01*
X041632Y009514D02*
X041559Y009441D01*
X041559Y009147D01*
X041632Y009074D01*
X041779Y009074D01*
X041852Y009147D01*
X041852Y009294D01*
X041705Y009294D01*
X041852Y009441D02*
X041779Y009514D01*
X041632Y009514D01*
X042019Y009514D02*
X042312Y009074D01*
X042312Y009514D01*
X042479Y009514D02*
X042699Y009514D01*
X042773Y009441D01*
X042773Y009147D01*
X042699Y009074D01*
X042479Y009074D01*
X042479Y009514D01*
X042019Y009514D02*
X042019Y009074D01*
X041969Y007546D02*
X041822Y007399D01*
X041655Y007326D02*
X041362Y007326D01*
X041508Y007473D02*
X041508Y007179D01*
X041822Y007106D02*
X042116Y007106D01*
X041969Y007106D02*
X041969Y007546D01*
X042282Y007473D02*
X042356Y007546D01*
X042503Y007546D01*
X042576Y007473D01*
X042576Y007399D01*
X042282Y007106D01*
X042576Y007106D01*
X042743Y007252D02*
X042889Y007106D01*
X043036Y007252D01*
X043036Y007546D01*
X042743Y007546D02*
X042743Y007252D01*
X042643Y005774D02*
X042643Y005481D01*
X042496Y005334D01*
X042349Y005481D01*
X042349Y005774D01*
X042182Y005701D02*
X042109Y005774D01*
X041962Y005774D01*
X041889Y005701D01*
X042182Y005701D02*
X042182Y005628D01*
X041889Y005334D01*
X042182Y005334D01*
X041722Y005334D02*
X041428Y005334D01*
X041575Y005334D02*
X041575Y005774D01*
X041428Y005628D01*
X041262Y005554D02*
X040968Y005554D01*
X041115Y005701D02*
X041115Y005407D01*
X040477Y005554D02*
X040184Y005554D01*
X040017Y005774D02*
X039870Y005774D01*
X039943Y005774D02*
X039943Y005407D01*
X039870Y005334D01*
X039797Y005334D01*
X039723Y005407D01*
X039557Y005407D02*
X039557Y005701D01*
X039483Y005774D01*
X039263Y005774D01*
X039263Y005334D01*
X039483Y005334D01*
X039557Y005407D01*
X039096Y005334D02*
X039096Y005628D01*
X038949Y005774D01*
X038803Y005628D01*
X038803Y005334D01*
X038803Y005554D02*
X039096Y005554D01*
X037721Y005481D02*
X037575Y005334D01*
X037428Y005481D01*
X037428Y005774D01*
X037261Y005701D02*
X037188Y005774D01*
X037041Y005774D01*
X036967Y005701D01*
X037261Y005701D02*
X037261Y005628D01*
X036967Y005334D01*
X037261Y005334D01*
X036801Y005334D02*
X036507Y005334D01*
X036654Y005334D02*
X036654Y005774D01*
X036507Y005628D01*
X036340Y005554D02*
X036047Y005554D01*
X035426Y006091D02*
X045269Y006091D01*
X045269Y002548D01*
X044481Y001761D01*
X036214Y001761D01*
X035426Y002548D01*
X035426Y006091D01*
X037721Y005774D02*
X037721Y005481D01*
X032667Y005948D02*
X032373Y005948D01*
X032593Y006168D01*
X032593Y005728D01*
X032206Y005801D02*
X032206Y006095D01*
X032133Y006168D01*
X031913Y006168D01*
X031913Y005728D01*
X032133Y005728D01*
X032206Y005801D01*
X029517Y005728D02*
X029224Y005728D01*
X029517Y006021D01*
X029517Y006095D01*
X029444Y006168D01*
X029297Y006168D01*
X029224Y006095D01*
X029057Y006095D02*
X028983Y006168D01*
X028763Y006168D01*
X028763Y005728D01*
X028983Y005728D01*
X029057Y005801D01*
X029057Y006095D01*
X028983Y008877D02*
X028763Y008877D01*
X028763Y009318D01*
X028983Y009318D01*
X029057Y009244D01*
X029057Y008951D01*
X028983Y008877D01*
X029224Y008877D02*
X029517Y008877D01*
X029370Y008877D02*
X029370Y009318D01*
X029224Y009171D01*
X031913Y009318D02*
X031913Y008877D01*
X032133Y008877D01*
X032206Y008951D01*
X032206Y009244D01*
X032133Y009318D01*
X031913Y009318D01*
X032373Y009244D02*
X032447Y009318D01*
X032593Y009318D01*
X032667Y009244D01*
X032667Y009171D01*
X032593Y009097D01*
X032667Y009024D01*
X032667Y008951D01*
X032593Y008877D01*
X032447Y008877D01*
X032373Y008951D01*
X032520Y009097D02*
X032593Y009097D01*
X036244Y012814D02*
X036537Y013108D01*
X036537Y013181D01*
X036464Y013255D01*
X036317Y013255D01*
X036244Y013181D01*
X036244Y012814D02*
X036537Y012814D01*
X036704Y012814D02*
X036997Y013108D01*
X036997Y013181D01*
X036924Y013255D01*
X036777Y013255D01*
X036704Y013181D01*
X036704Y012814D02*
X036997Y012814D01*
X037164Y012888D02*
X037458Y013181D01*
X037458Y012888D01*
X037384Y012814D01*
X037238Y012814D01*
X037164Y012888D01*
X037164Y013181D01*
X037238Y013255D01*
X037384Y013255D01*
X037458Y013181D01*
X037625Y013181D02*
X037698Y013255D01*
X037845Y013255D01*
X037918Y013181D01*
X037625Y012888D01*
X037698Y012814D01*
X037845Y012814D01*
X037918Y012888D01*
X037918Y013181D01*
X038085Y013108D02*
X038085Y012888D01*
X038158Y012814D01*
X038379Y012814D01*
X038379Y013108D01*
X038545Y013034D02*
X038692Y013034D01*
X038545Y012814D02*
X038545Y013255D01*
X038839Y013255D01*
X037625Y013181D02*
X037625Y012888D01*
X036997Y013602D02*
X036704Y013602D01*
X036997Y013895D01*
X036997Y013969D01*
X036924Y014042D01*
X036777Y014042D01*
X036704Y013969D01*
X036537Y013969D02*
X036464Y014042D01*
X036317Y014042D01*
X036244Y013969D01*
X036244Y013675D01*
X036317Y013602D01*
X036464Y013602D01*
X036537Y013675D01*
X043477Y005774D02*
X043624Y005628D01*
X043624Y005334D01*
X043791Y005334D02*
X043791Y005774D01*
X044011Y005774D01*
X044084Y005701D01*
X044084Y005407D01*
X044011Y005334D01*
X043791Y005334D01*
X043624Y005554D02*
X043330Y005554D01*
X043330Y005628D02*
X043477Y005774D01*
X043330Y005628D02*
X043330Y005334D01*
X044251Y005407D02*
X044324Y005334D01*
X044398Y005334D01*
X044471Y005407D01*
X044471Y005774D01*
X044398Y005774D02*
X044544Y005774D01*
X044711Y005554D02*
X045005Y005554D01*
X044858Y005701D02*
X044858Y005407D01*
X047674Y003699D02*
X047821Y003699D01*
X047748Y003699D02*
X047748Y003333D01*
X047674Y003259D01*
X047601Y003259D01*
X047528Y003333D01*
X047988Y003259D02*
X048281Y003259D01*
X048135Y003259D02*
X048135Y003699D01*
X047988Y003553D01*
X046513Y002158D02*
X046440Y002231D01*
X046219Y002231D01*
X046219Y001791D01*
X046440Y001791D01*
X046513Y001864D01*
X046513Y002158D01*
X046053Y002231D02*
X046053Y001791D01*
X045759Y002231D01*
X045759Y001791D01*
X045592Y001864D02*
X045519Y001791D01*
X045372Y001791D01*
X045299Y001864D01*
X045299Y002158D01*
X045372Y002231D01*
X045519Y002231D01*
X045592Y002158D01*
X045592Y002011D02*
X045445Y002011D01*
X045592Y002011D02*
X045592Y001864D01*
X053370Y014389D02*
X053370Y014829D01*
X053590Y014829D01*
X053663Y014756D01*
X053663Y014609D01*
X053590Y014536D01*
X053370Y014536D01*
X053516Y014536D02*
X053663Y014389D01*
X053830Y014462D02*
X053830Y014609D01*
X054050Y014609D01*
X054123Y014536D01*
X054123Y014462D01*
X054050Y014389D01*
X053903Y014389D01*
X053830Y014462D01*
X053830Y014609D02*
X053977Y014756D01*
X054123Y014829D01*
X054046Y015574D02*
X054046Y016014D01*
X053826Y015794D01*
X054120Y015794D01*
X053659Y015794D02*
X053659Y015941D01*
X053586Y016014D01*
X053366Y016014D01*
X053366Y015574D01*
X053366Y015721D02*
X053586Y015721D01*
X053659Y015794D01*
X053512Y015721D02*
X053659Y015574D01*
X053659Y016755D02*
X053512Y016902D01*
X053586Y016902D02*
X053366Y016902D01*
X053366Y016755D02*
X053366Y017196D01*
X053586Y017196D01*
X053659Y017122D01*
X053659Y016975D01*
X053586Y016902D01*
X053826Y016755D02*
X054120Y017049D01*
X054120Y017122D01*
X054046Y017196D01*
X053899Y017196D01*
X053826Y017122D01*
X053826Y016755D02*
X054120Y016755D01*
X053539Y019374D02*
X053613Y019447D01*
X053613Y019594D01*
X053539Y019667D01*
X053172Y019667D01*
X053393Y019834D02*
X053393Y020128D01*
X053613Y020054D02*
X053172Y020054D01*
X053393Y019834D01*
X053539Y019374D02*
X053172Y019374D01*
X012194Y038011D02*
X011901Y038011D01*
X012048Y038011D02*
X012048Y038451D01*
X011901Y038305D01*
X011734Y038451D02*
X011440Y038011D01*
X011734Y038011D02*
X011440Y038451D01*
X005480Y038207D02*
X004728Y038207D01*
X005480Y038207D02*
X005480Y028307D01*
X004777Y028307D01*
X005075Y028757D02*
X005380Y028757D01*
X005380Y029204D01*
X005380Y031007D01*
X004930Y031007D01*
X004930Y029204D01*
X005180Y029204D01*
X005180Y028857D01*
X005075Y028857D01*
X005180Y029204D02*
X005380Y029204D01*
X003083Y028307D02*
X002380Y028307D01*
X002380Y038207D01*
X003083Y038207D01*
X002786Y037757D02*
X002480Y037757D01*
X002480Y037310D01*
X002480Y035507D01*
X002930Y035507D01*
X002930Y037310D01*
X002680Y037310D01*
X002680Y037657D01*
X002786Y037657D01*
X002680Y037310D02*
X002480Y037310D01*
X004930Y037310D02*
X004930Y035507D01*
X005380Y035507D01*
X005380Y037310D01*
X004930Y037310D01*
X006369Y033514D02*
X006369Y033220D01*
X006369Y033367D02*
X005928Y033367D01*
X006075Y033220D01*
X005928Y033053D02*
X005928Y032760D01*
X006369Y032760D01*
X006148Y032760D02*
X006148Y032906D01*
X002930Y031007D02*
X002480Y031007D01*
X002480Y029204D01*
X002930Y029204D01*
X002930Y031007D01*
D13*
X039152Y028970D02*
X039566Y028970D01*
X040333Y028970D02*
X040747Y028970D01*
X040540Y029177D02*
X040540Y028763D01*
X046601Y011209D02*
X046601Y008454D01*
X046601Y006879D02*
X046601Y004123D01*
X048373Y004123D01*
X048373Y011209D01*
X046601Y011209D01*
D14*
X032470Y008246D02*
X032470Y007873D01*
X032093Y008060D01*
X032470Y008246D01*
X029311Y008060D02*
X028934Y008246D01*
X028934Y007873D01*
X029311Y008060D01*
X029320Y005097D02*
X029320Y004724D01*
X028943Y004910D01*
X029320Y005097D01*
X032083Y005097D02*
X032460Y004910D01*
X032083Y004724D01*
X032083Y005097D01*
D15*
X032455Y004910D03*
X028949Y004910D03*
X029305Y008060D03*
X032098Y008060D03*
D16*
X019399Y009243D02*
X012985Y009241D01*
X012985Y036013D01*
X018383Y036011D01*
X024796Y036013D01*
X012985Y036013D01*
X015347Y036013D02*
X015347Y041524D01*
X022434Y041524D01*
X022434Y036013D01*
X024796Y036013D02*
X024796Y009241D01*
X019399Y009243D01*
X022434Y009241D02*
X022434Y003729D01*
X015347Y003729D01*
X015347Y009241D01*
X010623Y013965D02*
X008261Y013965D01*
X008261Y016328D01*
X008261Y028926D02*
X008261Y031288D01*
X010623Y031288D01*
X027158Y031288D02*
X029521Y031288D01*
X029521Y028926D01*
X036016Y035619D02*
X036019Y035745D01*
X036028Y035870D01*
X036044Y035995D01*
X036065Y036118D01*
X036093Y036241D01*
X036126Y036362D01*
X036166Y036481D01*
X036211Y036599D01*
X036262Y036714D01*
X036318Y036826D01*
X036380Y036935D01*
X036447Y037041D01*
X036520Y037144D01*
X036597Y037243D01*
X036679Y037338D01*
X036766Y037429D01*
X036857Y037516D01*
X036952Y037598D01*
X037051Y037675D01*
X037154Y037748D01*
X037260Y037815D01*
X037369Y037877D01*
X037481Y037933D01*
X037596Y037984D01*
X037714Y038029D01*
X037833Y038069D01*
X037954Y038102D01*
X038077Y038130D01*
X038200Y038151D01*
X038325Y038167D01*
X038450Y038176D01*
X038576Y038179D01*
X038702Y038176D01*
X038827Y038167D01*
X038952Y038151D01*
X039075Y038130D01*
X039198Y038102D01*
X039319Y038069D01*
X039438Y038029D01*
X039556Y037984D01*
X039671Y037933D01*
X039783Y037877D01*
X039892Y037815D01*
X039998Y037748D01*
X040101Y037675D01*
X040200Y037598D01*
X040295Y037516D01*
X040386Y037429D01*
X040473Y037338D01*
X040555Y037243D01*
X040632Y037144D01*
X040705Y037041D01*
X040772Y036935D01*
X040834Y036826D01*
X040890Y036714D01*
X040941Y036599D01*
X040986Y036481D01*
X041026Y036362D01*
X041059Y036241D01*
X041087Y036118D01*
X041108Y035995D01*
X041124Y035870D01*
X041133Y035745D01*
X041136Y035619D01*
X041133Y035493D01*
X041124Y035368D01*
X041108Y035243D01*
X041087Y035120D01*
X041059Y034997D01*
X041026Y034876D01*
X040986Y034757D01*
X040941Y034639D01*
X040890Y034524D01*
X040834Y034412D01*
X040772Y034303D01*
X040705Y034197D01*
X040632Y034094D01*
X040555Y033995D01*
X040473Y033900D01*
X040386Y033809D01*
X040295Y033722D01*
X040200Y033640D01*
X040101Y033563D01*
X039998Y033490D01*
X039892Y033423D01*
X039783Y033361D01*
X039671Y033305D01*
X039556Y033254D01*
X039438Y033209D01*
X039319Y033169D01*
X039198Y033136D01*
X039075Y033108D01*
X038952Y033087D01*
X038827Y033071D01*
X038702Y033062D01*
X038576Y033059D01*
X038450Y033062D01*
X038325Y033071D01*
X038200Y033087D01*
X038077Y033108D01*
X037954Y033136D01*
X037833Y033169D01*
X037714Y033209D01*
X037596Y033254D01*
X037481Y033305D01*
X037369Y033361D01*
X037260Y033423D01*
X037154Y033490D01*
X037051Y033563D01*
X036952Y033640D01*
X036857Y033722D01*
X036766Y033809D01*
X036679Y033900D01*
X036597Y033995D01*
X036520Y034094D01*
X036447Y034197D01*
X036380Y034303D01*
X036318Y034412D01*
X036262Y034524D01*
X036211Y034639D01*
X036166Y034757D01*
X036126Y034876D01*
X036093Y034997D01*
X036065Y035120D01*
X036044Y035243D01*
X036028Y035368D01*
X036019Y035493D01*
X036016Y035619D01*
X029521Y016328D02*
X029521Y013965D01*
X027158Y013965D01*
X036016Y009635D02*
X036019Y009761D01*
X036028Y009886D01*
X036044Y010011D01*
X036065Y010134D01*
X036093Y010257D01*
X036126Y010378D01*
X036166Y010497D01*
X036211Y010615D01*
X036262Y010730D01*
X036318Y010842D01*
X036380Y010951D01*
X036447Y011057D01*
X036520Y011160D01*
X036597Y011259D01*
X036679Y011354D01*
X036766Y011445D01*
X036857Y011532D01*
X036952Y011614D01*
X037051Y011691D01*
X037154Y011764D01*
X037260Y011831D01*
X037369Y011893D01*
X037481Y011949D01*
X037596Y012000D01*
X037714Y012045D01*
X037833Y012085D01*
X037954Y012118D01*
X038077Y012146D01*
X038200Y012167D01*
X038325Y012183D01*
X038450Y012192D01*
X038576Y012195D01*
X038702Y012192D01*
X038827Y012183D01*
X038952Y012167D01*
X039075Y012146D01*
X039198Y012118D01*
X039319Y012085D01*
X039438Y012045D01*
X039556Y012000D01*
X039671Y011949D01*
X039783Y011893D01*
X039892Y011831D01*
X039998Y011764D01*
X040101Y011691D01*
X040200Y011614D01*
X040295Y011532D01*
X040386Y011445D01*
X040473Y011354D01*
X040555Y011259D01*
X040632Y011160D01*
X040705Y011057D01*
X040772Y010951D01*
X040834Y010842D01*
X040890Y010730D01*
X040941Y010615D01*
X040986Y010497D01*
X041026Y010378D01*
X041059Y010257D01*
X041087Y010134D01*
X041108Y010011D01*
X041124Y009886D01*
X041133Y009761D01*
X041136Y009635D01*
X041133Y009509D01*
X041124Y009384D01*
X041108Y009259D01*
X041087Y009136D01*
X041059Y009013D01*
X041026Y008892D01*
X040986Y008773D01*
X040941Y008655D01*
X040890Y008540D01*
X040834Y008428D01*
X040772Y008319D01*
X040705Y008213D01*
X040632Y008110D01*
X040555Y008011D01*
X040473Y007916D01*
X040386Y007825D01*
X040295Y007738D01*
X040200Y007656D01*
X040101Y007579D01*
X039998Y007506D01*
X039892Y007439D01*
X039783Y007377D01*
X039671Y007321D01*
X039556Y007270D01*
X039438Y007225D01*
X039319Y007185D01*
X039198Y007152D01*
X039075Y007124D01*
X038952Y007103D01*
X038827Y007087D01*
X038702Y007078D01*
X038576Y007075D01*
X038450Y007078D01*
X038325Y007087D01*
X038200Y007103D01*
X038077Y007124D01*
X037954Y007152D01*
X037833Y007185D01*
X037714Y007225D01*
X037596Y007270D01*
X037481Y007321D01*
X037369Y007377D01*
X037260Y007439D01*
X037154Y007506D01*
X037051Y007579D01*
X036952Y007656D01*
X036857Y007738D01*
X036766Y007825D01*
X036679Y007916D01*
X036597Y008011D01*
X036520Y008110D01*
X036447Y008213D01*
X036380Y008319D01*
X036318Y008428D01*
X036262Y008540D01*
X036211Y008655D01*
X036166Y008773D01*
X036126Y008892D01*
X036093Y009013D01*
X036065Y009136D01*
X036044Y009259D01*
X036028Y009384D01*
X036019Y009509D01*
X036016Y009635D01*
D17*
X044969Y016208D02*
X045569Y016208D01*
X045569Y016458D02*
X044969Y016458D01*
X047725Y016591D02*
X048325Y016591D01*
X048325Y016841D02*
X047725Y016841D01*
X047725Y019347D02*
X048325Y019347D01*
X048325Y019597D02*
X047725Y019597D01*
X045569Y023678D02*
X044969Y023678D01*
X044969Y023928D02*
X045569Y023928D01*
X045569Y026444D02*
X044969Y026444D01*
X044969Y026694D02*
X045569Y026694D01*
X048118Y029200D02*
X048718Y029200D01*
X048718Y029450D02*
X048118Y029450D01*
X045569Y032733D02*
X044969Y032733D01*
X044969Y032983D02*
X045569Y032983D01*
X053138Y027383D02*
X053738Y027383D01*
X053738Y027133D02*
X053138Y027133D01*
D18*
X005080Y031257D02*
X005080Y035257D01*
X003930Y035307D02*
X003930Y031207D01*
X002780Y031257D02*
X002780Y035257D01*
D19*
X002905Y035382D03*
X004955Y035382D03*
X004955Y031132D03*
X002905Y031132D03*
D20*
X003930Y031132D03*
X003930Y035382D03*
D21*
X002980Y033257D03*
X004880Y033257D03*
D22*
X004705Y036282D03*
X003155Y036282D03*
X003155Y030232D03*
X004705Y030232D03*
D23*
X004830Y030163D03*
X003030Y030163D03*
X003030Y036350D03*
X004830Y036350D03*
M02*
