G75*
G70*
%OFA0B0*%
%FSLAX24Y24*%
%IPPOS*%
%LPD*%
%AMOC8*
5,1,8,0,0,1.08239X$1,22.5*
%
%ADD10C,0.1261*%
%ADD11R,0.0590X0.0630*%
%ADD12R,0.0580X0.0580*%
%ADD13C,0.0580*%
%ADD14OC8,0.0600*%
%ADD15R,0.1261X0.1261*%
%ADD16C,0.0789*%
%ADD17R,0.0789X0.0789*%
%ADD18R,0.0474X0.0513*%
%ADD19R,0.0867X0.0867*%
%ADD20C,0.1080*%
%ADD21R,0.0710X0.0710*%
%ADD22C,0.0680*%
%ADD23R,0.0710X0.0592*%
%ADD24R,0.0592X0.0710*%
%ADD25R,0.1025X0.1025*%
%ADD26C,0.0480*%
D10*
X002749Y002745D03*
X037001Y002548D03*
X037001Y004123D03*
X039363Y004123D03*
X039363Y002548D03*
X041725Y002548D03*
X041725Y004123D03*
X044088Y004123D03*
X044088Y002548D03*
X056292Y002745D03*
X056292Y041721D03*
X002749Y041721D03*
D11*
X028557Y008060D03*
X029697Y008060D03*
X031707Y008060D03*
X032847Y008060D03*
X032847Y004910D03*
X031707Y004910D03*
X029697Y004910D03*
X028557Y004910D03*
D12*
X038576Y010635D03*
X038576Y034619D03*
D13*
X038576Y036619D03*
X038576Y008635D03*
D14*
X045269Y015828D03*
X045269Y016828D03*
X048025Y017221D03*
X048025Y016221D03*
X048025Y018977D03*
X048025Y019977D03*
X045269Y023308D03*
X045269Y024308D03*
X045269Y026064D03*
X045269Y027064D03*
X048418Y028820D03*
X048418Y029820D03*
X045269Y032363D03*
X045269Y033363D03*
X053438Y027753D03*
X053438Y026753D03*
D15*
X034639Y030501D03*
X034639Y022627D03*
X034639Y014753D03*
X003143Y019083D03*
X003143Y026170D03*
D16*
X045269Y028713D03*
X045269Y029713D03*
X052355Y029713D03*
X052355Y028713D03*
X052355Y019871D03*
X052355Y018871D03*
X045269Y018871D03*
X045269Y019871D03*
D17*
X045269Y020871D03*
X052355Y020871D03*
X052355Y030713D03*
X045269Y030713D03*
D18*
X053989Y031288D03*
X054658Y031288D03*
X054658Y032863D03*
X053989Y032863D03*
X052690Y017115D03*
X052021Y017115D03*
X052021Y015934D03*
X052690Y015934D03*
D19*
X043694Y011209D03*
X043694Y009241D03*
X043694Y007272D03*
D20*
X004430Y028827D02*
X003430Y028827D01*
X003430Y037687D02*
X004430Y037687D01*
D21*
X047271Y010422D03*
X047271Y009635D03*
X047271Y008847D03*
X047271Y008060D03*
X047271Y007272D03*
X047271Y006485D03*
X047271Y005698D03*
X047271Y004910D03*
D22*
X040651Y027051D02*
X040651Y027651D01*
X039651Y027651D02*
X039651Y027051D01*
D23*
X052355Y032883D03*
X052355Y033631D03*
D24*
X051981Y014359D03*
X052729Y014359D03*
D25*
X048812Y014457D03*
X041725Y014457D03*
X041725Y033946D03*
X048812Y033946D03*
D26*
X053143Y031682D03*
X054717Y028532D03*
X048025Y024595D03*
X039757Y023808D03*
X037395Y015540D03*
X053143Y004517D03*
X025584Y002548D03*
X007473Y008060D03*
X008261Y037194D03*
X031489Y039556D03*
X046843Y039556D03*
X053536Y037587D03*
M02*
