G75*
G70*
%OFA0B0*%
%FSLAX24Y24*%
%IPPOS*%
%LPD*%
%AMOC8*
5,1,8,0,0,1.08239X$1,22.5*
%
%ADD10R,0.0510X0.0550*%
%ADD11R,0.0500X0.0500*%
%ADD12C,0.0500*%
%ADD13OC8,0.0520*%
%ADD14R,0.1181X0.1181*%
%ADD15C,0.0709*%
%ADD16R,0.0709X0.0709*%
%ADD17R,0.0394X0.0433*%
%ADD18R,0.0787X0.0787*%
%ADD19C,0.1000*%
%ADD20R,0.0630X0.0630*%
%ADD21C,0.0600*%
%ADD22R,0.0630X0.0512*%
%ADD23R,0.0512X0.0630*%
%ADD24C,0.0787*%
%ADD25C,0.0160*%
%ADD26R,0.0945X0.0945*%
%ADD27C,0.1181*%
%ADD28C,0.0400*%
%ADD29C,0.0591*%
%ADD30C,0.0394*%
%ADD31C,0.0492*%
D10*
X028557Y004910D03*
X029697Y004910D03*
X031707Y004910D03*
X032847Y004910D03*
X032847Y008060D03*
X031707Y008060D03*
X029697Y008060D03*
X028557Y008060D03*
D11*
X038576Y010635D03*
X038576Y034619D03*
D12*
X038576Y036619D03*
X038576Y008635D03*
D13*
X045269Y015828D03*
X045269Y016828D03*
X048025Y017221D03*
X048025Y016221D03*
X048025Y018977D03*
X048025Y019977D03*
X045269Y023308D03*
X045269Y024308D03*
X045269Y026064D03*
X045269Y027064D03*
X048418Y028820D03*
X048418Y029820D03*
X045269Y032363D03*
X045269Y033363D03*
X053438Y027753D03*
X053438Y026753D03*
D14*
X034639Y030501D03*
X034639Y022627D03*
X034639Y014753D03*
X003143Y019083D03*
X003143Y026170D03*
D15*
X045269Y028713D03*
X045269Y029713D03*
X052355Y029713D03*
X052355Y028713D03*
X052355Y019871D03*
X052355Y018871D03*
X045269Y018871D03*
X045269Y019871D03*
D16*
X045269Y020871D03*
X052355Y020871D03*
X052355Y030713D03*
X045269Y030713D03*
D17*
X053989Y031288D03*
X054658Y031288D03*
X054658Y032863D03*
X053989Y032863D03*
X052690Y017115D03*
X052021Y017115D03*
X052021Y015934D03*
X052690Y015934D03*
D18*
X043694Y011209D03*
X043694Y009241D03*
X043694Y007272D03*
D19*
X004430Y028827D02*
X003430Y028827D01*
X003430Y037687D02*
X004430Y037687D01*
D20*
X047271Y010422D03*
X047271Y009635D03*
X047271Y008847D03*
X047271Y008060D03*
X047271Y007272D03*
X047271Y006485D03*
X047271Y005698D03*
X047271Y004910D03*
D21*
X040651Y027051D02*
X040651Y027651D01*
X039651Y027651D02*
X039651Y027051D01*
D22*
X052355Y032883D03*
X052355Y033631D03*
D23*
X051981Y014359D03*
X052729Y014359D03*
D24*
X052355Y019871D02*
X048131Y019871D01*
X048025Y019977D01*
X047918Y019871D01*
X046843Y019871D01*
X046843Y021733D01*
X045269Y023308D01*
X043194Y023308D01*
X041725Y021839D01*
X041725Y018690D01*
X040544Y017509D01*
X040544Y010603D01*
X038576Y008635D01*
X036395Y008635D01*
X034245Y006485D01*
X034245Y003335D01*
X031707Y003335D01*
X031707Y004910D01*
X029697Y004910D01*
X028557Y004910D02*
X028557Y008060D01*
X028557Y011427D01*
X031095Y013965D01*
X031095Y016328D01*
X033064Y018296D01*
X033064Y024989D01*
X034639Y026564D01*
X034639Y030501D01*
X037001Y030501D02*
X037001Y019871D01*
X032670Y015540D01*
X032670Y013178D01*
X030702Y011209D01*
X030702Y008060D01*
X029697Y008060D01*
X030702Y008060D02*
X031707Y008060D01*
X032847Y008060D02*
X032847Y010992D01*
X034639Y012784D01*
X034639Y014753D01*
X032847Y008060D02*
X032847Y004910D01*
X045269Y019871D02*
X046843Y019871D01*
X050387Y019871D02*
X052355Y019871D01*
X052355Y028713D02*
X050993Y028713D01*
X049887Y029820D01*
X048418Y029820D01*
X047525Y030713D01*
X045269Y030713D01*
X045269Y032363D01*
X045268Y032363D02*
X045266Y032331D01*
X045261Y032299D01*
X045252Y032268D01*
X045240Y032238D01*
X045224Y032210D01*
X045205Y032184D01*
X045184Y032160D01*
X045160Y032139D01*
X045134Y032120D01*
X045106Y032104D01*
X045076Y032092D01*
X045045Y032083D01*
X045013Y032078D01*
X044981Y032076D01*
X038576Y032076D01*
X037001Y030501D01*
X038576Y032076D02*
X038576Y034619D01*
X003930Y028827D02*
X003143Y028039D01*
X003143Y026170D01*
D25*
X001537Y043720D02*
X001537Y001533D01*
X057504Y001533D01*
X057504Y043720D01*
X001537Y043720D01*
X001537Y043713D02*
X057504Y043713D01*
X057504Y043554D02*
X001537Y043554D01*
X001537Y043396D02*
X057504Y043396D01*
X057504Y043237D02*
X001537Y043237D01*
X001537Y043079D02*
X057504Y043079D01*
X057504Y042920D02*
X001537Y042920D01*
X001537Y042762D02*
X002496Y042762D01*
X002608Y042792D02*
X002336Y042719D01*
X002092Y042578D01*
X001892Y042379D01*
X001751Y042134D01*
X001678Y041862D01*
X001678Y041580D01*
X001751Y041308D01*
X001892Y041064D01*
X002092Y040865D01*
X002336Y040724D01*
X002608Y040651D01*
X002890Y040651D01*
X003162Y040724D01*
X003406Y040865D01*
X003606Y041064D01*
X003747Y041308D01*
X003819Y041580D01*
X003819Y041862D01*
X003747Y042134D01*
X003606Y042379D01*
X003406Y042578D01*
X003162Y042719D01*
X002890Y042792D01*
X002608Y042792D01*
X003002Y042762D02*
X056039Y042762D01*
X056151Y042792D02*
X055879Y042719D01*
X055635Y042578D01*
X055436Y042379D01*
X055295Y042134D01*
X055222Y041862D01*
X055222Y041580D01*
X055295Y041308D01*
X055436Y041064D01*
X055635Y040865D01*
X055879Y040724D01*
X056151Y040651D01*
X056433Y040651D01*
X056705Y040724D01*
X056950Y040865D01*
X057149Y041064D01*
X057290Y041308D01*
X057363Y041580D01*
X057363Y041862D01*
X057290Y042134D01*
X057149Y042379D01*
X056950Y042578D01*
X056705Y042719D01*
X056433Y042792D01*
X056151Y042792D01*
X056545Y042762D02*
X057504Y042762D01*
X057504Y042603D02*
X056906Y042603D01*
X057083Y042445D02*
X057504Y042445D01*
X057504Y042286D02*
X057202Y042286D01*
X057292Y042128D02*
X057504Y042128D01*
X057504Y041969D02*
X057334Y041969D01*
X057363Y041811D02*
X057504Y041811D01*
X057504Y041652D02*
X057363Y041652D01*
X057339Y041493D02*
X057504Y041493D01*
X057504Y041335D02*
X057297Y041335D01*
X057214Y041176D02*
X057504Y041176D01*
X057504Y041018D02*
X057103Y041018D01*
X056940Y040859D02*
X057504Y040859D01*
X057504Y040701D02*
X056620Y040701D01*
X055965Y040701D02*
X003076Y040701D01*
X003397Y040859D02*
X055644Y040859D01*
X055482Y041018D02*
X003559Y041018D01*
X003670Y041176D02*
X055371Y041176D01*
X055287Y041335D02*
X003754Y041335D01*
X003796Y041493D02*
X055245Y041493D01*
X055222Y041652D02*
X003819Y041652D01*
X003819Y041811D02*
X055222Y041811D01*
X055250Y041969D02*
X003791Y041969D01*
X003748Y042128D02*
X055293Y042128D01*
X055382Y042286D02*
X003659Y042286D01*
X003539Y042445D02*
X055502Y042445D01*
X055679Y042603D02*
X003362Y042603D01*
X002136Y042603D02*
X001537Y042603D01*
X001537Y042445D02*
X001958Y042445D01*
X001839Y042286D02*
X001537Y042286D01*
X001537Y042128D02*
X001750Y042128D01*
X001707Y041969D02*
X001537Y041969D01*
X001537Y041811D02*
X001678Y041811D01*
X001678Y041652D02*
X001537Y041652D01*
X001537Y041493D02*
X001702Y041493D01*
X001744Y041335D02*
X001537Y041335D01*
X001537Y041176D02*
X001827Y041176D01*
X001938Y041018D02*
X001537Y041018D01*
X001537Y040859D02*
X002101Y040859D01*
X002421Y040701D02*
X001537Y040701D01*
X001537Y040542D02*
X057504Y040542D01*
X057504Y040384D02*
X001537Y040384D01*
X001537Y040225D02*
X057504Y040225D01*
X057504Y040067D02*
X001537Y040067D01*
X001537Y039908D02*
X057504Y039908D01*
X057504Y039749D02*
X001537Y039749D01*
X001537Y039591D02*
X057504Y039591D01*
X057504Y039432D02*
X001537Y039432D01*
X001537Y039274D02*
X057504Y039274D01*
X057504Y039115D02*
X001537Y039115D01*
X001537Y038957D02*
X057504Y038957D01*
X057504Y038798D02*
X001537Y038798D01*
X001537Y038640D02*
X057504Y038640D01*
X057504Y038481D02*
X001537Y038481D01*
X001537Y038323D02*
X003241Y038323D01*
X003299Y038347D02*
X003056Y038246D01*
X002871Y038061D01*
X002770Y037818D01*
X002770Y037555D01*
X002871Y037313D01*
X003056Y037127D01*
X003299Y037027D01*
X004561Y037027D01*
X004804Y037127D01*
X004990Y037313D01*
X005090Y037555D01*
X005090Y037818D01*
X004990Y038061D01*
X004804Y038246D01*
X004561Y038347D01*
X003299Y038347D01*
X002974Y038164D02*
X001537Y038164D01*
X001537Y038005D02*
X002848Y038005D01*
X002782Y037847D02*
X001537Y037847D01*
X001537Y037688D02*
X002770Y037688D01*
X002781Y037530D02*
X001537Y037530D01*
X001537Y037371D02*
X002846Y037371D01*
X002971Y037213D02*
X001537Y037213D01*
X001537Y037054D02*
X003232Y037054D01*
X004628Y037054D02*
X057504Y037054D01*
X057504Y036896D02*
X038907Y036896D01*
X038940Y036862D02*
X038819Y036983D01*
X038661Y037049D01*
X038576Y037049D01*
X038576Y036619D01*
X039006Y036619D01*
X039006Y036704D01*
X038940Y036862D01*
X038992Y036737D02*
X057504Y036737D01*
X057504Y036579D02*
X039006Y036579D01*
X039006Y036619D02*
X038576Y036619D01*
X038576Y036619D01*
X038576Y036619D01*
X038576Y037049D01*
X038490Y037049D01*
X038332Y036983D01*
X038211Y036862D01*
X038146Y036704D01*
X038146Y036619D01*
X038575Y036619D01*
X038575Y036619D01*
X038146Y036619D01*
X038146Y036533D01*
X038211Y036375D01*
X038332Y036254D01*
X038490Y036189D01*
X038576Y036189D01*
X038661Y036189D01*
X038819Y036254D01*
X038940Y036375D01*
X039006Y036533D01*
X039006Y036619D01*
X038959Y036420D02*
X057504Y036420D01*
X057504Y036261D02*
X038826Y036261D01*
X038576Y036261D02*
X038576Y036261D01*
X038576Y036189D02*
X038576Y036618D01*
X038576Y036618D01*
X038576Y036189D01*
X038576Y036420D02*
X038576Y036420D01*
X038576Y036579D02*
X038576Y036579D01*
X038576Y036737D02*
X038576Y036737D01*
X038576Y036896D02*
X038576Y036896D01*
X038244Y036896D02*
X001537Y036896D01*
X001537Y036737D02*
X038159Y036737D01*
X038146Y036579D02*
X001537Y036579D01*
X001537Y036420D02*
X038193Y036420D01*
X038325Y036261D02*
X001537Y036261D01*
X001537Y036103D02*
X057504Y036103D01*
X057504Y035944D02*
X001537Y035944D01*
X001537Y035786D02*
X057504Y035786D01*
X057504Y035627D02*
X001537Y035627D01*
X001537Y035469D02*
X057504Y035469D01*
X057504Y035310D02*
X001537Y035310D01*
X001537Y035152D02*
X038415Y035152D01*
X038466Y035173D02*
X038262Y035088D01*
X038106Y034933D01*
X038022Y034729D01*
X038022Y032305D01*
X036532Y030814D01*
X036447Y030611D01*
X036447Y030391D01*
X036447Y020100D01*
X032201Y015854D01*
X032117Y015650D01*
X032117Y015430D01*
X032117Y013407D01*
X030388Y011679D01*
X030232Y011523D01*
X030148Y011320D01*
X030148Y008614D01*
X029587Y008614D01*
X029383Y008529D01*
X029228Y008373D01*
X029143Y008170D01*
X029143Y007950D01*
X029228Y007746D01*
X029383Y007590D01*
X029587Y007506D01*
X030592Y007506D01*
X030812Y007506D01*
X031817Y007506D01*
X032020Y007590D01*
X032176Y007746D01*
X032260Y007950D01*
X032260Y008170D01*
X032176Y008373D01*
X032020Y008529D01*
X031817Y008614D01*
X031255Y008614D01*
X031255Y010980D01*
X032984Y012709D01*
X033140Y012864D01*
X033224Y013068D01*
X033224Y015311D01*
X037315Y019401D01*
X037470Y019557D01*
X037555Y019761D01*
X037555Y030271D01*
X038805Y031522D01*
X044715Y031522D01*
X044715Y030824D01*
X044715Y030603D01*
X044754Y030508D01*
X044754Y030293D01*
X044848Y030199D01*
X045045Y030199D01*
X044966Y030166D01*
X044816Y030016D01*
X044734Y029820D01*
X044734Y029751D01*
X045230Y029751D01*
X045230Y029675D01*
X044734Y029675D01*
X044734Y029607D01*
X044816Y029411D01*
X044966Y029260D01*
X045106Y029203D01*
X045024Y029169D01*
X043784Y029169D01*
X043617Y029099D01*
X043489Y028971D01*
X042324Y027806D01*
X041084Y027806D01*
X041040Y027912D01*
X040911Y028041D01*
X040742Y028111D01*
X040559Y028111D01*
X040390Y028041D01*
X040261Y027912D01*
X040191Y027743D01*
X040191Y026960D01*
X040261Y026791D01*
X040390Y026661D01*
X040559Y026591D01*
X040742Y026591D01*
X040911Y026661D01*
X041040Y026791D01*
X041084Y026896D01*
X042422Y026896D01*
X042603Y026896D01*
X042771Y026965D01*
X044064Y028258D01*
X044813Y028258D01*
X044813Y026973D01*
X044883Y026806D01*
X045011Y026678D01*
X045178Y026609D01*
X045359Y026609D01*
X045527Y026678D01*
X045655Y026806D01*
X045724Y026973D01*
X045724Y028258D01*
X046474Y028258D01*
X053475Y021257D01*
X053475Y020214D01*
X053445Y020286D01*
X052870Y020861D01*
X052870Y021291D01*
X052776Y021385D01*
X051935Y021385D01*
X051841Y021291D01*
X051841Y020450D01*
X051867Y020425D01*
X048360Y020425D01*
X048338Y020447D01*
X048135Y020531D01*
X047914Y020531D01*
X047711Y020447D01*
X047689Y020425D01*
X047397Y020425D01*
X047397Y021843D01*
X047313Y022047D01*
X047157Y022202D01*
X045582Y023777D01*
X045379Y023862D01*
X045159Y023862D01*
X043084Y023862D01*
X042880Y023777D01*
X042724Y023621D01*
X041256Y022153D01*
X041172Y021949D01*
X041172Y021729D01*
X041172Y018919D01*
X040075Y017822D01*
X039991Y017619D01*
X039991Y017399D01*
X039991Y010832D01*
X038346Y009188D01*
X036505Y009188D01*
X036284Y009188D01*
X036081Y009104D01*
X033931Y006954D01*
X033776Y006799D01*
X033691Y006595D01*
X033691Y003889D01*
X032260Y003889D01*
X032260Y005020D01*
X032176Y005224D01*
X032020Y005380D01*
X031817Y005464D01*
X031596Y005464D01*
X029587Y005464D01*
X029383Y005380D01*
X029228Y005224D01*
X029143Y005020D01*
X029143Y004800D01*
X029228Y004597D01*
X029383Y004441D01*
X029587Y004357D01*
X031153Y004357D01*
X031153Y003446D01*
X031153Y003225D01*
X031237Y003022D01*
X031393Y002866D01*
X031596Y002782D01*
X034355Y002782D01*
X034559Y002866D01*
X034714Y003022D01*
X034799Y003225D01*
X034799Y003446D01*
X034799Y006256D01*
X036624Y008081D01*
X038466Y008081D01*
X038686Y008081D01*
X038889Y008165D01*
X040858Y010134D01*
X041014Y010289D01*
X041098Y010493D01*
X041098Y017279D01*
X042039Y018220D01*
X042195Y018376D01*
X042279Y018580D01*
X042279Y021610D01*
X043423Y022754D01*
X045039Y022754D01*
X046290Y021504D01*
X046290Y020425D01*
X045785Y020425D01*
X045803Y020442D01*
X045803Y020833D01*
X045307Y020833D01*
X045307Y020909D01*
X045803Y020909D01*
X045803Y021300D01*
X045698Y021405D01*
X045307Y021405D01*
X045307Y020909D01*
X045230Y020909D01*
X045230Y020833D01*
X044734Y020833D01*
X044734Y020442D01*
X044840Y020337D01*
X044951Y020337D01*
X044799Y020184D01*
X044715Y019981D01*
X044715Y019761D01*
X044799Y019557D01*
X044955Y019401D01*
X045080Y019350D01*
X044977Y019307D01*
X044833Y019162D01*
X044754Y018973D01*
X044754Y018769D01*
X044813Y018626D01*
X044813Y016918D01*
X044813Y016737D01*
X044883Y016570D01*
X045011Y016442D01*
X045178Y016372D01*
X045761Y016372D01*
X045994Y016139D01*
X045994Y015335D01*
X044883Y014223D01*
X044813Y014056D01*
X044813Y013875D01*
X044813Y011665D01*
X044248Y011665D01*
X044248Y011669D01*
X044154Y011763D01*
X043234Y011763D01*
X043140Y011669D01*
X043140Y011665D01*
X043095Y011665D01*
X042914Y011665D01*
X042747Y011595D01*
X042304Y011152D01*
X036743Y005591D01*
X036615Y005463D01*
X036546Y005296D01*
X036546Y005169D01*
X036265Y005169D01*
X036162Y005169D01*
X036067Y005129D01*
X035994Y005057D01*
X035955Y004962D01*
X035955Y003284D01*
X035994Y003189D01*
X036067Y003116D01*
X036162Y003077D01*
X036265Y003077D01*
X037840Y003077D01*
X037935Y003116D01*
X038007Y003189D01*
X038047Y003284D01*
X038047Y003387D01*
X038047Y004962D01*
X038007Y005057D01*
X037935Y005129D01*
X037840Y005169D01*
X037737Y005169D01*
X037608Y005169D01*
X042948Y010509D01*
X043164Y010725D01*
X043234Y010656D01*
X044154Y010656D01*
X044248Y010749D01*
X044248Y010754D01*
X044813Y010754D01*
X044813Y010331D01*
X044883Y010164D01*
X045011Y010036D01*
X045670Y009377D01*
X045670Y009377D01*
X045798Y009249D01*
X045817Y009241D01*
X045798Y009233D01*
X045277Y008712D01*
X044243Y008712D01*
X044181Y008686D01*
X044268Y008773D01*
X044268Y009161D01*
X043774Y009161D01*
X043774Y009321D01*
X044268Y009321D01*
X044268Y009709D01*
X044162Y009815D01*
X043774Y009815D01*
X043774Y009321D01*
X043614Y009321D01*
X043614Y009815D01*
X043226Y009815D01*
X043120Y009709D01*
X043120Y009321D01*
X043614Y009321D01*
X043614Y009161D01*
X043774Y009161D01*
X043774Y008667D01*
X044135Y008667D01*
X044124Y008663D01*
X043067Y008663D01*
X042948Y008712D01*
X041914Y008712D01*
X041733Y008712D01*
X041566Y008643D01*
X038977Y006054D01*
X038908Y005887D01*
X038908Y005705D01*
X038908Y005169D01*
X038627Y005169D01*
X038524Y005169D01*
X038429Y005129D01*
X038357Y005057D01*
X038317Y004962D01*
X038317Y003284D01*
X038357Y003189D01*
X038429Y003116D01*
X038524Y003077D01*
X038627Y003077D01*
X040202Y003077D01*
X040297Y003116D01*
X040370Y003189D01*
X040409Y003284D01*
X040409Y003387D01*
X040409Y004962D01*
X040370Y005057D01*
X040297Y005129D01*
X040202Y005169D01*
X040099Y005169D01*
X039818Y005169D01*
X039818Y005607D01*
X042012Y007801D01*
X042948Y007801D01*
X043067Y007851D01*
X044124Y007851D01*
X044243Y007801D01*
X045375Y007801D01*
X045556Y007801D01*
X045723Y007871D01*
X046245Y008392D01*
X046796Y008392D01*
X046796Y007728D01*
X044248Y007728D01*
X044248Y007732D01*
X044154Y007826D01*
X043234Y007826D01*
X043140Y007732D01*
X043140Y007363D01*
X041339Y005562D01*
X041270Y005394D01*
X041270Y005213D01*
X041270Y005169D01*
X040989Y005169D01*
X040887Y005169D01*
X040792Y005129D01*
X040719Y005057D01*
X040680Y004962D01*
X040680Y003284D01*
X040719Y003189D01*
X040792Y003116D01*
X040887Y003077D01*
X040989Y003077D01*
X042564Y003077D01*
X042659Y003116D01*
X042732Y003189D01*
X042771Y003284D01*
X042771Y003387D01*
X042771Y004962D01*
X042732Y005057D01*
X042659Y005129D01*
X042564Y005169D01*
X042461Y005169D01*
X042234Y005169D01*
X043784Y006719D01*
X044154Y006719D01*
X044248Y006812D01*
X044248Y006817D01*
X046796Y006817D01*
X046796Y006153D01*
X046540Y006153D01*
X046359Y006153D01*
X046192Y006084D01*
X045404Y005296D01*
X045115Y005006D01*
X045094Y005057D01*
X045021Y005129D01*
X044926Y005169D01*
X044824Y005169D01*
X043352Y005169D01*
X043249Y005169D01*
X043154Y005129D01*
X043081Y005057D01*
X043042Y004962D01*
X043042Y003284D01*
X043081Y003189D01*
X043154Y003116D01*
X043249Y003077D01*
X043352Y003077D01*
X044926Y003077D01*
X045021Y003116D01*
X045094Y003189D01*
X045133Y003284D01*
X045133Y003387D01*
X045133Y003737D01*
X046048Y004652D01*
X046048Y004652D01*
X046638Y005242D01*
X046796Y005242D01*
X046796Y004529D01*
X046889Y004435D01*
X047652Y004435D01*
X047746Y004529D01*
X047746Y004553D01*
X057504Y004553D01*
X057504Y004711D02*
X049954Y004711D01*
X049851Y004608D02*
X057134Y011891D01*
X057235Y011992D01*
X057289Y012123D01*
X057289Y012658D01*
X057289Y019105D01*
X057235Y019236D01*
X057134Y019337D01*
X056895Y019576D01*
X056895Y027930D01*
X056895Y028072D01*
X056841Y028203D01*
X054346Y030698D01*
X054346Y030784D01*
X054346Y030823D01*
X054346Y030961D01*
X054395Y030912D01*
X054506Y030912D01*
X054578Y030882D01*
X054739Y030882D01*
X054810Y030912D01*
X054922Y030912D01*
X055015Y031005D01*
X055015Y031089D01*
X055064Y031207D01*
X055064Y032944D01*
X055015Y033063D01*
X055015Y033146D01*
X054922Y033239D01*
X054810Y033239D01*
X054739Y033269D01*
X054578Y033269D01*
X054506Y033239D01*
X054395Y033239D01*
X054326Y033170D01*
X054247Y033249D01*
X054080Y033318D01*
X052850Y033318D01*
X052850Y033583D01*
X052403Y033583D01*
X052403Y033679D01*
X052307Y033679D01*
X052307Y034067D01*
X051966Y034067D01*
X051860Y033961D01*
X051860Y033679D01*
X052307Y033679D01*
X052307Y033583D01*
X051860Y033583D01*
X051860Y033300D01*
X051918Y033243D01*
X051880Y033205D01*
X051880Y033032D01*
X051310Y032462D01*
X051182Y032333D01*
X051113Y032166D01*
X051113Y030198D01*
X051113Y030016D01*
X051182Y029849D01*
X051576Y029455D01*
X051704Y029327D01*
X051849Y029267D01*
X051222Y029267D01*
X050200Y030289D01*
X049997Y030373D01*
X049777Y030373D01*
X048648Y030373D01*
X047838Y031183D01*
X047635Y031267D01*
X047414Y031267D01*
X045822Y031267D01*
X045822Y032352D01*
X045822Y032363D01*
X045822Y032473D01*
X045738Y032677D01*
X045582Y032832D01*
X045379Y032917D01*
X045159Y032917D01*
X044955Y032832D01*
X044799Y032677D01*
X044780Y032629D01*
X039129Y032629D01*
X039129Y034729D01*
X039045Y034933D01*
X038889Y035088D01*
X038686Y035173D01*
X038466Y035173D01*
X038736Y035152D02*
X057504Y035152D01*
X057504Y034993D02*
X038984Y034993D01*
X039086Y034835D02*
X057504Y034835D01*
X057504Y034676D02*
X039129Y034676D01*
X039129Y034518D02*
X057504Y034518D01*
X057504Y034359D02*
X039129Y034359D01*
X039129Y034200D02*
X057504Y034200D01*
X057504Y034042D02*
X052769Y034042D01*
X052745Y034067D02*
X052403Y034067D01*
X052403Y033679D01*
X052850Y033679D01*
X052850Y033961D01*
X052745Y034067D01*
X052850Y033883D02*
X057504Y033883D01*
X057504Y033725D02*
X052850Y033725D01*
X052850Y033566D02*
X057504Y033566D01*
X057504Y033408D02*
X052850Y033408D01*
X052403Y033725D02*
X052307Y033725D01*
X052307Y033883D02*
X052403Y033883D01*
X052403Y034042D02*
X052307Y034042D01*
X051941Y034042D02*
X039129Y034042D01*
X039129Y033883D02*
X051860Y033883D01*
X051860Y033725D02*
X045529Y033725D01*
X045451Y033803D02*
X045709Y033545D01*
X045709Y033363D01*
X045269Y033363D01*
X045269Y033363D01*
X045709Y033363D01*
X045709Y033181D01*
X045451Y032923D01*
X045269Y032923D01*
X045269Y033363D01*
X045268Y033363D01*
X045268Y033363D01*
X044829Y033363D01*
X044829Y033545D01*
X045086Y033803D01*
X045268Y033803D01*
X045268Y033363D01*
X044829Y033363D01*
X044829Y033181D01*
X045086Y032923D01*
X045268Y032923D01*
X045268Y033363D01*
X045269Y033363D01*
X045269Y033803D01*
X045451Y033803D01*
X045268Y033725D02*
X045269Y033725D01*
X045268Y033566D02*
X045269Y033566D01*
X045268Y033408D02*
X045269Y033408D01*
X045268Y033249D02*
X045269Y033249D01*
X045268Y033091D02*
X045269Y033091D01*
X045268Y032932D02*
X045269Y032932D01*
X045460Y032932D02*
X051781Y032932D01*
X051880Y033091D02*
X045619Y033091D01*
X045709Y033249D02*
X051911Y033249D01*
X051860Y033408D02*
X045709Y033408D01*
X045688Y033566D02*
X051860Y033566D01*
X051622Y032774D02*
X045641Y032774D01*
X045764Y032615D02*
X051463Y032615D01*
X051310Y032462D02*
X051310Y032462D01*
X051305Y032456D02*
X045822Y032456D01*
X045822Y032298D02*
X051167Y032298D01*
X051113Y032139D02*
X045822Y032139D01*
X045822Y031981D02*
X051113Y031981D01*
X051113Y031822D02*
X045822Y031822D01*
X045822Y031664D02*
X051113Y031664D01*
X051113Y031505D02*
X045822Y031505D01*
X045822Y031347D02*
X051113Y031347D01*
X051113Y031188D02*
X047825Y031188D01*
X047991Y031030D02*
X051113Y031030D01*
X051113Y030871D02*
X048150Y030871D01*
X048308Y030712D02*
X051113Y030712D01*
X051113Y030554D02*
X048467Y030554D01*
X048626Y030395D02*
X051113Y030395D01*
X051113Y030237D02*
X050253Y030237D01*
X050411Y030078D02*
X051113Y030078D01*
X051153Y029920D02*
X050570Y029920D01*
X050728Y029761D02*
X051270Y029761D01*
X051428Y029603D02*
X050887Y029603D01*
X051045Y029444D02*
X051587Y029444D01*
X051805Y029286D02*
X051204Y029286D01*
X050272Y028651D02*
X048858Y028651D01*
X048858Y028637D02*
X048858Y028819D01*
X048419Y028819D01*
X048419Y028820D01*
X048858Y028820D01*
X048858Y029002D01*
X048600Y029260D01*
X048418Y029260D01*
X048236Y029260D01*
X047978Y029002D01*
X047978Y028820D01*
X048418Y028820D01*
X048418Y029260D01*
X048418Y028820D01*
X048418Y028820D01*
X048418Y028819D01*
X048418Y028819D01*
X048418Y028380D01*
X048236Y028380D01*
X047978Y028637D01*
X047978Y028819D01*
X048418Y028819D01*
X048418Y028380D01*
X048600Y028380D01*
X048858Y028637D01*
X048858Y028810D02*
X050113Y028810D01*
X049955Y028969D02*
X048858Y028969D01*
X048733Y029127D02*
X049796Y029127D01*
X049657Y029266D02*
X050524Y028400D01*
X050679Y028244D01*
X050883Y028160D01*
X051900Y028160D01*
X051900Y026178D01*
X051969Y026011D01*
X052097Y025883D01*
X054361Y023619D01*
X054361Y021596D01*
X054316Y021704D01*
X054188Y021832D01*
X047048Y028971D01*
X046920Y029099D01*
X046753Y029169D01*
X045514Y029169D01*
X045432Y029203D01*
X045571Y029260D01*
X045722Y029411D01*
X045803Y029607D01*
X045803Y029675D01*
X045307Y029675D01*
X045307Y029751D01*
X045803Y029751D01*
X045803Y029820D01*
X045722Y030016D01*
X045578Y030160D01*
X047295Y030160D01*
X048105Y029350D01*
X048308Y029266D01*
X048528Y029266D01*
X049657Y029266D01*
X050431Y028493D02*
X048714Y028493D01*
X048418Y028493D02*
X048418Y028493D01*
X048418Y028651D02*
X048418Y028651D01*
X048418Y028810D02*
X048418Y028810D01*
X048418Y028969D02*
X048418Y028969D01*
X048418Y029127D02*
X048418Y029127D01*
X048261Y029286D02*
X045596Y029286D01*
X045735Y029444D02*
X048011Y029444D01*
X047852Y029603D02*
X045801Y029603D01*
X045803Y029761D02*
X047694Y029761D01*
X047535Y029920D02*
X045761Y029920D01*
X045659Y030078D02*
X047377Y030078D01*
X046853Y029127D02*
X048103Y029127D01*
X047978Y028969D02*
X047051Y028969D01*
X047210Y028810D02*
X047978Y028810D01*
X047978Y028651D02*
X047368Y028651D01*
X047527Y028493D02*
X048123Y028493D01*
X047844Y028176D02*
X050844Y028176D01*
X050589Y028334D02*
X047685Y028334D01*
X048002Y028017D02*
X051900Y028017D01*
X051900Y027859D02*
X048161Y027859D01*
X048319Y027700D02*
X051900Y027700D01*
X051900Y027542D02*
X048478Y027542D01*
X048636Y027383D02*
X051900Y027383D01*
X051900Y027225D02*
X048795Y027225D01*
X048954Y027066D02*
X051900Y027066D01*
X051900Y026907D02*
X049112Y026907D01*
X049271Y026749D02*
X051900Y026749D01*
X051900Y026590D02*
X049429Y026590D01*
X049588Y026432D02*
X051900Y026432D01*
X051900Y026273D02*
X049746Y026273D01*
X049905Y026115D02*
X051926Y026115D01*
X052024Y025956D02*
X050063Y025956D01*
X050222Y025798D02*
X052182Y025798D01*
X052341Y025639D02*
X050380Y025639D01*
X050539Y025481D02*
X052499Y025481D01*
X052658Y025322D02*
X050698Y025322D01*
X050856Y025163D02*
X052816Y025163D01*
X052975Y025005D02*
X051015Y025005D01*
X051173Y024846D02*
X053134Y024846D01*
X053292Y024688D02*
X051332Y024688D01*
X051490Y024529D02*
X053451Y024529D01*
X053609Y024371D02*
X051649Y024371D01*
X051807Y024212D02*
X053768Y024212D01*
X053926Y024054D02*
X051966Y024054D01*
X052124Y023895D02*
X054085Y023895D01*
X054243Y023737D02*
X052283Y023737D01*
X052442Y023578D02*
X054361Y023578D01*
X054361Y023419D02*
X052600Y023419D01*
X052759Y023261D02*
X054361Y023261D01*
X054361Y023102D02*
X052917Y023102D01*
X053076Y022944D02*
X054361Y022944D01*
X054361Y022785D02*
X053234Y022785D01*
X053393Y022627D02*
X054361Y022627D01*
X054361Y022468D02*
X053551Y022468D01*
X053710Y022310D02*
X054361Y022310D01*
X054361Y022151D02*
X053868Y022151D01*
X054027Y021993D02*
X054361Y021993D01*
X054361Y021834D02*
X054186Y021834D01*
X054188Y021832D02*
X054188Y021832D01*
X054328Y021676D02*
X054361Y021676D01*
X053475Y021200D02*
X052870Y021200D01*
X052870Y021041D02*
X053475Y021041D01*
X053475Y020883D02*
X052870Y020883D01*
X053006Y020724D02*
X053475Y020724D01*
X053475Y020566D02*
X053165Y020566D01*
X053324Y020407D02*
X053475Y020407D01*
X053460Y020249D02*
X053475Y020249D01*
X052089Y019317D02*
X052064Y019307D01*
X052008Y019251D01*
X051265Y019251D01*
X051084Y019251D01*
X050584Y019251D01*
X050402Y019251D01*
X050235Y019182D01*
X048730Y017676D01*
X047934Y017676D01*
X047767Y017607D01*
X047639Y017479D01*
X047569Y017312D01*
X047569Y017131D01*
X047639Y016963D01*
X047767Y016835D01*
X047934Y016766D01*
X049009Y016766D01*
X049176Y016835D01*
X049304Y016963D01*
X050682Y018341D01*
X050719Y018341D01*
X050719Y016812D01*
X050719Y016631D01*
X050788Y016463D01*
X051605Y015647D01*
X051605Y015611D01*
X051605Y015469D01*
X051659Y015338D01*
X052143Y014854D01*
X052029Y014854D01*
X052029Y014407D01*
X051933Y014407D01*
X051933Y014311D01*
X051545Y014311D01*
X051545Y013970D01*
X051651Y013864D01*
X051933Y013864D01*
X051933Y014311D01*
X052029Y014311D01*
X052029Y013864D01*
X052201Y013864D01*
X047746Y009409D01*
X047746Y010013D01*
X047766Y010033D01*
X047766Y010422D01*
X047766Y010812D01*
X047660Y010917D01*
X047271Y010917D01*
X047271Y010422D01*
X047766Y010422D01*
X047271Y010422D01*
X047271Y010422D01*
X047270Y010422D01*
X046776Y010422D01*
X046776Y010090D01*
X046245Y010090D01*
X045724Y010611D01*
X045724Y011119D01*
X045724Y013777D01*
X046836Y014889D01*
X046905Y015056D01*
X046905Y015237D01*
X046905Y016237D01*
X046905Y016418D01*
X046836Y016585D01*
X046336Y017085D01*
X046208Y017214D01*
X046040Y017283D01*
X045724Y017283D01*
X045724Y018626D01*
X045783Y018769D01*
X045783Y018973D01*
X045705Y019162D01*
X045560Y019307D01*
X045535Y019317D01*
X046733Y019317D01*
X046954Y019317D01*
X047742Y019317D01*
X047585Y019159D01*
X047585Y018977D01*
X047585Y018795D01*
X047842Y018537D01*
X048024Y018537D01*
X048024Y018977D01*
X047585Y018977D01*
X048024Y018977D01*
X048024Y018977D01*
X048025Y018977D01*
X048025Y018977D01*
X048465Y018977D01*
X048465Y018795D01*
X048207Y018537D01*
X048025Y018537D01*
X048025Y018977D01*
X048465Y018977D01*
X048465Y019159D01*
X048307Y019317D01*
X052089Y019317D01*
X052054Y019297D02*
X048327Y019297D01*
X048465Y019139D02*
X050192Y019139D01*
X050033Y018980D02*
X048465Y018980D01*
X048465Y018822D02*
X049875Y018822D01*
X049716Y018663D02*
X048333Y018663D01*
X048025Y018663D02*
X048024Y018663D01*
X048024Y018822D02*
X048025Y018822D01*
X047716Y018663D02*
X045739Y018663D01*
X045724Y018505D02*
X049558Y018505D01*
X049399Y018346D02*
X045724Y018346D01*
X045724Y018188D02*
X049241Y018188D01*
X049082Y018029D02*
X045724Y018029D01*
X045724Y017870D02*
X048924Y017870D01*
X048765Y017712D02*
X045724Y017712D01*
X045724Y017553D02*
X047713Y017553D01*
X047604Y017395D02*
X045724Y017395D01*
X046153Y017236D02*
X047569Y017236D01*
X047591Y017078D02*
X046343Y017078D01*
X046502Y016919D02*
X047683Y016919D01*
X047842Y016661D02*
X047585Y016403D01*
X047585Y016221D01*
X047585Y016039D01*
X047842Y015781D01*
X048024Y015781D01*
X048024Y016221D01*
X047585Y016221D01*
X048024Y016221D01*
X048024Y016221D01*
X048025Y016221D01*
X048025Y016221D01*
X048465Y016221D01*
X048465Y016039D01*
X048207Y015781D01*
X048025Y015781D01*
X048025Y016221D01*
X048465Y016221D01*
X048465Y016403D01*
X048207Y016661D01*
X048025Y016661D01*
X048025Y016222D01*
X048024Y016222D01*
X048024Y016661D01*
X047842Y016661D01*
X047783Y016602D02*
X046819Y016602D01*
X046894Y016444D02*
X047625Y016444D01*
X047585Y016285D02*
X046905Y016285D01*
X046905Y016126D02*
X047585Y016126D01*
X047656Y015968D02*
X046905Y015968D01*
X046905Y015809D02*
X047814Y015809D01*
X048024Y015809D02*
X048025Y015809D01*
X048024Y015968D02*
X048025Y015968D01*
X048024Y016126D02*
X048025Y016126D01*
X048024Y016285D02*
X048025Y016285D01*
X048024Y016444D02*
X048025Y016444D01*
X048024Y016602D02*
X048025Y016602D01*
X048266Y016602D02*
X050731Y016602D01*
X050719Y016761D02*
X046660Y016761D01*
X045994Y016126D02*
X045592Y016126D01*
X045709Y016010D02*
X045451Y016268D01*
X045269Y016268D01*
X045269Y015828D01*
X045268Y015828D01*
X045268Y015827D01*
X044829Y015827D01*
X044829Y015645D01*
X045086Y015388D01*
X045268Y015388D01*
X045268Y015827D01*
X045269Y015827D01*
X045269Y015388D01*
X045451Y015388D01*
X045709Y015645D01*
X045709Y015827D01*
X045269Y015827D01*
X045269Y015828D01*
X045709Y015828D01*
X045709Y016010D01*
X045709Y015968D02*
X045994Y015968D01*
X045994Y015809D02*
X045709Y015809D01*
X045709Y015651D02*
X045994Y015651D01*
X045994Y015492D02*
X045556Y015492D01*
X045269Y015492D02*
X045268Y015492D01*
X045268Y015651D02*
X045269Y015651D01*
X045268Y015809D02*
X045269Y015809D01*
X045268Y015828D02*
X044829Y015828D01*
X044829Y016010D01*
X045086Y016268D01*
X045268Y016268D01*
X045268Y015828D01*
X045268Y015968D02*
X045269Y015968D01*
X045268Y016126D02*
X045269Y016126D01*
X044945Y016126D02*
X041098Y016126D01*
X041098Y015968D02*
X044829Y015968D01*
X044829Y015809D02*
X041098Y015809D01*
X041098Y015651D02*
X044829Y015651D01*
X044982Y015492D02*
X041098Y015492D01*
X041098Y015334D02*
X045993Y015334D01*
X045835Y015175D02*
X041098Y015175D01*
X041098Y015017D02*
X045676Y015017D01*
X045518Y014858D02*
X041098Y014858D01*
X041098Y014700D02*
X045359Y014700D01*
X045201Y014541D02*
X041098Y014541D01*
X041098Y014383D02*
X045042Y014383D01*
X044883Y014224D02*
X041098Y014224D01*
X041098Y014065D02*
X044817Y014065D01*
X044813Y013907D02*
X041098Y013907D01*
X041098Y013748D02*
X044813Y013748D01*
X044813Y013590D02*
X041098Y013590D01*
X041098Y013431D02*
X044813Y013431D01*
X044813Y013273D02*
X041098Y013273D01*
X041098Y013114D02*
X044813Y013114D01*
X044813Y012956D02*
X041098Y012956D01*
X041098Y012797D02*
X044813Y012797D01*
X044813Y012639D02*
X041098Y012639D01*
X041098Y012480D02*
X044813Y012480D01*
X044813Y012321D02*
X041098Y012321D01*
X041098Y012163D02*
X044813Y012163D01*
X044813Y012004D02*
X041098Y012004D01*
X041098Y011846D02*
X044813Y011846D01*
X044813Y011687D02*
X044230Y011687D01*
X043158Y011687D02*
X041098Y011687D01*
X041098Y011529D02*
X042680Y011529D01*
X042522Y011370D02*
X041098Y011370D01*
X041098Y011212D02*
X042363Y011212D01*
X042205Y011053D02*
X041098Y011053D01*
X041098Y010895D02*
X042046Y010895D01*
X041888Y010736D02*
X041098Y010736D01*
X041098Y010577D02*
X041729Y010577D01*
X041571Y010419D02*
X041067Y010419D01*
X040985Y010260D02*
X041412Y010260D01*
X041253Y010102D02*
X040826Y010102D01*
X040667Y009943D02*
X041095Y009943D01*
X040936Y009785D02*
X040509Y009785D01*
X040350Y009626D02*
X040778Y009626D01*
X040619Y009468D02*
X040192Y009468D01*
X040033Y009309D02*
X040461Y009309D01*
X040302Y009151D02*
X039875Y009151D01*
X039716Y008992D02*
X040144Y008992D01*
X039985Y008834D02*
X039558Y008834D01*
X039399Y008675D02*
X039827Y008675D01*
X039668Y008516D02*
X039241Y008516D01*
X039082Y008358D02*
X039509Y008358D01*
X039351Y008199D02*
X038923Y008199D01*
X039192Y008041D02*
X036584Y008041D01*
X036425Y007882D02*
X039034Y007882D01*
X038875Y007724D02*
X036267Y007724D01*
X036108Y007565D02*
X038717Y007565D01*
X038558Y007407D02*
X035950Y007407D01*
X035791Y007248D02*
X038400Y007248D01*
X038241Y007090D02*
X035633Y007090D01*
X035474Y006931D02*
X038083Y006931D01*
X037924Y006772D02*
X035315Y006772D01*
X035157Y006614D02*
X037765Y006614D01*
X037607Y006455D02*
X034998Y006455D01*
X034840Y006297D02*
X037448Y006297D01*
X037290Y006138D02*
X034799Y006138D01*
X034799Y005980D02*
X037131Y005980D01*
X036973Y005821D02*
X034799Y005821D01*
X034799Y005663D02*
X036814Y005663D01*
X036656Y005504D02*
X034799Y005504D01*
X034799Y005346D02*
X036566Y005346D01*
X036546Y005187D02*
X034799Y005187D01*
X034799Y005028D02*
X035983Y005028D01*
X035955Y004870D02*
X034799Y004870D01*
X034799Y004711D02*
X035955Y004711D01*
X035955Y004553D02*
X034799Y004553D01*
X034799Y004394D02*
X035955Y004394D01*
X035955Y004236D02*
X034799Y004236D01*
X034799Y004077D02*
X035955Y004077D01*
X035955Y003919D02*
X034799Y003919D01*
X034799Y003760D02*
X035955Y003760D01*
X035955Y003602D02*
X034799Y003602D01*
X034799Y003443D02*
X035955Y003443D01*
X035955Y003284D02*
X034799Y003284D01*
X034758Y003126D02*
X036058Y003126D01*
X036214Y003335D02*
X036214Y004910D01*
X037788Y004910D01*
X037788Y003335D01*
X036214Y003335D01*
X036214Y003443D02*
X037788Y003443D01*
X037788Y003602D02*
X036214Y003602D01*
X036214Y003760D02*
X037788Y003760D01*
X037788Y003919D02*
X036214Y003919D01*
X036214Y004077D02*
X037788Y004077D01*
X037788Y004236D02*
X036214Y004236D01*
X036214Y004394D02*
X037788Y004394D01*
X037788Y004553D02*
X036214Y004553D01*
X036214Y004711D02*
X037788Y004711D01*
X037788Y004870D02*
X036214Y004870D01*
X037626Y005187D02*
X038908Y005187D01*
X038908Y005346D02*
X037785Y005346D01*
X037943Y005504D02*
X038908Y005504D01*
X038908Y005663D02*
X038102Y005663D01*
X038260Y005821D02*
X038908Y005821D01*
X038946Y005980D02*
X038419Y005980D01*
X038578Y006138D02*
X039061Y006138D01*
X039220Y006297D02*
X038736Y006297D01*
X038895Y006455D02*
X039379Y006455D01*
X039537Y006614D02*
X039053Y006614D01*
X039212Y006772D02*
X039696Y006772D01*
X039854Y006931D02*
X039370Y006931D01*
X039529Y007090D02*
X040013Y007090D01*
X040171Y007248D02*
X039687Y007248D01*
X039846Y007407D02*
X040330Y007407D01*
X040488Y007565D02*
X040004Y007565D01*
X040163Y007724D02*
X040647Y007724D01*
X040805Y007882D02*
X040321Y007882D01*
X040480Y008041D02*
X040964Y008041D01*
X041123Y008199D02*
X040639Y008199D01*
X040797Y008358D02*
X041281Y008358D01*
X041440Y008516D02*
X040956Y008516D01*
X041114Y008675D02*
X041644Y008675D01*
X041431Y008992D02*
X043120Y008992D01*
X043120Y008834D02*
X041273Y008834D01*
X041590Y009151D02*
X043120Y009151D01*
X043120Y009161D02*
X043120Y008773D01*
X043226Y008667D01*
X043614Y008667D01*
X043614Y009161D01*
X043120Y009161D01*
X043120Y009468D02*
X041907Y009468D01*
X042065Y009626D02*
X043120Y009626D01*
X043196Y009785D02*
X042224Y009785D01*
X042383Y009943D02*
X045104Y009943D01*
X045011Y010036D02*
X045011Y010036D01*
X044945Y010102D02*
X042541Y010102D01*
X042700Y010260D02*
X044843Y010260D01*
X044813Y010419D02*
X042858Y010419D01*
X043017Y010577D02*
X044813Y010577D01*
X044813Y010736D02*
X044234Y010736D01*
X044192Y009785D02*
X045262Y009785D01*
X045421Y009626D02*
X044268Y009626D01*
X044268Y009468D02*
X045579Y009468D01*
X045738Y009309D02*
X043774Y009309D01*
X043774Y009151D02*
X043614Y009151D01*
X043614Y009309D02*
X041748Y009309D01*
X043037Y008675D02*
X043218Y008675D01*
X043614Y008675D02*
X043774Y008675D01*
X043774Y008834D02*
X043614Y008834D01*
X043614Y008992D02*
X043774Y008992D01*
X043774Y009468D02*
X043614Y009468D01*
X043614Y009626D02*
X043774Y009626D01*
X043774Y009785D02*
X043614Y009785D01*
X044268Y009151D02*
X045716Y009151D01*
X045557Y008992D02*
X044268Y008992D01*
X044268Y008834D02*
X045398Y008834D01*
X046052Y008199D02*
X046796Y008199D01*
X046796Y008041D02*
X045893Y008041D01*
X045735Y007882D02*
X046796Y007882D01*
X046796Y008358D02*
X046211Y008358D01*
X047746Y009468D02*
X047804Y009468D01*
X047746Y009626D02*
X047963Y009626D01*
X048121Y009785D02*
X047746Y009785D01*
X047746Y009943D02*
X048280Y009943D01*
X048439Y010102D02*
X047766Y010102D01*
X047766Y010260D02*
X048597Y010260D01*
X048756Y010419D02*
X047766Y010419D01*
X047766Y010577D02*
X048914Y010577D01*
X049073Y010736D02*
X047766Y010736D01*
X047683Y010895D02*
X049231Y010895D01*
X049390Y011053D02*
X045724Y011053D01*
X045724Y010895D02*
X046859Y010895D01*
X046881Y010917D02*
X046776Y010812D01*
X046776Y010422D01*
X047270Y010422D01*
X047270Y010422D01*
X047270Y010917D01*
X046881Y010917D01*
X046776Y010736D02*
X045724Y010736D01*
X045757Y010577D02*
X046776Y010577D01*
X046776Y010419D02*
X045916Y010419D01*
X046074Y010260D02*
X046776Y010260D01*
X046776Y010102D02*
X046233Y010102D01*
X047270Y010577D02*
X047271Y010577D01*
X047270Y010736D02*
X047271Y010736D01*
X047270Y010895D02*
X047271Y010895D01*
X045724Y011212D02*
X049548Y011212D01*
X049707Y011370D02*
X045724Y011370D01*
X045724Y011529D02*
X049865Y011529D01*
X050024Y011687D02*
X045724Y011687D01*
X045724Y011846D02*
X050182Y011846D01*
X050341Y012004D02*
X045724Y012004D01*
X045724Y012163D02*
X050500Y012163D01*
X050658Y012321D02*
X045724Y012321D01*
X045724Y012480D02*
X050817Y012480D01*
X050975Y012639D02*
X045724Y012639D01*
X045724Y012797D02*
X051134Y012797D01*
X051292Y012956D02*
X045724Y012956D01*
X045724Y013114D02*
X051451Y013114D01*
X051609Y013273D02*
X045724Y013273D01*
X045724Y013431D02*
X051768Y013431D01*
X051926Y013590D02*
X045724Y013590D01*
X045724Y013748D02*
X052085Y013748D01*
X052029Y013907D02*
X051933Y013907D01*
X051933Y014065D02*
X052029Y014065D01*
X052029Y014224D02*
X051933Y014224D01*
X051933Y014383D02*
X046330Y014383D01*
X046488Y014541D02*
X051545Y014541D01*
X051545Y014407D02*
X051545Y014749D01*
X051651Y014854D01*
X051933Y014854D01*
X051933Y014407D01*
X051545Y014407D01*
X051545Y014224D02*
X046171Y014224D01*
X046013Y014065D02*
X051545Y014065D01*
X051608Y013907D02*
X045854Y013907D01*
X046647Y014700D02*
X051545Y014700D01*
X051933Y014700D02*
X052029Y014700D01*
X052029Y014541D02*
X051933Y014541D01*
X052139Y014858D02*
X046805Y014858D01*
X046889Y015017D02*
X051980Y015017D01*
X051822Y015175D02*
X046905Y015175D01*
X046905Y015334D02*
X051663Y015334D01*
X051605Y015492D02*
X046905Y015492D01*
X046905Y015651D02*
X051601Y015651D01*
X051442Y015809D02*
X048235Y015809D01*
X048393Y015968D02*
X051284Y015968D01*
X051125Y016126D02*
X048465Y016126D01*
X048465Y016285D02*
X050966Y016285D01*
X050808Y016444D02*
X048424Y016444D01*
X049260Y016919D02*
X050719Y016919D01*
X050719Y017078D02*
X049419Y017078D01*
X049577Y017236D02*
X050719Y017236D01*
X050719Y017395D02*
X049736Y017395D01*
X049894Y017553D02*
X050719Y017553D01*
X050719Y017712D02*
X050053Y017712D01*
X050211Y017870D02*
X050719Y017870D01*
X050719Y018029D02*
X050370Y018029D01*
X050528Y018188D02*
X050719Y018188D01*
X051841Y020566D02*
X047397Y020566D01*
X047397Y020724D02*
X051841Y020724D01*
X051841Y020883D02*
X047397Y020883D01*
X047397Y021041D02*
X051841Y021041D01*
X051841Y021200D02*
X047397Y021200D01*
X047397Y021358D02*
X051908Y021358D01*
X052803Y021358D02*
X053373Y021358D01*
X053215Y021517D02*
X047397Y021517D01*
X047397Y021676D02*
X053056Y021676D01*
X052898Y021834D02*
X047397Y021834D01*
X047335Y021993D02*
X052739Y021993D01*
X052581Y022151D02*
X047208Y022151D01*
X047050Y022310D02*
X052422Y022310D01*
X052264Y022468D02*
X046891Y022468D01*
X046733Y022627D02*
X052105Y022627D01*
X051947Y022785D02*
X046574Y022785D01*
X046416Y022944D02*
X051788Y022944D01*
X051629Y023102D02*
X046257Y023102D01*
X046099Y023261D02*
X051471Y023261D01*
X051312Y023419D02*
X045940Y023419D01*
X045781Y023578D02*
X051154Y023578D01*
X050995Y023737D02*
X045623Y023737D01*
X045478Y023895D02*
X050837Y023895D01*
X050678Y024054D02*
X045637Y024054D01*
X045709Y024126D02*
X045709Y024308D01*
X045709Y024490D01*
X045451Y024748D01*
X045269Y024748D01*
X045269Y024308D01*
X045709Y024308D01*
X045269Y024308D01*
X045269Y024308D01*
X045268Y024308D01*
X045268Y024308D01*
X044829Y024308D01*
X044829Y024490D01*
X045086Y024748D01*
X045268Y024748D01*
X045268Y024308D01*
X044829Y024308D01*
X044829Y024126D01*
X045086Y023868D01*
X045268Y023868D01*
X045268Y024307D01*
X045269Y024307D01*
X045269Y023868D01*
X045451Y023868D01*
X045709Y024126D01*
X045709Y024212D02*
X050520Y024212D01*
X050361Y024371D02*
X045709Y024371D01*
X045669Y024529D02*
X050203Y024529D01*
X050044Y024688D02*
X045511Y024688D01*
X045269Y024688D02*
X045268Y024688D01*
X045268Y024529D02*
X045269Y024529D01*
X045268Y024371D02*
X045269Y024371D01*
X045268Y024212D02*
X045269Y024212D01*
X045268Y024054D02*
X045269Y024054D01*
X045268Y023895D02*
X045269Y023895D01*
X045059Y023895D02*
X037555Y023895D01*
X037555Y023737D02*
X042840Y023737D01*
X042681Y023578D02*
X037555Y023578D01*
X037555Y023419D02*
X042522Y023419D01*
X042364Y023261D02*
X037555Y023261D01*
X037555Y023102D02*
X042205Y023102D01*
X042047Y022944D02*
X037555Y022944D01*
X037555Y022785D02*
X041888Y022785D01*
X041730Y022627D02*
X037555Y022627D01*
X037555Y022468D02*
X041571Y022468D01*
X041413Y022310D02*
X037555Y022310D01*
X037555Y022151D02*
X041255Y022151D01*
X041190Y021993D02*
X037555Y021993D01*
X037555Y021834D02*
X041172Y021834D01*
X041172Y021676D02*
X037555Y021676D01*
X037555Y021517D02*
X041172Y021517D01*
X041172Y021358D02*
X037555Y021358D01*
X037555Y021200D02*
X041172Y021200D01*
X041172Y021041D02*
X037555Y021041D01*
X037555Y020883D02*
X041172Y020883D01*
X041172Y020724D02*
X037555Y020724D01*
X037555Y020566D02*
X041172Y020566D01*
X041172Y020407D02*
X037555Y020407D01*
X037555Y020249D02*
X041172Y020249D01*
X041172Y020090D02*
X037555Y020090D01*
X037555Y019932D02*
X041172Y019932D01*
X041172Y019773D02*
X037555Y019773D01*
X037494Y019614D02*
X041172Y019614D01*
X041172Y019456D02*
X037369Y019456D01*
X037210Y019297D02*
X041172Y019297D01*
X041172Y019139D02*
X037052Y019139D01*
X036893Y018980D02*
X041172Y018980D01*
X041074Y018822D02*
X036735Y018822D01*
X036576Y018663D02*
X040916Y018663D01*
X040757Y018505D02*
X036418Y018505D01*
X036259Y018346D02*
X040599Y018346D01*
X040440Y018188D02*
X036101Y018188D01*
X035942Y018029D02*
X040282Y018029D01*
X040123Y017870D02*
X035784Y017870D01*
X035625Y017712D02*
X040029Y017712D01*
X039991Y017553D02*
X035466Y017553D01*
X035308Y017395D02*
X039991Y017395D01*
X039991Y017236D02*
X035149Y017236D01*
X034991Y017078D02*
X039991Y017078D01*
X039991Y016919D02*
X034832Y016919D01*
X034674Y016761D02*
X039991Y016761D01*
X039991Y016602D02*
X034515Y016602D01*
X034357Y016444D02*
X039991Y016444D01*
X039991Y016285D02*
X034198Y016285D01*
X034040Y016126D02*
X039991Y016126D01*
X039991Y015968D02*
X033881Y015968D01*
X033723Y015809D02*
X039991Y015809D01*
X039991Y015651D02*
X033564Y015651D01*
X033405Y015492D02*
X033971Y015492D01*
X033982Y015503D02*
X033888Y015410D01*
X033888Y014096D01*
X033982Y014002D01*
X034085Y014002D01*
X034085Y013014D01*
X032377Y011306D01*
X032293Y011102D01*
X032293Y010882D01*
X032293Y007950D01*
X032293Y004800D01*
X032377Y004597D01*
X032533Y004441D01*
X032736Y004357D01*
X032957Y004357D01*
X033160Y004441D01*
X033316Y004597D01*
X033400Y004800D01*
X033400Y007950D01*
X033400Y010763D01*
X034952Y012315D01*
X035108Y012471D01*
X035192Y012674D01*
X035192Y014002D01*
X035296Y014002D01*
X035389Y014096D01*
X035389Y015410D01*
X035296Y015503D01*
X033982Y015503D01*
X033888Y015334D02*
X033247Y015334D01*
X033224Y015175D02*
X033888Y015175D01*
X033888Y015017D02*
X033224Y015017D01*
X033224Y014858D02*
X033888Y014858D01*
X033888Y014700D02*
X033224Y014700D01*
X033224Y014541D02*
X033888Y014541D01*
X033888Y014383D02*
X033224Y014383D01*
X033224Y014224D02*
X033888Y014224D01*
X033919Y014065D02*
X033224Y014065D01*
X033224Y013907D02*
X034085Y013907D01*
X034085Y013748D02*
X033224Y013748D01*
X033224Y013590D02*
X034085Y013590D01*
X034085Y013431D02*
X033224Y013431D01*
X033224Y013273D02*
X034085Y013273D01*
X034085Y013114D02*
X033224Y013114D01*
X033177Y012956D02*
X034027Y012956D01*
X033869Y012797D02*
X033072Y012797D01*
X032914Y012639D02*
X033710Y012639D01*
X033551Y012480D02*
X032755Y012480D01*
X032597Y012321D02*
X033393Y012321D01*
X033234Y012163D02*
X032438Y012163D01*
X032280Y012004D02*
X033076Y012004D01*
X032917Y011846D02*
X032121Y011846D01*
X031963Y011687D02*
X032759Y011687D01*
X032600Y011529D02*
X031804Y011529D01*
X031645Y011370D02*
X032442Y011370D01*
X032338Y011212D02*
X031487Y011212D01*
X031328Y011053D02*
X032293Y011053D01*
X032293Y010895D02*
X031255Y010895D01*
X031255Y010736D02*
X032293Y010736D01*
X032293Y010577D02*
X031255Y010577D01*
X031255Y010419D02*
X032293Y010419D01*
X032293Y010260D02*
X031255Y010260D01*
X031255Y010102D02*
X032293Y010102D01*
X032293Y009943D02*
X031255Y009943D01*
X031255Y009785D02*
X032293Y009785D01*
X032293Y009626D02*
X031255Y009626D01*
X031255Y009468D02*
X032293Y009468D01*
X032293Y009309D02*
X031255Y009309D01*
X031255Y009151D02*
X032293Y009151D01*
X032293Y008992D02*
X031255Y008992D01*
X031255Y008834D02*
X032293Y008834D01*
X032293Y008675D02*
X031255Y008675D01*
X030148Y008675D02*
X029111Y008675D01*
X029111Y008834D02*
X030148Y008834D01*
X030148Y008992D02*
X029111Y008992D01*
X029111Y009151D02*
X030148Y009151D01*
X030148Y009309D02*
X029111Y009309D01*
X029111Y009468D02*
X030148Y009468D01*
X030148Y009626D02*
X029111Y009626D01*
X029111Y009785D02*
X030148Y009785D01*
X030148Y009943D02*
X029111Y009943D01*
X029111Y010102D02*
X030148Y010102D01*
X030148Y010260D02*
X029111Y010260D01*
X029111Y010419D02*
X030148Y010419D01*
X030148Y010577D02*
X029111Y010577D01*
X029111Y010736D02*
X030148Y010736D01*
X030148Y010895D02*
X029111Y010895D01*
X029111Y011053D02*
X030148Y011053D01*
X030148Y011212D02*
X029125Y011212D01*
X029111Y011197D02*
X031409Y013496D01*
X031565Y013652D01*
X031649Y013855D01*
X031649Y016098D01*
X033533Y017982D01*
X033618Y018186D01*
X033618Y018406D01*
X033618Y024760D01*
X035108Y026250D01*
X035192Y026454D01*
X035192Y026674D01*
X035192Y029750D01*
X035296Y029750D01*
X035389Y029844D01*
X035389Y031158D01*
X035296Y031251D01*
X033982Y031251D01*
X033888Y031158D01*
X033888Y029844D01*
X033982Y029750D01*
X034085Y029750D01*
X034085Y026793D01*
X032750Y025458D01*
X032595Y025303D01*
X032510Y025099D01*
X032510Y018525D01*
X030626Y016641D01*
X030542Y016438D01*
X030542Y016217D01*
X030542Y014195D01*
X028088Y011740D01*
X028003Y011537D01*
X028003Y011317D01*
X028003Y007950D01*
X028003Y004800D01*
X028088Y004597D01*
X028243Y004441D01*
X028447Y004357D01*
X028667Y004357D01*
X028871Y004441D01*
X029026Y004597D01*
X029111Y004800D01*
X029111Y007950D01*
X029111Y011197D01*
X029283Y011370D02*
X030169Y011370D01*
X030238Y011529D02*
X029442Y011529D01*
X029600Y011687D02*
X030397Y011687D01*
X030388Y011679D02*
X030388Y011679D01*
X030555Y011846D02*
X029759Y011846D01*
X029917Y012004D02*
X030714Y012004D01*
X030872Y012163D02*
X030076Y012163D01*
X030235Y012321D02*
X031031Y012321D01*
X031189Y012480D02*
X030393Y012480D01*
X030552Y012639D02*
X031348Y012639D01*
X031506Y012797D02*
X030710Y012797D01*
X030869Y012956D02*
X031665Y012956D01*
X031823Y013114D02*
X031027Y013114D01*
X031186Y013273D02*
X031982Y013273D01*
X032117Y013431D02*
X031344Y013431D01*
X031503Y013590D02*
X032117Y013590D01*
X032117Y013748D02*
X031605Y013748D01*
X031649Y013907D02*
X032117Y013907D01*
X032117Y014065D02*
X031649Y014065D01*
X031649Y014224D02*
X032117Y014224D01*
X032117Y014383D02*
X031649Y014383D01*
X031649Y014541D02*
X032117Y014541D01*
X032117Y014700D02*
X031649Y014700D01*
X031649Y014858D02*
X032117Y014858D01*
X032117Y015017D02*
X031649Y015017D01*
X031649Y015175D02*
X032117Y015175D01*
X032117Y015334D02*
X031649Y015334D01*
X031649Y015492D02*
X032117Y015492D01*
X032117Y015651D02*
X031649Y015651D01*
X031649Y015809D02*
X032182Y015809D01*
X032315Y015968D02*
X031649Y015968D01*
X031677Y016126D02*
X032474Y016126D01*
X032632Y016285D02*
X031836Y016285D01*
X031994Y016444D02*
X032791Y016444D01*
X032949Y016602D02*
X032153Y016602D01*
X032312Y016761D02*
X033108Y016761D01*
X033266Y016919D02*
X032470Y016919D01*
X032629Y017078D02*
X033425Y017078D01*
X033583Y017236D02*
X032787Y017236D01*
X032946Y017395D02*
X033742Y017395D01*
X033900Y017553D02*
X033104Y017553D01*
X033263Y017712D02*
X034059Y017712D01*
X034218Y017870D02*
X033421Y017870D01*
X033553Y018029D02*
X034376Y018029D01*
X034535Y018188D02*
X033618Y018188D01*
X033618Y018346D02*
X034693Y018346D01*
X034852Y018505D02*
X033618Y018505D01*
X033618Y018663D02*
X035010Y018663D01*
X035169Y018822D02*
X033618Y018822D01*
X033618Y018980D02*
X035327Y018980D01*
X035486Y019139D02*
X033618Y019139D01*
X033618Y019297D02*
X035644Y019297D01*
X035803Y019456D02*
X033618Y019456D01*
X033618Y019614D02*
X035961Y019614D01*
X036120Y019773D02*
X033618Y019773D01*
X033618Y019932D02*
X036279Y019932D01*
X036437Y020090D02*
X033618Y020090D01*
X033618Y020249D02*
X036447Y020249D01*
X036447Y020407D02*
X033618Y020407D01*
X033618Y020566D02*
X036447Y020566D01*
X036447Y020724D02*
X033618Y020724D01*
X033618Y020883D02*
X036447Y020883D01*
X036447Y021041D02*
X033618Y021041D01*
X033618Y021200D02*
X036447Y021200D01*
X036447Y021358D02*
X033618Y021358D01*
X033618Y021517D02*
X036447Y021517D01*
X036447Y021676D02*
X033618Y021676D01*
X033618Y021834D02*
X036447Y021834D01*
X036447Y021993D02*
X035409Y021993D01*
X035409Y021962D02*
X035409Y022547D01*
X034719Y022547D01*
X034719Y022707D01*
X035409Y022707D01*
X035409Y023292D01*
X035304Y023397D01*
X034719Y023397D01*
X034719Y022707D01*
X034559Y022707D01*
X034559Y023397D01*
X033974Y023397D01*
X033868Y023292D01*
X033868Y022707D01*
X034559Y022707D01*
X034559Y022547D01*
X034719Y022547D01*
X034719Y021856D01*
X035304Y021856D01*
X035409Y021962D01*
X035409Y022151D02*
X036447Y022151D01*
X036447Y022310D02*
X035409Y022310D01*
X035409Y022468D02*
X036447Y022468D01*
X036447Y022627D02*
X034719Y022627D01*
X034719Y022785D02*
X034559Y022785D01*
X034559Y022627D02*
X033618Y022627D01*
X033618Y022785D02*
X033868Y022785D01*
X033868Y022944D02*
X033618Y022944D01*
X033618Y023102D02*
X033868Y023102D01*
X033868Y023261D02*
X033618Y023261D01*
X033618Y023419D02*
X036447Y023419D01*
X036447Y023261D02*
X035409Y023261D01*
X035409Y023102D02*
X036447Y023102D01*
X036447Y022944D02*
X035409Y022944D01*
X035409Y022785D02*
X036447Y022785D01*
X036447Y023578D02*
X033618Y023578D01*
X033618Y023737D02*
X036447Y023737D01*
X036447Y023895D02*
X033618Y023895D01*
X033618Y024054D02*
X036447Y024054D01*
X036447Y024212D02*
X033618Y024212D01*
X033618Y024371D02*
X036447Y024371D01*
X036447Y024529D02*
X033618Y024529D01*
X033618Y024688D02*
X036447Y024688D01*
X036447Y024846D02*
X033704Y024846D01*
X033863Y025005D02*
X036447Y025005D01*
X036447Y025163D02*
X034021Y025163D01*
X034180Y025322D02*
X036447Y025322D01*
X036447Y025481D02*
X034339Y025481D01*
X034497Y025639D02*
X036447Y025639D01*
X036447Y025798D02*
X034656Y025798D01*
X034814Y025956D02*
X036447Y025956D01*
X036447Y026115D02*
X034973Y026115D01*
X035118Y026273D02*
X036447Y026273D01*
X036447Y026432D02*
X035183Y026432D01*
X035192Y026590D02*
X036447Y026590D01*
X036447Y026749D02*
X035192Y026749D01*
X035192Y026907D02*
X036447Y026907D01*
X036447Y027066D02*
X035192Y027066D01*
X035192Y027225D02*
X036447Y027225D01*
X036447Y027383D02*
X035192Y027383D01*
X035192Y027542D02*
X036447Y027542D01*
X036447Y027700D02*
X035192Y027700D01*
X035192Y027859D02*
X036447Y027859D01*
X036447Y028017D02*
X035192Y028017D01*
X035192Y028176D02*
X036447Y028176D01*
X036447Y028334D02*
X035192Y028334D01*
X035192Y028493D02*
X036447Y028493D01*
X036447Y028651D02*
X035192Y028651D01*
X035192Y028810D02*
X036447Y028810D01*
X036447Y028969D02*
X035192Y028969D01*
X035192Y029127D02*
X036447Y029127D01*
X036447Y029286D02*
X035192Y029286D01*
X035192Y029444D02*
X036447Y029444D01*
X036447Y029603D02*
X035192Y029603D01*
X035307Y029761D02*
X036447Y029761D01*
X036447Y029920D02*
X035389Y029920D01*
X035389Y030078D02*
X036447Y030078D01*
X036447Y030237D02*
X035389Y030237D01*
X035389Y030395D02*
X036447Y030395D01*
X036447Y030554D02*
X035389Y030554D01*
X035389Y030712D02*
X036489Y030712D01*
X036588Y030871D02*
X035389Y030871D01*
X035389Y031030D02*
X036747Y031030D01*
X036905Y031188D02*
X035359Y031188D01*
X033919Y031188D02*
X001537Y031188D01*
X001537Y031030D02*
X033888Y031030D01*
X033888Y030871D02*
X001537Y030871D01*
X001537Y030712D02*
X033888Y030712D01*
X033888Y030554D02*
X001537Y030554D01*
X001537Y030395D02*
X033888Y030395D01*
X033888Y030237D02*
X001537Y030237D01*
X001537Y030078D02*
X033888Y030078D01*
X033888Y029920D02*
X001537Y029920D01*
X001537Y029761D02*
X033971Y029761D01*
X034085Y029603D02*
X001537Y029603D01*
X001537Y029444D02*
X003196Y029444D01*
X003299Y029487D02*
X003056Y029386D01*
X002871Y029201D01*
X002770Y028958D01*
X002770Y028695D01*
X002842Y028522D01*
X002673Y028353D01*
X002589Y028149D01*
X002589Y027929D01*
X002589Y026921D01*
X002486Y026921D01*
X002392Y026827D01*
X002392Y025513D01*
X002486Y025420D01*
X003799Y025420D01*
X003893Y025513D01*
X003893Y026827D01*
X003799Y026921D01*
X003696Y026921D01*
X003696Y027810D01*
X004053Y028167D01*
X004561Y028167D01*
X004804Y028267D01*
X004990Y028453D01*
X005090Y028695D01*
X005090Y028958D01*
X004990Y029201D01*
X004804Y029386D01*
X004561Y029487D01*
X003299Y029487D01*
X002956Y029286D02*
X001537Y029286D01*
X001537Y029127D02*
X002840Y029127D01*
X002774Y028969D02*
X001537Y028969D01*
X001537Y028810D02*
X002770Y028810D01*
X002788Y028651D02*
X001537Y028651D01*
X001537Y028493D02*
X002813Y028493D01*
X002666Y028334D02*
X001537Y028334D01*
X001537Y028176D02*
X002600Y028176D01*
X002589Y028017D02*
X001537Y028017D01*
X001537Y027859D02*
X002589Y027859D01*
X002589Y027700D02*
X001537Y027700D01*
X001537Y027542D02*
X002589Y027542D01*
X002589Y027383D02*
X001537Y027383D01*
X001537Y027225D02*
X002589Y027225D01*
X002589Y027066D02*
X001537Y027066D01*
X001537Y026907D02*
X002473Y026907D01*
X002392Y026749D02*
X001537Y026749D01*
X001537Y026590D02*
X002392Y026590D01*
X002392Y026432D02*
X001537Y026432D01*
X001537Y026273D02*
X002392Y026273D01*
X002392Y026115D02*
X001537Y026115D01*
X001537Y025956D02*
X002392Y025956D01*
X002392Y025798D02*
X001537Y025798D01*
X001537Y025639D02*
X002392Y025639D01*
X002425Y025481D02*
X001537Y025481D01*
X001537Y025322D02*
X032614Y025322D01*
X032537Y025163D02*
X001537Y025163D01*
X001537Y025005D02*
X032510Y025005D01*
X032510Y024846D02*
X001537Y024846D01*
X001537Y024688D02*
X032510Y024688D01*
X032510Y024529D02*
X001537Y024529D01*
X001537Y024371D02*
X032510Y024371D01*
X032510Y024212D02*
X001537Y024212D01*
X001537Y024054D02*
X032510Y024054D01*
X032510Y023895D02*
X001537Y023895D01*
X001537Y023737D02*
X032510Y023737D01*
X032510Y023578D02*
X001537Y023578D01*
X001537Y023419D02*
X032510Y023419D01*
X032510Y023261D02*
X001537Y023261D01*
X001537Y023102D02*
X032510Y023102D01*
X032510Y022944D02*
X001537Y022944D01*
X001537Y022785D02*
X032510Y022785D01*
X032510Y022627D02*
X001537Y022627D01*
X001537Y022468D02*
X032510Y022468D01*
X032510Y022310D02*
X001537Y022310D01*
X001537Y022151D02*
X032510Y022151D01*
X032510Y021993D02*
X001537Y021993D01*
X001537Y021834D02*
X032510Y021834D01*
X032510Y021676D02*
X001537Y021676D01*
X001537Y021517D02*
X032510Y021517D01*
X032510Y021358D02*
X001537Y021358D01*
X001537Y021200D02*
X032510Y021200D01*
X032510Y021041D02*
X001537Y021041D01*
X001537Y020883D02*
X032510Y020883D01*
X032510Y020724D02*
X001537Y020724D01*
X001537Y020566D02*
X032510Y020566D01*
X032510Y020407D02*
X001537Y020407D01*
X001537Y020249D02*
X032510Y020249D01*
X032510Y020090D02*
X001537Y020090D01*
X001537Y019932D02*
X032510Y019932D01*
X032510Y019773D02*
X003860Y019773D01*
X003893Y019740D02*
X003799Y019834D01*
X002486Y019834D01*
X002392Y019740D01*
X002392Y018427D01*
X002486Y018333D01*
X003799Y018333D01*
X003893Y018427D01*
X003893Y019740D01*
X003893Y019614D02*
X032510Y019614D01*
X032510Y019456D02*
X003893Y019456D01*
X003893Y019297D02*
X032510Y019297D01*
X032510Y019139D02*
X003893Y019139D01*
X003893Y018980D02*
X032510Y018980D01*
X032510Y018822D02*
X003893Y018822D01*
X003893Y018663D02*
X032510Y018663D01*
X032489Y018505D02*
X003893Y018505D01*
X003813Y018346D02*
X032331Y018346D01*
X032172Y018188D02*
X001537Y018188D01*
X001537Y018346D02*
X002473Y018346D01*
X002392Y018505D02*
X001537Y018505D01*
X001537Y018663D02*
X002392Y018663D01*
X002392Y018822D02*
X001537Y018822D01*
X001537Y018980D02*
X002392Y018980D01*
X002392Y019139D02*
X001537Y019139D01*
X001537Y019297D02*
X002392Y019297D01*
X002392Y019456D02*
X001537Y019456D01*
X001537Y019614D02*
X002392Y019614D01*
X002425Y019773D02*
X001537Y019773D01*
X001537Y018029D02*
X032014Y018029D01*
X031855Y017870D02*
X001537Y017870D01*
X001537Y017712D02*
X031697Y017712D01*
X031538Y017553D02*
X001537Y017553D01*
X001537Y017395D02*
X031380Y017395D01*
X031221Y017236D02*
X001537Y017236D01*
X001537Y017078D02*
X031063Y017078D01*
X030904Y016919D02*
X001537Y016919D01*
X001537Y016761D02*
X030746Y016761D01*
X030610Y016602D02*
X001537Y016602D01*
X001537Y016444D02*
X030544Y016444D01*
X030542Y016285D02*
X001537Y016285D01*
X001537Y016126D02*
X030542Y016126D01*
X030542Y015968D02*
X001537Y015968D01*
X001537Y015809D02*
X030542Y015809D01*
X030542Y015651D02*
X001537Y015651D01*
X001537Y015492D02*
X030542Y015492D01*
X030542Y015334D02*
X001537Y015334D01*
X001537Y015175D02*
X030542Y015175D01*
X030542Y015017D02*
X001537Y015017D01*
X001537Y014858D02*
X030542Y014858D01*
X030542Y014700D02*
X001537Y014700D01*
X001537Y014541D02*
X030542Y014541D01*
X030542Y014383D02*
X001537Y014383D01*
X001537Y014224D02*
X030542Y014224D01*
X030412Y014065D02*
X001537Y014065D01*
X001537Y013907D02*
X030254Y013907D01*
X030095Y013748D02*
X001537Y013748D01*
X001537Y013590D02*
X029937Y013590D01*
X029778Y013431D02*
X001537Y013431D01*
X001537Y013273D02*
X029620Y013273D01*
X029461Y013114D02*
X001537Y013114D01*
X001537Y012956D02*
X029303Y012956D01*
X029144Y012797D02*
X001537Y012797D01*
X001537Y012639D02*
X028986Y012639D01*
X028827Y012480D02*
X001537Y012480D01*
X001537Y012321D02*
X028669Y012321D01*
X028510Y012163D02*
X001537Y012163D01*
X001537Y012004D02*
X028351Y012004D01*
X028193Y011846D02*
X001537Y011846D01*
X001537Y011687D02*
X028066Y011687D01*
X028003Y011529D02*
X001537Y011529D01*
X001537Y011370D02*
X028003Y011370D01*
X028003Y011212D02*
X001537Y011212D01*
X001537Y011053D02*
X028003Y011053D01*
X028003Y010895D02*
X001537Y010895D01*
X001537Y010736D02*
X028003Y010736D01*
X028003Y010577D02*
X001537Y010577D01*
X001537Y010419D02*
X028003Y010419D01*
X028003Y010260D02*
X001537Y010260D01*
X001537Y010102D02*
X028003Y010102D01*
X028003Y009943D02*
X001537Y009943D01*
X001537Y009785D02*
X028003Y009785D01*
X028003Y009626D02*
X001537Y009626D01*
X001537Y009468D02*
X028003Y009468D01*
X028003Y009309D02*
X001537Y009309D01*
X001537Y009151D02*
X028003Y009151D01*
X028003Y008992D02*
X001537Y008992D01*
X001537Y008834D02*
X028003Y008834D01*
X028003Y008675D02*
X001537Y008675D01*
X001537Y008516D02*
X028003Y008516D01*
X028003Y008358D02*
X001537Y008358D01*
X001537Y008199D02*
X028003Y008199D01*
X028003Y008041D02*
X001537Y008041D01*
X001537Y007882D02*
X028003Y007882D01*
X028003Y007724D02*
X001537Y007724D01*
X001537Y007565D02*
X028003Y007565D01*
X028003Y007407D02*
X001537Y007407D01*
X001537Y007248D02*
X028003Y007248D01*
X028003Y007090D02*
X001537Y007090D01*
X001537Y006931D02*
X028003Y006931D01*
X028003Y006772D02*
X001537Y006772D01*
X001537Y006614D02*
X028003Y006614D01*
X028003Y006455D02*
X001537Y006455D01*
X001537Y006297D02*
X028003Y006297D01*
X028003Y006138D02*
X001537Y006138D01*
X001537Y005980D02*
X028003Y005980D01*
X028003Y005821D02*
X001537Y005821D01*
X001537Y005663D02*
X028003Y005663D01*
X028003Y005504D02*
X001537Y005504D01*
X001537Y005346D02*
X028003Y005346D01*
X028003Y005187D02*
X001537Y005187D01*
X001537Y005028D02*
X028003Y005028D01*
X028003Y004870D02*
X001537Y004870D01*
X001537Y004711D02*
X028040Y004711D01*
X028131Y004553D02*
X001537Y004553D01*
X001537Y004394D02*
X028356Y004394D01*
X028758Y004394D02*
X029496Y004394D01*
X029271Y004553D02*
X028983Y004553D01*
X029074Y004711D02*
X029180Y004711D01*
X029143Y004870D02*
X029111Y004870D01*
X029111Y005028D02*
X029147Y005028D01*
X029111Y005187D02*
X029212Y005187D01*
X029111Y005346D02*
X029349Y005346D01*
X029111Y005504D02*
X032293Y005504D01*
X032293Y005346D02*
X032054Y005346D01*
X032191Y005187D02*
X032293Y005187D01*
X032293Y005028D02*
X032257Y005028D01*
X032260Y004870D02*
X032293Y004870D01*
X032260Y004711D02*
X032330Y004711D01*
X032260Y004553D02*
X032421Y004553D01*
X032260Y004394D02*
X032645Y004394D01*
X033048Y004394D02*
X033691Y004394D01*
X033691Y004236D02*
X032260Y004236D01*
X032260Y004077D02*
X033691Y004077D01*
X033691Y003919D02*
X032260Y003919D01*
X031153Y003919D02*
X001537Y003919D01*
X001537Y004077D02*
X031153Y004077D01*
X031153Y004236D02*
X001537Y004236D01*
X001537Y003760D02*
X002402Y003760D01*
X002336Y003742D02*
X002608Y003815D01*
X002890Y003815D01*
X003162Y003742D01*
X003406Y003601D01*
X003406Y003602D02*
X031153Y003602D01*
X031153Y003760D02*
X003096Y003760D01*
X003406Y003601D02*
X003606Y003402D01*
X003747Y003158D01*
X003819Y002886D01*
X003819Y002604D01*
X003747Y002332D01*
X003606Y002088D01*
X003406Y001888D01*
X003162Y001747D01*
X002890Y001674D01*
X002608Y001674D01*
X002336Y001747D01*
X002092Y001888D01*
X001892Y002088D01*
X001751Y002332D01*
X001678Y002604D01*
X001678Y002886D01*
X001751Y003158D01*
X001892Y003402D01*
X002092Y003601D01*
X002092Y003602D02*
X001537Y003602D01*
X001537Y003443D02*
X001933Y003443D01*
X001824Y003284D02*
X001537Y003284D01*
X001537Y003126D02*
X001743Y003126D01*
X001700Y002967D02*
X001537Y002967D01*
X001537Y002809D02*
X001678Y002809D01*
X001678Y002650D02*
X001537Y002650D01*
X001537Y002492D02*
X001708Y002492D01*
X001751Y002333D02*
X001537Y002333D01*
X001537Y002175D02*
X001842Y002175D01*
X001964Y002016D02*
X001537Y002016D01*
X001537Y001858D02*
X002145Y001858D01*
X002516Y001699D02*
X001537Y001699D01*
X001537Y001541D02*
X057504Y001541D01*
X057504Y001699D02*
X056525Y001699D01*
X056433Y001674D02*
X056705Y001747D01*
X056950Y001888D01*
X057149Y002088D01*
X057290Y002332D01*
X057363Y002604D01*
X057363Y002886D01*
X057290Y003158D01*
X057149Y003402D01*
X056950Y003601D01*
X056705Y003742D01*
X056433Y003815D01*
X056151Y003815D01*
X055879Y003742D01*
X055635Y003601D01*
X055436Y003402D01*
X055295Y003158D01*
X055222Y002886D01*
X055222Y002604D01*
X055295Y002332D01*
X055436Y002088D01*
X055635Y001888D01*
X055879Y001747D01*
X056151Y001674D01*
X056433Y001674D01*
X056059Y001699D02*
X002982Y001699D01*
X003353Y001858D02*
X055688Y001858D01*
X055507Y002016D02*
X003534Y002016D01*
X003656Y002175D02*
X055385Y002175D01*
X055294Y002333D02*
X003747Y002333D01*
X003789Y002492D02*
X055252Y002492D01*
X055222Y002650D02*
X003819Y002650D01*
X003819Y002809D02*
X031531Y002809D01*
X031291Y002967D02*
X003798Y002967D01*
X003755Y003126D02*
X031194Y003126D01*
X031153Y003284D02*
X003674Y003284D01*
X003565Y003443D02*
X031153Y003443D01*
X033272Y004553D02*
X033691Y004553D01*
X033691Y004711D02*
X033363Y004711D01*
X033400Y004870D02*
X033691Y004870D01*
X033691Y005028D02*
X033400Y005028D01*
X033400Y005187D02*
X033691Y005187D01*
X033691Y005346D02*
X033400Y005346D01*
X033400Y005504D02*
X033691Y005504D01*
X033691Y005663D02*
X033400Y005663D01*
X033400Y005821D02*
X033691Y005821D01*
X033691Y005980D02*
X033400Y005980D01*
X033400Y006138D02*
X033691Y006138D01*
X033691Y006297D02*
X033400Y006297D01*
X033400Y006455D02*
X033691Y006455D01*
X033699Y006614D02*
X033400Y006614D01*
X033400Y006772D02*
X033765Y006772D01*
X033908Y006931D02*
X033400Y006931D01*
X033400Y007090D02*
X034066Y007090D01*
X034225Y007248D02*
X033400Y007248D01*
X033400Y007407D02*
X034384Y007407D01*
X034542Y007565D02*
X033400Y007565D01*
X033400Y007724D02*
X034701Y007724D01*
X034859Y007882D02*
X033400Y007882D01*
X033400Y008041D02*
X035018Y008041D01*
X035176Y008199D02*
X033400Y008199D01*
X033400Y008358D02*
X035335Y008358D01*
X035493Y008516D02*
X033400Y008516D01*
X033400Y008675D02*
X035652Y008675D01*
X035810Y008834D02*
X033400Y008834D01*
X033400Y008992D02*
X035969Y008992D01*
X036193Y009151D02*
X033400Y009151D01*
X033400Y009309D02*
X038467Y009309D01*
X038626Y009468D02*
X033400Y009468D01*
X033400Y009626D02*
X038784Y009626D01*
X038943Y009785D02*
X033400Y009785D01*
X033400Y009943D02*
X039101Y009943D01*
X039260Y010102D02*
X033400Y010102D01*
X033400Y010260D02*
X038195Y010260D01*
X038146Y010310D02*
X038251Y010205D01*
X038576Y010205D01*
X038900Y010205D01*
X039006Y010310D01*
X039006Y010634D01*
X038576Y010634D01*
X038576Y010205D01*
X038576Y010634D01*
X038576Y010634D01*
X038576Y010635D01*
X038576Y010635D01*
X038576Y011065D01*
X038900Y011065D01*
X039006Y010959D01*
X039006Y010635D01*
X038576Y010635D01*
X038576Y011065D01*
X038251Y011065D01*
X038146Y010959D01*
X038146Y010635D01*
X038575Y010635D01*
X038575Y010634D01*
X038146Y010634D01*
X038146Y010310D01*
X038146Y010419D02*
X033400Y010419D01*
X033400Y010577D02*
X038146Y010577D01*
X038146Y010736D02*
X033400Y010736D01*
X033532Y010895D02*
X038146Y010895D01*
X038240Y011053D02*
X033691Y011053D01*
X033849Y011212D02*
X039991Y011212D01*
X039991Y011370D02*
X034008Y011370D01*
X034166Y011529D02*
X039991Y011529D01*
X039991Y011687D02*
X034325Y011687D01*
X034483Y011846D02*
X039991Y011846D01*
X039991Y012004D02*
X034642Y012004D01*
X034800Y012163D02*
X039991Y012163D01*
X039991Y012321D02*
X034959Y012321D01*
X035112Y012480D02*
X039991Y012480D01*
X039991Y012639D02*
X035178Y012639D01*
X035192Y012797D02*
X039991Y012797D01*
X039991Y012956D02*
X035192Y012956D01*
X035192Y013114D02*
X039991Y013114D01*
X039991Y013273D02*
X035192Y013273D01*
X035192Y013431D02*
X039991Y013431D01*
X039991Y013590D02*
X035192Y013590D01*
X035192Y013748D02*
X039991Y013748D01*
X039991Y013907D02*
X035192Y013907D01*
X035359Y014065D02*
X039991Y014065D01*
X039991Y014224D02*
X035389Y014224D01*
X035389Y014383D02*
X039991Y014383D01*
X039991Y014541D02*
X035389Y014541D01*
X035389Y014700D02*
X039991Y014700D01*
X039991Y014858D02*
X035389Y014858D01*
X035389Y015017D02*
X039991Y015017D01*
X039991Y015175D02*
X035389Y015175D01*
X035389Y015334D02*
X039991Y015334D01*
X039991Y015492D02*
X035306Y015492D01*
X038576Y011053D02*
X038576Y011053D01*
X038576Y010895D02*
X038576Y010895D01*
X038576Y010736D02*
X038576Y010736D01*
X038576Y010577D02*
X038576Y010577D01*
X038576Y010419D02*
X038576Y010419D01*
X038576Y010260D02*
X038576Y010260D01*
X038956Y010260D02*
X039418Y010260D01*
X039577Y010419D02*
X039006Y010419D01*
X039006Y010577D02*
X039736Y010577D01*
X039894Y010736D02*
X039006Y010736D01*
X039006Y010895D02*
X039991Y010895D01*
X039991Y011053D02*
X038912Y011053D01*
X041935Y007724D02*
X043140Y007724D01*
X043140Y007565D02*
X041776Y007565D01*
X041618Y007407D02*
X043140Y007407D01*
X043026Y007248D02*
X041459Y007248D01*
X041300Y007090D02*
X042867Y007090D01*
X042709Y006931D02*
X041142Y006931D01*
X040983Y006772D02*
X042550Y006772D01*
X042391Y006614D02*
X040825Y006614D01*
X040666Y006455D02*
X042233Y006455D01*
X042074Y006297D02*
X040508Y006297D01*
X040349Y006138D02*
X041916Y006138D01*
X041757Y005980D02*
X040191Y005980D01*
X040032Y005821D02*
X041599Y005821D01*
X041440Y005663D02*
X039874Y005663D01*
X039818Y005504D02*
X041315Y005504D01*
X041270Y005346D02*
X039818Y005346D01*
X039818Y005187D02*
X041270Y005187D01*
X040938Y004910D02*
X042513Y004910D01*
X042513Y003335D01*
X040938Y003335D01*
X040938Y004910D01*
X040938Y004870D02*
X042513Y004870D01*
X042513Y004711D02*
X040938Y004711D01*
X040938Y004553D02*
X042513Y004553D01*
X042513Y004394D02*
X040938Y004394D01*
X040938Y004236D02*
X042513Y004236D01*
X042513Y004077D02*
X040938Y004077D01*
X040938Y003919D02*
X042513Y003919D01*
X042513Y003760D02*
X040938Y003760D01*
X040938Y003602D02*
X042513Y003602D01*
X042513Y003443D02*
X040938Y003443D01*
X040680Y003443D02*
X040409Y003443D01*
X040409Y003284D02*
X040680Y003284D01*
X040782Y003126D02*
X040307Y003126D01*
X040151Y003335D02*
X038576Y003335D01*
X038576Y004910D01*
X040151Y004910D01*
X040151Y003335D01*
X040151Y003443D02*
X038576Y003443D01*
X038576Y003602D02*
X040151Y003602D01*
X040151Y003760D02*
X038576Y003760D01*
X038576Y003919D02*
X040151Y003919D01*
X040151Y004077D02*
X038576Y004077D01*
X038576Y004236D02*
X040151Y004236D01*
X040151Y004394D02*
X038576Y004394D01*
X038576Y004553D02*
X040151Y004553D01*
X040151Y004711D02*
X038576Y004711D01*
X038576Y004870D02*
X040151Y004870D01*
X040409Y004870D02*
X040680Y004870D01*
X040680Y004711D02*
X040409Y004711D01*
X040409Y004553D02*
X040680Y004553D01*
X040680Y004394D02*
X040409Y004394D01*
X040409Y004236D02*
X040680Y004236D01*
X040680Y004077D02*
X040409Y004077D01*
X040409Y003919D02*
X040680Y003919D01*
X040680Y003760D02*
X040409Y003760D01*
X040409Y003602D02*
X040680Y003602D01*
X038420Y003126D02*
X037944Y003126D01*
X038047Y003284D02*
X038317Y003284D01*
X038317Y003443D02*
X038047Y003443D01*
X038047Y003602D02*
X038317Y003602D01*
X038317Y003760D02*
X038047Y003760D01*
X038047Y003919D02*
X038317Y003919D01*
X038317Y004077D02*
X038047Y004077D01*
X038047Y004236D02*
X038317Y004236D01*
X038317Y004394D02*
X038047Y004394D01*
X038047Y004553D02*
X038317Y004553D01*
X038317Y004711D02*
X038047Y004711D01*
X038047Y004870D02*
X038317Y004870D01*
X038345Y005028D02*
X038019Y005028D01*
X040381Y005028D02*
X040707Y005028D01*
X042252Y005187D02*
X045295Y005187D01*
X045404Y005296D02*
X045404Y005296D01*
X045454Y005346D02*
X042411Y005346D01*
X042569Y005504D02*
X045612Y005504D01*
X045771Y005663D02*
X042728Y005663D01*
X042886Y005821D02*
X045929Y005821D01*
X046088Y005980D02*
X043045Y005980D01*
X043204Y006138D02*
X046324Y006138D01*
X046796Y006297D02*
X043362Y006297D01*
X043521Y006455D02*
X046796Y006455D01*
X046796Y006614D02*
X043679Y006614D01*
X044208Y006772D02*
X046796Y006772D01*
X046796Y005187D02*
X046583Y005187D01*
X046424Y005028D02*
X046796Y005028D01*
X046796Y004870D02*
X046266Y004870D01*
X046107Y004711D02*
X046796Y004711D01*
X046796Y004553D02*
X045949Y004553D01*
X045790Y004394D02*
X057504Y004394D01*
X057504Y004236D02*
X045632Y004236D01*
X045473Y004077D02*
X057504Y004077D01*
X057504Y003919D02*
X045315Y003919D01*
X045156Y003760D02*
X055945Y003760D01*
X055635Y003602D02*
X045133Y003602D01*
X045133Y003443D02*
X055476Y003443D01*
X055368Y003284D02*
X045133Y003284D01*
X045031Y003126D02*
X055286Y003126D01*
X055244Y002967D02*
X034660Y002967D01*
X034421Y002809D02*
X055222Y002809D01*
X056640Y003760D02*
X057504Y003760D01*
X057504Y003602D02*
X056949Y003602D01*
X057108Y003443D02*
X057504Y003443D01*
X057504Y003284D02*
X057217Y003284D01*
X057298Y003126D02*
X057504Y003126D01*
X057504Y002967D02*
X057341Y002967D01*
X057363Y002809D02*
X057504Y002809D01*
X057504Y002650D02*
X057363Y002650D01*
X057333Y002492D02*
X057504Y002492D01*
X057504Y002333D02*
X057290Y002333D01*
X057199Y002175D02*
X057504Y002175D01*
X057504Y002016D02*
X057078Y002016D01*
X056897Y001858D02*
X057504Y001858D01*
X057504Y004870D02*
X050113Y004870D01*
X050271Y005028D02*
X057504Y005028D01*
X057504Y005187D02*
X050430Y005187D01*
X050589Y005346D02*
X057504Y005346D01*
X057504Y005504D02*
X050747Y005504D01*
X050906Y005663D02*
X057504Y005663D01*
X057504Y005821D02*
X051064Y005821D01*
X051223Y005980D02*
X057504Y005980D01*
X057504Y006138D02*
X051381Y006138D01*
X051540Y006297D02*
X057504Y006297D01*
X057504Y006455D02*
X051698Y006455D01*
X051857Y006614D02*
X057504Y006614D01*
X057504Y006772D02*
X052015Y006772D01*
X052174Y006931D02*
X057504Y006931D01*
X057504Y007090D02*
X052333Y007090D01*
X052491Y007248D02*
X057504Y007248D01*
X057504Y007407D02*
X052650Y007407D01*
X052808Y007565D02*
X057504Y007565D01*
X057504Y007724D02*
X052967Y007724D01*
X053125Y007882D02*
X057504Y007882D01*
X057504Y008041D02*
X053284Y008041D01*
X053442Y008199D02*
X057504Y008199D01*
X057504Y008358D02*
X053601Y008358D01*
X053759Y008516D02*
X057504Y008516D01*
X057504Y008675D02*
X053918Y008675D01*
X054076Y008834D02*
X057504Y008834D01*
X057504Y008992D02*
X054235Y008992D01*
X054394Y009151D02*
X057504Y009151D01*
X057504Y009309D02*
X054552Y009309D01*
X054711Y009468D02*
X057504Y009468D01*
X057504Y009626D02*
X054869Y009626D01*
X055028Y009785D02*
X057504Y009785D01*
X057504Y009943D02*
X055186Y009943D01*
X055345Y010102D02*
X057504Y010102D01*
X057504Y010260D02*
X055503Y010260D01*
X055662Y010419D02*
X057504Y010419D01*
X057504Y010577D02*
X055820Y010577D01*
X055979Y010736D02*
X057504Y010736D01*
X057504Y010895D02*
X056138Y010895D01*
X056296Y011053D02*
X057504Y011053D01*
X057504Y011212D02*
X056455Y011212D01*
X056613Y011370D02*
X057504Y011370D01*
X057504Y011529D02*
X056772Y011529D01*
X056930Y011687D02*
X057504Y011687D01*
X057504Y011846D02*
X057089Y011846D01*
X057240Y012004D02*
X057504Y012004D01*
X057504Y012163D02*
X057289Y012163D01*
X057289Y012321D02*
X057504Y012321D01*
X057504Y012480D02*
X057289Y012480D01*
X057289Y012639D02*
X057504Y012639D01*
X057504Y012797D02*
X057289Y012797D01*
X057289Y012956D02*
X057504Y012956D01*
X057504Y013114D02*
X057289Y013114D01*
X057289Y013273D02*
X057504Y013273D01*
X057504Y013431D02*
X057289Y013431D01*
X057289Y013590D02*
X057504Y013590D01*
X057504Y013748D02*
X057289Y013748D01*
X057289Y013907D02*
X057504Y013907D01*
X057504Y014065D02*
X057289Y014065D01*
X057289Y014224D02*
X057504Y014224D01*
X057504Y014383D02*
X057289Y014383D01*
X057289Y014541D02*
X057504Y014541D01*
X057504Y014700D02*
X057289Y014700D01*
X057289Y014858D02*
X057504Y014858D01*
X057504Y015017D02*
X057289Y015017D01*
X057289Y015175D02*
X057504Y015175D01*
X057504Y015334D02*
X057289Y015334D01*
X057289Y015492D02*
X057504Y015492D01*
X057504Y015651D02*
X057289Y015651D01*
X057289Y015809D02*
X057504Y015809D01*
X057504Y015968D02*
X057289Y015968D01*
X057289Y016126D02*
X057504Y016126D01*
X057504Y016285D02*
X057289Y016285D01*
X057289Y016444D02*
X057504Y016444D01*
X057504Y016602D02*
X057289Y016602D01*
X057289Y016761D02*
X057504Y016761D01*
X057504Y016919D02*
X057289Y016919D01*
X057289Y017078D02*
X057504Y017078D01*
X057504Y017236D02*
X057289Y017236D01*
X057289Y017395D02*
X057504Y017395D01*
X057504Y017553D02*
X057289Y017553D01*
X057289Y017712D02*
X057504Y017712D01*
X057504Y017870D02*
X057289Y017870D01*
X057289Y018029D02*
X057504Y018029D01*
X057504Y018188D02*
X057289Y018188D01*
X057289Y018346D02*
X057504Y018346D01*
X057504Y018505D02*
X057289Y018505D01*
X057289Y018663D02*
X057504Y018663D01*
X057504Y018822D02*
X057289Y018822D01*
X057289Y018980D02*
X057504Y018980D01*
X057504Y019139D02*
X057275Y019139D01*
X057174Y019297D02*
X057504Y019297D01*
X057504Y019456D02*
X057015Y019456D01*
X056895Y019614D02*
X057504Y019614D01*
X057504Y019773D02*
X056895Y019773D01*
X056895Y019932D02*
X057504Y019932D01*
X057504Y020090D02*
X056895Y020090D01*
X056895Y020249D02*
X057504Y020249D01*
X057504Y020407D02*
X056895Y020407D01*
X056895Y020566D02*
X057504Y020566D01*
X057504Y020724D02*
X056895Y020724D01*
X056895Y020883D02*
X057504Y020883D01*
X057504Y021041D02*
X056895Y021041D01*
X056895Y021200D02*
X057504Y021200D01*
X057504Y021358D02*
X056895Y021358D01*
X056895Y021517D02*
X057504Y021517D01*
X057504Y021676D02*
X056895Y021676D01*
X056895Y021834D02*
X057504Y021834D01*
X057504Y021993D02*
X056895Y021993D01*
X056895Y022151D02*
X057504Y022151D01*
X057504Y022310D02*
X056895Y022310D01*
X056895Y022468D02*
X057504Y022468D01*
X057504Y022627D02*
X056895Y022627D01*
X056895Y022785D02*
X057504Y022785D01*
X057504Y022944D02*
X056895Y022944D01*
X056895Y023102D02*
X057504Y023102D01*
X057504Y023261D02*
X056895Y023261D01*
X056895Y023419D02*
X057504Y023419D01*
X057504Y023578D02*
X056895Y023578D01*
X056895Y023737D02*
X057504Y023737D01*
X057504Y023895D02*
X056895Y023895D01*
X056895Y024054D02*
X057504Y024054D01*
X057504Y024212D02*
X056895Y024212D01*
X056895Y024371D02*
X057504Y024371D01*
X057504Y024529D02*
X056895Y024529D01*
X056895Y024688D02*
X057504Y024688D01*
X057504Y024846D02*
X056895Y024846D01*
X056895Y025005D02*
X057504Y025005D01*
X057504Y025163D02*
X056895Y025163D01*
X056895Y025322D02*
X057504Y025322D01*
X057504Y025481D02*
X056895Y025481D01*
X056895Y025639D02*
X057504Y025639D01*
X057504Y025798D02*
X056895Y025798D01*
X056895Y025956D02*
X057504Y025956D01*
X057504Y026115D02*
X056895Y026115D01*
X056895Y026273D02*
X057504Y026273D01*
X057504Y026432D02*
X056895Y026432D01*
X056895Y026590D02*
X057504Y026590D01*
X057504Y026749D02*
X056895Y026749D01*
X056895Y026907D02*
X057504Y026907D01*
X057504Y027066D02*
X056895Y027066D01*
X056895Y027225D02*
X057504Y027225D01*
X057504Y027383D02*
X056895Y027383D01*
X056895Y027542D02*
X057504Y027542D01*
X057504Y027700D02*
X056895Y027700D01*
X056895Y027859D02*
X057504Y027859D01*
X057504Y028017D02*
X056895Y028017D01*
X056852Y028176D02*
X057504Y028176D01*
X057504Y028334D02*
X056709Y028334D01*
X056551Y028493D02*
X057504Y028493D01*
X057504Y028651D02*
X056392Y028651D01*
X056234Y028810D02*
X057504Y028810D01*
X057504Y028969D02*
X056075Y028969D01*
X055917Y029127D02*
X057504Y029127D01*
X057504Y029286D02*
X055758Y029286D01*
X055600Y029444D02*
X057504Y029444D01*
X057504Y029603D02*
X055441Y029603D01*
X055283Y029761D02*
X057504Y029761D01*
X057504Y029920D02*
X055124Y029920D01*
X054965Y030078D02*
X057504Y030078D01*
X057504Y030237D02*
X054807Y030237D01*
X054648Y030395D02*
X057504Y030395D01*
X057504Y030554D02*
X054490Y030554D01*
X054346Y030712D02*
X057504Y030712D01*
X057504Y030871D02*
X054346Y030871D01*
X055015Y031030D02*
X057504Y031030D01*
X057504Y031188D02*
X055056Y031188D01*
X055064Y031347D02*
X057504Y031347D01*
X057504Y031505D02*
X055064Y031505D01*
X055064Y031664D02*
X057504Y031664D01*
X057504Y031822D02*
X055064Y031822D01*
X055064Y031981D02*
X057504Y031981D01*
X057504Y032139D02*
X055064Y032139D01*
X055064Y032298D02*
X057504Y032298D01*
X057504Y032456D02*
X055064Y032456D01*
X055064Y032615D02*
X057504Y032615D01*
X057504Y032774D02*
X055064Y032774D01*
X055064Y032932D02*
X057504Y032932D01*
X057504Y033091D02*
X055015Y033091D01*
X054787Y033249D02*
X057504Y033249D01*
X054530Y033249D02*
X054246Y033249D01*
X054252Y032482D02*
X054252Y031665D01*
X053726Y031665D01*
X053632Y031571D01*
X053632Y031070D01*
X052870Y031070D01*
X052870Y031134D01*
X052776Y031228D01*
X052023Y031228D01*
X052023Y031887D01*
X052544Y032408D01*
X054080Y032408D01*
X054247Y032477D01*
X054252Y032482D01*
X054252Y032456D02*
X054197Y032456D01*
X054252Y032298D02*
X052434Y032298D01*
X052275Y032139D02*
X054252Y032139D01*
X054252Y031981D02*
X052117Y031981D01*
X052023Y031822D02*
X054252Y031822D01*
X054252Y031665D02*
X054252Y031665D01*
X053725Y031664D02*
X052023Y031664D01*
X052023Y031505D02*
X053632Y031505D01*
X053632Y031347D02*
X052023Y031347D01*
X052815Y031188D02*
X053632Y031188D01*
X053683Y030357D02*
X052870Y030357D01*
X052870Y030293D01*
X052776Y030199D01*
X052527Y030199D01*
X052600Y030169D01*
X053052Y030169D01*
X053233Y030169D01*
X053401Y030099D01*
X053794Y029706D01*
X053794Y029706D01*
X053922Y029578D01*
X053992Y029410D01*
X053992Y028208D01*
X054603Y028208D01*
X054771Y028139D01*
X054899Y028011D01*
X056088Y026822D01*
X056157Y026654D01*
X056157Y026473D01*
X056157Y019370D01*
X056189Y019338D01*
X056181Y019357D01*
X056181Y019499D01*
X056181Y027853D01*
X053687Y030348D01*
X053683Y030357D01*
X053798Y030237D02*
X052814Y030237D01*
X053422Y030078D02*
X053956Y030078D01*
X054115Y029920D02*
X053580Y029920D01*
X053739Y029761D02*
X054273Y029761D01*
X054432Y029603D02*
X053897Y029603D01*
X053978Y029444D02*
X054590Y029444D01*
X054749Y029286D02*
X053992Y029286D01*
X053992Y029127D02*
X054907Y029127D01*
X055066Y028969D02*
X053992Y028969D01*
X053992Y028810D02*
X055224Y028810D01*
X055383Y028651D02*
X053992Y028651D01*
X053992Y028493D02*
X055542Y028493D01*
X055700Y028334D02*
X053992Y028334D01*
X054681Y028176D02*
X055859Y028176D01*
X056017Y028017D02*
X054892Y028017D01*
X055051Y027859D02*
X056176Y027859D01*
X056181Y027700D02*
X055209Y027700D01*
X055368Y027542D02*
X056181Y027542D01*
X056181Y027383D02*
X055526Y027383D01*
X055685Y027225D02*
X056181Y027225D01*
X056181Y027066D02*
X055843Y027066D01*
X056002Y026907D02*
X056181Y026907D01*
X056181Y026749D02*
X056118Y026749D01*
X056157Y026590D02*
X056181Y026590D01*
X056181Y026432D02*
X056157Y026432D01*
X056157Y026273D02*
X056181Y026273D01*
X056181Y026115D02*
X056157Y026115D01*
X056157Y025956D02*
X056181Y025956D01*
X056181Y025798D02*
X056157Y025798D01*
X056157Y025639D02*
X056181Y025639D01*
X056181Y025481D02*
X056157Y025481D01*
X056157Y025322D02*
X056181Y025322D01*
X056181Y025163D02*
X056157Y025163D01*
X056157Y025005D02*
X056181Y025005D01*
X056181Y024846D02*
X056157Y024846D01*
X056157Y024688D02*
X056181Y024688D01*
X056181Y024529D02*
X056157Y024529D01*
X056157Y024371D02*
X056181Y024371D01*
X056181Y024212D02*
X056157Y024212D01*
X056157Y024054D02*
X056181Y024054D01*
X056181Y023895D02*
X056157Y023895D01*
X056157Y023737D02*
X056181Y023737D01*
X056181Y023578D02*
X056157Y023578D01*
X056157Y023419D02*
X056181Y023419D01*
X056181Y023261D02*
X056157Y023261D01*
X056157Y023102D02*
X056181Y023102D01*
X056181Y022944D02*
X056157Y022944D01*
X056157Y022785D02*
X056181Y022785D01*
X056181Y022627D02*
X056157Y022627D01*
X056157Y022468D02*
X056181Y022468D01*
X056181Y022310D02*
X056157Y022310D01*
X056157Y022151D02*
X056181Y022151D01*
X056181Y021993D02*
X056157Y021993D01*
X056157Y021834D02*
X056181Y021834D01*
X056181Y021676D02*
X056157Y021676D01*
X056157Y021517D02*
X056181Y021517D01*
X056181Y021358D02*
X056157Y021358D01*
X056157Y021200D02*
X056181Y021200D01*
X056181Y021041D02*
X056157Y021041D01*
X056157Y020883D02*
X056181Y020883D01*
X056181Y020724D02*
X056157Y020724D01*
X056157Y020566D02*
X056181Y020566D01*
X056181Y020407D02*
X056157Y020407D01*
X056157Y020249D02*
X056181Y020249D01*
X056181Y020090D02*
X056157Y020090D01*
X056157Y019932D02*
X056181Y019932D01*
X056181Y019773D02*
X056157Y019773D01*
X056157Y019614D02*
X056181Y019614D01*
X056181Y019456D02*
X056157Y019456D01*
X055246Y023958D02*
X055202Y024066D01*
X055074Y024194D01*
X055074Y024194D01*
X052811Y026457D01*
X052811Y028386D01*
X052825Y028400D01*
X052909Y028603D01*
X052909Y028824D01*
X052825Y029027D01*
X052669Y029183D01*
X052544Y029235D01*
X052600Y029258D01*
X052954Y029258D01*
X053081Y029131D01*
X053081Y028040D01*
X053052Y028011D01*
X052983Y027843D01*
X052983Y027662D01*
X053052Y027495D01*
X053180Y027367D01*
X053347Y027297D01*
X054324Y027297D01*
X055246Y026375D01*
X055246Y023958D01*
X055246Y024054D02*
X055207Y024054D01*
X055246Y024212D02*
X055055Y024212D01*
X054897Y024371D02*
X055246Y024371D01*
X055246Y024529D02*
X054738Y024529D01*
X054580Y024688D02*
X055246Y024688D01*
X055246Y024846D02*
X054421Y024846D01*
X054263Y025005D02*
X055246Y025005D01*
X055246Y025163D02*
X054104Y025163D01*
X053946Y025322D02*
X055246Y025322D01*
X055246Y025481D02*
X053787Y025481D01*
X053629Y025639D02*
X055246Y025639D01*
X055246Y025798D02*
X053470Y025798D01*
X053311Y025956D02*
X055246Y025956D01*
X055246Y026115D02*
X053153Y026115D01*
X053256Y026313D02*
X052998Y026571D01*
X052998Y026753D01*
X053438Y026753D01*
X053438Y026753D01*
X053438Y027193D01*
X053620Y027193D01*
X053878Y026935D01*
X053878Y026753D01*
X053438Y026753D01*
X053438Y027193D01*
X053256Y027193D01*
X052998Y026935D01*
X052998Y026753D01*
X053438Y026753D01*
X053438Y026753D01*
X053438Y026753D01*
X053878Y026753D01*
X053878Y026571D01*
X053620Y026313D01*
X053438Y026313D01*
X053438Y026752D01*
X053438Y026752D01*
X053438Y026313D01*
X053256Y026313D01*
X053137Y026432D02*
X052836Y026432D01*
X052811Y026590D02*
X052998Y026590D01*
X052998Y026749D02*
X052811Y026749D01*
X052811Y026907D02*
X052998Y026907D01*
X053129Y027066D02*
X052811Y027066D01*
X052811Y027225D02*
X054397Y027225D01*
X054556Y027066D02*
X053747Y027066D01*
X053878Y026907D02*
X054714Y026907D01*
X054873Y026749D02*
X053878Y026749D01*
X053878Y026590D02*
X055031Y026590D01*
X055190Y026432D02*
X053739Y026432D01*
X053438Y026432D02*
X053438Y026432D01*
X053438Y026590D02*
X053438Y026590D01*
X053438Y026749D02*
X053438Y026749D01*
X053438Y026907D02*
X053438Y026907D01*
X053438Y027066D02*
X053438Y027066D01*
X053164Y027383D02*
X052811Y027383D01*
X052811Y027542D02*
X053033Y027542D01*
X052983Y027700D02*
X052811Y027700D01*
X052811Y027859D02*
X052989Y027859D01*
X053059Y028017D02*
X052811Y028017D01*
X052811Y028176D02*
X053081Y028176D01*
X053081Y028334D02*
X052811Y028334D01*
X052863Y028493D02*
X053081Y028493D01*
X053081Y028651D02*
X052909Y028651D01*
X052909Y028810D02*
X053081Y028810D01*
X053081Y028969D02*
X052849Y028969D01*
X052725Y029127D02*
X053081Y029127D01*
X052994Y026273D02*
X055246Y026273D01*
X049885Y024846D02*
X037555Y024846D01*
X037555Y024688D02*
X045026Y024688D01*
X044868Y024529D02*
X037555Y024529D01*
X037555Y024371D02*
X044829Y024371D01*
X044829Y024212D02*
X037555Y024212D01*
X037555Y024054D02*
X044901Y024054D01*
X045167Y022627D02*
X043296Y022627D01*
X043137Y022468D02*
X045325Y022468D01*
X045484Y022310D02*
X042979Y022310D01*
X042820Y022151D02*
X045642Y022151D01*
X045801Y021993D02*
X042662Y021993D01*
X042503Y021834D02*
X045959Y021834D01*
X046118Y021676D02*
X042345Y021676D01*
X042279Y021517D02*
X046276Y021517D01*
X046290Y021358D02*
X045744Y021358D01*
X045803Y021200D02*
X046290Y021200D01*
X046290Y021041D02*
X045803Y021041D01*
X045803Y020724D02*
X046290Y020724D01*
X046290Y020566D02*
X045803Y020566D01*
X046290Y020883D02*
X045307Y020883D01*
X045230Y020883D02*
X042279Y020883D01*
X042279Y021041D02*
X044734Y021041D01*
X044734Y020909D02*
X045230Y020909D01*
X045230Y021405D01*
X044840Y021405D01*
X044734Y021300D01*
X044734Y020909D01*
X044734Y020724D02*
X042279Y020724D01*
X042279Y020566D02*
X044734Y020566D01*
X044769Y020407D02*
X042279Y020407D01*
X042279Y020249D02*
X044863Y020249D01*
X044760Y020090D02*
X042279Y020090D01*
X042279Y019932D02*
X044715Y019932D01*
X044715Y019773D02*
X042279Y019773D01*
X042279Y019614D02*
X044776Y019614D01*
X044901Y019456D02*
X042279Y019456D01*
X042279Y019297D02*
X044968Y019297D01*
X044823Y019139D02*
X042279Y019139D01*
X042279Y018980D02*
X044757Y018980D01*
X044754Y018822D02*
X042279Y018822D01*
X042279Y018663D02*
X044798Y018663D01*
X044813Y018505D02*
X042248Y018505D01*
X042165Y018346D02*
X044813Y018346D01*
X044813Y018188D02*
X042006Y018188D01*
X041848Y018029D02*
X044813Y018029D01*
X044813Y017870D02*
X041689Y017870D01*
X041531Y017712D02*
X044813Y017712D01*
X044813Y017553D02*
X041372Y017553D01*
X041213Y017395D02*
X044813Y017395D01*
X044813Y017236D02*
X041098Y017236D01*
X041098Y017078D02*
X044813Y017078D01*
X044813Y016919D02*
X041098Y016919D01*
X041098Y016761D02*
X044813Y016761D01*
X044869Y016602D02*
X041098Y016602D01*
X041098Y016444D02*
X045009Y016444D01*
X045848Y016285D02*
X041098Y016285D01*
X045783Y018822D02*
X047585Y018822D01*
X047585Y018980D02*
X045780Y018980D01*
X045714Y019139D02*
X047585Y019139D01*
X047723Y019297D02*
X045569Y019297D01*
X045307Y021041D02*
X045230Y021041D01*
X045230Y021200D02*
X045307Y021200D01*
X045307Y021358D02*
X045230Y021358D01*
X044793Y021358D02*
X042279Y021358D01*
X042279Y021200D02*
X044734Y021200D01*
X049410Y025322D02*
X037555Y025322D01*
X037555Y025163D02*
X049568Y025163D01*
X049727Y025005D02*
X037555Y025005D01*
X037555Y025481D02*
X049251Y025481D01*
X049093Y025639D02*
X045466Y025639D01*
X045451Y025624D02*
X045709Y025882D01*
X045709Y026064D01*
X045709Y026246D01*
X045451Y026504D01*
X045269Y026504D01*
X045269Y026064D01*
X045709Y026064D01*
X045269Y026064D01*
X045269Y026064D01*
X045268Y026064D01*
X045268Y026064D01*
X044829Y026064D01*
X044829Y026246D01*
X045086Y026504D01*
X045268Y026504D01*
X045268Y026064D01*
X044829Y026064D01*
X044829Y025882D01*
X045086Y025624D01*
X045268Y025624D01*
X045268Y026063D01*
X045269Y026063D01*
X045269Y025624D01*
X045451Y025624D01*
X045269Y025639D02*
X045268Y025639D01*
X045268Y025798D02*
X045269Y025798D01*
X045268Y025956D02*
X045269Y025956D01*
X045268Y026115D02*
X045269Y026115D01*
X045268Y026273D02*
X045269Y026273D01*
X045268Y026432D02*
X045269Y026432D01*
X045523Y026432D02*
X048300Y026432D01*
X048141Y026590D02*
X039792Y026590D01*
X039746Y026571D02*
X039922Y026644D01*
X040057Y026779D01*
X040131Y026956D01*
X040131Y027331D01*
X039671Y027331D01*
X039671Y027371D01*
X040131Y027371D01*
X040131Y027747D01*
X040057Y027923D01*
X039922Y028058D01*
X039746Y028131D01*
X039671Y028131D01*
X039671Y027371D01*
X039630Y027371D01*
X039630Y027331D01*
X039171Y027331D01*
X039171Y026956D01*
X039244Y026779D01*
X039379Y026644D01*
X039555Y026571D01*
X039630Y026571D01*
X039630Y027331D01*
X039671Y027331D01*
X039671Y026571D01*
X039746Y026571D01*
X039671Y026590D02*
X039630Y026590D01*
X039509Y026590D02*
X037555Y026590D01*
X037555Y026432D02*
X045014Y026432D01*
X044856Y026273D02*
X037555Y026273D01*
X037555Y026115D02*
X044829Y026115D01*
X044829Y025956D02*
X037555Y025956D01*
X037555Y025798D02*
X044913Y025798D01*
X045071Y025639D02*
X037555Y025639D01*
X037555Y026749D02*
X039274Y026749D01*
X039191Y026907D02*
X037555Y026907D01*
X037555Y027066D02*
X039171Y027066D01*
X039171Y027225D02*
X037555Y027225D01*
X037555Y027383D02*
X039171Y027383D01*
X039171Y027371D02*
X039630Y027371D01*
X039630Y028131D01*
X039555Y028131D01*
X039379Y028058D01*
X039244Y027923D01*
X039171Y027747D01*
X039171Y027371D01*
X039171Y027542D02*
X037555Y027542D01*
X037555Y027700D02*
X039171Y027700D01*
X039217Y027859D02*
X037555Y027859D01*
X037555Y028017D02*
X039338Y028017D01*
X039630Y028017D02*
X039671Y028017D01*
X039671Y027859D02*
X039630Y027859D01*
X039630Y027700D02*
X039671Y027700D01*
X039671Y027542D02*
X039630Y027542D01*
X039630Y027383D02*
X039671Y027383D01*
X039671Y027225D02*
X039630Y027225D01*
X039630Y027066D02*
X039671Y027066D01*
X039671Y026907D02*
X039630Y026907D01*
X039630Y026749D02*
X039671Y026749D01*
X040027Y026749D02*
X040302Y026749D01*
X040212Y026907D02*
X040111Y026907D01*
X040131Y027066D02*
X040191Y027066D01*
X040191Y027225D02*
X040131Y027225D01*
X040131Y027383D02*
X040191Y027383D01*
X040191Y027542D02*
X040131Y027542D01*
X040131Y027700D02*
X040191Y027700D01*
X040239Y027859D02*
X040084Y027859D01*
X039963Y028017D02*
X040366Y028017D01*
X040935Y028017D02*
X042535Y028017D01*
X042376Y027859D02*
X041062Y027859D01*
X040999Y026749D02*
X044940Y026749D01*
X044841Y026907D02*
X042631Y026907D01*
X042871Y027066D02*
X044813Y027066D01*
X044813Y027225D02*
X043030Y027225D01*
X043189Y027383D02*
X044813Y027383D01*
X044813Y027542D02*
X043347Y027542D01*
X043506Y027700D02*
X044813Y027700D01*
X044813Y027859D02*
X043664Y027859D01*
X043823Y028017D02*
X044813Y028017D01*
X044813Y028176D02*
X043981Y028176D01*
X043328Y028810D02*
X037555Y028810D01*
X037555Y028969D02*
X043486Y028969D01*
X043684Y029127D02*
X037555Y029127D01*
X037555Y029286D02*
X044941Y029286D01*
X044802Y029444D02*
X037555Y029444D01*
X037555Y029603D02*
X044736Y029603D01*
X044734Y029761D02*
X037555Y029761D01*
X037555Y029920D02*
X044776Y029920D01*
X044878Y030078D02*
X037555Y030078D01*
X037555Y030237D02*
X044810Y030237D01*
X044754Y030395D02*
X037679Y030395D01*
X037837Y030554D02*
X044735Y030554D01*
X044715Y030712D02*
X037996Y030712D01*
X038154Y030871D02*
X044715Y030871D01*
X044715Y031030D02*
X038313Y031030D01*
X038471Y031188D02*
X044715Y031188D01*
X044715Y031347D02*
X038630Y031347D01*
X038788Y031505D02*
X044715Y031505D01*
X044896Y032774D02*
X039129Y032774D01*
X039129Y032932D02*
X045077Y032932D01*
X044919Y033091D02*
X039129Y033091D01*
X039129Y033249D02*
X044829Y033249D01*
X044829Y033408D02*
X039129Y033408D01*
X039129Y033566D02*
X044850Y033566D01*
X045008Y033725D02*
X039129Y033725D01*
X038022Y033725D02*
X001537Y033725D01*
X001537Y033883D02*
X038022Y033883D01*
X038022Y034042D02*
X001537Y034042D01*
X001537Y034200D02*
X038022Y034200D01*
X038022Y034359D02*
X001537Y034359D01*
X001537Y034518D02*
X038022Y034518D01*
X038022Y034676D02*
X001537Y034676D01*
X001537Y034835D02*
X038066Y034835D01*
X038167Y034993D02*
X001537Y034993D01*
X001537Y033566D02*
X038022Y033566D01*
X038022Y033408D02*
X001537Y033408D01*
X001537Y033249D02*
X038022Y033249D01*
X038022Y033091D02*
X001537Y033091D01*
X001537Y032932D02*
X038022Y032932D01*
X038022Y032774D02*
X001537Y032774D01*
X001537Y032615D02*
X038022Y032615D01*
X038022Y032456D02*
X001537Y032456D01*
X001537Y032298D02*
X038015Y032298D01*
X037856Y032139D02*
X001537Y032139D01*
X001537Y031981D02*
X037698Y031981D01*
X037539Y031822D02*
X001537Y031822D01*
X001537Y031664D02*
X037381Y031664D01*
X037222Y031505D02*
X001537Y031505D01*
X001537Y031347D02*
X037064Y031347D01*
X034085Y029444D02*
X004664Y029444D01*
X004904Y029286D02*
X034085Y029286D01*
X034085Y029127D02*
X005020Y029127D01*
X005086Y028969D02*
X034085Y028969D01*
X034085Y028810D02*
X005090Y028810D01*
X005072Y028651D02*
X034085Y028651D01*
X034085Y028493D02*
X005006Y028493D01*
X004871Y028334D02*
X034085Y028334D01*
X034085Y028176D02*
X004583Y028176D01*
X003904Y028017D02*
X034085Y028017D01*
X034085Y027859D02*
X003745Y027859D01*
X003696Y027700D02*
X034085Y027700D01*
X034085Y027542D02*
X003696Y027542D01*
X003696Y027383D02*
X034085Y027383D01*
X034085Y027225D02*
X003696Y027225D01*
X003696Y027066D02*
X034085Y027066D01*
X034085Y026907D02*
X003813Y026907D01*
X003893Y026749D02*
X034041Y026749D01*
X033882Y026590D02*
X003893Y026590D01*
X003893Y026432D02*
X033724Y026432D01*
X033565Y026273D02*
X003893Y026273D01*
X003893Y026115D02*
X033407Y026115D01*
X033248Y025956D02*
X003893Y025956D01*
X003893Y025798D02*
X033090Y025798D01*
X032931Y025639D02*
X003893Y025639D01*
X003861Y025481D02*
X032773Y025481D01*
X032750Y025458D02*
X032750Y025458D01*
X034559Y023261D02*
X034719Y023261D01*
X034719Y023102D02*
X034559Y023102D01*
X034559Y022944D02*
X034719Y022944D01*
X034559Y022547D02*
X033868Y022547D01*
X033868Y021962D01*
X033974Y021856D01*
X034559Y021856D01*
X034559Y022547D01*
X034559Y022468D02*
X034719Y022468D01*
X034719Y022310D02*
X034559Y022310D01*
X034559Y022151D02*
X034719Y022151D01*
X034719Y021993D02*
X034559Y021993D01*
X033868Y021993D02*
X033618Y021993D01*
X033618Y022151D02*
X033868Y022151D01*
X033868Y022310D02*
X033618Y022310D01*
X033618Y022468D02*
X033868Y022468D01*
X037555Y028176D02*
X042694Y028176D01*
X042852Y028334D02*
X037555Y028334D01*
X037555Y028493D02*
X043011Y028493D01*
X043169Y028651D02*
X037555Y028651D01*
X045724Y028176D02*
X046556Y028176D01*
X046715Y028017D02*
X045724Y028017D01*
X045724Y027859D02*
X046873Y027859D01*
X047032Y027700D02*
X045724Y027700D01*
X045724Y027542D02*
X047190Y027542D01*
X047349Y027383D02*
X045724Y027383D01*
X045724Y027225D02*
X047507Y027225D01*
X047666Y027066D02*
X045724Y027066D01*
X045697Y026907D02*
X047824Y026907D01*
X047983Y026749D02*
X045598Y026749D01*
X045681Y026273D02*
X048459Y026273D01*
X048617Y026115D02*
X045709Y026115D01*
X045709Y025956D02*
X048776Y025956D01*
X048934Y025798D02*
X045625Y025798D01*
X057504Y037213D02*
X004889Y037213D01*
X005014Y037371D02*
X057504Y037371D01*
X057504Y037530D02*
X005079Y037530D01*
X005090Y037688D02*
X057504Y037688D01*
X057504Y037847D02*
X005078Y037847D01*
X005012Y038005D02*
X057504Y038005D01*
X057504Y038164D02*
X004886Y038164D01*
X004620Y038323D02*
X057504Y038323D01*
X032293Y008516D02*
X032033Y008516D01*
X032182Y008358D02*
X032293Y008358D01*
X032293Y008199D02*
X032248Y008199D01*
X032260Y008041D02*
X032293Y008041D01*
X032293Y007882D02*
X032232Y007882D01*
X032293Y007724D02*
X032153Y007724D01*
X032293Y007565D02*
X031959Y007565D01*
X032293Y007407D02*
X029111Y007407D01*
X029111Y007565D02*
X029444Y007565D01*
X029250Y007724D02*
X029111Y007724D01*
X029111Y007882D02*
X029171Y007882D01*
X029143Y008041D02*
X029111Y008041D01*
X029111Y008199D02*
X029155Y008199D01*
X029111Y008358D02*
X029221Y008358D01*
X029111Y008516D02*
X029370Y008516D01*
X029111Y007248D02*
X032293Y007248D01*
X032293Y007090D02*
X029111Y007090D01*
X029111Y006931D02*
X032293Y006931D01*
X032293Y006772D02*
X029111Y006772D01*
X029111Y006614D02*
X032293Y006614D01*
X032293Y006455D02*
X029111Y006455D01*
X029111Y006297D02*
X032293Y006297D01*
X032293Y006138D02*
X029111Y006138D01*
X029111Y005980D02*
X032293Y005980D01*
X032293Y005821D02*
X029111Y005821D01*
X029111Y005663D02*
X032293Y005663D01*
X042744Y005028D02*
X043069Y005028D01*
X043042Y004870D02*
X042771Y004870D01*
X042771Y004711D02*
X043042Y004711D01*
X043042Y004553D02*
X042771Y004553D01*
X042771Y004394D02*
X043042Y004394D01*
X043042Y004236D02*
X042771Y004236D01*
X042771Y004077D02*
X043042Y004077D01*
X043042Y003919D02*
X042771Y003919D01*
X042771Y003760D02*
X043042Y003760D01*
X043042Y003602D02*
X042771Y003602D01*
X042771Y003443D02*
X043042Y003443D01*
X043042Y003284D02*
X042771Y003284D01*
X042669Y003126D02*
X043144Y003126D01*
X043300Y003335D02*
X043300Y004910D01*
X044875Y004910D01*
X044875Y003335D01*
X043300Y003335D01*
X043300Y003443D02*
X044875Y003443D01*
X044875Y003602D02*
X043300Y003602D01*
X043300Y003760D02*
X044875Y003760D01*
X044875Y003919D02*
X043300Y003919D01*
X043300Y004077D02*
X044875Y004077D01*
X044875Y004236D02*
X043300Y004236D01*
X043300Y004394D02*
X044875Y004394D01*
X044875Y004553D02*
X043300Y004553D01*
X043300Y004711D02*
X044875Y004711D01*
X044875Y004870D02*
X043300Y004870D01*
X045106Y005028D02*
X045137Y005028D01*
X047746Y004553D02*
X049578Y004553D01*
X049720Y004553D01*
X049851Y004608D01*
X002336Y003742D02*
X002092Y003601D01*
D26*
X041725Y014457D03*
X048812Y014457D03*
X048812Y033946D03*
X041725Y033946D03*
D27*
X041725Y004123D03*
X041725Y002548D03*
X039363Y002548D03*
X039363Y004123D03*
X037001Y004123D03*
X037001Y002548D03*
X044088Y002548D03*
X044088Y004123D03*
D28*
X053143Y004517D03*
X037395Y015540D03*
X039757Y023808D03*
X048025Y024595D03*
X054717Y028532D03*
X053143Y031682D03*
X053536Y037587D03*
X046843Y039556D03*
X031489Y039556D03*
X008261Y037194D03*
X007473Y008060D03*
X025584Y002548D03*
D29*
X037001Y004123D02*
X037001Y005206D01*
X042562Y010767D01*
X043005Y011209D01*
X043694Y011209D01*
X045269Y011209D01*
X045269Y013965D01*
X046450Y015146D01*
X046450Y016328D01*
X045950Y016828D01*
X045269Y016828D01*
X045269Y018871D01*
X048025Y017221D02*
X048918Y017221D01*
X050493Y018796D01*
X051174Y018796D01*
X051174Y016721D01*
X051962Y015934D01*
X052729Y014359D02*
X052729Y013749D01*
X047828Y008847D01*
X047271Y008847D01*
X046056Y008847D01*
X045466Y008257D01*
X044334Y008257D01*
X043694Y007272D02*
X047271Y007272D01*
X048467Y007272D01*
X054373Y013178D01*
X054373Y013473D01*
X054373Y013326D01*
X054373Y013473D02*
X054373Y018050D01*
X053930Y018493D01*
X053930Y021446D01*
X046662Y028713D01*
X045269Y028713D01*
X043875Y028713D01*
X042513Y027351D01*
X040651Y027351D01*
X045269Y027064D02*
X045269Y028713D01*
X046269Y028713D01*
X051568Y030107D02*
X051962Y029713D01*
X052355Y029713D01*
X053143Y029713D01*
X053536Y029320D01*
X053536Y027851D01*
X053438Y027753D02*
X054513Y027753D01*
X055702Y026564D01*
X055702Y019182D01*
X056145Y018739D01*
X056145Y012489D01*
X049353Y005698D01*
X047271Y005698D01*
X047237Y005698D02*
X046450Y005698D01*
X045662Y004910D01*
X044875Y004123D01*
X044088Y004123D01*
X045269Y004517D02*
X045662Y004910D01*
X047271Y006485D02*
X048910Y006485D01*
X055259Y012833D01*
X055259Y017902D01*
X055259Y018394D01*
X054816Y018837D01*
X054816Y023808D01*
X052355Y026269D01*
X052355Y028713D01*
X051568Y030107D02*
X051568Y032076D01*
X052355Y032863D01*
X052355Y032883D01*
X052454Y032863D02*
X053989Y032863D01*
X052280Y018796D02*
X051174Y018796D01*
X055259Y018050D02*
X055259Y017902D01*
X045269Y011209D02*
X045269Y010422D01*
X046056Y009635D01*
X047271Y009635D01*
X043694Y007272D02*
X041725Y005304D01*
X041725Y004123D01*
X039363Y004123D02*
X039363Y005796D01*
X041824Y008257D01*
X042857Y008257D01*
X042562Y010767D02*
X042759Y010963D01*
D30*
X047271Y008060D02*
X048172Y008060D01*
X053586Y013473D01*
X053586Y017706D01*
X053143Y018148D01*
X052897Y017902D01*
X052355Y017902D01*
X052021Y017568D01*
X052021Y017115D01*
X052690Y017115D02*
X052690Y015934D01*
X051962Y015934D02*
X051962Y015540D01*
X052729Y014772D01*
X052729Y014359D01*
X056932Y012587D02*
X056932Y012194D01*
X049649Y004910D01*
X047271Y004910D01*
X056932Y012243D02*
X056932Y012587D01*
X056932Y019034D01*
X056538Y019428D01*
X056538Y028001D01*
X053989Y030550D01*
X053989Y030894D01*
X053989Y031288D01*
X053989Y030894D02*
X053989Y030713D01*
X052355Y030713D01*
X052355Y028713D02*
X052280Y028639D01*
X052454Y032863D02*
X052395Y032922D01*
X052355Y032883D01*
X052355Y020871D02*
X053143Y020083D01*
X053143Y018148D01*
X052355Y018871D02*
X052280Y018796D01*
D31*
X044334Y008257D02*
X042857Y008257D01*
X054658Y031288D02*
X054658Y032863D01*
M02*
