G75*
G70*
%OFA0B0*%
%FSLAX24Y24*%
%IPPOS*%
%LPD*%
%AMOC8*
5,1,8,0,0,1.08239X$1,22.5*
%
%ADD10C,0.0515*%
%ADD11C,0.0520*%
%ADD12R,0.0600X0.0600*%
%ADD13OC8,0.0600*%
%ADD14C,0.0660*%
%ADD15R,0.0630X0.0630*%
%ADD16OC8,0.0520*%
%ADD17C,0.0705*%
%ADD18C,0.1710*%
%ADD19C,0.0098*%
%ADD20C,0.0280*%
%ADD21C,0.0295*%
D10*
X015404Y035587D02*
X015404Y036102D01*
X016279Y036102D02*
X016279Y035587D01*
X017154Y035587D02*
X017154Y036102D01*
X018029Y036102D02*
X018029Y035587D01*
X018904Y035587D02*
X018904Y036102D01*
X019779Y036102D02*
X019779Y035587D01*
X020654Y035587D02*
X020654Y036102D01*
X021529Y036102D02*
X021529Y035587D01*
X021529Y040587D02*
X021529Y041102D01*
X020654Y041102D02*
X020654Y040587D01*
X019779Y040587D02*
X019779Y041102D01*
X018904Y041102D02*
X018904Y040587D01*
X018029Y040587D02*
X018029Y041102D01*
X017154Y041102D02*
X017154Y040587D01*
X016279Y040587D02*
X016279Y041102D01*
X015404Y041102D02*
X015404Y040587D01*
X037451Y040587D02*
X037451Y041102D01*
X038326Y041102D02*
X038326Y040587D01*
X039201Y040587D02*
X039201Y041102D01*
X040076Y041102D02*
X040076Y040587D01*
X040952Y040587D02*
X040952Y041102D01*
X041827Y041102D02*
X041827Y040587D01*
X042702Y040587D02*
X042702Y041102D01*
X043577Y041102D02*
X043577Y040587D01*
X043577Y036102D02*
X043577Y035587D01*
X042702Y035587D02*
X042702Y036102D01*
X041827Y036102D02*
X041827Y035587D01*
X040952Y035587D02*
X040952Y036102D01*
X040076Y036102D02*
X040076Y035587D01*
X039201Y035587D02*
X039201Y036102D01*
X038326Y036102D02*
X038326Y035587D01*
X037451Y035587D02*
X037451Y036102D01*
D11*
X035002Y021994D02*
X035002Y021474D01*
X032640Y021474D02*
X032640Y021994D01*
X032640Y018994D02*
X032640Y018474D01*
X035002Y018474D02*
X035002Y018994D01*
D12*
X030168Y017451D03*
D13*
X030168Y016451D03*
X029168Y016451D03*
X029168Y017451D03*
X028168Y017451D03*
X028168Y016451D03*
D14*
X024010Y016691D03*
X020010Y016691D03*
X016105Y018234D03*
X016105Y022234D03*
D15*
X011347Y023778D03*
X011347Y024565D03*
X011347Y025352D03*
X011347Y026140D03*
X011347Y026927D03*
X011347Y027715D03*
X011347Y028502D03*
X011347Y029289D03*
D16*
X009912Y016297D03*
X008912Y016297D03*
D17*
X007244Y031652D03*
X005774Y031652D03*
X004294Y031652D03*
X051538Y031652D03*
X053018Y031652D03*
X054488Y031652D03*
D18*
X055058Y035592D03*
X050968Y035592D03*
X007814Y035592D03*
X003724Y035592D03*
D19*
X003401Y001417D02*
X003243Y001392D01*
X055737Y001392D01*
X055580Y001417D01*
X055580Y001417D01*
X055142Y001640D01*
X055142Y001640D01*
X054794Y001988D01*
X054571Y002426D01*
X054494Y002911D01*
X054571Y003397D01*
X054794Y003835D01*
X054794Y003835D01*
X055142Y004183D01*
X055142Y004183D01*
X055580Y004406D01*
X055580Y004406D01*
X056065Y004483D01*
X056065Y004483D01*
X056551Y004406D01*
X056551Y004406D01*
X056989Y004183D01*
X056989Y004183D01*
X057336Y003835D01*
X057336Y003835D01*
X057560Y003397D01*
X057584Y003397D01*
X057560Y003397D02*
X057560Y003397D01*
X057584Y003239D01*
X057584Y041954D01*
X057560Y041796D01*
X057560Y041796D01*
X057336Y041358D01*
X057336Y041358D01*
X056989Y041010D01*
X056989Y041010D01*
X056551Y040787D01*
X056551Y040787D01*
X056065Y040710D01*
X056065Y040710D01*
X055580Y040787D01*
X055580Y040787D01*
X055142Y041010D01*
X055142Y041010D01*
X054794Y041358D01*
X054794Y041358D01*
X054571Y041796D01*
X054571Y041796D01*
X054494Y042282D01*
X054494Y042282D01*
X054571Y042767D01*
X054571Y042767D01*
X054794Y043205D01*
X054794Y043205D01*
X055142Y043553D01*
X055142Y043553D01*
X055580Y043776D01*
X055737Y043801D01*
X003243Y043801D01*
X003401Y043776D01*
X003401Y043776D01*
X003839Y043553D01*
X003839Y043553D01*
X004187Y043205D01*
X004187Y043205D01*
X004410Y042767D01*
X004410Y042767D01*
X004487Y042282D01*
X004410Y041796D01*
X004410Y041796D01*
X004187Y041358D01*
X004187Y041358D01*
X003839Y041010D01*
X003839Y041010D01*
X003401Y040787D01*
X003401Y040787D01*
X002916Y040710D01*
X002916Y040710D01*
X002430Y040787D01*
X002430Y040787D01*
X001992Y041010D01*
X001992Y041010D01*
X001644Y041358D01*
X001644Y041358D01*
X001421Y041796D01*
X001421Y041796D01*
X001396Y041954D01*
X001396Y003239D01*
X001421Y003397D01*
X001421Y003397D01*
X001644Y003835D01*
X001644Y003835D01*
X001992Y004183D01*
X001992Y004183D01*
X002430Y004406D01*
X002916Y004483D01*
X003401Y004406D01*
X003839Y004183D01*
X004187Y003835D01*
X004187Y003835D01*
X004187Y003835D01*
X004410Y003397D01*
X004410Y003397D01*
X004487Y002911D01*
X004410Y002426D01*
X004410Y002426D01*
X004187Y001988D01*
X004187Y001988D01*
X003839Y001640D01*
X003839Y001640D01*
X003401Y001417D01*
X003401Y001417D01*
X003480Y001457D02*
X055501Y001457D01*
X055310Y001554D02*
X003670Y001554D01*
X003850Y001651D02*
X055131Y001651D01*
X055034Y001748D02*
X003947Y001748D01*
X004044Y001845D02*
X054937Y001845D01*
X054840Y001942D02*
X004141Y001942D01*
X004213Y002039D02*
X054768Y002039D01*
X054718Y002136D02*
X004262Y002136D01*
X004312Y002233D02*
X054669Y002233D01*
X054620Y002330D02*
X004361Y002330D01*
X004410Y002427D02*
X054571Y002427D01*
X054555Y002524D02*
X004425Y002524D01*
X004441Y002621D02*
X054540Y002621D01*
X054525Y002718D02*
X004456Y002718D01*
X004471Y002815D02*
X054509Y002815D01*
X054494Y002912D02*
X004487Y002912D01*
X004471Y003009D02*
X054509Y003009D01*
X054525Y003106D02*
X004456Y003106D01*
X004441Y003203D02*
X054540Y003203D01*
X054555Y003300D02*
X004425Y003300D01*
X004410Y003397D02*
X054571Y003397D01*
X054620Y003494D02*
X004361Y003494D01*
X004311Y003591D02*
X054670Y003591D01*
X054719Y003688D02*
X004262Y003688D01*
X004212Y003785D02*
X054768Y003785D01*
X054841Y003882D02*
X004140Y003882D01*
X004043Y003979D02*
X054938Y003979D01*
X055035Y004076D02*
X003946Y004076D01*
X003849Y004173D02*
X055132Y004173D01*
X055142Y004183D02*
X055142Y004183D01*
X055312Y004269D02*
X003669Y004269D01*
X003478Y004366D02*
X055502Y004366D01*
X055943Y004463D02*
X003037Y004463D01*
X002794Y004463D02*
X001396Y004463D01*
X001396Y004366D02*
X002353Y004366D01*
X002163Y004269D02*
X001396Y004269D01*
X001396Y004173D02*
X001982Y004173D01*
X001885Y004076D02*
X001396Y004076D01*
X001396Y003979D02*
X001788Y003979D01*
X001691Y003882D02*
X001396Y003882D01*
X001396Y003785D02*
X001619Y003785D01*
X001569Y003688D02*
X001396Y003688D01*
X001396Y003591D02*
X001520Y003591D01*
X001471Y003494D02*
X001396Y003494D01*
X001396Y003397D02*
X001421Y003397D01*
X001406Y003300D02*
X001396Y003300D01*
X001396Y004560D02*
X057584Y004560D01*
X057584Y004463D02*
X056187Y004463D01*
X056628Y004366D02*
X057584Y004366D01*
X057584Y004269D02*
X056818Y004269D01*
X056999Y004173D02*
X057584Y004173D01*
X057584Y004076D02*
X057096Y004076D01*
X057193Y003979D02*
X057584Y003979D01*
X057584Y003882D02*
X057290Y003882D01*
X057362Y003785D02*
X057584Y003785D01*
X057584Y003688D02*
X057411Y003688D01*
X057461Y003591D02*
X057584Y003591D01*
X057584Y003494D02*
X057510Y003494D01*
X057575Y003300D02*
X057584Y003300D01*
X057584Y004657D02*
X001396Y004657D01*
X001396Y004754D02*
X057584Y004754D01*
X057584Y004851D02*
X001396Y004851D01*
X001396Y004948D02*
X057584Y004948D01*
X057584Y005045D02*
X001396Y005045D01*
X001396Y005142D02*
X057584Y005142D01*
X057584Y005239D02*
X001396Y005239D01*
X001396Y005336D02*
X057584Y005336D01*
X057584Y005433D02*
X001396Y005433D01*
X001396Y005530D02*
X057584Y005530D01*
X057584Y005627D02*
X001396Y005627D01*
X001396Y005724D02*
X057584Y005724D01*
X057584Y005821D02*
X001396Y005821D01*
X001396Y005918D02*
X057584Y005918D01*
X057584Y006015D02*
X001396Y006015D01*
X001396Y006112D02*
X057584Y006112D01*
X057584Y006209D02*
X001396Y006209D01*
X001396Y006306D02*
X057584Y006306D01*
X057584Y006403D02*
X001396Y006403D01*
X001396Y006500D02*
X057584Y006500D01*
X057584Y006597D02*
X001396Y006597D01*
X001396Y006694D02*
X057584Y006694D01*
X057584Y006791D02*
X001396Y006791D01*
X001396Y006888D02*
X057584Y006888D01*
X057584Y006985D02*
X001396Y006985D01*
X001396Y007082D02*
X057584Y007082D01*
X057584Y007179D02*
X001396Y007179D01*
X001396Y007276D02*
X057584Y007276D01*
X057584Y007372D02*
X001396Y007372D01*
X001396Y007469D02*
X057584Y007469D01*
X057584Y007566D02*
X001396Y007566D01*
X001396Y007663D02*
X057584Y007663D01*
X057584Y007760D02*
X001396Y007760D01*
X001396Y007857D02*
X057584Y007857D01*
X057584Y007954D02*
X001396Y007954D01*
X001396Y008051D02*
X057584Y008051D01*
X057584Y008148D02*
X001396Y008148D01*
X001396Y008245D02*
X057584Y008245D01*
X057584Y008342D02*
X001396Y008342D01*
X001396Y008439D02*
X057584Y008439D01*
X057584Y008536D02*
X001396Y008536D01*
X001396Y008633D02*
X057584Y008633D01*
X057584Y008730D02*
X001396Y008730D01*
X001396Y008827D02*
X057584Y008827D01*
X057584Y008924D02*
X001396Y008924D01*
X001396Y009021D02*
X057584Y009021D01*
X057584Y009118D02*
X001396Y009118D01*
X001396Y009215D02*
X057584Y009215D01*
X057584Y009312D02*
X001396Y009312D01*
X001396Y009409D02*
X057584Y009409D01*
X057584Y009506D02*
X001396Y009506D01*
X001396Y009603D02*
X057584Y009603D01*
X057584Y009700D02*
X001396Y009700D01*
X001396Y009797D02*
X057584Y009797D01*
X057584Y009894D02*
X001396Y009894D01*
X001396Y009991D02*
X057584Y009991D01*
X057584Y010088D02*
X001396Y010088D01*
X001396Y010185D02*
X057584Y010185D01*
X057584Y010282D02*
X001396Y010282D01*
X001396Y010379D02*
X057584Y010379D01*
X057584Y010475D02*
X001396Y010475D01*
X001396Y010572D02*
X057584Y010572D01*
X057584Y010669D02*
X001396Y010669D01*
X001396Y010766D02*
X057584Y010766D01*
X057584Y010863D02*
X001396Y010863D01*
X001396Y010960D02*
X057584Y010960D01*
X057584Y011057D02*
X001396Y011057D01*
X001396Y011154D02*
X057584Y011154D01*
X057584Y011251D02*
X001396Y011251D01*
X001396Y011348D02*
X057584Y011348D01*
X057584Y011445D02*
X001396Y011445D01*
X001396Y011542D02*
X057584Y011542D01*
X057584Y011639D02*
X001396Y011639D01*
X001396Y011736D02*
X057584Y011736D01*
X057584Y011833D02*
X001396Y011833D01*
X001396Y011930D02*
X057584Y011930D01*
X057584Y012027D02*
X001396Y012027D01*
X001396Y012124D02*
X057584Y012124D01*
X057584Y012221D02*
X001396Y012221D01*
X001396Y012318D02*
X057584Y012318D01*
X057584Y012415D02*
X001396Y012415D01*
X001396Y012512D02*
X057584Y012512D01*
X057584Y012609D02*
X001396Y012609D01*
X001396Y012706D02*
X057584Y012706D01*
X057584Y012803D02*
X001396Y012803D01*
X001396Y012900D02*
X057584Y012900D01*
X057584Y012997D02*
X001396Y012997D01*
X001396Y013094D02*
X057584Y013094D01*
X057584Y013191D02*
X001396Y013191D01*
X001396Y013288D02*
X026989Y013288D01*
X026965Y013298D02*
X027071Y013254D01*
X027185Y013254D01*
X027291Y013298D01*
X027372Y013378D01*
X027416Y013484D01*
X027416Y013551D01*
X027603Y013738D01*
X027719Y013854D01*
X027719Y017987D01*
X027899Y018167D01*
X028096Y018167D01*
X028211Y018283D01*
X028292Y018364D01*
X028408Y018480D01*
X028408Y018873D01*
X028506Y018775D01*
X028506Y017745D01*
X028353Y017898D01*
X027982Y017898D01*
X027720Y017636D01*
X027720Y017265D01*
X027982Y017003D01*
X028353Y017003D01*
X028506Y017156D01*
X028506Y014017D01*
X028319Y013829D01*
X028252Y013829D01*
X028146Y013785D01*
X028065Y013704D01*
X028022Y013599D01*
X028022Y013484D01*
X028065Y013378D01*
X028146Y013298D01*
X028252Y013254D01*
X028366Y013254D01*
X028472Y013298D01*
X028553Y013378D01*
X028597Y013484D01*
X028597Y013551D01*
X028785Y013738D01*
X028900Y013854D01*
X028900Y016086D01*
X028982Y016003D01*
X029353Y016003D01*
X029615Y016265D01*
X029615Y016636D01*
X029353Y016898D01*
X028982Y016898D01*
X028900Y016816D01*
X028900Y017086D01*
X028982Y017003D01*
X029353Y017003D01*
X029615Y017265D01*
X029615Y017636D01*
X029353Y017898D01*
X028982Y017898D01*
X028900Y017816D01*
X028900Y018232D01*
X028924Y018174D01*
X029005Y018093D01*
X029110Y018049D01*
X029225Y018049D01*
X029330Y018093D01*
X029411Y018174D01*
X029455Y018279D01*
X029455Y018394D01*
X029411Y018500D01*
X029364Y018547D01*
X029364Y018649D01*
X029572Y018856D01*
X029674Y018856D01*
X029640Y018822D01*
X029596Y018717D01*
X029596Y018602D01*
X029640Y018497D01*
X029721Y018416D01*
X029827Y018372D01*
X029941Y018372D01*
X030047Y018416D01*
X030475Y017987D01*
X030475Y017898D01*
X029806Y017898D01*
X029720Y017812D01*
X029720Y017090D01*
X029806Y017003D01*
X030475Y017003D01*
X030475Y016777D01*
X030353Y016898D01*
X029982Y016898D01*
X029720Y016636D01*
X029720Y016265D01*
X029982Y016003D01*
X030353Y016003D01*
X030475Y016125D01*
X030475Y014017D01*
X030287Y013829D01*
X030221Y013829D01*
X030115Y013785D01*
X030034Y013704D01*
X029990Y013599D01*
X029990Y013484D01*
X030034Y013378D01*
X030115Y013298D01*
X030221Y013254D01*
X030335Y013254D01*
X030441Y013298D01*
X030522Y013378D01*
X030565Y013484D01*
X030565Y013551D01*
X030868Y013854D01*
X030868Y014017D01*
X030868Y018151D01*
X030753Y018266D01*
X030162Y018856D01*
X030094Y018856D01*
X030094Y018856D01*
X030708Y018856D01*
X030755Y018809D01*
X030860Y018766D01*
X030975Y018766D01*
X031080Y018809D01*
X031161Y018890D01*
X031205Y018996D01*
X031205Y019110D01*
X031161Y019216D01*
X031127Y019250D01*
X032319Y019250D01*
X032294Y019225D01*
X032232Y019075D01*
X032232Y018393D01*
X032294Y018243D01*
X032409Y018129D01*
X032559Y018067D01*
X032721Y018067D01*
X032871Y018129D01*
X032986Y018243D01*
X033048Y018393D01*
X033048Y019075D01*
X032986Y019225D01*
X032961Y019250D01*
X034681Y019250D01*
X034657Y019225D01*
X034595Y019075D01*
X034595Y018393D01*
X034657Y018243D01*
X034771Y018129D01*
X034921Y018067D01*
X035083Y018067D01*
X035233Y018129D01*
X035348Y018243D01*
X035410Y018393D01*
X035410Y019075D01*
X035348Y019225D01*
X035323Y019250D01*
X037548Y019250D01*
X037595Y019203D01*
X037701Y019159D01*
X037815Y019159D01*
X037921Y019203D01*
X038002Y019284D01*
X038046Y019390D01*
X038046Y019504D01*
X038002Y019610D01*
X037921Y019691D01*
X037815Y019735D01*
X037701Y019735D01*
X037617Y019700D01*
X037652Y019783D01*
X037652Y019898D01*
X037608Y020004D01*
X037527Y020084D01*
X037422Y020128D01*
X037307Y020128D01*
X037224Y020094D01*
X037258Y020177D01*
X037258Y020292D01*
X037215Y020397D01*
X037134Y020478D01*
X037028Y020522D01*
X036913Y020522D01*
X036808Y020478D01*
X036761Y020431D01*
X029307Y020431D01*
X029260Y020478D01*
X029154Y020522D01*
X029039Y020522D01*
X028934Y020478D01*
X028853Y020397D01*
X028809Y020292D01*
X028809Y020177D01*
X028831Y020124D01*
X028737Y020084D01*
X028656Y020004D01*
X028612Y019898D01*
X028612Y019783D01*
X028634Y019730D01*
X028605Y019717D01*
X028605Y021678D01*
X028777Y021851D01*
X029916Y022990D01*
X030032Y023106D01*
X030032Y024976D01*
X030359Y025303D01*
X030475Y025419D01*
X030475Y025536D01*
X030522Y025583D01*
X030565Y025689D01*
X030565Y025803D01*
X030522Y025909D01*
X030441Y025990D01*
X030335Y026034D01*
X030221Y026034D01*
X030115Y025990D01*
X030081Y025956D01*
X030047Y025990D01*
X029941Y026034D01*
X029827Y026034D01*
X029721Y025990D01*
X029687Y025956D01*
X029653Y025990D01*
X029548Y026034D01*
X029433Y026034D01*
X029327Y025990D01*
X029247Y025909D01*
X029203Y025803D01*
X029203Y025689D01*
X029247Y025583D01*
X029327Y025502D01*
X029433Y025459D01*
X029548Y025459D01*
X029653Y025502D01*
X029687Y025536D01*
X029687Y025483D01*
X029441Y025237D01*
X029441Y025074D01*
X029441Y024270D01*
X029360Y024270D01*
X029244Y024154D01*
X029244Y023465D01*
X027817Y022038D01*
X027817Y021875D01*
X027817Y018930D01*
X027753Y018903D01*
X027672Y018822D01*
X027628Y018717D01*
X027628Y018602D01*
X027672Y018497D01*
X027620Y018446D01*
X027325Y018151D01*
X027325Y017987D01*
X027325Y014017D01*
X027137Y013829D01*
X027071Y013829D01*
X026965Y013785D01*
X026884Y013704D01*
X026841Y013599D01*
X026841Y013484D01*
X026884Y013378D01*
X026965Y013298D01*
X026882Y013385D02*
X001396Y013385D01*
X001396Y013481D02*
X026842Y013481D01*
X026841Y013578D02*
X001396Y013578D01*
X001396Y013675D02*
X026872Y013675D01*
X026952Y013772D02*
X001396Y013772D01*
X001396Y013869D02*
X027178Y013869D01*
X027275Y013966D02*
X001396Y013966D01*
X001396Y014063D02*
X027325Y014063D01*
X027325Y014160D02*
X001396Y014160D01*
X001396Y014257D02*
X027325Y014257D01*
X027325Y014354D02*
X001396Y014354D01*
X001396Y014451D02*
X027325Y014451D01*
X027325Y014548D02*
X001396Y014548D01*
X001396Y014645D02*
X027325Y014645D01*
X027325Y014742D02*
X001396Y014742D01*
X001396Y014839D02*
X027325Y014839D01*
X027325Y014936D02*
X001396Y014936D01*
X001396Y015033D02*
X027325Y015033D01*
X027325Y015130D02*
X001396Y015130D01*
X001396Y015227D02*
X027325Y015227D01*
X027325Y015324D02*
X001396Y015324D01*
X001396Y015421D02*
X027325Y015421D01*
X027325Y015518D02*
X001396Y015518D01*
X001396Y015615D02*
X027325Y015615D01*
X027325Y015712D02*
X001396Y015712D01*
X001396Y015809D02*
X027325Y015809D01*
X027325Y015906D02*
X010096Y015906D01*
X010080Y015890D02*
X010319Y016128D01*
X010319Y016466D01*
X010080Y016705D01*
X009743Y016705D01*
X009504Y016466D01*
X009504Y016128D01*
X009743Y015890D01*
X010080Y015890D01*
X010193Y016003D02*
X027325Y016003D01*
X027325Y016100D02*
X010290Y016100D01*
X010319Y016197D02*
X027325Y016197D01*
X027325Y016294D02*
X024288Y016294D01*
X024281Y016286D02*
X024415Y016420D01*
X024488Y016596D01*
X024488Y016786D01*
X024415Y016962D01*
X024281Y017096D01*
X024105Y017169D01*
X023915Y017169D01*
X023739Y017096D01*
X023605Y016962D01*
X023532Y016786D01*
X023532Y016596D01*
X023605Y016420D01*
X023739Y016286D01*
X023915Y016213D01*
X024105Y016213D01*
X024281Y016286D01*
X024385Y016391D02*
X027325Y016391D01*
X027325Y016488D02*
X024443Y016488D01*
X024483Y016584D02*
X027325Y016584D01*
X027325Y016681D02*
X024488Y016681D01*
X024488Y016778D02*
X027325Y016778D01*
X027325Y016875D02*
X024451Y016875D01*
X024404Y016972D02*
X027325Y016972D01*
X027325Y017069D02*
X024307Y017069D01*
X024111Y017166D02*
X027325Y017166D01*
X027325Y017263D02*
X001396Y017263D01*
X001396Y017166D02*
X019909Y017166D01*
X019915Y017169D02*
X019739Y017096D01*
X019605Y016962D01*
X019532Y016786D01*
X019532Y016596D01*
X019605Y016420D01*
X019739Y016286D01*
X019915Y016213D01*
X020105Y016213D01*
X020281Y016286D01*
X020415Y016420D01*
X020488Y016596D01*
X020488Y016786D01*
X020415Y016962D01*
X020281Y017096D01*
X020105Y017169D01*
X019915Y017169D01*
X020111Y017166D02*
X023909Y017166D01*
X023713Y017069D02*
X020307Y017069D01*
X020404Y016972D02*
X023616Y016972D01*
X023569Y016875D02*
X020451Y016875D01*
X020488Y016778D02*
X023532Y016778D01*
X023532Y016681D02*
X020488Y016681D01*
X020483Y016584D02*
X023537Y016584D01*
X023577Y016488D02*
X020443Y016488D01*
X020385Y016391D02*
X023635Y016391D01*
X023732Y016294D02*
X020288Y016294D01*
X019732Y016294D02*
X010319Y016294D01*
X010319Y016391D02*
X019635Y016391D01*
X019577Y016488D02*
X010298Y016488D01*
X010201Y016584D02*
X019537Y016584D01*
X019532Y016681D02*
X010104Y016681D01*
X009719Y016681D02*
X009104Y016681D01*
X009080Y016705D02*
X008743Y016705D01*
X008504Y016466D01*
X008504Y016128D01*
X008743Y015890D01*
X009080Y015890D01*
X009319Y016128D01*
X009319Y016466D01*
X009080Y016705D01*
X009201Y016584D02*
X009622Y016584D01*
X009525Y016488D02*
X009298Y016488D01*
X009319Y016391D02*
X009504Y016391D01*
X009504Y016294D02*
X009319Y016294D01*
X009319Y016197D02*
X009504Y016197D01*
X009533Y016100D02*
X009290Y016100D01*
X009193Y016003D02*
X009630Y016003D01*
X009727Y015906D02*
X009096Y015906D01*
X008727Y015906D02*
X001396Y015906D01*
X001396Y016003D02*
X008630Y016003D01*
X008533Y016100D02*
X001396Y016100D01*
X001396Y016197D02*
X008504Y016197D01*
X008504Y016294D02*
X001396Y016294D01*
X001396Y016391D02*
X008504Y016391D01*
X008525Y016488D02*
X001396Y016488D01*
X001396Y016584D02*
X008622Y016584D01*
X008719Y016681D02*
X001396Y016681D01*
X001396Y016778D02*
X019532Y016778D01*
X019569Y016875D02*
X001396Y016875D01*
X001396Y016972D02*
X019616Y016972D01*
X019713Y017069D02*
X001396Y017069D01*
X001396Y017360D02*
X027325Y017360D01*
X027325Y017457D02*
X001396Y017457D01*
X001396Y017554D02*
X027325Y017554D01*
X027325Y017651D02*
X001396Y017651D01*
X001396Y017748D02*
X027325Y017748D01*
X027325Y017845D02*
X016391Y017845D01*
X016375Y017829D02*
X016509Y017964D01*
X016582Y018139D01*
X016582Y018329D01*
X016509Y018505D01*
X016375Y018639D01*
X016200Y018712D01*
X016010Y018712D01*
X015834Y018639D01*
X015700Y018505D01*
X015627Y018329D01*
X015627Y018139D01*
X015700Y017964D01*
X015834Y017829D01*
X016010Y017757D01*
X016200Y017757D01*
X016375Y017829D01*
X016488Y017942D02*
X027325Y017942D01*
X027325Y018039D02*
X016541Y018039D01*
X016581Y018136D02*
X027325Y018136D01*
X027407Y018233D02*
X016582Y018233D01*
X016582Y018330D02*
X027504Y018330D01*
X027601Y018427D02*
X016542Y018427D01*
X016490Y018524D02*
X027660Y018524D01*
X027628Y018621D02*
X016394Y018621D01*
X015816Y018621D02*
X001396Y018621D01*
X001396Y018718D02*
X027628Y018718D01*
X027669Y018815D02*
X001396Y018815D01*
X001396Y018912D02*
X027773Y018912D01*
X027817Y019009D02*
X001396Y019009D01*
X001396Y019106D02*
X027817Y019106D01*
X027817Y019203D02*
X001396Y019203D01*
X001396Y019300D02*
X027817Y019300D01*
X027817Y019397D02*
X001396Y019397D01*
X001396Y019494D02*
X027817Y019494D01*
X027817Y019591D02*
X001396Y019591D01*
X001396Y019687D02*
X027817Y019687D01*
X027817Y019784D02*
X001396Y019784D01*
X001396Y019881D02*
X027817Y019881D01*
X027817Y019978D02*
X001396Y019978D01*
X001396Y020075D02*
X027817Y020075D01*
X027817Y020172D02*
X001396Y020172D01*
X001396Y020269D02*
X027817Y020269D01*
X027817Y020366D02*
X001396Y020366D01*
X001396Y020463D02*
X027817Y020463D01*
X027817Y020560D02*
X001396Y020560D01*
X001396Y020657D02*
X027817Y020657D01*
X027817Y020754D02*
X025265Y020754D01*
X025217Y020734D02*
X025323Y020778D01*
X025404Y020859D01*
X025447Y020964D01*
X025447Y021079D01*
X025404Y021185D01*
X025356Y021232D01*
X025356Y021599D01*
X025390Y021565D01*
X025496Y021521D01*
X025611Y021521D01*
X025716Y021565D01*
X025797Y021646D01*
X025841Y021752D01*
X025841Y021866D01*
X025797Y021972D01*
X025750Y022019D01*
X025750Y022613D01*
X025750Y022776D01*
X025340Y023187D01*
X025177Y023187D01*
X024189Y023187D01*
X024141Y023234D01*
X024036Y023278D01*
X023921Y023278D01*
X023816Y023234D01*
X023735Y023153D01*
X023691Y023047D01*
X023691Y022933D01*
X023735Y022827D01*
X023816Y022746D01*
X023921Y022703D01*
X024036Y022703D01*
X024141Y022746D01*
X024189Y022793D01*
X024889Y022793D01*
X024872Y022752D01*
X024872Y022638D01*
X024916Y022532D01*
X024963Y022485D01*
X024963Y021232D01*
X024916Y021185D01*
X024872Y021079D01*
X024872Y020964D01*
X024916Y020859D01*
X024997Y020778D01*
X025102Y020734D01*
X025217Y020734D01*
X025054Y020754D02*
X001396Y020754D01*
X001396Y020851D02*
X024924Y020851D01*
X024879Y020948D02*
X001396Y020948D01*
X001396Y021045D02*
X024872Y021045D01*
X024898Y021142D02*
X001396Y021142D01*
X001396Y021239D02*
X024963Y021239D01*
X024963Y021336D02*
X001396Y021336D01*
X001396Y021433D02*
X024963Y021433D01*
X024963Y021530D02*
X001396Y021530D01*
X001396Y021627D02*
X024963Y021627D01*
X024963Y021724D02*
X001396Y021724D01*
X001396Y021821D02*
X015855Y021821D01*
X015834Y021829D02*
X016010Y021757D01*
X016200Y021757D01*
X016375Y021829D01*
X016509Y021964D01*
X016582Y022139D01*
X016582Y022329D01*
X016509Y022505D01*
X016375Y022639D01*
X016200Y022712D01*
X016010Y022712D01*
X015834Y022639D01*
X015700Y022505D01*
X015627Y022329D01*
X015627Y022139D01*
X015700Y021964D01*
X015834Y021829D01*
X015746Y021918D02*
X001396Y021918D01*
X001396Y022015D02*
X015679Y022015D01*
X015638Y022112D02*
X001396Y022112D01*
X001396Y022209D02*
X015627Y022209D01*
X015627Y022306D02*
X001396Y022306D01*
X001396Y022403D02*
X015657Y022403D01*
X015697Y022500D02*
X001396Y022500D01*
X001396Y022597D02*
X015791Y022597D01*
X015965Y022694D02*
X001396Y022694D01*
X001396Y022790D02*
X023772Y022790D01*
X023710Y022887D02*
X001396Y022887D01*
X001396Y022984D02*
X023691Y022984D01*
X023705Y023081D02*
X001396Y023081D01*
X001396Y023178D02*
X023760Y023178D01*
X023915Y023275D02*
X001396Y023275D01*
X001396Y023372D02*
X025266Y023372D01*
X025266Y023327D02*
X025310Y023221D01*
X025390Y023140D01*
X025496Y023096D01*
X025563Y023096D01*
X026010Y022649D01*
X026010Y022153D01*
X025963Y022106D01*
X025919Y022000D01*
X025919Y021886D01*
X025963Y021780D01*
X026044Y021699D01*
X026150Y021655D01*
X026264Y021655D01*
X026370Y021699D01*
X026451Y021780D01*
X026495Y021886D01*
X026495Y022000D01*
X026451Y022106D01*
X026404Y022153D01*
X026404Y022649D01*
X026404Y022812D01*
X025841Y023375D01*
X025841Y023441D01*
X025797Y023547D01*
X025716Y023628D01*
X025611Y023672D01*
X025496Y023672D01*
X025390Y023628D01*
X025310Y023547D01*
X025266Y023441D01*
X025266Y023327D01*
X025287Y023275D02*
X024042Y023275D01*
X023979Y022990D02*
X025258Y022990D01*
X025553Y022695D01*
X025553Y021809D01*
X025755Y022015D02*
X025925Y022015D01*
X025919Y021918D02*
X025820Y021918D01*
X025841Y021821D02*
X025946Y021821D01*
X026019Y021724D02*
X025829Y021724D01*
X025778Y021627D02*
X026538Y021627D01*
X026538Y021625D02*
X026491Y021578D01*
X026447Y021473D01*
X026447Y021358D01*
X026491Y021252D01*
X026572Y021172D01*
X026677Y021128D01*
X026792Y021128D01*
X026897Y021172D01*
X026978Y021252D01*
X027022Y021358D01*
X027022Y021473D01*
X026978Y021578D01*
X026931Y021625D01*
X026931Y022780D01*
X026978Y022827D01*
X027022Y022933D01*
X027022Y023047D01*
X026978Y023153D01*
X026897Y023234D01*
X026792Y023278D01*
X026677Y023278D01*
X026572Y023234D01*
X026491Y023153D01*
X026447Y023047D01*
X026447Y022933D01*
X026491Y022827D01*
X026538Y022780D01*
X026538Y021625D01*
X026538Y021724D02*
X026395Y021724D01*
X026468Y021821D02*
X026538Y021821D01*
X026538Y021918D02*
X026495Y021918D01*
X026489Y022015D02*
X026538Y022015D01*
X026538Y022112D02*
X026445Y022112D01*
X026404Y022209D02*
X026538Y022209D01*
X026538Y022306D02*
X026404Y022306D01*
X026404Y022403D02*
X026538Y022403D01*
X026538Y022500D02*
X026404Y022500D01*
X026404Y022597D02*
X026538Y022597D01*
X026538Y022694D02*
X026404Y022694D01*
X026404Y022790D02*
X026527Y022790D01*
X026466Y022887D02*
X026328Y022887D01*
X026231Y022984D02*
X026447Y022984D01*
X026461Y023081D02*
X026134Y023081D01*
X026037Y023178D02*
X026516Y023178D01*
X026671Y023275D02*
X025940Y023275D01*
X025843Y023372D02*
X029151Y023372D01*
X029244Y023469D02*
X025829Y023469D01*
X025778Y023566D02*
X029244Y023566D01*
X029244Y023663D02*
X025631Y023663D01*
X025476Y023663D02*
X013227Y023663D01*
X013205Y023610D02*
X013250Y023719D01*
X013250Y023836D01*
X013205Y023945D01*
X012418Y024732D01*
X012335Y024815D01*
X012226Y024860D01*
X011809Y024860D01*
X011809Y024941D01*
X011792Y024959D01*
X011809Y024976D01*
X011809Y025057D01*
X012439Y025057D01*
X012788Y024708D01*
X012896Y024663D01*
X013014Y024663D01*
X013122Y024708D01*
X013205Y024791D01*
X013250Y024900D01*
X013250Y025017D01*
X013205Y025126D01*
X012812Y025520D01*
X012729Y025603D01*
X015022Y025603D01*
X015022Y025700D02*
X011809Y025700D01*
X011809Y025729D02*
X011792Y025746D01*
X011809Y025764D01*
X011809Y026516D01*
X011792Y026534D01*
X011809Y026551D01*
X011809Y027303D01*
X011792Y027321D01*
X011809Y027339D01*
X011809Y027419D01*
X014014Y027419D01*
X015022Y026411D01*
X015022Y024113D01*
X015067Y024004D01*
X015150Y023921D01*
X015258Y023876D01*
X015376Y023876D01*
X015484Y023921D01*
X015567Y024004D01*
X015612Y024113D01*
X015612Y026475D01*
X015612Y026592D01*
X015567Y026701D01*
X014386Y027882D01*
X014303Y027965D01*
X014195Y028010D01*
X011809Y028010D01*
X011809Y028091D01*
X011792Y028108D01*
X011809Y028126D01*
X011809Y028207D01*
X013014Y028207D01*
X013122Y028252D01*
X013205Y028335D01*
X013250Y028443D01*
X013250Y028561D01*
X013205Y028669D01*
X013122Y028752D01*
X013014Y028797D01*
X011809Y028797D01*
X011809Y028878D01*
X011792Y028896D01*
X011809Y028913D01*
X011809Y028994D01*
X037488Y028994D01*
X037470Y028953D01*
X037470Y028886D01*
X037283Y028699D01*
X032558Y028699D01*
X032443Y028584D01*
X031180Y027321D01*
X031065Y027206D01*
X031065Y025468D01*
X031180Y025352D01*
X031181Y025352D01*
X031410Y025123D01*
X031525Y025008D01*
X031889Y025008D01*
X031936Y024961D01*
X032041Y024917D01*
X032156Y024917D01*
X032262Y024961D01*
X032342Y025042D01*
X032386Y025148D01*
X032386Y025262D01*
X032342Y025368D01*
X032262Y025449D01*
X032156Y025492D01*
X032041Y025492D01*
X031936Y025449D01*
X031889Y025402D01*
X031688Y025402D01*
X031459Y025631D01*
X031459Y027043D01*
X032722Y028305D01*
X037283Y028305D01*
X037446Y028305D01*
X037749Y028608D01*
X037815Y028608D01*
X037899Y028643D01*
X037864Y028559D01*
X037864Y028493D01*
X037677Y028305D01*
X032952Y028305D01*
X032837Y028190D01*
X031771Y027124D01*
X031656Y027009D01*
X031656Y025956D01*
X031609Y025909D01*
X031565Y025803D01*
X031565Y025689D01*
X031609Y025583D01*
X031690Y025502D01*
X031795Y025459D01*
X031910Y025459D01*
X032016Y025502D01*
X032096Y025583D01*
X032140Y025689D01*
X032140Y025803D01*
X032096Y025909D01*
X032049Y025956D01*
X032049Y026846D01*
X033115Y027911D01*
X037677Y027911D01*
X037840Y027911D01*
X038143Y028214D01*
X038209Y028214D01*
X038292Y028249D01*
X038258Y028166D01*
X038258Y028099D01*
X038070Y027911D01*
X033346Y027911D01*
X033231Y027796D01*
X032649Y027215D01*
X032583Y027215D01*
X032477Y027171D01*
X032396Y027090D01*
X032352Y026984D01*
X032352Y026870D01*
X032396Y026764D01*
X032477Y026683D01*
X032583Y026640D01*
X032697Y026640D01*
X032803Y026683D01*
X032884Y026764D01*
X032928Y026870D01*
X032928Y026936D01*
X033509Y027518D01*
X035580Y027518D01*
X035546Y027484D01*
X035502Y027378D01*
X035502Y027264D01*
X035546Y027158D01*
X035627Y027077D01*
X035732Y027033D01*
X035847Y027033D01*
X035953Y027077D01*
X036000Y027124D01*
X038464Y027124D01*
X038627Y027124D01*
X038930Y027427D01*
X038996Y027427D01*
X039102Y027471D01*
X039183Y027552D01*
X039227Y027657D01*
X039227Y027772D01*
X039183Y027878D01*
X039102Y027958D01*
X038996Y028002D01*
X038882Y028002D01*
X038799Y027968D01*
X038833Y028051D01*
X038833Y028166D01*
X038789Y028271D01*
X038708Y028352D01*
X038603Y028396D01*
X038488Y028396D01*
X038405Y028361D01*
X038439Y028445D01*
X038439Y028559D01*
X038396Y028665D01*
X038315Y028746D01*
X038209Y028790D01*
X038095Y028790D01*
X038011Y028755D01*
X038046Y028839D01*
X038046Y028953D01*
X038029Y028994D01*
X052660Y028994D01*
X052777Y028994D01*
X052886Y029039D01*
X053756Y029910D01*
X053801Y030018D01*
X053801Y030136D01*
X053756Y030244D01*
X053673Y030327D01*
X053565Y030372D01*
X053447Y030372D01*
X053339Y030327D01*
X052596Y029585D01*
X011809Y029585D01*
X011809Y029666D01*
X011723Y029752D01*
X010971Y029752D01*
X010884Y029666D01*
X010884Y028913D01*
X010902Y028896D01*
X010884Y028878D01*
X010884Y028126D01*
X010902Y028108D01*
X010884Y028091D01*
X010884Y027339D01*
X010902Y027321D01*
X010884Y027303D01*
X010884Y027222D01*
X010321Y027222D01*
X009973Y027571D01*
X009864Y027616D01*
X009747Y027616D01*
X009638Y027571D01*
X009555Y027488D01*
X009510Y027380D01*
X009510Y027262D01*
X009555Y027154D01*
X008919Y027154D01*
X008919Y027057D02*
X009652Y027057D01*
X009749Y026960D02*
X009009Y026960D01*
X008919Y027050D02*
X008919Y030018D01*
X008919Y030136D01*
X008875Y030244D01*
X008398Y030721D01*
X008289Y030766D01*
X008172Y030766D01*
X008063Y030721D01*
X007980Y030638D01*
X007935Y030529D01*
X007935Y030412D01*
X007980Y030303D01*
X008329Y029955D01*
X008329Y026868D01*
X008374Y026760D01*
X008457Y026677D01*
X009244Y025890D01*
X009353Y025845D01*
X009470Y025845D01*
X010884Y025845D01*
X010884Y025764D01*
X010902Y025746D01*
X010884Y025729D01*
X010884Y024976D01*
X010902Y024959D01*
X010884Y024941D01*
X010884Y024189D01*
X010971Y024102D01*
X011723Y024102D01*
X011809Y024189D01*
X011809Y024270D01*
X012045Y024270D01*
X012788Y023527D01*
X012896Y023482D01*
X013014Y023482D01*
X013122Y023527D01*
X013205Y023610D01*
X013161Y023566D02*
X025329Y023566D01*
X025277Y023469D02*
X001396Y023469D01*
X001396Y023566D02*
X012749Y023566D01*
X012652Y023663D02*
X001396Y023663D01*
X001396Y023760D02*
X012555Y023760D01*
X012458Y023857D02*
X001396Y023857D01*
X001396Y023954D02*
X012361Y023954D01*
X012264Y024051D02*
X001396Y024051D01*
X001396Y024148D02*
X010925Y024148D01*
X010884Y024245D02*
X001396Y024245D01*
X001396Y024342D02*
X010884Y024342D01*
X010884Y024439D02*
X001396Y024439D01*
X001396Y024536D02*
X010884Y024536D01*
X010884Y024633D02*
X001396Y024633D01*
X001396Y024730D02*
X010884Y024730D01*
X010884Y024827D02*
X001396Y024827D01*
X001396Y024924D02*
X010884Y024924D01*
X010884Y025021D02*
X001396Y025021D01*
X001396Y025118D02*
X010884Y025118D01*
X010884Y025215D02*
X001396Y025215D01*
X001396Y025312D02*
X010884Y025312D01*
X010884Y025409D02*
X001396Y025409D01*
X001396Y025506D02*
X010884Y025506D01*
X010884Y025603D02*
X001396Y025603D01*
X001396Y025700D02*
X010884Y025700D01*
X010884Y025796D02*
X001396Y025796D01*
X001396Y025893D02*
X009240Y025893D01*
X009143Y025990D02*
X001396Y025990D01*
X001396Y026087D02*
X009046Y026087D01*
X008950Y026184D02*
X001396Y026184D01*
X001396Y026281D02*
X008853Y026281D01*
X008756Y026378D02*
X001396Y026378D01*
X001396Y026475D02*
X008659Y026475D01*
X008562Y026572D02*
X001396Y026572D01*
X001396Y026669D02*
X008465Y026669D01*
X008457Y026677D02*
X008457Y026677D01*
X008371Y026766D02*
X001396Y026766D01*
X001396Y026863D02*
X008331Y026863D01*
X008329Y026960D02*
X001396Y026960D01*
X001396Y027057D02*
X008329Y027057D01*
X008329Y027154D02*
X001396Y027154D01*
X001396Y027251D02*
X008329Y027251D01*
X008329Y027348D02*
X001396Y027348D01*
X001396Y027445D02*
X008329Y027445D01*
X008329Y027542D02*
X001396Y027542D01*
X001396Y027639D02*
X008329Y027639D01*
X008329Y027736D02*
X001396Y027736D01*
X001396Y027833D02*
X008329Y027833D01*
X008329Y027930D02*
X001396Y027930D01*
X001396Y028027D02*
X008329Y028027D01*
X008329Y028124D02*
X001396Y028124D01*
X001396Y028221D02*
X008329Y028221D01*
X008329Y028318D02*
X001396Y028318D01*
X001396Y028415D02*
X008329Y028415D01*
X008329Y028512D02*
X001396Y028512D01*
X001396Y028609D02*
X008329Y028609D01*
X008329Y028706D02*
X001396Y028706D01*
X001396Y028803D02*
X008329Y028803D01*
X008329Y028899D02*
X001396Y028899D01*
X001396Y028996D02*
X008329Y028996D01*
X008329Y029093D02*
X001396Y029093D01*
X001396Y029190D02*
X008329Y029190D01*
X008329Y029287D02*
X001396Y029287D01*
X001396Y029384D02*
X008329Y029384D01*
X008329Y029481D02*
X001396Y029481D01*
X001396Y029578D02*
X008329Y029578D01*
X008329Y029675D02*
X001396Y029675D01*
X001396Y029772D02*
X008329Y029772D01*
X008329Y029869D02*
X001396Y029869D01*
X001396Y029966D02*
X008317Y029966D01*
X008220Y030063D02*
X001396Y030063D01*
X001396Y030160D02*
X008123Y030160D01*
X008026Y030257D02*
X001396Y030257D01*
X001396Y030354D02*
X007959Y030354D01*
X007935Y030451D02*
X001396Y030451D01*
X001396Y030548D02*
X007943Y030548D01*
X007987Y030645D02*
X001396Y030645D01*
X001396Y030742D02*
X008114Y030742D01*
X008347Y030742D02*
X057584Y030742D01*
X057584Y030839D02*
X001396Y030839D01*
X001396Y030936D02*
X057584Y030936D01*
X057584Y031033D02*
X001396Y031033D01*
X001396Y031130D02*
X057584Y031130D01*
X057584Y031227D02*
X054769Y031227D01*
X054771Y031228D02*
X054912Y031368D01*
X054988Y031552D01*
X054988Y031751D01*
X054912Y031935D01*
X054771Y032076D01*
X054587Y032152D01*
X054388Y032152D01*
X054204Y032076D01*
X054064Y031935D01*
X053987Y031751D01*
X053987Y031552D01*
X054064Y031368D01*
X054204Y031228D01*
X054388Y031151D01*
X054587Y031151D01*
X054771Y031228D01*
X054867Y031324D02*
X057584Y031324D01*
X057584Y031421D02*
X054933Y031421D01*
X054973Y031518D02*
X057584Y031518D01*
X057584Y031615D02*
X054988Y031615D01*
X054988Y031712D02*
X057584Y031712D01*
X057584Y031809D02*
X054964Y031809D01*
X054924Y031906D02*
X057584Y031906D01*
X057584Y032002D02*
X054844Y032002D01*
X054713Y032099D02*
X057584Y032099D01*
X057584Y032196D02*
X001396Y032196D01*
X001396Y032099D02*
X007018Y032099D01*
X006960Y032076D02*
X006820Y031935D01*
X006743Y031751D01*
X006743Y031552D01*
X006820Y031368D01*
X006960Y031228D01*
X007144Y031151D01*
X007343Y031151D01*
X007527Y031228D01*
X007668Y031368D01*
X007744Y031552D01*
X007744Y031751D01*
X007668Y031935D01*
X007527Y032076D01*
X007343Y032152D01*
X007144Y032152D01*
X006960Y032076D01*
X006887Y032002D02*
X001396Y032002D01*
X001396Y031906D02*
X006807Y031906D01*
X006767Y031809D02*
X001396Y031809D01*
X001396Y031712D02*
X006743Y031712D01*
X006743Y031615D02*
X001396Y031615D01*
X001396Y031518D02*
X006758Y031518D01*
X006798Y031421D02*
X001396Y031421D01*
X001396Y031324D02*
X006864Y031324D01*
X006962Y031227D02*
X001396Y031227D01*
X001396Y032293D02*
X057584Y032293D01*
X057584Y032390D02*
X001396Y032390D01*
X001396Y032487D02*
X057584Y032487D01*
X057584Y032584D02*
X001396Y032584D01*
X001396Y032681D02*
X057584Y032681D01*
X057584Y032778D02*
X001396Y032778D01*
X001396Y032875D02*
X057584Y032875D01*
X057584Y032972D02*
X001396Y032972D01*
X001396Y033069D02*
X057584Y033069D01*
X057584Y033166D02*
X001396Y033166D01*
X001396Y033263D02*
X057584Y033263D01*
X057584Y033360D02*
X022134Y033360D01*
X022173Y033376D02*
X022254Y033457D01*
X022298Y033563D01*
X022298Y033677D01*
X022254Y033783D01*
X022173Y033864D01*
X022067Y033908D01*
X021953Y033908D01*
X021847Y033864D01*
X021800Y033817D01*
X020350Y033817D01*
X020303Y033864D01*
X020197Y033908D01*
X020083Y033908D01*
X019977Y033864D01*
X019896Y033783D01*
X019852Y033677D01*
X019852Y033563D01*
X019896Y033457D01*
X019977Y033376D01*
X020083Y033333D01*
X020197Y033333D01*
X020303Y033376D01*
X020350Y033423D01*
X021800Y033423D01*
X021847Y033376D01*
X021953Y033333D01*
X022067Y033333D01*
X022173Y033376D01*
X022254Y033457D02*
X057584Y033457D01*
X057584Y033554D02*
X022294Y033554D01*
X022298Y033651D02*
X057584Y033651D01*
X057584Y033748D02*
X022268Y033748D01*
X022192Y033845D02*
X057584Y033845D01*
X057584Y033942D02*
X001396Y033942D01*
X001396Y034039D02*
X057584Y034039D01*
X057584Y034136D02*
X022106Y034136D01*
X022067Y034120D02*
X022173Y034164D01*
X022254Y034245D01*
X022298Y034350D01*
X022298Y034465D01*
X022254Y034570D01*
X022173Y034651D01*
X022067Y034695D01*
X021953Y034695D01*
X021847Y034651D01*
X021800Y034604D01*
X019464Y034604D01*
X019417Y034651D01*
X019311Y034695D01*
X019197Y034695D01*
X019091Y034651D01*
X019010Y034570D01*
X018967Y034465D01*
X018967Y034350D01*
X019010Y034245D01*
X019091Y034164D01*
X019197Y034120D01*
X019311Y034120D01*
X019417Y034164D01*
X019464Y034211D01*
X021800Y034211D01*
X021847Y034164D01*
X021953Y034120D01*
X022067Y034120D01*
X021914Y034136D02*
X019350Y034136D01*
X019159Y034136D02*
X001396Y034136D01*
X001396Y034233D02*
X019022Y034233D01*
X018975Y034330D02*
X001396Y034330D01*
X001396Y034427D02*
X018967Y034427D01*
X018991Y034524D02*
X001396Y034524D01*
X001396Y034621D02*
X003448Y034621D01*
X003524Y034589D02*
X003923Y034589D01*
X004291Y034742D01*
X004574Y035024D01*
X004726Y035392D01*
X004726Y035791D01*
X004574Y036160D01*
X004291Y036442D01*
X003923Y036594D01*
X003524Y036594D01*
X003156Y036442D01*
X002874Y036160D01*
X002721Y035791D01*
X002721Y035392D01*
X002874Y035024D01*
X003156Y034742D01*
X003524Y034589D01*
X003214Y034718D02*
X001396Y034718D01*
X001396Y034815D02*
X003083Y034815D01*
X002986Y034912D02*
X001396Y034912D01*
X001396Y035009D02*
X002889Y035009D01*
X002840Y035105D02*
X001396Y035105D01*
X001396Y035202D02*
X002799Y035202D01*
X002759Y035299D02*
X001396Y035299D01*
X001396Y035396D02*
X002721Y035396D01*
X002721Y035493D02*
X001396Y035493D01*
X001396Y035590D02*
X002721Y035590D01*
X002721Y035687D02*
X001396Y035687D01*
X001396Y035784D02*
X002721Y035784D01*
X002758Y035881D02*
X001396Y035881D01*
X001396Y035978D02*
X002798Y035978D01*
X002839Y036075D02*
X001396Y036075D01*
X001396Y036172D02*
X002886Y036172D01*
X002983Y036269D02*
X001396Y036269D01*
X001396Y036366D02*
X003080Y036366D01*
X003207Y036463D02*
X001396Y036463D01*
X001396Y036560D02*
X003441Y036560D01*
X004006Y036560D02*
X007531Y036560D01*
X007614Y036594D02*
X007246Y036442D01*
X006964Y036160D01*
X006811Y035791D01*
X006811Y035392D01*
X006964Y035024D01*
X007246Y034742D01*
X007614Y034589D01*
X008013Y034589D01*
X008381Y034742D01*
X008664Y035024D01*
X008816Y035392D01*
X008816Y035791D01*
X008664Y036160D01*
X008381Y036442D01*
X008013Y036594D01*
X007614Y036594D01*
X007297Y036463D02*
X004240Y036463D01*
X004367Y036366D02*
X007170Y036366D01*
X007073Y036269D02*
X004464Y036269D01*
X004561Y036172D02*
X006976Y036172D01*
X006929Y036075D02*
X004609Y036075D01*
X004649Y035978D02*
X006888Y035978D01*
X006848Y035881D02*
X004689Y035881D01*
X004726Y035784D02*
X006811Y035784D01*
X006811Y035687D02*
X004726Y035687D01*
X004726Y035590D02*
X006811Y035590D01*
X006811Y035493D02*
X004726Y035493D01*
X004726Y035396D02*
X006811Y035396D01*
X006849Y035299D02*
X004688Y035299D01*
X004648Y035202D02*
X006889Y035202D01*
X006930Y035105D02*
X004607Y035105D01*
X004558Y035009D02*
X006979Y035009D01*
X007076Y034912D02*
X004461Y034912D01*
X004364Y034815D02*
X007173Y034815D01*
X007304Y034718D02*
X004233Y034718D01*
X003999Y034621D02*
X007538Y034621D01*
X008089Y034621D02*
X019060Y034621D01*
X019254Y034408D02*
X022010Y034408D01*
X022273Y034524D02*
X025472Y034524D01*
X025496Y034514D02*
X025611Y034514D01*
X025716Y034557D01*
X025797Y034638D01*
X025841Y034744D01*
X025841Y034858D01*
X025797Y034964D01*
X025750Y035011D01*
X025750Y041413D01*
X026422Y042085D01*
X026422Y042085D01*
X026538Y042200D01*
X026538Y042268D01*
X026585Y042315D01*
X026628Y042421D01*
X026628Y042536D01*
X026585Y042641D01*
X026504Y042722D01*
X026398Y042766D01*
X026284Y042766D01*
X026178Y042722D01*
X026097Y042641D01*
X026053Y042536D01*
X026053Y042421D01*
X026097Y042316D01*
X025357Y041576D01*
X025357Y041413D01*
X025357Y035011D01*
X025310Y034964D01*
X025266Y034858D01*
X025266Y034744D01*
X025310Y034638D01*
X025390Y034557D01*
X025496Y034514D01*
X025635Y034524D02*
X027047Y034524D01*
X027071Y034514D02*
X027185Y034514D01*
X027291Y034557D01*
X027372Y034638D01*
X027416Y034744D01*
X027416Y034858D01*
X027372Y034964D01*
X027325Y035011D01*
X027325Y043105D01*
X027372Y043152D01*
X027416Y043258D01*
X027416Y043372D01*
X027372Y043478D01*
X027291Y043559D01*
X027185Y043603D01*
X027071Y043603D01*
X026965Y043559D01*
X026884Y043478D01*
X026841Y043372D01*
X026841Y043258D01*
X026884Y043152D01*
X026931Y043105D01*
X026931Y035011D01*
X026884Y034964D01*
X026841Y034858D01*
X026841Y034744D01*
X026884Y034638D01*
X026965Y034557D01*
X027071Y034514D01*
X027210Y034524D02*
X028621Y034524D01*
X028646Y034514D02*
X028760Y034514D01*
X028866Y034557D01*
X028947Y034638D01*
X028991Y034744D01*
X028991Y034858D01*
X028947Y034964D01*
X028900Y035011D01*
X028900Y042249D01*
X028900Y042412D01*
X028597Y042715D01*
X028597Y042782D01*
X028553Y042887D01*
X028472Y042968D01*
X028366Y043012D01*
X028252Y043012D01*
X028146Y042968D01*
X028065Y042887D01*
X028022Y042782D01*
X028022Y042667D01*
X028065Y042562D01*
X028146Y042481D01*
X028252Y042437D01*
X028319Y042437D01*
X028506Y042249D01*
X028506Y035011D01*
X028459Y034964D01*
X028415Y034858D01*
X028415Y034744D01*
X028459Y034638D01*
X028540Y034557D01*
X028646Y034514D01*
X028784Y034524D02*
X031771Y034524D01*
X031795Y034514D02*
X031910Y034514D01*
X032016Y034557D01*
X032096Y034638D01*
X032140Y034744D01*
X032140Y034858D01*
X032096Y034964D01*
X032049Y035011D01*
X032049Y042151D01*
X032049Y042314D01*
X031353Y043011D01*
X031353Y043077D01*
X031309Y043183D01*
X031228Y043264D01*
X031122Y043307D01*
X031008Y043307D01*
X030902Y043264D01*
X030821Y043183D01*
X030778Y043077D01*
X030778Y042963D01*
X030821Y042857D01*
X030902Y042776D01*
X031008Y042732D01*
X031074Y042732D01*
X031656Y042151D01*
X031656Y035011D01*
X031609Y034964D01*
X031565Y034858D01*
X031565Y034744D01*
X031609Y034638D01*
X031690Y034557D01*
X031795Y034514D01*
X031934Y034524D02*
X033346Y034524D01*
X033370Y034514D02*
X033485Y034514D01*
X033590Y034557D01*
X033671Y034638D01*
X033715Y034744D01*
X033715Y034858D01*
X033671Y034964D01*
X033590Y035045D01*
X033485Y035089D01*
X033418Y035089D01*
X033231Y035276D01*
X033231Y042072D01*
X033278Y042119D01*
X033321Y042224D01*
X033321Y042339D01*
X033278Y042444D01*
X033197Y042525D01*
X033091Y042569D01*
X032976Y042569D01*
X032871Y042525D01*
X032790Y042444D01*
X032746Y042339D01*
X032746Y042224D01*
X032790Y042119D01*
X032837Y042072D01*
X032837Y035276D01*
X032837Y035113D01*
X033140Y034810D01*
X033140Y034744D01*
X033184Y034638D01*
X033264Y034557D01*
X033370Y034514D01*
X033509Y034524D02*
X057584Y034524D01*
X057584Y034621D02*
X055333Y034621D01*
X055257Y034589D02*
X055626Y034742D01*
X055908Y035024D01*
X056060Y035392D01*
X056060Y035791D01*
X055908Y036160D01*
X055626Y036442D01*
X055257Y036594D01*
X054858Y036594D01*
X054490Y036442D01*
X054208Y036160D01*
X054055Y035791D01*
X054055Y035392D01*
X054208Y035024D01*
X054490Y034742D01*
X054858Y034589D01*
X055257Y034589D01*
X055567Y034718D02*
X057584Y034718D01*
X057584Y034815D02*
X055698Y034815D01*
X055795Y034912D02*
X057584Y034912D01*
X057584Y035009D02*
X055892Y035009D01*
X055941Y035105D02*
X057584Y035105D01*
X057584Y035202D02*
X055982Y035202D01*
X056022Y035299D02*
X057584Y035299D01*
X057584Y035396D02*
X056060Y035396D01*
X056060Y035493D02*
X057584Y035493D01*
X057584Y035590D02*
X056060Y035590D01*
X056060Y035687D02*
X057584Y035687D01*
X057584Y035784D02*
X056060Y035784D01*
X056023Y035881D02*
X057584Y035881D01*
X057584Y035978D02*
X055983Y035978D01*
X055943Y036075D02*
X057584Y036075D01*
X057584Y036172D02*
X055895Y036172D01*
X055798Y036269D02*
X057584Y036269D01*
X057584Y036366D02*
X055701Y036366D01*
X055574Y036463D02*
X057584Y036463D01*
X057584Y036560D02*
X055340Y036560D01*
X054775Y036560D02*
X051250Y036560D01*
X051167Y036594D02*
X050768Y036594D01*
X050400Y036442D01*
X050118Y036160D01*
X049965Y035791D01*
X049965Y035392D01*
X050118Y035024D01*
X050400Y034742D01*
X050768Y034589D01*
X051167Y034589D01*
X051536Y034742D01*
X051818Y035024D01*
X051970Y035392D01*
X051970Y035791D01*
X051818Y036160D01*
X051536Y036442D01*
X051167Y036594D01*
X051484Y036463D02*
X054541Y036463D01*
X054414Y036366D02*
X051611Y036366D01*
X051708Y036269D02*
X054317Y036269D01*
X054220Y036172D02*
X051805Y036172D01*
X051853Y036075D02*
X054173Y036075D01*
X054133Y035978D02*
X051893Y035978D01*
X051933Y035881D02*
X054092Y035881D01*
X054055Y035784D02*
X051970Y035784D01*
X051970Y035687D02*
X054055Y035687D01*
X054055Y035590D02*
X051970Y035590D01*
X051970Y035493D02*
X054055Y035493D01*
X054055Y035396D02*
X051970Y035396D01*
X051932Y035299D02*
X054093Y035299D01*
X054134Y035202D02*
X051892Y035202D01*
X051851Y035105D02*
X054174Y035105D01*
X054223Y035009D02*
X051802Y035009D01*
X051705Y034912D02*
X054320Y034912D01*
X054417Y034815D02*
X051608Y034815D01*
X051477Y034718D02*
X054548Y034718D01*
X054782Y034621D02*
X051243Y034621D01*
X050692Y034621D02*
X033654Y034621D01*
X033704Y034718D02*
X050458Y034718D01*
X050327Y034815D02*
X033715Y034815D01*
X033693Y034912D02*
X050230Y034912D01*
X050133Y035009D02*
X033627Y035009D01*
X033402Y035105D02*
X050084Y035105D01*
X050044Y035202D02*
X043707Y035202D01*
X043657Y035182D02*
X043806Y035244D01*
X043920Y035358D01*
X043982Y035506D01*
X043982Y036183D01*
X043920Y036331D01*
X043806Y036445D01*
X043657Y036507D01*
X043496Y036507D01*
X043347Y036445D01*
X043233Y036331D01*
X043171Y036183D01*
X043171Y035506D01*
X043233Y035358D01*
X043347Y035244D01*
X043496Y035182D01*
X043657Y035182D01*
X043446Y035202D02*
X042832Y035202D01*
X042782Y035182D02*
X042931Y035244D01*
X043045Y035358D01*
X043107Y035506D01*
X043107Y036183D01*
X043045Y036331D01*
X042931Y036445D01*
X042782Y036507D01*
X042621Y036507D01*
X042472Y036445D01*
X042358Y036331D01*
X042296Y036183D01*
X042296Y035506D01*
X042358Y035358D01*
X042472Y035244D01*
X042621Y035182D01*
X042782Y035182D01*
X042571Y035202D02*
X041957Y035202D01*
X041907Y035182D02*
X042056Y035244D01*
X042170Y035358D01*
X042232Y035506D01*
X042232Y036183D01*
X042170Y036331D01*
X042056Y036445D01*
X041907Y036507D01*
X041746Y036507D01*
X041597Y036445D01*
X041483Y036331D01*
X041421Y036183D01*
X041421Y035506D01*
X041483Y035358D01*
X041597Y035244D01*
X041746Y035182D01*
X041907Y035182D01*
X041696Y035202D02*
X041082Y035202D01*
X041032Y035182D02*
X041181Y035244D01*
X041295Y035358D01*
X041357Y035506D01*
X041357Y036183D01*
X041295Y036331D01*
X041181Y036445D01*
X041032Y036507D01*
X040871Y036507D01*
X040722Y036445D01*
X040608Y036331D01*
X040546Y036183D01*
X040546Y035506D01*
X040608Y035358D01*
X040722Y035244D01*
X040871Y035182D01*
X041032Y035182D01*
X040821Y035202D02*
X040206Y035202D01*
X040157Y035182D02*
X040306Y035244D01*
X040420Y035358D01*
X040482Y035506D01*
X040482Y036183D01*
X040420Y036331D01*
X040306Y036445D01*
X040157Y036507D01*
X039996Y036507D01*
X039847Y036445D01*
X039733Y036331D01*
X039671Y036183D01*
X039671Y035506D01*
X039733Y035358D01*
X039847Y035244D01*
X039996Y035182D01*
X040157Y035182D01*
X039946Y035202D02*
X039331Y035202D01*
X039282Y035182D02*
X039431Y035244D01*
X039545Y035358D01*
X039607Y035506D01*
X039607Y036183D01*
X039545Y036331D01*
X039431Y036445D01*
X039282Y036507D01*
X039121Y036507D01*
X038972Y036445D01*
X038858Y036331D01*
X038796Y036183D01*
X038796Y035506D01*
X038858Y035358D01*
X038972Y035244D01*
X039121Y035182D01*
X039282Y035182D01*
X039071Y035202D02*
X038456Y035202D01*
X038407Y035182D02*
X038556Y035244D01*
X038670Y035358D01*
X038732Y035506D01*
X038732Y036183D01*
X038670Y036331D01*
X038556Y036445D01*
X038407Y036507D01*
X038269Y036507D01*
X038315Y036526D01*
X038362Y036573D01*
X041879Y036573D01*
X041926Y036526D01*
X042032Y036482D01*
X042146Y036482D01*
X042252Y036526D01*
X042333Y036607D01*
X042376Y036713D01*
X042376Y036827D01*
X042333Y036933D01*
X042252Y037014D01*
X042146Y037057D01*
X042032Y037057D01*
X041926Y037014D01*
X041879Y036967D01*
X039543Y036967D01*
X039577Y037001D01*
X039621Y037106D01*
X039621Y037221D01*
X039577Y037326D01*
X039496Y037407D01*
X039390Y037451D01*
X039276Y037451D01*
X039170Y037407D01*
X039123Y037360D01*
X037574Y037360D01*
X037527Y037407D01*
X037422Y037451D01*
X037307Y037451D01*
X037201Y037407D01*
X037121Y037326D01*
X037077Y037221D01*
X037077Y037106D01*
X037121Y037001D01*
X037201Y036920D01*
X037307Y036876D01*
X037422Y036876D01*
X037527Y036920D01*
X037574Y036967D01*
X037942Y036967D01*
X037908Y036933D01*
X037864Y036827D01*
X037864Y036713D01*
X037908Y036607D01*
X037989Y036526D01*
X038095Y036482D01*
X038186Y036482D01*
X038097Y036445D01*
X037983Y036331D01*
X037921Y036183D01*
X037921Y035506D01*
X037983Y035358D01*
X038097Y035244D01*
X038246Y035182D01*
X038407Y035182D01*
X038196Y035202D02*
X037581Y035202D01*
X037532Y035182D02*
X037681Y035244D01*
X037795Y035358D01*
X037857Y035506D01*
X037857Y036183D01*
X037795Y036331D01*
X037681Y036445D01*
X037532Y036507D01*
X037371Y036507D01*
X037222Y036445D01*
X037108Y036331D01*
X037046Y036183D01*
X037046Y035506D01*
X037108Y035358D01*
X037222Y035244D01*
X037371Y035182D01*
X037532Y035182D01*
X037321Y035202D02*
X033305Y035202D01*
X033231Y035299D02*
X037166Y035299D01*
X037092Y035396D02*
X033231Y035396D01*
X033231Y035493D02*
X037052Y035493D01*
X037046Y035590D02*
X033231Y035590D01*
X033231Y035687D02*
X037046Y035687D01*
X037046Y035784D02*
X033231Y035784D01*
X033231Y035881D02*
X037046Y035881D01*
X037046Y035978D02*
X033231Y035978D01*
X033231Y036075D02*
X037046Y036075D01*
X037046Y036172D02*
X033231Y036172D01*
X033231Y036269D02*
X037082Y036269D01*
X037143Y036366D02*
X033231Y036366D01*
X033231Y036463D02*
X037264Y036463D01*
X037639Y036463D02*
X038139Y036463D01*
X038018Y036366D02*
X037760Y036366D01*
X037821Y036269D02*
X037957Y036269D01*
X037921Y036172D02*
X037857Y036172D01*
X037857Y036075D02*
X037921Y036075D01*
X037921Y035978D02*
X037857Y035978D01*
X037857Y035881D02*
X037921Y035881D01*
X037921Y035784D02*
X037857Y035784D01*
X037857Y035687D02*
X037921Y035687D01*
X037921Y035590D02*
X037857Y035590D01*
X037851Y035493D02*
X037927Y035493D01*
X037967Y035396D02*
X037811Y035396D01*
X037737Y035299D02*
X038041Y035299D01*
X038612Y035299D02*
X038916Y035299D01*
X038842Y035396D02*
X038686Y035396D01*
X038726Y035493D02*
X038802Y035493D01*
X038796Y035590D02*
X038732Y035590D01*
X038732Y035687D02*
X038796Y035687D01*
X038796Y035784D02*
X038732Y035784D01*
X038732Y035881D02*
X038796Y035881D01*
X038796Y035978D02*
X038732Y035978D01*
X038732Y036075D02*
X038796Y036075D01*
X038796Y036172D02*
X038732Y036172D01*
X038696Y036269D02*
X038832Y036269D01*
X038893Y036366D02*
X038635Y036366D01*
X038514Y036463D02*
X039014Y036463D01*
X039389Y036463D02*
X039889Y036463D01*
X039768Y036366D02*
X039510Y036366D01*
X039571Y036269D02*
X039707Y036269D01*
X039671Y036172D02*
X039607Y036172D01*
X039607Y036075D02*
X039671Y036075D01*
X039671Y035978D02*
X039607Y035978D01*
X039607Y035881D02*
X039671Y035881D01*
X039671Y035784D02*
X039607Y035784D01*
X039607Y035687D02*
X039671Y035687D01*
X039671Y035590D02*
X039607Y035590D01*
X039601Y035493D02*
X039677Y035493D01*
X039717Y035396D02*
X039561Y035396D01*
X039487Y035299D02*
X039791Y035299D01*
X040362Y035299D02*
X040666Y035299D01*
X040592Y035396D02*
X040436Y035396D01*
X040476Y035493D02*
X040552Y035493D01*
X040546Y035590D02*
X040482Y035590D01*
X040482Y035687D02*
X040546Y035687D01*
X040546Y035784D02*
X040482Y035784D01*
X040482Y035881D02*
X040546Y035881D01*
X040546Y035978D02*
X040482Y035978D01*
X040482Y036075D02*
X040546Y036075D01*
X040546Y036172D02*
X040482Y036172D01*
X040446Y036269D02*
X040582Y036269D01*
X040643Y036366D02*
X040385Y036366D01*
X040264Y036463D02*
X040764Y036463D01*
X041139Y036463D02*
X041639Y036463D01*
X041518Y036366D02*
X041260Y036366D01*
X041321Y036269D02*
X041457Y036269D01*
X041421Y036172D02*
X041357Y036172D01*
X041357Y036075D02*
X041421Y036075D01*
X041421Y035978D02*
X041357Y035978D01*
X041357Y035881D02*
X041421Y035881D01*
X041421Y035784D02*
X041357Y035784D01*
X041357Y035687D02*
X041421Y035687D01*
X041421Y035590D02*
X041357Y035590D01*
X041351Y035493D02*
X041427Y035493D01*
X041467Y035396D02*
X041311Y035396D01*
X041237Y035299D02*
X041541Y035299D01*
X042112Y035299D02*
X042416Y035299D01*
X042342Y035396D02*
X042186Y035396D01*
X042226Y035493D02*
X042302Y035493D01*
X042296Y035590D02*
X042232Y035590D01*
X042232Y035687D02*
X042296Y035687D01*
X042296Y035784D02*
X042232Y035784D01*
X042232Y035881D02*
X042296Y035881D01*
X042296Y035978D02*
X042232Y035978D01*
X042232Y036075D02*
X042296Y036075D01*
X042296Y036172D02*
X042232Y036172D01*
X042196Y036269D02*
X042332Y036269D01*
X042393Y036366D02*
X042135Y036366D01*
X042014Y036463D02*
X042514Y036463D01*
X042286Y036560D02*
X050685Y036560D01*
X050451Y036463D02*
X043764Y036463D01*
X043885Y036366D02*
X050324Y036366D01*
X050227Y036269D02*
X043946Y036269D01*
X043982Y036172D02*
X050130Y036172D01*
X050083Y036075D02*
X043982Y036075D01*
X043982Y035978D02*
X050043Y035978D01*
X050002Y035881D02*
X043982Y035881D01*
X043982Y035784D02*
X049965Y035784D01*
X049965Y035687D02*
X043982Y035687D01*
X043982Y035590D02*
X049965Y035590D01*
X049965Y035493D02*
X043976Y035493D01*
X043936Y035396D02*
X049965Y035396D01*
X050003Y035299D02*
X043862Y035299D01*
X043291Y035299D02*
X042987Y035299D01*
X043061Y035396D02*
X043217Y035396D01*
X043177Y035493D02*
X043101Y035493D01*
X043107Y035590D02*
X043171Y035590D01*
X043171Y035687D02*
X043107Y035687D01*
X043107Y035784D02*
X043171Y035784D01*
X043171Y035881D02*
X043107Y035881D01*
X043107Y035978D02*
X043171Y035978D01*
X043171Y036075D02*
X043107Y036075D01*
X043107Y036172D02*
X043171Y036172D01*
X043207Y036269D02*
X043071Y036269D01*
X043010Y036366D02*
X043268Y036366D01*
X043389Y036463D02*
X042889Y036463D01*
X042353Y036657D02*
X057584Y036657D01*
X057584Y036754D02*
X042376Y036754D01*
X042367Y036851D02*
X057584Y036851D01*
X057584Y036948D02*
X042317Y036948D01*
X042176Y037045D02*
X057584Y037045D01*
X057584Y037142D02*
X039621Y037142D01*
X039613Y037239D02*
X057584Y037239D01*
X057584Y037336D02*
X039567Y037336D01*
X039434Y037433D02*
X057584Y037433D01*
X057584Y037530D02*
X033231Y037530D01*
X033231Y037627D02*
X057584Y037627D01*
X057584Y037724D02*
X033231Y037724D01*
X033231Y037821D02*
X057584Y037821D01*
X057584Y037918D02*
X033231Y037918D01*
X033231Y038015D02*
X057584Y038015D01*
X057584Y038111D02*
X033231Y038111D01*
X033231Y038208D02*
X057584Y038208D01*
X057584Y038305D02*
X033231Y038305D01*
X033231Y038402D02*
X057584Y038402D01*
X057584Y038499D02*
X033231Y038499D01*
X033231Y038596D02*
X057584Y038596D01*
X057584Y038693D02*
X033231Y038693D01*
X033231Y038790D02*
X057584Y038790D01*
X057584Y038887D02*
X033231Y038887D01*
X033231Y038984D02*
X057584Y038984D01*
X057584Y039081D02*
X033231Y039081D01*
X033231Y039178D02*
X057584Y039178D01*
X057584Y039275D02*
X033231Y039275D01*
X033231Y039372D02*
X057584Y039372D01*
X057584Y039469D02*
X033231Y039469D01*
X033231Y039566D02*
X057584Y039566D01*
X057584Y039663D02*
X033231Y039663D01*
X033231Y039760D02*
X057584Y039760D01*
X057584Y039857D02*
X033231Y039857D01*
X033231Y039954D02*
X057584Y039954D01*
X057584Y040051D02*
X033231Y040051D01*
X033231Y040148D02*
X057584Y040148D01*
X057584Y040245D02*
X043807Y040245D01*
X043806Y040244D02*
X043920Y040358D01*
X043982Y040506D01*
X043982Y041183D01*
X043920Y041331D01*
X043806Y041445D01*
X043657Y041507D01*
X043496Y041507D01*
X043347Y041445D01*
X043233Y041331D01*
X043171Y041183D01*
X043171Y040506D01*
X043233Y040358D01*
X043347Y040244D01*
X043496Y040182D01*
X043657Y040182D01*
X043806Y040244D01*
X043904Y040342D02*
X057584Y040342D01*
X057584Y040439D02*
X043954Y040439D01*
X043982Y040536D02*
X057584Y040536D01*
X057584Y040633D02*
X043982Y040633D01*
X043982Y040730D02*
X055943Y040730D01*
X056187Y040730D02*
X057584Y040730D01*
X057584Y040827D02*
X056628Y040827D01*
X056818Y040924D02*
X057584Y040924D01*
X057584Y041021D02*
X056999Y041021D01*
X057096Y041118D02*
X057584Y041118D01*
X057584Y041214D02*
X057193Y041214D01*
X057290Y041311D02*
X057584Y041311D01*
X057584Y041408D02*
X057362Y041408D01*
X057411Y041505D02*
X057584Y041505D01*
X057584Y041602D02*
X057461Y041602D01*
X057510Y041699D02*
X057584Y041699D01*
X057584Y041796D02*
X057560Y041796D01*
X057575Y041893D02*
X057584Y041893D01*
X055502Y040827D02*
X043982Y040827D01*
X043982Y040924D02*
X055312Y040924D01*
X055131Y041021D02*
X043982Y041021D01*
X043982Y041118D02*
X055034Y041118D01*
X054938Y041214D02*
X043968Y041214D01*
X043928Y041311D02*
X054841Y041311D01*
X054768Y041408D02*
X043843Y041408D01*
X043661Y041505D02*
X054719Y041505D01*
X054669Y041602D02*
X040781Y041602D01*
X040802Y041551D02*
X040758Y041657D01*
X040677Y041738D01*
X040571Y041782D01*
X040457Y041782D01*
X040351Y041738D01*
X040304Y041691D01*
X039543Y041691D01*
X039577Y041725D01*
X039621Y041831D01*
X039621Y041945D01*
X039577Y042051D01*
X039496Y042132D01*
X039390Y042175D01*
X039276Y042175D01*
X039170Y042132D01*
X039123Y042085D01*
X038362Y042085D01*
X038396Y042119D01*
X038439Y042224D01*
X038439Y042339D01*
X038396Y042444D01*
X038315Y042525D01*
X038209Y042569D01*
X038095Y042569D01*
X037989Y042525D01*
X037942Y042478D01*
X036393Y042478D01*
X036427Y042512D01*
X036471Y042618D01*
X036471Y042732D01*
X036427Y042838D01*
X036346Y042919D01*
X036241Y042963D01*
X036126Y042963D01*
X036020Y042919D01*
X035973Y042872D01*
X035212Y042872D01*
X035165Y042919D01*
X035059Y042963D01*
X034945Y042963D01*
X034839Y042919D01*
X034758Y042838D01*
X034715Y042732D01*
X034715Y042618D01*
X034758Y042512D01*
X034839Y042431D01*
X034945Y042388D01*
X035059Y042388D01*
X035143Y042422D01*
X035108Y042339D01*
X035108Y042224D01*
X035152Y042119D01*
X035233Y042038D01*
X035339Y041994D01*
X035453Y041994D01*
X035537Y042029D01*
X035502Y041945D01*
X035502Y041831D01*
X035546Y041725D01*
X035627Y041644D01*
X035732Y041600D01*
X035847Y041600D01*
X035930Y041635D01*
X035896Y041551D01*
X035896Y041437D01*
X035939Y041331D01*
X036020Y041250D01*
X036126Y041207D01*
X036241Y041207D01*
X036346Y041250D01*
X036393Y041297D01*
X037094Y041297D01*
X037046Y041183D01*
X037046Y040506D01*
X037108Y040358D01*
X037222Y040244D01*
X037371Y040182D01*
X037532Y040182D01*
X037681Y040244D01*
X037795Y040358D01*
X037857Y040506D01*
X037857Y041183D01*
X037809Y041297D01*
X037969Y041297D01*
X037921Y041183D01*
X037921Y040506D01*
X037983Y040358D01*
X038097Y040244D01*
X038246Y040182D01*
X038407Y040182D01*
X038556Y040244D01*
X038670Y040358D01*
X038732Y040506D01*
X038732Y041183D01*
X038684Y041297D01*
X038844Y041297D01*
X038796Y041183D01*
X038796Y040506D01*
X038858Y040358D01*
X038972Y040244D01*
X039121Y040182D01*
X039282Y040182D01*
X039431Y040244D01*
X039545Y040358D01*
X039607Y040506D01*
X039607Y041183D01*
X039559Y041297D01*
X039719Y041297D01*
X039671Y041183D01*
X039671Y040506D01*
X039733Y040358D01*
X039847Y040244D01*
X039996Y040182D01*
X040157Y040182D01*
X040306Y040244D01*
X040420Y040358D01*
X040482Y040506D01*
X040482Y041183D01*
X040472Y041207D01*
X040556Y041207D01*
X040546Y041183D01*
X040546Y040506D01*
X040608Y040358D01*
X040722Y040244D01*
X040871Y040182D01*
X041032Y040182D01*
X041181Y040244D01*
X041295Y040358D01*
X041357Y040506D01*
X041357Y041183D01*
X041295Y041331D01*
X041181Y041445D01*
X041032Y041507D01*
X040871Y041507D01*
X040802Y041478D01*
X040802Y041551D01*
X040802Y041505D02*
X040867Y041505D01*
X041036Y041505D02*
X041742Y041505D01*
X041746Y041507D02*
X041597Y041445D01*
X041483Y041331D01*
X041421Y041183D01*
X041421Y040506D01*
X041483Y040358D01*
X041597Y040244D01*
X041746Y040182D01*
X041907Y040182D01*
X042056Y040244D01*
X042170Y040358D01*
X042232Y040506D01*
X042232Y041183D01*
X042170Y041331D01*
X042056Y041445D01*
X041907Y041507D01*
X041746Y041507D01*
X041911Y041505D02*
X042617Y041505D01*
X042621Y041507D02*
X042472Y041445D01*
X042358Y041331D01*
X042296Y041183D01*
X042296Y040506D01*
X042358Y040358D01*
X042472Y040244D01*
X042621Y040182D01*
X042782Y040182D01*
X042931Y040244D01*
X043045Y040358D01*
X043107Y040506D01*
X043107Y041183D01*
X043045Y041331D01*
X042931Y041445D01*
X042782Y041507D01*
X042621Y041507D01*
X042786Y041505D02*
X043492Y041505D01*
X043310Y041408D02*
X042968Y041408D01*
X043053Y041311D02*
X043225Y041311D01*
X043185Y041214D02*
X043093Y041214D01*
X043107Y041118D02*
X043171Y041118D01*
X043171Y041021D02*
X043107Y041021D01*
X043107Y040924D02*
X043171Y040924D01*
X043171Y040827D02*
X043107Y040827D01*
X043107Y040730D02*
X043171Y040730D01*
X043171Y040633D02*
X043107Y040633D01*
X043107Y040536D02*
X043171Y040536D01*
X043199Y040439D02*
X043079Y040439D01*
X043029Y040342D02*
X043249Y040342D01*
X043346Y040245D02*
X042932Y040245D01*
X042471Y040245D02*
X042057Y040245D01*
X042154Y040342D02*
X042374Y040342D01*
X042324Y040439D02*
X042204Y040439D01*
X042232Y040536D02*
X042296Y040536D01*
X042296Y040633D02*
X042232Y040633D01*
X042232Y040730D02*
X042296Y040730D01*
X042296Y040827D02*
X042232Y040827D01*
X042232Y040924D02*
X042296Y040924D01*
X042296Y041021D02*
X042232Y041021D01*
X042232Y041118D02*
X042296Y041118D01*
X042310Y041214D02*
X042218Y041214D01*
X042178Y041311D02*
X042350Y041311D01*
X042435Y041408D02*
X042093Y041408D01*
X041560Y041408D02*
X041218Y041408D01*
X041303Y041311D02*
X041475Y041311D01*
X041435Y041214D02*
X041343Y041214D01*
X041357Y041118D02*
X041421Y041118D01*
X041421Y041021D02*
X041357Y041021D01*
X041357Y040924D02*
X041421Y040924D01*
X041421Y040827D02*
X041357Y040827D01*
X041357Y040730D02*
X041421Y040730D01*
X041421Y040633D02*
X041357Y040633D01*
X041357Y040536D02*
X041421Y040536D01*
X041449Y040439D02*
X041329Y040439D01*
X041279Y040342D02*
X041499Y040342D01*
X041596Y040245D02*
X041182Y040245D01*
X040721Y040245D02*
X040307Y040245D01*
X040404Y040342D02*
X040624Y040342D01*
X040574Y040439D02*
X040454Y040439D01*
X040482Y040536D02*
X040546Y040536D01*
X040546Y040633D02*
X040482Y040633D01*
X040482Y040730D02*
X040546Y040730D01*
X040546Y040827D02*
X040482Y040827D01*
X040482Y040924D02*
X040546Y040924D01*
X040546Y041021D02*
X040482Y041021D01*
X040482Y041118D02*
X040546Y041118D01*
X040514Y041494D02*
X036183Y041494D01*
X035917Y041602D02*
X035852Y041602D01*
X035896Y041505D02*
X033231Y041505D01*
X033231Y041408D02*
X035907Y041408D01*
X035959Y041311D02*
X033231Y041311D01*
X033231Y041214D02*
X036107Y041214D01*
X036260Y041214D02*
X037060Y041214D01*
X037046Y041118D02*
X033231Y041118D01*
X033231Y041021D02*
X037046Y041021D01*
X037046Y040924D02*
X033231Y040924D01*
X033231Y040827D02*
X037046Y040827D01*
X037046Y040730D02*
X033231Y040730D01*
X033231Y040633D02*
X037046Y040633D01*
X037046Y040536D02*
X033231Y040536D01*
X033231Y040439D02*
X037074Y040439D01*
X037124Y040342D02*
X033231Y040342D01*
X033231Y040245D02*
X037221Y040245D01*
X037682Y040245D02*
X038096Y040245D01*
X037999Y040342D02*
X037779Y040342D01*
X037829Y040439D02*
X037949Y040439D01*
X037921Y040536D02*
X037857Y040536D01*
X037857Y040633D02*
X037921Y040633D01*
X037921Y040730D02*
X037857Y040730D01*
X037857Y040827D02*
X037921Y040827D01*
X037921Y040924D02*
X037857Y040924D01*
X037857Y041021D02*
X037921Y041021D01*
X037921Y041118D02*
X037857Y041118D01*
X037843Y041214D02*
X037935Y041214D01*
X038718Y041214D02*
X038810Y041214D01*
X038796Y041118D02*
X038732Y041118D01*
X038732Y041021D02*
X038796Y041021D01*
X038796Y040924D02*
X038732Y040924D01*
X038732Y040827D02*
X038796Y040827D01*
X038796Y040730D02*
X038732Y040730D01*
X038732Y040633D02*
X038796Y040633D01*
X038796Y040536D02*
X038732Y040536D01*
X038704Y040439D02*
X038824Y040439D01*
X038874Y040342D02*
X038654Y040342D01*
X038557Y040245D02*
X038971Y040245D01*
X039432Y040245D02*
X039846Y040245D01*
X039749Y040342D02*
X039529Y040342D01*
X039579Y040439D02*
X039699Y040439D01*
X039671Y040536D02*
X039607Y040536D01*
X039607Y040633D02*
X039671Y040633D01*
X039671Y040730D02*
X039607Y040730D01*
X039607Y040827D02*
X039671Y040827D01*
X039671Y040924D02*
X039607Y040924D01*
X039607Y041021D02*
X039671Y041021D01*
X039671Y041118D02*
X039607Y041118D01*
X039593Y041214D02*
X039685Y041214D01*
X039551Y041699D02*
X040312Y041699D01*
X040716Y041699D02*
X054620Y041699D01*
X054571Y041796D02*
X039606Y041796D01*
X039621Y041893D02*
X054555Y041893D01*
X054540Y041990D02*
X039602Y041990D01*
X039540Y042087D02*
X054525Y042087D01*
X054509Y042184D02*
X038423Y042184D01*
X038439Y042281D02*
X054494Y042281D01*
X054509Y042378D02*
X038423Y042378D01*
X038365Y042475D02*
X054525Y042475D01*
X054540Y042572D02*
X036452Y042572D01*
X036471Y042669D02*
X054555Y042669D01*
X054571Y042766D02*
X036457Y042766D01*
X036402Y042863D02*
X054620Y042863D01*
X054669Y042960D02*
X036248Y042960D01*
X036119Y042960D02*
X035067Y042960D01*
X034938Y042960D02*
X031403Y042960D01*
X031353Y043057D02*
X054719Y043057D01*
X054768Y043154D02*
X031321Y043154D01*
X031241Y043251D02*
X054840Y043251D01*
X054937Y043348D02*
X027416Y043348D01*
X027413Y043251D02*
X030889Y043251D01*
X030809Y043154D02*
X027373Y043154D01*
X027325Y043057D02*
X030778Y043057D01*
X030779Y042960D02*
X028481Y042960D01*
X028563Y042863D02*
X030819Y042863D01*
X030926Y042766D02*
X028597Y042766D01*
X028643Y042669D02*
X031138Y042669D01*
X031234Y042572D02*
X028740Y042572D01*
X028837Y042475D02*
X031331Y042475D01*
X031428Y042378D02*
X028900Y042378D01*
X028900Y042281D02*
X031525Y042281D01*
X031622Y042184D02*
X028900Y042184D01*
X028900Y042087D02*
X031656Y042087D01*
X031656Y041990D02*
X028900Y041990D01*
X028900Y041893D02*
X031656Y041893D01*
X031656Y041796D02*
X028900Y041796D01*
X028900Y041699D02*
X031656Y041699D01*
X031656Y041602D02*
X028900Y041602D01*
X028900Y041505D02*
X031656Y041505D01*
X031656Y041408D02*
X028900Y041408D01*
X028900Y041311D02*
X031656Y041311D01*
X031656Y041214D02*
X028900Y041214D01*
X028900Y041118D02*
X031656Y041118D01*
X031656Y041021D02*
X028900Y041021D01*
X028900Y040924D02*
X031656Y040924D01*
X031656Y040827D02*
X028900Y040827D01*
X028900Y040730D02*
X031656Y040730D01*
X031656Y040633D02*
X028900Y040633D01*
X028900Y040536D02*
X031656Y040536D01*
X031656Y040439D02*
X028900Y040439D01*
X028900Y040342D02*
X031656Y040342D01*
X031656Y040245D02*
X028900Y040245D01*
X028900Y040148D02*
X031656Y040148D01*
X031656Y040051D02*
X028900Y040051D01*
X028900Y039954D02*
X031656Y039954D01*
X031656Y039857D02*
X028900Y039857D01*
X028900Y039760D02*
X031656Y039760D01*
X031656Y039663D02*
X028900Y039663D01*
X028900Y039566D02*
X031656Y039566D01*
X031656Y039469D02*
X028900Y039469D01*
X028900Y039372D02*
X031656Y039372D01*
X031656Y039275D02*
X028900Y039275D01*
X028900Y039178D02*
X031656Y039178D01*
X031656Y039081D02*
X028900Y039081D01*
X028900Y038984D02*
X031656Y038984D01*
X031656Y038887D02*
X028900Y038887D01*
X028900Y038790D02*
X031656Y038790D01*
X031656Y038693D02*
X028900Y038693D01*
X028900Y038596D02*
X031656Y038596D01*
X031656Y038499D02*
X028900Y038499D01*
X028900Y038402D02*
X031656Y038402D01*
X031656Y038305D02*
X028900Y038305D01*
X028900Y038208D02*
X031656Y038208D01*
X031656Y038111D02*
X028900Y038111D01*
X028900Y038015D02*
X031656Y038015D01*
X031656Y037918D02*
X028900Y037918D01*
X028900Y037821D02*
X031656Y037821D01*
X031656Y037724D02*
X028900Y037724D01*
X028900Y037627D02*
X031656Y037627D01*
X031656Y037530D02*
X028900Y037530D01*
X028900Y037433D02*
X031656Y037433D01*
X031656Y037336D02*
X028900Y037336D01*
X028900Y037239D02*
X031656Y037239D01*
X031656Y037142D02*
X028900Y037142D01*
X028900Y037045D02*
X031656Y037045D01*
X031656Y036948D02*
X028900Y036948D01*
X028900Y036851D02*
X031656Y036851D01*
X031656Y036754D02*
X028900Y036754D01*
X028900Y036657D02*
X031656Y036657D01*
X031656Y036560D02*
X028900Y036560D01*
X028900Y036463D02*
X031656Y036463D01*
X031656Y036366D02*
X028900Y036366D01*
X028900Y036269D02*
X031656Y036269D01*
X031656Y036172D02*
X028900Y036172D01*
X028900Y036075D02*
X031656Y036075D01*
X031656Y035978D02*
X028900Y035978D01*
X028900Y035881D02*
X031656Y035881D01*
X031656Y035784D02*
X028900Y035784D01*
X028900Y035687D02*
X031656Y035687D01*
X031656Y035590D02*
X028900Y035590D01*
X028900Y035493D02*
X031656Y035493D01*
X031656Y035396D02*
X028900Y035396D01*
X028900Y035299D02*
X031656Y035299D01*
X031656Y035202D02*
X028900Y035202D01*
X028900Y035105D02*
X031656Y035105D01*
X031653Y035009D02*
X028902Y035009D01*
X028969Y034912D02*
X031587Y034912D01*
X031565Y034815D02*
X028991Y034815D01*
X028980Y034718D02*
X031576Y034718D01*
X031626Y034621D02*
X028929Y034621D01*
X028703Y034801D02*
X028703Y042331D01*
X028309Y042724D01*
X028055Y042863D02*
X027325Y042863D01*
X027325Y042960D02*
X028138Y042960D01*
X028022Y042766D02*
X027325Y042766D01*
X027325Y042669D02*
X028022Y042669D01*
X028061Y042572D02*
X027325Y042572D01*
X027325Y042475D02*
X028160Y042475D01*
X028377Y042378D02*
X027325Y042378D01*
X027325Y042281D02*
X028474Y042281D01*
X028506Y042184D02*
X027325Y042184D01*
X027325Y042087D02*
X028506Y042087D01*
X028506Y041990D02*
X027325Y041990D01*
X027325Y041893D02*
X028506Y041893D01*
X028506Y041796D02*
X027325Y041796D01*
X027325Y041699D02*
X028506Y041699D01*
X028506Y041602D02*
X027325Y041602D01*
X027325Y041505D02*
X028506Y041505D01*
X028506Y041408D02*
X027325Y041408D01*
X027325Y041311D02*
X028506Y041311D01*
X028506Y041214D02*
X027325Y041214D01*
X027325Y041118D02*
X028506Y041118D01*
X028506Y041021D02*
X027325Y041021D01*
X027325Y040924D02*
X028506Y040924D01*
X028506Y040827D02*
X027325Y040827D01*
X027325Y040730D02*
X028506Y040730D01*
X028506Y040633D02*
X027325Y040633D01*
X027325Y040536D02*
X028506Y040536D01*
X028506Y040439D02*
X027325Y040439D01*
X027325Y040342D02*
X028506Y040342D01*
X028506Y040245D02*
X027325Y040245D01*
X027325Y040148D02*
X028506Y040148D01*
X028506Y040051D02*
X027325Y040051D01*
X027325Y039954D02*
X028506Y039954D01*
X028506Y039857D02*
X027325Y039857D01*
X027325Y039760D02*
X028506Y039760D01*
X028506Y039663D02*
X027325Y039663D01*
X027325Y039566D02*
X028506Y039566D01*
X028506Y039469D02*
X027325Y039469D01*
X027325Y039372D02*
X028506Y039372D01*
X028506Y039275D02*
X027325Y039275D01*
X027325Y039178D02*
X028506Y039178D01*
X028506Y039081D02*
X027325Y039081D01*
X027325Y038984D02*
X028506Y038984D01*
X028506Y038887D02*
X027325Y038887D01*
X027325Y038790D02*
X028506Y038790D01*
X028506Y038693D02*
X027325Y038693D01*
X027325Y038596D02*
X028506Y038596D01*
X028506Y038499D02*
X027325Y038499D01*
X027325Y038402D02*
X028506Y038402D01*
X028506Y038305D02*
X027325Y038305D01*
X027325Y038208D02*
X028506Y038208D01*
X028506Y038111D02*
X027325Y038111D01*
X027325Y038015D02*
X028506Y038015D01*
X028506Y037918D02*
X027325Y037918D01*
X027325Y037821D02*
X028506Y037821D01*
X028506Y037724D02*
X027325Y037724D01*
X027325Y037627D02*
X028506Y037627D01*
X028506Y037530D02*
X027325Y037530D01*
X027325Y037433D02*
X028506Y037433D01*
X028506Y037336D02*
X027325Y037336D01*
X027325Y037239D02*
X028506Y037239D01*
X028506Y037142D02*
X027325Y037142D01*
X027325Y037045D02*
X028506Y037045D01*
X028506Y036948D02*
X027325Y036948D01*
X027325Y036851D02*
X028506Y036851D01*
X028506Y036754D02*
X027325Y036754D01*
X027325Y036657D02*
X028506Y036657D01*
X028506Y036560D02*
X027325Y036560D01*
X027325Y036463D02*
X028506Y036463D01*
X028506Y036366D02*
X027325Y036366D01*
X027325Y036269D02*
X028506Y036269D01*
X028506Y036172D02*
X027325Y036172D01*
X027325Y036075D02*
X028506Y036075D01*
X028506Y035978D02*
X027325Y035978D01*
X027325Y035881D02*
X028506Y035881D01*
X028506Y035784D02*
X027325Y035784D01*
X027325Y035687D02*
X028506Y035687D01*
X028506Y035590D02*
X027325Y035590D01*
X027325Y035493D02*
X028506Y035493D01*
X028506Y035396D02*
X027325Y035396D01*
X027325Y035299D02*
X028506Y035299D01*
X028506Y035202D02*
X027325Y035202D01*
X027325Y035105D02*
X028506Y035105D01*
X028503Y035009D02*
X027328Y035009D01*
X027394Y034912D02*
X028437Y034912D01*
X028415Y034815D02*
X027416Y034815D01*
X027405Y034718D02*
X028426Y034718D01*
X028477Y034621D02*
X027354Y034621D01*
X027128Y034801D02*
X027128Y043315D01*
X026871Y043445D02*
X003947Y043445D01*
X003850Y043542D02*
X026948Y043542D01*
X026841Y043348D02*
X004044Y043348D01*
X004141Y043251D02*
X026843Y043251D01*
X026884Y043154D02*
X004213Y043154D01*
X004262Y043057D02*
X026931Y043057D01*
X026931Y042960D02*
X004312Y042960D01*
X004361Y042863D02*
X026931Y042863D01*
X026931Y042766D02*
X026398Y042766D01*
X026283Y042766D02*
X004410Y042766D01*
X004425Y042669D02*
X026125Y042669D01*
X026068Y042572D02*
X004441Y042572D01*
X004456Y042475D02*
X026053Y042475D01*
X026071Y042378D02*
X004472Y042378D01*
X004487Y042281D02*
X026062Y042281D01*
X025965Y042184D02*
X004471Y042184D01*
X004456Y042087D02*
X025868Y042087D01*
X025771Y041990D02*
X004441Y041990D01*
X004425Y041893D02*
X025674Y041893D01*
X025577Y041796D02*
X004410Y041796D01*
X004361Y041699D02*
X025480Y041699D01*
X025383Y041602D02*
X004311Y041602D01*
X004262Y041505D02*
X015319Y041505D01*
X015324Y041507D02*
X015175Y041445D01*
X015061Y041331D01*
X014999Y041183D01*
X014999Y040506D01*
X015061Y040358D01*
X015175Y040244D01*
X015324Y040182D01*
X015485Y040182D01*
X015634Y040244D01*
X015748Y040358D01*
X015809Y040506D01*
X015809Y041183D01*
X015748Y041331D01*
X015634Y041445D01*
X015485Y041507D01*
X015324Y041507D01*
X015489Y041505D02*
X016194Y041505D01*
X016199Y041507D02*
X016050Y041445D01*
X015936Y041331D01*
X015874Y041183D01*
X015874Y040506D01*
X015936Y040358D01*
X016050Y040244D01*
X016199Y040182D01*
X016360Y040182D01*
X016509Y040244D01*
X016623Y040358D01*
X016684Y040506D01*
X016684Y041183D01*
X016623Y041331D01*
X016509Y041445D01*
X016360Y041507D01*
X016199Y041507D01*
X016364Y041505D02*
X017069Y041505D01*
X017074Y041507D02*
X016925Y041445D01*
X016811Y041331D01*
X016749Y041183D01*
X016749Y040506D01*
X016811Y040358D01*
X016925Y040244D01*
X017074Y040182D01*
X017235Y040182D01*
X017384Y040244D01*
X017498Y040358D01*
X017559Y040506D01*
X017559Y041183D01*
X017498Y041331D01*
X017384Y041445D01*
X017235Y041507D01*
X017074Y041507D01*
X017239Y041505D02*
X017944Y041505D01*
X017949Y041507D02*
X017800Y041445D01*
X017686Y041331D01*
X017624Y041183D01*
X017624Y040506D01*
X017686Y040358D01*
X017800Y040244D01*
X017949Y040182D01*
X018110Y040182D01*
X018259Y040244D01*
X018373Y040358D01*
X018434Y040506D01*
X018434Y041183D01*
X018373Y041331D01*
X018259Y041445D01*
X018110Y041507D01*
X017949Y041507D01*
X018114Y041505D02*
X018819Y041505D01*
X018824Y041507D02*
X018675Y041445D01*
X018561Y041331D01*
X018499Y041183D01*
X018499Y040506D01*
X018561Y040358D01*
X018675Y040244D01*
X018824Y040182D01*
X018985Y040182D01*
X019134Y040244D01*
X019248Y040358D01*
X019309Y040506D01*
X019309Y041183D01*
X019248Y041331D01*
X019134Y041445D01*
X018985Y041507D01*
X018824Y041507D01*
X018989Y041505D02*
X019694Y041505D01*
X019699Y041507D02*
X019550Y041445D01*
X019436Y041331D01*
X019374Y041183D01*
X019374Y040506D01*
X019436Y040358D01*
X019550Y040244D01*
X019699Y040182D01*
X019860Y040182D01*
X020009Y040244D01*
X020123Y040358D01*
X020184Y040506D01*
X020184Y041183D01*
X020123Y041331D01*
X020009Y041445D01*
X019860Y041507D01*
X019699Y041507D01*
X019864Y041505D02*
X020569Y041505D01*
X020574Y041507D02*
X020425Y041445D01*
X020311Y041331D01*
X020249Y041183D01*
X020249Y040506D01*
X020311Y040358D01*
X020425Y040244D01*
X020574Y040182D01*
X020735Y040182D01*
X020884Y040244D01*
X020998Y040358D01*
X021059Y040506D01*
X021059Y041183D01*
X020998Y041331D01*
X020884Y041445D01*
X020735Y041507D01*
X020574Y041507D01*
X020739Y041505D02*
X021444Y041505D01*
X021449Y041507D02*
X021300Y041445D01*
X021186Y041331D01*
X021124Y041183D01*
X021124Y040506D01*
X021186Y040358D01*
X021300Y040244D01*
X021449Y040182D01*
X021610Y040182D01*
X021759Y040244D01*
X021873Y040358D01*
X021934Y040506D01*
X021934Y041183D01*
X021873Y041331D01*
X021759Y041445D01*
X021610Y041507D01*
X021449Y041507D01*
X021614Y041505D02*
X025357Y041505D01*
X025357Y041408D02*
X021796Y041408D01*
X021881Y041311D02*
X025357Y041311D01*
X025357Y041214D02*
X021921Y041214D01*
X021934Y041118D02*
X025357Y041118D01*
X025357Y041021D02*
X021934Y041021D01*
X021934Y040924D02*
X025357Y040924D01*
X025357Y040827D02*
X021934Y040827D01*
X021934Y040730D02*
X025357Y040730D01*
X025357Y040633D02*
X021934Y040633D01*
X021934Y040536D02*
X025357Y040536D01*
X025357Y040439D02*
X021906Y040439D01*
X021857Y040342D02*
X025357Y040342D01*
X025357Y040245D02*
X021760Y040245D01*
X021299Y040245D02*
X020885Y040245D01*
X020982Y040342D02*
X021202Y040342D01*
X021152Y040439D02*
X021031Y040439D01*
X021059Y040536D02*
X021124Y040536D01*
X021124Y040633D02*
X021059Y040633D01*
X021059Y040730D02*
X021124Y040730D01*
X021124Y040827D02*
X021059Y040827D01*
X021059Y040924D02*
X021124Y040924D01*
X021124Y041021D02*
X021059Y041021D01*
X021059Y041118D02*
X021124Y041118D01*
X021137Y041214D02*
X021046Y041214D01*
X021006Y041311D02*
X021178Y041311D01*
X021263Y041408D02*
X020921Y041408D01*
X020388Y041408D02*
X020046Y041408D01*
X020131Y041311D02*
X020303Y041311D01*
X020262Y041214D02*
X020171Y041214D01*
X020184Y041118D02*
X020249Y041118D01*
X020249Y041021D02*
X020184Y041021D01*
X020184Y040924D02*
X020249Y040924D01*
X020249Y040827D02*
X020184Y040827D01*
X020184Y040730D02*
X020249Y040730D01*
X020249Y040633D02*
X020184Y040633D01*
X020184Y040536D02*
X020249Y040536D01*
X020277Y040439D02*
X020156Y040439D01*
X020107Y040342D02*
X020327Y040342D01*
X020424Y040245D02*
X020010Y040245D01*
X019549Y040245D02*
X019135Y040245D01*
X019232Y040342D02*
X019452Y040342D01*
X019402Y040439D02*
X019281Y040439D01*
X019309Y040536D02*
X019374Y040536D01*
X019374Y040633D02*
X019309Y040633D01*
X019309Y040730D02*
X019374Y040730D01*
X019374Y040827D02*
X019309Y040827D01*
X019309Y040924D02*
X019374Y040924D01*
X019374Y041021D02*
X019309Y041021D01*
X019309Y041118D02*
X019374Y041118D01*
X019387Y041214D02*
X019296Y041214D01*
X019256Y041311D02*
X019428Y041311D01*
X019513Y041408D02*
X019171Y041408D01*
X018638Y041408D02*
X018296Y041408D01*
X018381Y041311D02*
X018553Y041311D01*
X018512Y041214D02*
X018421Y041214D01*
X018434Y041118D02*
X018499Y041118D01*
X018499Y041021D02*
X018434Y041021D01*
X018434Y040924D02*
X018499Y040924D01*
X018499Y040827D02*
X018434Y040827D01*
X018434Y040730D02*
X018499Y040730D01*
X018499Y040633D02*
X018434Y040633D01*
X018434Y040536D02*
X018499Y040536D01*
X018527Y040439D02*
X018406Y040439D01*
X018357Y040342D02*
X018577Y040342D01*
X018674Y040245D02*
X018260Y040245D01*
X017799Y040245D02*
X017385Y040245D01*
X017482Y040342D02*
X017702Y040342D01*
X017652Y040439D02*
X017531Y040439D01*
X017559Y040536D02*
X017624Y040536D01*
X017624Y040633D02*
X017559Y040633D01*
X017559Y040730D02*
X017624Y040730D01*
X017624Y040827D02*
X017559Y040827D01*
X017559Y040924D02*
X017624Y040924D01*
X017624Y041021D02*
X017559Y041021D01*
X017559Y041118D02*
X017624Y041118D01*
X017637Y041214D02*
X017546Y041214D01*
X017506Y041311D02*
X017678Y041311D01*
X017763Y041408D02*
X017421Y041408D01*
X016888Y041408D02*
X016546Y041408D01*
X016631Y041311D02*
X016803Y041311D01*
X016762Y041214D02*
X016671Y041214D01*
X016684Y041118D02*
X016749Y041118D01*
X016749Y041021D02*
X016684Y041021D01*
X016684Y040924D02*
X016749Y040924D01*
X016749Y040827D02*
X016684Y040827D01*
X016684Y040730D02*
X016749Y040730D01*
X016749Y040633D02*
X016684Y040633D01*
X016684Y040536D02*
X016749Y040536D01*
X016777Y040439D02*
X016656Y040439D01*
X016607Y040342D02*
X016827Y040342D01*
X016924Y040245D02*
X016510Y040245D01*
X016049Y040245D02*
X015635Y040245D01*
X015732Y040342D02*
X015952Y040342D01*
X015902Y040439D02*
X015781Y040439D01*
X015809Y040536D02*
X015874Y040536D01*
X015874Y040633D02*
X015809Y040633D01*
X015809Y040730D02*
X015874Y040730D01*
X015874Y040827D02*
X015809Y040827D01*
X015809Y040924D02*
X015874Y040924D01*
X015874Y041021D02*
X015809Y041021D01*
X015809Y041118D02*
X015874Y041118D01*
X015887Y041214D02*
X015796Y041214D01*
X015756Y041311D02*
X015928Y041311D01*
X016013Y041408D02*
X015671Y041408D01*
X015138Y041408D02*
X004212Y041408D01*
X004140Y041311D02*
X015053Y041311D01*
X015012Y041214D02*
X004043Y041214D01*
X003946Y041118D02*
X014999Y041118D01*
X014999Y041021D02*
X003849Y041021D01*
X003669Y040924D02*
X014999Y040924D01*
X014999Y040827D02*
X003478Y040827D01*
X003038Y040730D02*
X014999Y040730D01*
X014999Y040633D02*
X001396Y040633D01*
X001396Y040730D02*
X002793Y040730D01*
X002353Y040827D02*
X001396Y040827D01*
X001396Y040924D02*
X002162Y040924D01*
X001982Y041021D02*
X001396Y041021D01*
X001396Y041118D02*
X001885Y041118D01*
X001788Y041214D02*
X001396Y041214D01*
X001396Y041311D02*
X001691Y041311D01*
X001619Y041408D02*
X001396Y041408D01*
X001396Y041505D02*
X001569Y041505D01*
X001520Y041602D02*
X001396Y041602D01*
X001396Y041699D02*
X001470Y041699D01*
X001421Y041796D02*
X001396Y041796D01*
X001396Y041893D02*
X001406Y041893D01*
X001396Y040536D02*
X014999Y040536D01*
X015027Y040439D02*
X001396Y040439D01*
X001396Y040342D02*
X015077Y040342D01*
X015174Y040245D02*
X001396Y040245D01*
X001396Y040148D02*
X025357Y040148D01*
X025357Y040051D02*
X001396Y040051D01*
X001396Y039954D02*
X025357Y039954D01*
X025357Y039857D02*
X001396Y039857D01*
X001396Y039760D02*
X025357Y039760D01*
X025357Y039663D02*
X001396Y039663D01*
X001396Y039566D02*
X025357Y039566D01*
X025357Y039469D02*
X001396Y039469D01*
X001396Y039372D02*
X025357Y039372D01*
X025357Y039275D02*
X001396Y039275D01*
X001396Y039178D02*
X025357Y039178D01*
X025357Y039081D02*
X001396Y039081D01*
X001396Y038984D02*
X025357Y038984D01*
X025357Y038887D02*
X001396Y038887D01*
X001396Y038790D02*
X025357Y038790D01*
X025357Y038693D02*
X001396Y038693D01*
X001396Y038596D02*
X025357Y038596D01*
X025357Y038499D02*
X001396Y038499D01*
X001396Y038402D02*
X025357Y038402D01*
X025357Y038305D02*
X001396Y038305D01*
X001396Y038208D02*
X025357Y038208D01*
X025357Y038111D02*
X001396Y038111D01*
X001396Y038015D02*
X025357Y038015D01*
X025357Y037918D02*
X001396Y037918D01*
X001396Y037821D02*
X025357Y037821D01*
X025357Y037724D02*
X001396Y037724D01*
X001396Y037627D02*
X025357Y037627D01*
X025357Y037530D02*
X001396Y037530D01*
X001396Y037433D02*
X025357Y037433D01*
X025357Y037336D02*
X001396Y037336D01*
X001396Y037239D02*
X025357Y037239D01*
X025357Y037142D02*
X001396Y037142D01*
X001396Y037045D02*
X025357Y037045D01*
X025357Y036948D02*
X001396Y036948D01*
X001396Y036851D02*
X025357Y036851D01*
X025357Y036754D02*
X001396Y036754D01*
X001396Y036657D02*
X025357Y036657D01*
X025357Y036560D02*
X008096Y036560D01*
X008330Y036463D02*
X015217Y036463D01*
X015175Y036445D02*
X015061Y036331D01*
X014999Y036183D01*
X014999Y035506D01*
X015061Y035358D01*
X015175Y035244D01*
X015324Y035182D01*
X015485Y035182D01*
X015634Y035244D01*
X015748Y035358D01*
X015809Y035506D01*
X015809Y036183D01*
X015748Y036331D01*
X015634Y036445D01*
X015485Y036507D01*
X015324Y036507D01*
X015175Y036445D01*
X015095Y036366D02*
X008457Y036366D01*
X008554Y036269D02*
X015035Y036269D01*
X014999Y036172D02*
X008651Y036172D01*
X008699Y036075D02*
X014999Y036075D01*
X014999Y035978D02*
X008739Y035978D01*
X008779Y035881D02*
X014999Y035881D01*
X014999Y035784D02*
X008816Y035784D01*
X008816Y035687D02*
X014999Y035687D01*
X014999Y035590D02*
X008816Y035590D01*
X008816Y035493D02*
X015005Y035493D01*
X015045Y035396D02*
X008816Y035396D01*
X008778Y035299D02*
X015119Y035299D01*
X015274Y035202D02*
X008738Y035202D01*
X008697Y035105D02*
X025357Y035105D01*
X025354Y035009D02*
X008648Y035009D01*
X008551Y034912D02*
X025288Y034912D01*
X025266Y034815D02*
X008454Y034815D01*
X008323Y034718D02*
X025277Y034718D01*
X025327Y034621D02*
X022204Y034621D01*
X022298Y034427D02*
X057584Y034427D01*
X057584Y034330D02*
X022289Y034330D01*
X022242Y034233D02*
X057584Y034233D01*
X054262Y032099D02*
X007469Y032099D01*
X007600Y032002D02*
X054131Y032002D01*
X054051Y031906D02*
X007680Y031906D01*
X007720Y031809D02*
X054011Y031809D01*
X053987Y031712D02*
X007744Y031712D01*
X007744Y031615D02*
X053987Y031615D01*
X054002Y031518D02*
X007729Y031518D01*
X007689Y031421D02*
X054042Y031421D01*
X054108Y031324D02*
X007623Y031324D01*
X007525Y031227D02*
X054206Y031227D01*
X053609Y030354D02*
X057584Y030354D01*
X057584Y030451D02*
X008668Y030451D01*
X008765Y030354D02*
X053404Y030354D01*
X053269Y030257D02*
X008862Y030257D01*
X008909Y030160D02*
X053172Y030160D01*
X053075Y030063D02*
X008919Y030063D01*
X008919Y029966D02*
X052978Y029966D01*
X052881Y029869D02*
X008919Y029869D01*
X008919Y029772D02*
X052784Y029772D01*
X052687Y029675D02*
X011800Y029675D01*
X011795Y028899D02*
X037470Y028899D01*
X037386Y028803D02*
X011809Y028803D01*
X011807Y028124D02*
X031983Y028124D01*
X031886Y028027D02*
X011809Y028027D01*
X011809Y027348D02*
X014085Y027348D01*
X014182Y027251D02*
X011809Y027251D01*
X011809Y027154D02*
X014279Y027154D01*
X014376Y027057D02*
X011809Y027057D01*
X011809Y026960D02*
X014473Y026960D01*
X014570Y026863D02*
X011809Y026863D01*
X011809Y026766D02*
X014667Y026766D01*
X014764Y026669D02*
X011809Y026669D01*
X011809Y026572D02*
X014861Y026572D01*
X014958Y026475D02*
X011809Y026475D01*
X011809Y026378D02*
X015022Y026378D01*
X015022Y026281D02*
X011809Y026281D01*
X011809Y026184D02*
X015022Y026184D01*
X015022Y026087D02*
X011809Y026087D01*
X011809Y025990D02*
X015022Y025990D01*
X015022Y025893D02*
X011809Y025893D01*
X011809Y025796D02*
X015022Y025796D01*
X015022Y025506D02*
X012826Y025506D01*
X012923Y025409D02*
X015022Y025409D01*
X015022Y025312D02*
X013020Y025312D01*
X013117Y025215D02*
X015022Y025215D01*
X015022Y025118D02*
X013209Y025118D01*
X013249Y025021D02*
X015022Y025021D01*
X015022Y024924D02*
X013250Y024924D01*
X013220Y024827D02*
X015022Y024827D01*
X015022Y024730D02*
X013144Y024730D01*
X012766Y024730D02*
X012420Y024730D01*
X012517Y024633D02*
X015022Y024633D01*
X015022Y024536D02*
X012614Y024536D01*
X012711Y024439D02*
X015022Y024439D01*
X015022Y024342D02*
X012808Y024342D01*
X012905Y024245D02*
X015022Y024245D01*
X015022Y024148D02*
X013002Y024148D01*
X013099Y024051D02*
X015047Y024051D01*
X015117Y023954D02*
X013196Y023954D01*
X013242Y023857D02*
X029244Y023857D01*
X029244Y023760D02*
X013250Y023760D01*
X012167Y024148D02*
X011768Y024148D01*
X011809Y024245D02*
X012070Y024245D01*
X012307Y024827D02*
X012669Y024827D01*
X012572Y024924D02*
X011809Y024924D01*
X011809Y025021D02*
X012475Y025021D01*
X012729Y025603D02*
X012620Y025648D01*
X011809Y025648D01*
X011809Y025729D01*
X010884Y026435D02*
X009534Y026435D01*
X008919Y027050D01*
X008919Y027251D02*
X009515Y027251D01*
X009510Y027348D02*
X008919Y027348D01*
X008919Y027445D02*
X009537Y027445D01*
X009609Y027542D02*
X008919Y027542D01*
X008919Y027639D02*
X010884Y027639D01*
X010884Y027736D02*
X008919Y027736D01*
X008919Y027833D02*
X010884Y027833D01*
X010884Y027930D02*
X008919Y027930D01*
X008919Y028027D02*
X010884Y028027D01*
X010886Y028124D02*
X008919Y028124D01*
X008919Y028221D02*
X010884Y028221D01*
X010884Y028318D02*
X008919Y028318D01*
X008919Y028415D02*
X010884Y028415D01*
X010884Y028512D02*
X008919Y028512D01*
X008919Y028609D02*
X010884Y028609D01*
X010884Y028706D02*
X008919Y028706D01*
X008919Y028803D02*
X010884Y028803D01*
X010898Y028899D02*
X008919Y028899D01*
X008919Y028996D02*
X010884Y028996D01*
X010884Y029093D02*
X008919Y029093D01*
X008919Y029190D02*
X010884Y029190D01*
X010884Y029287D02*
X008919Y029287D01*
X008919Y029384D02*
X010884Y029384D01*
X010884Y029481D02*
X008919Y029481D01*
X008919Y029578D02*
X010884Y029578D01*
X010894Y029675D02*
X008919Y029675D01*
X008571Y030548D02*
X057584Y030548D01*
X057584Y030645D02*
X008474Y030645D01*
X010002Y027542D02*
X010884Y027542D01*
X010884Y027445D02*
X010099Y027445D01*
X010196Y027348D02*
X010884Y027348D01*
X010884Y027251D02*
X010293Y027251D01*
X009846Y026863D02*
X009106Y026863D01*
X009203Y026766D02*
X009943Y026766D01*
X010032Y026677D02*
X009555Y027154D01*
X009300Y026669D02*
X010050Y026669D01*
X010032Y026677D02*
X010140Y026632D01*
X010258Y026632D01*
X010884Y026632D01*
X010884Y026551D01*
X010902Y026534D01*
X010884Y026516D01*
X010884Y026435D01*
X010884Y026475D02*
X009494Y026475D01*
X009397Y026572D02*
X010884Y026572D01*
X013047Y028221D02*
X032080Y028221D01*
X032177Y028318D02*
X013188Y028318D01*
X013238Y028415D02*
X032274Y028415D01*
X032371Y028512D02*
X013250Y028512D01*
X013230Y028609D02*
X032468Y028609D01*
X032640Y028502D02*
X037364Y028502D01*
X037758Y028896D01*
X038046Y028899D02*
X057584Y028899D01*
X057584Y028803D02*
X038031Y028803D01*
X037885Y028609D02*
X037816Y028609D01*
X037864Y028512D02*
X037652Y028512D01*
X037555Y028415D02*
X037786Y028415D01*
X037689Y028318D02*
X037458Y028318D01*
X037758Y028108D02*
X038152Y028502D01*
X038355Y028706D02*
X057584Y028706D01*
X057584Y028609D02*
X038419Y028609D01*
X038439Y028512D02*
X057584Y028512D01*
X057584Y028415D02*
X038427Y028415D01*
X038281Y028221D02*
X038224Y028221D01*
X038258Y028124D02*
X038052Y028124D01*
X037955Y028027D02*
X038186Y028027D01*
X038089Y027930D02*
X037858Y027930D01*
X037758Y028108D02*
X033034Y028108D01*
X031853Y026927D01*
X031853Y025746D01*
X032104Y025603D02*
X057584Y025603D01*
X057584Y025700D02*
X032140Y025700D01*
X032140Y025796D02*
X057584Y025796D01*
X057584Y025893D02*
X032103Y025893D01*
X032049Y025990D02*
X057584Y025990D01*
X057584Y026087D02*
X032049Y026087D01*
X032049Y026184D02*
X057584Y026184D01*
X057584Y026281D02*
X032049Y026281D01*
X032049Y026378D02*
X057584Y026378D01*
X057584Y026475D02*
X032049Y026475D01*
X032049Y026572D02*
X057584Y026572D01*
X057584Y026669D02*
X032769Y026669D01*
X032885Y026766D02*
X057584Y026766D01*
X057584Y026863D02*
X032925Y026863D01*
X032951Y026960D02*
X057584Y026960D01*
X057584Y027057D02*
X035904Y027057D01*
X035675Y027057D02*
X033048Y027057D01*
X033145Y027154D02*
X035550Y027154D01*
X035507Y027251D02*
X033242Y027251D01*
X033339Y027348D02*
X035502Y027348D01*
X035530Y027445D02*
X033436Y027445D01*
X033427Y027715D02*
X032640Y026927D01*
X032511Y026669D02*
X032049Y026669D01*
X032049Y026766D02*
X032395Y026766D01*
X032355Y026863D02*
X032067Y026863D01*
X032164Y026960D02*
X032352Y026960D01*
X032382Y027057D02*
X032261Y027057D01*
X032358Y027154D02*
X032460Y027154D01*
X032455Y027251D02*
X032685Y027251D01*
X032782Y027348D02*
X032552Y027348D01*
X032649Y027445D02*
X032879Y027445D01*
X032976Y027542D02*
X032746Y027542D01*
X032843Y027639D02*
X033073Y027639D01*
X033170Y027736D02*
X032940Y027736D01*
X033037Y027833D02*
X033267Y027833D01*
X033427Y027715D02*
X038152Y027715D01*
X038546Y028108D01*
X038810Y028221D02*
X057584Y028221D01*
X057584Y028318D02*
X038743Y028318D01*
X038833Y028124D02*
X057584Y028124D01*
X057584Y028027D02*
X038823Y028027D01*
X039131Y027930D02*
X057584Y027930D01*
X057584Y027833D02*
X039202Y027833D01*
X039227Y027736D02*
X057584Y027736D01*
X057584Y027639D02*
X039219Y027639D01*
X039173Y027542D02*
X057584Y027542D01*
X057584Y027445D02*
X039040Y027445D01*
X038851Y027348D02*
X057584Y027348D01*
X057584Y027251D02*
X038754Y027251D01*
X038657Y027154D02*
X057584Y027154D01*
X057584Y025506D02*
X032019Y025506D01*
X031896Y025409D02*
X031681Y025409D01*
X031686Y025506D02*
X031584Y025506D01*
X031601Y025603D02*
X031487Y025603D01*
X031459Y025700D02*
X031565Y025700D01*
X031565Y025796D02*
X031459Y025796D01*
X031459Y025893D02*
X031602Y025893D01*
X031656Y025990D02*
X031459Y025990D01*
X031459Y026087D02*
X031656Y026087D01*
X031656Y026184D02*
X031459Y026184D01*
X031459Y026281D02*
X031656Y026281D01*
X031656Y026378D02*
X031459Y026378D01*
X031459Y026475D02*
X031656Y026475D01*
X031656Y026572D02*
X031459Y026572D01*
X031459Y026669D02*
X031656Y026669D01*
X031656Y026766D02*
X031459Y026766D01*
X031459Y026863D02*
X031656Y026863D01*
X031656Y026960D02*
X031459Y026960D01*
X031473Y027057D02*
X031704Y027057D01*
X031771Y027124D02*
X031771Y027124D01*
X031801Y027154D02*
X031570Y027154D01*
X031667Y027251D02*
X031898Y027251D01*
X031995Y027348D02*
X031764Y027348D01*
X031861Y027445D02*
X032092Y027445D01*
X032189Y027542D02*
X031958Y027542D01*
X032055Y027639D02*
X032286Y027639D01*
X032383Y027736D02*
X032152Y027736D01*
X032249Y027833D02*
X032480Y027833D01*
X032577Y027930D02*
X032346Y027930D01*
X032443Y028027D02*
X032674Y028027D01*
X032771Y028124D02*
X032540Y028124D01*
X032637Y028221D02*
X032868Y028221D01*
X032837Y028190D02*
X032837Y028190D01*
X032640Y028502D02*
X031262Y027124D01*
X031262Y025549D01*
X031607Y025205D01*
X032099Y025205D01*
X032302Y025409D02*
X057584Y025409D01*
X057584Y025312D02*
X032366Y025312D01*
X032386Y025215D02*
X057584Y025215D01*
X057584Y025118D02*
X032374Y025118D01*
X032321Y025021D02*
X057584Y025021D01*
X057584Y024924D02*
X032172Y024924D01*
X032025Y024924D02*
X030032Y024924D01*
X030032Y024827D02*
X057584Y024827D01*
X057584Y024730D02*
X030032Y024730D01*
X030032Y024633D02*
X057584Y024633D01*
X057584Y024536D02*
X030032Y024536D01*
X030032Y024439D02*
X057584Y024439D01*
X057584Y024342D02*
X030032Y024342D01*
X030032Y024245D02*
X057584Y024245D01*
X057584Y024148D02*
X030032Y024148D01*
X030032Y024051D02*
X057584Y024051D01*
X057584Y023954D02*
X030032Y023954D01*
X030032Y023857D02*
X057584Y023857D01*
X057584Y023760D02*
X030032Y023760D01*
X030032Y023663D02*
X032169Y023663D01*
X032189Y023672D02*
X032083Y023628D01*
X032002Y023547D01*
X031959Y023441D01*
X031959Y023375D01*
X031705Y023121D01*
X031705Y022958D01*
X031705Y022659D01*
X031658Y022612D01*
X031614Y022506D01*
X031614Y022392D01*
X031658Y022286D01*
X031739Y022205D01*
X031845Y022161D01*
X031959Y022161D01*
X032065Y022205D01*
X032146Y022286D01*
X032189Y022392D01*
X032189Y022506D01*
X032146Y022612D01*
X032099Y022659D01*
X032099Y022958D01*
X032237Y023096D01*
X032304Y023096D01*
X032409Y023140D01*
X032490Y023221D01*
X032534Y023327D01*
X032534Y023441D01*
X032490Y023547D01*
X032409Y023628D01*
X032304Y023672D01*
X032189Y023672D01*
X032324Y023663D02*
X057584Y023663D01*
X057584Y023566D02*
X032471Y023566D01*
X032522Y023469D02*
X057584Y023469D01*
X057584Y023372D02*
X032534Y023372D01*
X032513Y023275D02*
X032970Y023275D01*
X032976Y023278D02*
X032871Y023234D01*
X032790Y023153D01*
X032746Y023047D01*
X032746Y022933D01*
X032790Y022827D01*
X032871Y022746D01*
X032976Y022703D01*
X033091Y022703D01*
X033197Y022746D01*
X033244Y022793D01*
X033346Y022793D01*
X034018Y022121D01*
X034018Y021232D01*
X033971Y021185D01*
X033927Y021079D01*
X033927Y020964D01*
X033971Y020859D01*
X034052Y020778D01*
X034158Y020734D01*
X034272Y020734D01*
X034378Y020778D01*
X034459Y020859D01*
X034502Y020964D01*
X034502Y021079D01*
X034459Y021185D01*
X034412Y021232D01*
X034412Y022284D01*
X034296Y022400D01*
X033509Y023187D01*
X033346Y023187D01*
X033244Y023187D01*
X033197Y023234D01*
X033091Y023278D01*
X032976Y023278D01*
X033097Y023275D02*
X057584Y023275D01*
X057584Y023178D02*
X033518Y023178D01*
X033615Y023081D02*
X057584Y023081D01*
X057584Y022984D02*
X033712Y022984D01*
X033809Y022887D02*
X057584Y022887D01*
X057584Y022790D02*
X033906Y022790D01*
X034002Y022694D02*
X057584Y022694D01*
X057584Y022597D02*
X034099Y022597D01*
X034196Y022500D02*
X057584Y022500D01*
X057584Y022403D02*
X034293Y022403D01*
X034390Y022306D02*
X034737Y022306D01*
X034771Y022340D02*
X034657Y022225D01*
X034595Y022075D01*
X034595Y021393D01*
X034657Y021243D01*
X034771Y021129D01*
X034921Y021067D01*
X035083Y021067D01*
X035233Y021129D01*
X035348Y021243D01*
X035410Y021393D01*
X035410Y022075D01*
X035348Y022225D01*
X035233Y022340D01*
X035083Y022402D01*
X034921Y022402D01*
X034771Y022340D01*
X034650Y022209D02*
X034412Y022209D01*
X034412Y022112D02*
X034610Y022112D01*
X034595Y022015D02*
X034412Y022015D01*
X034412Y021918D02*
X034595Y021918D01*
X034595Y021821D02*
X034412Y021821D01*
X034412Y021724D02*
X034595Y021724D01*
X034595Y021627D02*
X034412Y021627D01*
X034412Y021530D02*
X034595Y021530D01*
X034595Y021433D02*
X034412Y021433D01*
X034412Y021336D02*
X034618Y021336D01*
X034661Y021239D02*
X034412Y021239D01*
X034476Y021142D02*
X034758Y021142D01*
X034502Y021045D02*
X057584Y021045D01*
X057584Y020948D02*
X034496Y020948D01*
X034451Y020851D02*
X057584Y020851D01*
X057584Y020754D02*
X034320Y020754D01*
X034109Y020754D02*
X033533Y020754D01*
X033485Y020734D02*
X033590Y020778D01*
X033671Y020859D01*
X033715Y020964D01*
X033715Y021079D01*
X033671Y021185D01*
X033624Y021232D01*
X033624Y021993D01*
X033671Y022040D01*
X033715Y022146D01*
X033715Y022260D01*
X033671Y022366D01*
X033590Y022447D01*
X033485Y022490D01*
X033370Y022490D01*
X033264Y022447D01*
X033184Y022366D01*
X033140Y022260D01*
X033140Y022146D01*
X033184Y022040D01*
X033231Y021993D01*
X033231Y021232D01*
X033184Y021185D01*
X033140Y021079D01*
X033140Y020964D01*
X033184Y020859D01*
X033264Y020778D01*
X033370Y020734D01*
X033485Y020734D01*
X033322Y020754D02*
X028605Y020754D01*
X028605Y020657D02*
X057584Y020657D01*
X057584Y020560D02*
X028605Y020560D01*
X028605Y020463D02*
X028919Y020463D01*
X028840Y020366D02*
X028605Y020366D01*
X028605Y020269D02*
X028809Y020269D01*
X028811Y020172D02*
X028605Y020172D01*
X028605Y020075D02*
X028728Y020075D01*
X028646Y019978D02*
X028605Y019978D01*
X028605Y019881D02*
X028612Y019881D01*
X028605Y019784D02*
X028612Y019784D01*
X028900Y019841D02*
X037364Y019841D01*
X037619Y019978D02*
X057584Y019978D01*
X057584Y019881D02*
X037652Y019881D01*
X037652Y019784D02*
X057584Y019784D01*
X057584Y019687D02*
X037924Y019687D01*
X038010Y019591D02*
X057584Y019591D01*
X057584Y019494D02*
X038046Y019494D01*
X038046Y019397D02*
X057584Y019397D01*
X057584Y019300D02*
X038008Y019300D01*
X037920Y019203D02*
X057584Y019203D01*
X057584Y019106D02*
X035397Y019106D01*
X035410Y019009D02*
X057584Y019009D01*
X057584Y018912D02*
X035410Y018912D01*
X035410Y018815D02*
X057584Y018815D01*
X057584Y018718D02*
X035410Y018718D01*
X035410Y018621D02*
X057584Y018621D01*
X057584Y018524D02*
X035410Y018524D01*
X035410Y018427D02*
X057584Y018427D01*
X057584Y018330D02*
X035384Y018330D01*
X035337Y018233D02*
X057584Y018233D01*
X057584Y018136D02*
X035240Y018136D01*
X034764Y018136D02*
X032878Y018136D01*
X032975Y018233D02*
X034667Y018233D01*
X034621Y018330D02*
X033021Y018330D01*
X033048Y018427D02*
X034595Y018427D01*
X034595Y018524D02*
X033048Y018524D01*
X033048Y018621D02*
X034595Y018621D01*
X034595Y018718D02*
X033048Y018718D01*
X033048Y018815D02*
X034595Y018815D01*
X034595Y018912D02*
X033048Y018912D01*
X033048Y019009D02*
X034595Y019009D01*
X034607Y019106D02*
X033035Y019106D01*
X032995Y019203D02*
X034647Y019203D01*
X035357Y019203D02*
X037596Y019203D01*
X037758Y019447D02*
X028703Y019447D01*
X028408Y019152D02*
X028408Y021760D01*
X028580Y021932D01*
X028457Y021809D01*
X028580Y021932D02*
X029835Y023187D01*
X029835Y025057D01*
X030278Y025500D01*
X030278Y025746D01*
X030530Y025603D02*
X031065Y025603D01*
X031065Y025700D02*
X030565Y025700D01*
X030565Y025796D02*
X031065Y025796D01*
X031065Y025893D02*
X030528Y025893D01*
X030440Y025990D02*
X031065Y025990D01*
X031065Y026087D02*
X015612Y026087D01*
X015612Y025990D02*
X029329Y025990D01*
X029240Y025893D02*
X015612Y025893D01*
X015612Y025796D02*
X029203Y025796D01*
X029203Y025700D02*
X015612Y025700D01*
X015612Y025603D02*
X029239Y025603D01*
X029324Y025506D02*
X015612Y025506D01*
X015612Y025409D02*
X029613Y025409D01*
X029657Y025506D02*
X029687Y025506D01*
X029884Y025402D02*
X029884Y025746D01*
X029722Y025990D02*
X029652Y025990D01*
X030046Y025990D02*
X030116Y025990D01*
X030475Y025506D02*
X031065Y025506D01*
X031124Y025409D02*
X030465Y025409D01*
X030368Y025312D02*
X031221Y025312D01*
X031318Y025215D02*
X030271Y025215D01*
X030174Y025118D02*
X031415Y025118D01*
X031410Y025123D02*
X031410Y025123D01*
X031512Y025021D02*
X030077Y025021D01*
X029884Y025402D02*
X029638Y025156D01*
X029638Y023286D01*
X028211Y021858D01*
X028211Y018561D01*
X028014Y018364D01*
X027817Y018364D01*
X027522Y018069D01*
X027522Y013935D01*
X027128Y013541D01*
X027267Y013288D02*
X028170Y013288D01*
X028063Y013385D02*
X027374Y013385D01*
X027415Y013481D02*
X028023Y013481D01*
X028022Y013578D02*
X027444Y013578D01*
X027541Y013675D02*
X028054Y013675D01*
X028134Y013772D02*
X027638Y013772D01*
X027719Y013869D02*
X028359Y013869D01*
X028456Y013966D02*
X027719Y013966D01*
X027719Y014063D02*
X028506Y014063D01*
X028506Y014160D02*
X027719Y014160D01*
X027719Y014257D02*
X028506Y014257D01*
X028506Y014354D02*
X027719Y014354D01*
X027719Y014451D02*
X028506Y014451D01*
X028506Y014548D02*
X027719Y014548D01*
X027719Y014645D02*
X028506Y014645D01*
X028506Y014742D02*
X027719Y014742D01*
X027719Y014839D02*
X028506Y014839D01*
X028506Y014936D02*
X027719Y014936D01*
X027719Y015033D02*
X028506Y015033D01*
X028506Y015130D02*
X027719Y015130D01*
X027719Y015227D02*
X028506Y015227D01*
X028506Y015324D02*
X027719Y015324D01*
X027719Y015421D02*
X028506Y015421D01*
X028506Y015518D02*
X027719Y015518D01*
X027719Y015615D02*
X028506Y015615D01*
X028506Y015712D02*
X027719Y015712D01*
X027719Y015809D02*
X028506Y015809D01*
X028506Y015906D02*
X027719Y015906D01*
X027719Y016003D02*
X028506Y016003D01*
X028506Y016100D02*
X027719Y016100D01*
X027719Y016197D02*
X028506Y016197D01*
X028506Y016294D02*
X027719Y016294D01*
X027719Y016391D02*
X028506Y016391D01*
X028506Y016488D02*
X027719Y016488D01*
X027719Y016584D02*
X028506Y016584D01*
X028506Y016681D02*
X027719Y016681D01*
X027719Y016778D02*
X028506Y016778D01*
X028506Y016875D02*
X027719Y016875D01*
X027719Y016972D02*
X028506Y016972D01*
X028506Y017069D02*
X028419Y017069D01*
X028900Y017069D02*
X028916Y017069D01*
X028900Y016972D02*
X030475Y016972D01*
X030475Y016875D02*
X030376Y016875D01*
X030473Y016778D02*
X030475Y016778D01*
X030868Y016778D02*
X057584Y016778D01*
X057584Y016681D02*
X030868Y016681D01*
X030868Y016584D02*
X057584Y016584D01*
X057584Y016488D02*
X030868Y016488D01*
X030868Y016391D02*
X057584Y016391D01*
X057584Y016294D02*
X030868Y016294D01*
X030868Y016197D02*
X057584Y016197D01*
X057584Y016100D02*
X030868Y016100D01*
X030868Y016003D02*
X057584Y016003D01*
X057584Y015906D02*
X030868Y015906D01*
X030868Y015809D02*
X057584Y015809D01*
X057584Y015712D02*
X030868Y015712D01*
X030868Y015615D02*
X057584Y015615D01*
X057584Y015518D02*
X030868Y015518D01*
X030868Y015421D02*
X057584Y015421D01*
X057584Y015324D02*
X030868Y015324D01*
X030868Y015227D02*
X057584Y015227D01*
X057584Y015130D02*
X030868Y015130D01*
X030868Y015033D02*
X057584Y015033D01*
X057584Y014936D02*
X030868Y014936D01*
X030868Y014839D02*
X057584Y014839D01*
X057584Y014742D02*
X030868Y014742D01*
X030868Y014645D02*
X057584Y014645D01*
X057584Y014548D02*
X030868Y014548D01*
X030868Y014451D02*
X057584Y014451D01*
X057584Y014354D02*
X030868Y014354D01*
X030868Y014257D02*
X057584Y014257D01*
X057584Y014160D02*
X030868Y014160D01*
X030868Y014063D02*
X057584Y014063D01*
X057584Y013966D02*
X030868Y013966D01*
X030868Y013869D02*
X057584Y013869D01*
X057584Y013772D02*
X030787Y013772D01*
X030690Y013675D02*
X057584Y013675D01*
X057584Y013578D02*
X030593Y013578D01*
X030564Y013481D02*
X057584Y013481D01*
X057584Y013385D02*
X030524Y013385D01*
X030417Y013288D02*
X057584Y013288D01*
X057584Y016875D02*
X030868Y016875D01*
X030868Y016972D02*
X057584Y016972D01*
X057584Y017069D02*
X030868Y017069D01*
X030868Y017166D02*
X057584Y017166D01*
X057584Y017263D02*
X030868Y017263D01*
X030868Y017360D02*
X057584Y017360D01*
X057584Y017457D02*
X030868Y017457D01*
X030868Y017554D02*
X057584Y017554D01*
X057584Y017651D02*
X030868Y017651D01*
X030868Y017748D02*
X057584Y017748D01*
X057584Y017845D02*
X030868Y017845D01*
X030868Y017942D02*
X057584Y017942D01*
X057584Y018039D02*
X030868Y018039D01*
X030868Y018136D02*
X032402Y018136D01*
X032305Y018233D02*
X030786Y018233D01*
X030689Y018330D02*
X032259Y018330D01*
X032232Y018427D02*
X030592Y018427D01*
X030495Y018524D02*
X032232Y018524D01*
X032232Y018621D02*
X030398Y018621D01*
X030301Y018718D02*
X032232Y018718D01*
X032232Y018815D02*
X031086Y018815D01*
X031170Y018912D02*
X032232Y018912D01*
X032232Y019009D02*
X031205Y019009D01*
X031205Y019106D02*
X032245Y019106D01*
X032285Y019203D02*
X031167Y019203D01*
X030918Y019053D02*
X029490Y019053D01*
X029168Y018730D01*
X029168Y018337D01*
X029455Y018330D02*
X030132Y018330D01*
X030229Y018233D02*
X029436Y018233D01*
X029374Y018136D02*
X030326Y018136D01*
X030423Y018039D02*
X028900Y018039D01*
X028900Y017942D02*
X030475Y017942D01*
X030671Y018069D02*
X030671Y013935D01*
X030278Y013541D01*
X030139Y013288D02*
X028448Y013288D01*
X028556Y013385D02*
X030031Y013385D01*
X029991Y013481D02*
X028596Y013481D01*
X028625Y013578D02*
X029990Y013578D01*
X030022Y013675D02*
X028722Y013675D01*
X028819Y013772D02*
X030102Y013772D01*
X030327Y013869D02*
X028900Y013869D01*
X028900Y013966D02*
X030424Y013966D01*
X030475Y014063D02*
X028900Y014063D01*
X028900Y014160D02*
X030475Y014160D01*
X030475Y014257D02*
X028900Y014257D01*
X028900Y014354D02*
X030475Y014354D01*
X030475Y014451D02*
X028900Y014451D01*
X028900Y014548D02*
X030475Y014548D01*
X030475Y014645D02*
X028900Y014645D01*
X028900Y014742D02*
X030475Y014742D01*
X030475Y014839D02*
X028900Y014839D01*
X028900Y014936D02*
X030475Y014936D01*
X030475Y015033D02*
X028900Y015033D01*
X028900Y015130D02*
X030475Y015130D01*
X030475Y015227D02*
X028900Y015227D01*
X028900Y015324D02*
X030475Y015324D01*
X030475Y015421D02*
X028900Y015421D01*
X028900Y015518D02*
X030475Y015518D01*
X030475Y015615D02*
X028900Y015615D01*
X028900Y015712D02*
X030475Y015712D01*
X030475Y015809D02*
X028900Y015809D01*
X028900Y015906D02*
X030475Y015906D01*
X030475Y016003D02*
X028900Y016003D01*
X029449Y016100D02*
X029886Y016100D01*
X029789Y016197D02*
X029546Y016197D01*
X029615Y016294D02*
X029720Y016294D01*
X029720Y016391D02*
X029615Y016391D01*
X029615Y016488D02*
X029720Y016488D01*
X029720Y016584D02*
X029615Y016584D01*
X029570Y016681D02*
X029765Y016681D01*
X029862Y016778D02*
X029473Y016778D01*
X029376Y016875D02*
X029959Y016875D01*
X029740Y017069D02*
X029419Y017069D01*
X029516Y017166D02*
X029720Y017166D01*
X029720Y017263D02*
X029613Y017263D01*
X029615Y017360D02*
X029720Y017360D01*
X029720Y017457D02*
X029615Y017457D01*
X029615Y017554D02*
X029720Y017554D01*
X029720Y017651D02*
X029600Y017651D01*
X029503Y017748D02*
X029720Y017748D01*
X029753Y017845D02*
X029406Y017845D01*
X028929Y017845D02*
X028900Y017845D01*
X028900Y018136D02*
X028961Y018136D01*
X028506Y018136D02*
X027867Y018136D01*
X027770Y018039D02*
X028506Y018039D01*
X028506Y017942D02*
X027719Y017942D01*
X027719Y017845D02*
X027929Y017845D01*
X027832Y017748D02*
X027719Y017748D01*
X027719Y017651D02*
X027735Y017651D01*
X027719Y017554D02*
X027720Y017554D01*
X027719Y017457D02*
X027720Y017457D01*
X027719Y017360D02*
X027720Y017360D01*
X027719Y017263D02*
X027722Y017263D01*
X027719Y017166D02*
X027819Y017166D01*
X027916Y017069D02*
X027719Y017069D01*
X028406Y017845D02*
X028506Y017845D01*
X028503Y017748D02*
X028506Y017748D01*
X028506Y018233D02*
X028161Y018233D01*
X028258Y018330D02*
X028506Y018330D01*
X028506Y018427D02*
X028355Y018427D01*
X028408Y018524D02*
X028506Y018524D01*
X028506Y018621D02*
X028408Y018621D01*
X028408Y018718D02*
X028506Y018718D01*
X028466Y018815D02*
X028408Y018815D01*
X028703Y018856D02*
X028408Y019152D01*
X028703Y018856D02*
X028703Y013935D01*
X028309Y013541D01*
X030449Y016100D02*
X030475Y016100D01*
X028959Y016875D02*
X028900Y016875D01*
X029441Y018427D02*
X029710Y018427D01*
X029629Y018524D02*
X029387Y018524D01*
X029364Y018621D02*
X029596Y018621D01*
X029597Y018718D02*
X029433Y018718D01*
X029530Y018815D02*
X029637Y018815D01*
X029884Y018660D02*
X030081Y018660D01*
X030671Y018069D01*
X030749Y018815D02*
X030204Y018815D01*
X029097Y020234D02*
X036971Y020234D01*
X037227Y020366D02*
X057584Y020366D01*
X057584Y020269D02*
X037258Y020269D01*
X037256Y020172D02*
X057584Y020172D01*
X057584Y020075D02*
X037536Y020075D01*
X037149Y020463D02*
X057584Y020463D01*
X057584Y021142D02*
X035246Y021142D01*
X035343Y021239D02*
X057584Y021239D01*
X057584Y021336D02*
X035386Y021336D01*
X035410Y021433D02*
X057584Y021433D01*
X057584Y021530D02*
X035410Y021530D01*
X035410Y021627D02*
X057584Y021627D01*
X057584Y021724D02*
X035410Y021724D01*
X035410Y021821D02*
X057584Y021821D01*
X057584Y021918D02*
X035410Y021918D01*
X035410Y022015D02*
X057584Y022015D01*
X057584Y022112D02*
X035395Y022112D01*
X035355Y022209D02*
X057584Y022209D01*
X057584Y022306D02*
X035267Y022306D01*
X034215Y022203D02*
X034215Y021022D01*
X033953Y021142D02*
X033689Y021142D01*
X033715Y021045D02*
X033927Y021045D01*
X033934Y020948D02*
X033708Y020948D01*
X033664Y020851D02*
X033979Y020851D01*
X034018Y021239D02*
X033624Y021239D01*
X033624Y021336D02*
X034018Y021336D01*
X034018Y021433D02*
X033624Y021433D01*
X033624Y021530D02*
X034018Y021530D01*
X034018Y021627D02*
X033624Y021627D01*
X033624Y021724D02*
X034018Y021724D01*
X034018Y021821D02*
X033624Y021821D01*
X033624Y021918D02*
X034018Y021918D01*
X034018Y022015D02*
X033646Y022015D01*
X033701Y022112D02*
X034018Y022112D01*
X033931Y022209D02*
X033715Y022209D01*
X033696Y022306D02*
X033834Y022306D01*
X033737Y022403D02*
X033634Y022403D01*
X033640Y022500D02*
X032189Y022500D01*
X032189Y022403D02*
X033220Y022403D01*
X033159Y022306D02*
X032905Y022306D01*
X032871Y022340D02*
X032721Y022402D01*
X032559Y022402D01*
X032409Y022340D01*
X032294Y022225D01*
X032232Y022075D01*
X032232Y021393D01*
X032294Y021243D01*
X032409Y021129D01*
X032559Y021067D01*
X032721Y021067D01*
X032871Y021129D01*
X032986Y021243D01*
X033048Y021393D01*
X033048Y022075D01*
X032986Y022225D01*
X032871Y022340D01*
X032992Y022209D02*
X033140Y022209D01*
X033154Y022112D02*
X033033Y022112D01*
X033048Y022015D02*
X033209Y022015D01*
X033231Y021918D02*
X033048Y021918D01*
X033048Y021821D02*
X033231Y021821D01*
X033231Y021724D02*
X033048Y021724D01*
X033048Y021627D02*
X033231Y021627D01*
X033231Y021530D02*
X033048Y021530D01*
X033048Y021433D02*
X033231Y021433D01*
X033231Y021336D02*
X033024Y021336D01*
X032981Y021239D02*
X033231Y021239D01*
X033166Y021142D02*
X032884Y021142D01*
X033140Y021045D02*
X028605Y021045D01*
X028605Y020948D02*
X033147Y020948D01*
X033191Y020851D02*
X028605Y020851D01*
X028605Y021142D02*
X032396Y021142D01*
X032299Y021239D02*
X028605Y021239D01*
X028605Y021336D02*
X032256Y021336D01*
X032232Y021433D02*
X028605Y021433D01*
X028605Y021530D02*
X032232Y021530D01*
X032232Y021627D02*
X028605Y021627D01*
X028650Y021724D02*
X032232Y021724D01*
X032232Y021821D02*
X028747Y021821D01*
X028777Y021851D02*
X028777Y021851D01*
X028844Y021918D02*
X032232Y021918D01*
X032232Y022015D02*
X028941Y022015D01*
X029038Y022112D02*
X032247Y022112D01*
X032288Y022209D02*
X032068Y022209D01*
X032154Y022306D02*
X032375Y022306D01*
X032152Y022597D02*
X033543Y022597D01*
X033446Y022694D02*
X032099Y022694D01*
X032099Y022790D02*
X032827Y022790D01*
X032765Y022887D02*
X032099Y022887D01*
X032125Y022984D02*
X032746Y022984D01*
X032760Y023081D02*
X032222Y023081D01*
X032447Y023178D02*
X032815Y023178D01*
X033034Y022990D02*
X033427Y022990D01*
X034215Y022203D01*
X033427Y022203D02*
X033427Y021022D01*
X031735Y022209D02*
X029135Y022209D01*
X029232Y022306D02*
X031650Y022306D01*
X031614Y022403D02*
X029329Y022403D01*
X029426Y022500D02*
X031614Y022500D01*
X031652Y022597D02*
X029523Y022597D01*
X029620Y022694D02*
X031705Y022694D01*
X031705Y022790D02*
X029717Y022790D01*
X029814Y022887D02*
X031705Y022887D01*
X031705Y022984D02*
X029911Y022984D01*
X030008Y023081D02*
X031705Y023081D01*
X031762Y023178D02*
X030032Y023178D01*
X030032Y023275D02*
X031859Y023275D01*
X031956Y023372D02*
X030032Y023372D01*
X030032Y023469D02*
X031970Y023469D01*
X032022Y023566D02*
X030032Y023566D01*
X029441Y023384D02*
X029441Y024073D01*
X029244Y024051D02*
X015587Y024051D01*
X015612Y024148D02*
X029244Y024148D01*
X029335Y024245D02*
X015612Y024245D01*
X015612Y024342D02*
X029441Y024342D01*
X029441Y024439D02*
X015612Y024439D01*
X015612Y024536D02*
X029441Y024536D01*
X029441Y024633D02*
X015612Y024633D01*
X015612Y024730D02*
X029441Y024730D01*
X029441Y024827D02*
X015612Y024827D01*
X015612Y024924D02*
X029441Y024924D01*
X029441Y025021D02*
X015612Y025021D01*
X015612Y025118D02*
X029441Y025118D01*
X029441Y025215D02*
X015612Y025215D01*
X015612Y025312D02*
X029516Y025312D01*
X031065Y026184D02*
X015612Y026184D01*
X015612Y026281D02*
X031065Y026281D01*
X031065Y026378D02*
X015612Y026378D01*
X015612Y026475D02*
X031065Y026475D01*
X031065Y026572D02*
X015612Y026572D01*
X015581Y026669D02*
X031065Y026669D01*
X031065Y026766D02*
X015502Y026766D01*
X015405Y026863D02*
X031065Y026863D01*
X031065Y026960D02*
X015308Y026960D01*
X015211Y027057D02*
X031065Y027057D01*
X031065Y027154D02*
X015114Y027154D01*
X015017Y027251D02*
X031111Y027251D01*
X031208Y027348D02*
X014920Y027348D01*
X014823Y027445D02*
X031305Y027445D01*
X031401Y027542D02*
X014726Y027542D01*
X014629Y027639D02*
X031498Y027639D01*
X031595Y027736D02*
X014532Y027736D01*
X014435Y027833D02*
X031692Y027833D01*
X031789Y027930D02*
X014338Y027930D01*
X013169Y028706D02*
X037290Y028706D01*
X038546Y027321D02*
X035790Y027321D01*
X038546Y027321D02*
X038939Y027715D01*
X033349Y022790D02*
X033241Y022790D01*
X032246Y023384D02*
X031902Y023039D01*
X031902Y022449D01*
X029441Y023384D02*
X028014Y021957D01*
X028014Y018758D01*
X027916Y018660D01*
X029275Y020463D02*
X036793Y020463D01*
X029054Y023275D02*
X026798Y023275D01*
X026953Y023178D02*
X028957Y023178D01*
X028860Y023081D02*
X027008Y023081D01*
X027022Y022984D02*
X028763Y022984D01*
X028666Y022887D02*
X027003Y022887D01*
X026941Y022790D02*
X028569Y022790D01*
X028472Y022694D02*
X026931Y022694D01*
X026931Y022597D02*
X028375Y022597D01*
X028278Y022500D02*
X026931Y022500D01*
X026931Y022403D02*
X028181Y022403D01*
X028084Y022306D02*
X026931Y022306D01*
X026931Y022209D02*
X027988Y022209D01*
X027891Y022112D02*
X026931Y022112D01*
X026931Y022015D02*
X027817Y022015D01*
X027817Y021918D02*
X026931Y021918D01*
X026931Y021821D02*
X027817Y021821D01*
X027817Y021724D02*
X026931Y021724D01*
X026931Y021627D02*
X027817Y021627D01*
X027817Y021530D02*
X026998Y021530D01*
X027022Y021433D02*
X027817Y021433D01*
X027817Y021336D02*
X027013Y021336D01*
X026965Y021239D02*
X027817Y021239D01*
X027817Y021142D02*
X026826Y021142D01*
X026643Y021142D02*
X025421Y021142D01*
X025447Y021045D02*
X027817Y021045D01*
X027817Y020948D02*
X025440Y020948D01*
X025396Y020851D02*
X027817Y020851D01*
X026734Y021415D02*
X026734Y022990D01*
X026207Y022730D02*
X025553Y023384D01*
X025352Y023178D02*
X025348Y023178D01*
X025445Y023081D02*
X025578Y023081D01*
X025542Y022984D02*
X025674Y022984D01*
X025639Y022887D02*
X025771Y022887D01*
X025736Y022790D02*
X025868Y022790D01*
X025965Y022694D02*
X025750Y022694D01*
X025750Y022597D02*
X026010Y022597D01*
X026010Y022500D02*
X025750Y022500D01*
X025750Y022403D02*
X026010Y022403D01*
X026010Y022306D02*
X025750Y022306D01*
X025750Y022209D02*
X026010Y022209D01*
X025969Y022112D02*
X025750Y022112D01*
X026207Y021943D02*
X026207Y022730D01*
X025160Y022695D02*
X025160Y021022D01*
X025356Y021239D02*
X026504Y021239D01*
X026456Y021336D02*
X025356Y021336D01*
X025356Y021433D02*
X026447Y021433D01*
X026471Y021530D02*
X025631Y021530D01*
X025476Y021530D02*
X025356Y021530D01*
X024963Y021821D02*
X016354Y021821D01*
X016463Y021918D02*
X024963Y021918D01*
X024963Y022015D02*
X016531Y022015D01*
X016571Y022112D02*
X024963Y022112D01*
X024963Y022209D02*
X016582Y022209D01*
X016582Y022306D02*
X024963Y022306D01*
X024963Y022403D02*
X016552Y022403D01*
X016512Y022500D02*
X024948Y022500D01*
X024889Y022597D02*
X016418Y022597D01*
X016244Y022694D02*
X024872Y022694D01*
X024888Y022790D02*
X024186Y022790D01*
X029244Y023954D02*
X015517Y023954D01*
X015719Y018524D02*
X001396Y018524D01*
X001396Y018427D02*
X015667Y018427D01*
X015627Y018330D02*
X001396Y018330D01*
X001396Y018233D02*
X015627Y018233D01*
X015628Y018136D02*
X001396Y018136D01*
X001396Y018039D02*
X015668Y018039D01*
X015721Y017942D02*
X001396Y017942D01*
X001396Y017845D02*
X015818Y017845D01*
X020016Y033360D02*
X001396Y033360D01*
X001396Y033457D02*
X019896Y033457D01*
X019856Y033554D02*
X001396Y033554D01*
X001396Y033651D02*
X019852Y033651D01*
X019882Y033748D02*
X001396Y033748D01*
X001396Y033845D02*
X019958Y033845D01*
X020140Y033620D02*
X022010Y033620D01*
X021886Y033360D02*
X020264Y033360D01*
X020322Y033845D02*
X021828Y033845D01*
X021816Y034621D02*
X019448Y034621D01*
X019699Y035182D02*
X019860Y035182D01*
X020009Y035244D01*
X020123Y035358D01*
X020184Y035506D01*
X020184Y036183D01*
X020123Y036331D01*
X020009Y036445D01*
X019860Y036507D01*
X019699Y036507D01*
X019550Y036445D01*
X019436Y036331D01*
X019374Y036183D01*
X019374Y035506D01*
X019436Y035358D01*
X019550Y035244D01*
X019699Y035182D01*
X019649Y035202D02*
X019034Y035202D01*
X018985Y035182D02*
X019134Y035244D01*
X019248Y035358D01*
X019309Y035506D01*
X019309Y036183D01*
X019248Y036331D01*
X019134Y036445D01*
X018985Y036507D01*
X018824Y036507D01*
X018675Y036445D01*
X018561Y036331D01*
X018499Y036183D01*
X018499Y035506D01*
X018561Y035358D01*
X018675Y035244D01*
X018824Y035182D01*
X018985Y035182D01*
X018774Y035202D02*
X018159Y035202D01*
X018110Y035182D02*
X018259Y035244D01*
X018373Y035358D01*
X018434Y035506D01*
X018434Y036183D01*
X018373Y036331D01*
X018259Y036445D01*
X018110Y036507D01*
X017949Y036507D01*
X017800Y036445D01*
X017686Y036331D01*
X017624Y036183D01*
X017624Y035506D01*
X017686Y035358D01*
X017800Y035244D01*
X017949Y035182D01*
X018110Y035182D01*
X017899Y035202D02*
X017284Y035202D01*
X017235Y035182D02*
X017384Y035244D01*
X017498Y035358D01*
X017559Y035506D01*
X017559Y036183D01*
X017498Y036331D01*
X017384Y036445D01*
X017235Y036507D01*
X017074Y036507D01*
X016925Y036445D01*
X016811Y036331D01*
X016749Y036183D01*
X016749Y035506D01*
X016811Y035358D01*
X016925Y035244D01*
X017074Y035182D01*
X017235Y035182D01*
X017024Y035202D02*
X016409Y035202D01*
X016360Y035182D02*
X016509Y035244D01*
X016623Y035358D01*
X016684Y035506D01*
X016684Y036183D01*
X016623Y036331D01*
X016509Y036445D01*
X016360Y036507D01*
X016199Y036507D01*
X016050Y036445D01*
X015936Y036331D01*
X015874Y036183D01*
X015874Y035506D01*
X015936Y035358D01*
X016050Y035244D01*
X016199Y035182D01*
X016360Y035182D01*
X016149Y035202D02*
X015534Y035202D01*
X015689Y035299D02*
X015994Y035299D01*
X015920Y035396D02*
X015764Y035396D01*
X015804Y035493D02*
X015880Y035493D01*
X015874Y035590D02*
X015809Y035590D01*
X015809Y035687D02*
X015874Y035687D01*
X015874Y035784D02*
X015809Y035784D01*
X015809Y035881D02*
X015874Y035881D01*
X015874Y035978D02*
X015809Y035978D01*
X015809Y036075D02*
X015874Y036075D01*
X015874Y036172D02*
X015809Y036172D01*
X015774Y036269D02*
X015910Y036269D01*
X015970Y036366D02*
X015713Y036366D01*
X015591Y036463D02*
X016092Y036463D01*
X016466Y036463D02*
X016967Y036463D01*
X016845Y036366D02*
X016588Y036366D01*
X016649Y036269D02*
X016785Y036269D01*
X016749Y036172D02*
X016684Y036172D01*
X016684Y036075D02*
X016749Y036075D01*
X016749Y035978D02*
X016684Y035978D01*
X016684Y035881D02*
X016749Y035881D01*
X016749Y035784D02*
X016684Y035784D01*
X016684Y035687D02*
X016749Y035687D01*
X016749Y035590D02*
X016684Y035590D01*
X016679Y035493D02*
X016755Y035493D01*
X016795Y035396D02*
X016639Y035396D01*
X016564Y035299D02*
X016869Y035299D01*
X017439Y035299D02*
X017744Y035299D01*
X017670Y035396D02*
X017514Y035396D01*
X017554Y035493D02*
X017630Y035493D01*
X017624Y035590D02*
X017559Y035590D01*
X017559Y035687D02*
X017624Y035687D01*
X017624Y035784D02*
X017559Y035784D01*
X017559Y035881D02*
X017624Y035881D01*
X017624Y035978D02*
X017559Y035978D01*
X017559Y036075D02*
X017624Y036075D01*
X017624Y036172D02*
X017559Y036172D01*
X017524Y036269D02*
X017660Y036269D01*
X017720Y036366D02*
X017463Y036366D01*
X017341Y036463D02*
X017842Y036463D01*
X018216Y036463D02*
X018717Y036463D01*
X018595Y036366D02*
X018338Y036366D01*
X018399Y036269D02*
X018535Y036269D01*
X018499Y036172D02*
X018434Y036172D01*
X018434Y036075D02*
X018499Y036075D01*
X018499Y035978D02*
X018434Y035978D01*
X018434Y035881D02*
X018499Y035881D01*
X018499Y035784D02*
X018434Y035784D01*
X018434Y035687D02*
X018499Y035687D01*
X018499Y035590D02*
X018434Y035590D01*
X018429Y035493D02*
X018505Y035493D01*
X018545Y035396D02*
X018389Y035396D01*
X018314Y035299D02*
X018619Y035299D01*
X019190Y035299D02*
X019494Y035299D01*
X019420Y035396D02*
X019264Y035396D01*
X019304Y035493D02*
X019380Y035493D01*
X019374Y035590D02*
X019309Y035590D01*
X019309Y035687D02*
X019374Y035687D01*
X019374Y035784D02*
X019309Y035784D01*
X019309Y035881D02*
X019374Y035881D01*
X019374Y035978D02*
X019309Y035978D01*
X019309Y036075D02*
X019374Y036075D01*
X019374Y036172D02*
X019309Y036172D01*
X019274Y036269D02*
X019410Y036269D01*
X019470Y036366D02*
X019213Y036366D01*
X019091Y036463D02*
X019592Y036463D01*
X019966Y036463D02*
X020467Y036463D01*
X020425Y036445D02*
X020311Y036331D01*
X020249Y036183D01*
X020249Y035506D01*
X020311Y035358D01*
X020425Y035244D01*
X020574Y035182D01*
X020735Y035182D01*
X020884Y035244D01*
X020998Y035358D01*
X021059Y035506D01*
X021059Y036183D01*
X020998Y036331D01*
X020884Y036445D01*
X020735Y036507D01*
X020574Y036507D01*
X020425Y036445D01*
X020345Y036366D02*
X020088Y036366D01*
X020149Y036269D02*
X020285Y036269D01*
X020249Y036172D02*
X020184Y036172D01*
X020184Y036075D02*
X020249Y036075D01*
X020249Y035978D02*
X020184Y035978D01*
X020184Y035881D02*
X020249Y035881D01*
X020249Y035784D02*
X020184Y035784D01*
X020184Y035687D02*
X020249Y035687D01*
X020249Y035590D02*
X020184Y035590D01*
X020179Y035493D02*
X020255Y035493D01*
X020295Y035396D02*
X020139Y035396D01*
X020065Y035299D02*
X020369Y035299D01*
X020524Y035202D02*
X019909Y035202D01*
X020784Y035202D02*
X021399Y035202D01*
X021449Y035182D02*
X021610Y035182D01*
X021759Y035244D01*
X021873Y035358D01*
X021934Y035506D01*
X021934Y036183D01*
X021873Y036331D01*
X021759Y036445D01*
X021610Y036507D01*
X021449Y036507D01*
X021300Y036445D01*
X021186Y036331D01*
X021124Y036183D01*
X021124Y035506D01*
X021186Y035358D01*
X021300Y035244D01*
X021449Y035182D01*
X021659Y035202D02*
X025357Y035202D01*
X025357Y035299D02*
X021815Y035299D01*
X021889Y035396D02*
X025357Y035396D01*
X025357Y035493D02*
X021929Y035493D01*
X021934Y035590D02*
X025357Y035590D01*
X025357Y035687D02*
X021934Y035687D01*
X021934Y035784D02*
X025357Y035784D01*
X025357Y035881D02*
X021934Y035881D01*
X021934Y035978D02*
X025357Y035978D01*
X025357Y036075D02*
X021934Y036075D01*
X021934Y036172D02*
X025357Y036172D01*
X025357Y036269D02*
X021899Y036269D01*
X021838Y036366D02*
X025357Y036366D01*
X025357Y036463D02*
X021716Y036463D01*
X021342Y036463D02*
X020841Y036463D01*
X020963Y036366D02*
X021220Y036366D01*
X021160Y036269D02*
X021024Y036269D01*
X021059Y036172D02*
X021124Y036172D01*
X021124Y036075D02*
X021059Y036075D01*
X021059Y035978D02*
X021124Y035978D01*
X021124Y035881D02*
X021059Y035881D01*
X021059Y035784D02*
X021124Y035784D01*
X021124Y035687D02*
X021059Y035687D01*
X021059Y035590D02*
X021124Y035590D01*
X021130Y035493D02*
X021054Y035493D01*
X021014Y035396D02*
X021170Y035396D01*
X021244Y035299D02*
X020940Y035299D01*
X025553Y034801D02*
X025553Y041494D01*
X026341Y042282D01*
X026341Y042478D01*
X026550Y042281D02*
X026931Y042281D01*
X026931Y042184D02*
X026522Y042184D01*
X026425Y042087D02*
X026931Y042087D01*
X026931Y041990D02*
X026328Y041990D01*
X026231Y041893D02*
X026931Y041893D01*
X026931Y041796D02*
X026134Y041796D01*
X026037Y041699D02*
X026931Y041699D01*
X026931Y041602D02*
X025940Y041602D01*
X025843Y041505D02*
X026931Y041505D01*
X026931Y041408D02*
X025750Y041408D01*
X025750Y041311D02*
X026931Y041311D01*
X026931Y041214D02*
X025750Y041214D01*
X025750Y041118D02*
X026931Y041118D01*
X026931Y041021D02*
X025750Y041021D01*
X025750Y040924D02*
X026931Y040924D01*
X026931Y040827D02*
X025750Y040827D01*
X025750Y040730D02*
X026931Y040730D01*
X026931Y040633D02*
X025750Y040633D01*
X025750Y040536D02*
X026931Y040536D01*
X026931Y040439D02*
X025750Y040439D01*
X025750Y040342D02*
X026931Y040342D01*
X026931Y040245D02*
X025750Y040245D01*
X025750Y040148D02*
X026931Y040148D01*
X026931Y040051D02*
X025750Y040051D01*
X025750Y039954D02*
X026931Y039954D01*
X026931Y039857D02*
X025750Y039857D01*
X025750Y039760D02*
X026931Y039760D01*
X026931Y039663D02*
X025750Y039663D01*
X025750Y039566D02*
X026931Y039566D01*
X026931Y039469D02*
X025750Y039469D01*
X025750Y039372D02*
X026931Y039372D01*
X026931Y039275D02*
X025750Y039275D01*
X025750Y039178D02*
X026931Y039178D01*
X026931Y039081D02*
X025750Y039081D01*
X025750Y038984D02*
X026931Y038984D01*
X026931Y038887D02*
X025750Y038887D01*
X025750Y038790D02*
X026931Y038790D01*
X026931Y038693D02*
X025750Y038693D01*
X025750Y038596D02*
X026931Y038596D01*
X026931Y038499D02*
X025750Y038499D01*
X025750Y038402D02*
X026931Y038402D01*
X026931Y038305D02*
X025750Y038305D01*
X025750Y038208D02*
X026931Y038208D01*
X026931Y038111D02*
X025750Y038111D01*
X025750Y038015D02*
X026931Y038015D01*
X026931Y037918D02*
X025750Y037918D01*
X025750Y037821D02*
X026931Y037821D01*
X026931Y037724D02*
X025750Y037724D01*
X025750Y037627D02*
X026931Y037627D01*
X026931Y037530D02*
X025750Y037530D01*
X025750Y037433D02*
X026931Y037433D01*
X026931Y037336D02*
X025750Y037336D01*
X025750Y037239D02*
X026931Y037239D01*
X026931Y037142D02*
X025750Y037142D01*
X025750Y037045D02*
X026931Y037045D01*
X026931Y036948D02*
X025750Y036948D01*
X025750Y036851D02*
X026931Y036851D01*
X026931Y036754D02*
X025750Y036754D01*
X025750Y036657D02*
X026931Y036657D01*
X026931Y036560D02*
X025750Y036560D01*
X025750Y036463D02*
X026931Y036463D01*
X026931Y036366D02*
X025750Y036366D01*
X025750Y036269D02*
X026931Y036269D01*
X026931Y036172D02*
X025750Y036172D01*
X025750Y036075D02*
X026931Y036075D01*
X026931Y035978D02*
X025750Y035978D01*
X025750Y035881D02*
X026931Y035881D01*
X026931Y035784D02*
X025750Y035784D01*
X025750Y035687D02*
X026931Y035687D01*
X026931Y035590D02*
X025750Y035590D01*
X025750Y035493D02*
X026931Y035493D01*
X026931Y035396D02*
X025750Y035396D01*
X025750Y035299D02*
X026931Y035299D01*
X026931Y035202D02*
X025750Y035202D01*
X025750Y035105D02*
X026931Y035105D01*
X026929Y035009D02*
X025753Y035009D01*
X025819Y034912D02*
X026863Y034912D01*
X026841Y034815D02*
X025841Y034815D01*
X025830Y034718D02*
X026851Y034718D01*
X026902Y034621D02*
X025780Y034621D01*
X031853Y034801D02*
X031853Y042232D01*
X031065Y043020D01*
X031500Y042863D02*
X034783Y042863D01*
X034728Y042766D02*
X031597Y042766D01*
X031694Y042669D02*
X034715Y042669D01*
X034734Y042572D02*
X031791Y042572D01*
X031888Y042475D02*
X032820Y042475D01*
X032762Y042378D02*
X031985Y042378D01*
X032049Y042281D02*
X032746Y042281D01*
X032763Y042184D02*
X032049Y042184D01*
X032049Y042087D02*
X032821Y042087D01*
X032837Y041990D02*
X032049Y041990D01*
X032049Y041893D02*
X032837Y041893D01*
X032837Y041796D02*
X032049Y041796D01*
X032049Y041699D02*
X032837Y041699D01*
X032837Y041602D02*
X032049Y041602D01*
X032049Y041505D02*
X032837Y041505D01*
X032837Y041408D02*
X032049Y041408D01*
X032049Y041311D02*
X032837Y041311D01*
X032837Y041214D02*
X032049Y041214D01*
X032049Y041118D02*
X032837Y041118D01*
X032837Y041021D02*
X032049Y041021D01*
X032049Y040924D02*
X032837Y040924D01*
X032837Y040827D02*
X032049Y040827D01*
X032049Y040730D02*
X032837Y040730D01*
X032837Y040633D02*
X032049Y040633D01*
X032049Y040536D02*
X032837Y040536D01*
X032837Y040439D02*
X032049Y040439D01*
X032049Y040342D02*
X032837Y040342D01*
X032837Y040245D02*
X032049Y040245D01*
X032049Y040148D02*
X032837Y040148D01*
X032837Y040051D02*
X032049Y040051D01*
X032049Y039954D02*
X032837Y039954D01*
X032837Y039857D02*
X032049Y039857D01*
X032049Y039760D02*
X032837Y039760D01*
X032837Y039663D02*
X032049Y039663D01*
X032049Y039566D02*
X032837Y039566D01*
X032837Y039469D02*
X032049Y039469D01*
X032049Y039372D02*
X032837Y039372D01*
X032837Y039275D02*
X032049Y039275D01*
X032049Y039178D02*
X032837Y039178D01*
X032837Y039081D02*
X032049Y039081D01*
X032049Y038984D02*
X032837Y038984D01*
X032837Y038887D02*
X032049Y038887D01*
X032049Y038790D02*
X032837Y038790D01*
X032837Y038693D02*
X032049Y038693D01*
X032049Y038596D02*
X032837Y038596D01*
X032837Y038499D02*
X032049Y038499D01*
X032049Y038402D02*
X032837Y038402D01*
X032837Y038305D02*
X032049Y038305D01*
X032049Y038208D02*
X032837Y038208D01*
X032837Y038111D02*
X032049Y038111D01*
X032049Y038015D02*
X032837Y038015D01*
X032837Y037918D02*
X032049Y037918D01*
X032049Y037821D02*
X032837Y037821D01*
X032837Y037724D02*
X032049Y037724D01*
X032049Y037627D02*
X032837Y037627D01*
X032837Y037530D02*
X032049Y037530D01*
X032049Y037433D02*
X032837Y037433D01*
X032837Y037336D02*
X032049Y037336D01*
X032049Y037239D02*
X032837Y037239D01*
X032837Y037142D02*
X032049Y037142D01*
X032049Y037045D02*
X032837Y037045D01*
X032837Y036948D02*
X032049Y036948D01*
X032049Y036851D02*
X032837Y036851D01*
X032837Y036754D02*
X032049Y036754D01*
X032049Y036657D02*
X032837Y036657D01*
X032837Y036560D02*
X032049Y036560D01*
X032049Y036463D02*
X032837Y036463D01*
X032837Y036366D02*
X032049Y036366D01*
X032049Y036269D02*
X032837Y036269D01*
X032837Y036172D02*
X032049Y036172D01*
X032049Y036075D02*
X032837Y036075D01*
X032837Y035978D02*
X032049Y035978D01*
X032049Y035881D02*
X032837Y035881D01*
X032837Y035784D02*
X032049Y035784D01*
X032049Y035687D02*
X032837Y035687D01*
X032837Y035590D02*
X032049Y035590D01*
X032049Y035493D02*
X032837Y035493D01*
X032837Y035396D02*
X032049Y035396D01*
X032049Y035299D02*
X032837Y035299D01*
X032837Y035202D02*
X032049Y035202D01*
X032049Y035105D02*
X032845Y035105D01*
X032942Y035009D02*
X032052Y035009D01*
X032118Y034912D02*
X033039Y034912D01*
X033136Y034815D02*
X032140Y034815D01*
X032129Y034718D02*
X033151Y034718D01*
X033201Y034621D02*
X032079Y034621D01*
X033034Y035195D02*
X033427Y034801D01*
X033034Y035195D02*
X033034Y042282D01*
X033321Y042281D02*
X035108Y042281D01*
X035125Y042184D02*
X033305Y042184D01*
X033246Y042087D02*
X035183Y042087D01*
X035396Y042282D02*
X038152Y042282D01*
X038364Y042087D02*
X039125Y042087D01*
X039333Y041888D02*
X035790Y041888D01*
X035521Y041990D02*
X033231Y041990D01*
X033231Y041893D02*
X035502Y041893D01*
X035516Y041796D02*
X033231Y041796D01*
X033231Y041699D02*
X035571Y041699D01*
X035727Y041602D02*
X033231Y041602D01*
X033305Y042378D02*
X035125Y042378D01*
X035002Y042675D02*
X036183Y042675D01*
X034796Y042475D02*
X033247Y042475D01*
X027386Y043445D02*
X055034Y043445D01*
X055131Y043542D02*
X027308Y043542D01*
X026931Y042669D02*
X026557Y042669D01*
X026613Y042572D02*
X026931Y042572D01*
X026931Y042475D02*
X026628Y042475D01*
X026611Y042378D02*
X026931Y042378D01*
X033231Y037433D02*
X037263Y037433D01*
X037130Y037336D02*
X033231Y037336D01*
X033231Y037239D02*
X037084Y037239D01*
X037077Y037142D02*
X033231Y037142D01*
X033231Y037045D02*
X037102Y037045D01*
X037173Y036948D02*
X033231Y036948D01*
X033231Y036851D02*
X037874Y036851D01*
X037864Y036754D02*
X033231Y036754D01*
X033231Y036657D02*
X037887Y036657D01*
X037955Y036560D02*
X033231Y036560D01*
X037364Y037163D02*
X039333Y037163D01*
X039595Y037045D02*
X042001Y037045D01*
X042089Y036770D02*
X038152Y036770D01*
X038349Y036560D02*
X041892Y036560D01*
X039231Y037433D02*
X037466Y037433D01*
X037556Y036948D02*
X037923Y036948D01*
X052783Y028996D02*
X057584Y028996D01*
X057584Y029093D02*
X052940Y029093D01*
X053037Y029190D02*
X057584Y029190D01*
X057584Y029287D02*
X053134Y029287D01*
X053231Y029384D02*
X057584Y029384D01*
X057584Y029481D02*
X053328Y029481D01*
X053425Y029578D02*
X057584Y029578D01*
X057584Y029675D02*
X053522Y029675D01*
X053619Y029772D02*
X057584Y029772D01*
X057584Y029869D02*
X053716Y029869D01*
X053780Y029966D02*
X057584Y029966D01*
X057584Y030063D02*
X053801Y030063D01*
X053791Y030160D02*
X057584Y030160D01*
X057584Y030257D02*
X053743Y030257D01*
X055310Y043639D02*
X003670Y043639D01*
X003480Y043736D02*
X055501Y043736D01*
X055580Y043776D02*
X055580Y043776D01*
D20*
X042089Y036770D03*
X039333Y037163D03*
X038152Y036770D03*
X037364Y037163D03*
X033427Y034801D03*
X031853Y034801D03*
X028703Y034801D03*
X027128Y034801D03*
X025553Y034801D03*
X022010Y034408D03*
X022010Y033620D03*
X020140Y033620D03*
X019254Y034408D03*
X018467Y032439D03*
X012955Y028502D03*
X009805Y027321D03*
X012955Y024959D03*
X012955Y023778D03*
X015317Y024171D03*
X012561Y017872D03*
X011774Y015510D03*
X016105Y015510D03*
X023979Y012754D03*
X027128Y013541D03*
X028309Y013541D03*
X030278Y013541D03*
X033427Y014723D03*
X029168Y018337D03*
X029884Y018660D03*
X030918Y019053D03*
X029097Y020234D03*
X028900Y019841D03*
X028703Y019447D03*
X027916Y018660D03*
X027128Y020628D03*
X026734Y021415D03*
X026207Y021943D03*
X025553Y021809D03*
X025160Y021022D03*
X025160Y022695D03*
X025553Y023384D03*
X026734Y022990D03*
X023979Y022990D03*
X029490Y025746D03*
X029884Y025746D03*
X030278Y025746D03*
X031853Y025746D03*
X032099Y025205D03*
X033427Y026534D03*
X032640Y026927D03*
X035790Y027321D03*
X037758Y028896D03*
X038152Y028502D03*
X038546Y028108D03*
X038939Y027715D03*
X041695Y025352D03*
X035396Y022990D03*
X033427Y022203D03*
X033034Y022990D03*
X032246Y023384D03*
X031902Y022449D03*
X033427Y021022D03*
X034215Y021022D03*
X036971Y020234D03*
X037364Y019841D03*
X037758Y019447D03*
X025553Y018266D03*
X039727Y032045D03*
X046026Y032045D03*
X053506Y030077D03*
X040514Y041494D03*
X039333Y041888D03*
X038152Y042282D03*
X036183Y042675D03*
X035396Y042282D03*
X035002Y042675D03*
X035790Y041888D03*
X036183Y041494D03*
X033034Y042282D03*
X031065Y043020D03*
X028309Y042724D03*
X027128Y043315D03*
X026341Y042478D03*
X011774Y032439D03*
X008231Y030471D03*
D21*
X008624Y030077D01*
X008624Y026927D01*
X009412Y026140D01*
X011347Y026140D01*
X011347Y025352D02*
X012561Y025352D01*
X012955Y024959D01*
X012168Y024565D02*
X011347Y024565D01*
X012168Y024565D02*
X012955Y023778D01*
X015317Y024171D02*
X015317Y026534D01*
X014136Y027715D01*
X011347Y027715D01*
X011347Y028502D02*
X012955Y028502D01*
X011347Y029289D02*
X052719Y029289D01*
X053506Y030077D01*
X011347Y026927D02*
X010199Y026927D01*
X009805Y027321D01*
M02*
