G75*
G70*
%OFA0B0*%
%FSLAX24Y24*%
%IPPOS*%
%LPD*%
%AMOC8*
5,1,8,0,0,1.08239X$1,22.5*
%
%ADD10C,0.0595*%
%ADD11C,0.0600*%
%ADD12R,0.0680X0.0680*%
%ADD13OC8,0.0680*%
%ADD14C,0.0740*%
%ADD15R,0.0710X0.0710*%
%ADD16OC8,0.0600*%
%ADD17C,0.0946*%
%ADD18C,0.0785*%
%ADD19C,0.1790*%
D10*
X015404Y035587D02*
X015404Y036102D01*
X016279Y036102D02*
X016279Y035587D01*
X017154Y035587D02*
X017154Y036102D01*
X018029Y036102D02*
X018029Y035587D01*
X018904Y035587D02*
X018904Y036102D01*
X019779Y036102D02*
X019779Y035587D01*
X020654Y035587D02*
X020654Y036102D01*
X021529Y036102D02*
X021529Y035587D01*
X021529Y040587D02*
X021529Y041102D01*
X020654Y041102D02*
X020654Y040587D01*
X019779Y040587D02*
X019779Y041102D01*
X018904Y041102D02*
X018904Y040587D01*
X018029Y040587D02*
X018029Y041102D01*
X017154Y041102D02*
X017154Y040587D01*
X016279Y040587D02*
X016279Y041102D01*
X015404Y041102D02*
X015404Y040587D01*
X037451Y040587D02*
X037451Y041102D01*
X038326Y041102D02*
X038326Y040587D01*
X039201Y040587D02*
X039201Y041102D01*
X040076Y041102D02*
X040076Y040587D01*
X040952Y040587D02*
X040952Y041102D01*
X041827Y041102D02*
X041827Y040587D01*
X042702Y040587D02*
X042702Y041102D01*
X043577Y041102D02*
X043577Y040587D01*
X043577Y036102D02*
X043577Y035587D01*
X042702Y035587D02*
X042702Y036102D01*
X041827Y036102D02*
X041827Y035587D01*
X040952Y035587D02*
X040952Y036102D01*
X040076Y036102D02*
X040076Y035587D01*
X039201Y035587D02*
X039201Y036102D01*
X038326Y036102D02*
X038326Y035587D01*
X037451Y035587D02*
X037451Y036102D01*
D11*
X035002Y021994D02*
X035002Y021474D01*
X032640Y021474D02*
X032640Y021994D01*
X032640Y018994D02*
X032640Y018474D01*
X035002Y018474D02*
X035002Y018994D01*
D12*
X030168Y017451D03*
D13*
X030168Y016451D03*
X029168Y016451D03*
X029168Y017451D03*
X028168Y017451D03*
X028168Y016451D03*
D14*
X024010Y016691D03*
X020010Y016691D03*
X016105Y018234D03*
X016105Y022234D03*
D15*
X011347Y023778D03*
X011347Y024565D03*
X011347Y025352D03*
X011347Y026140D03*
X011347Y026927D03*
X011347Y027715D03*
X011347Y028502D03*
X011347Y029289D03*
D16*
X009912Y016297D03*
X008912Y016297D03*
D17*
X002916Y002911D03*
X002916Y042282D03*
X056065Y042282D03*
X056065Y002911D03*
D18*
X054488Y031652D03*
X053018Y031652D03*
X051538Y031652D03*
X007244Y031652D03*
X005774Y031652D03*
X004294Y031652D03*
D19*
X003724Y035592D03*
X007814Y035592D03*
X050968Y035592D03*
X055058Y035592D03*
M02*
