%
M48
M72
T01C0.0120
T02C0.0315
T03C0.0320
T04C0.0400
T05C0.0440
T06C0.0470
T07C0.0866
T08C0.1310
%
T01
X11774Y15510
X12561Y17872
X16105Y15510
X23979Y12754
X27128Y13541
X28309Y13541
X30278Y13541
X33427Y14723
X29168Y18337
X29884Y18660
X30918Y19053
X29097Y20234
X28900Y19841
X28703Y19447
X27916Y18660
X27128Y20628
X26734Y21415
X26207Y21943
X25553Y21809
X25160Y21022
X25160Y22695
X25553Y23384
X26734Y22990
X23979Y22990
X29490Y25746
X29884Y25746
X30278Y25746
X31853Y25746
X32099Y25205
X33427Y26534
X32640Y26927
X35790Y27321
X37758Y28896
X38152Y28502
X38546Y28108
X38939Y27715
X41695Y25352
X35396Y22990
X33427Y22203
X33034Y22990
X32246Y23384
X31902Y22449
X33427Y21022
X34215Y21022
X36971Y20234
X37364Y19841
X37758Y19447
X25553Y18266
X15317Y24171
X12955Y23778
X12955Y24959
X9805Y27321
X12955Y28502
X11774Y32439
X8231Y30471
X18467Y32439
X20140Y33620
X19254Y34408
X22010Y34408
X22010Y33620
X25553Y34801
X27128Y34801
X28703Y34801
X31853Y34801
X33427Y34801
X37364Y37163
X38152Y36770
X39333Y37163
X42089Y36770
X40514Y41494
X39333Y41888
X38152Y42282
X36183Y42675
X35396Y42282
X35002Y42675
X35790Y41888
X36183Y41494
X33034Y42282
X31065Y43020
X28309Y42724
X27128Y43315
X26341Y42478
X39727Y32045
X46026Y32045
X53506Y30077
T02
X43577Y35845
X42702Y35845
X41827Y35845
X40952Y35845
X40076Y35845
X39201Y35845
X38326Y35845
X37451Y35845
X37451Y40845
X38326Y40845
X39201Y40845
X40076Y40845
X40952Y40845
X41827Y40845
X42702Y40845
X43577Y40845
X21529Y40845
X20654Y40845
X19779Y40845
X18904Y40845
X18029Y40845
X17154Y40845
X16279Y40845
X15404Y40845
X15404Y35845
X16279Y35845
X17154Y35845
X18029Y35845
X18904Y35845
X19779Y35845
X20654Y35845
X21529Y35845
X11347Y29289
X11347Y28502
X11347Y27715
X11347Y26927
X11347Y26140
X11347Y25352
X11347Y24565
X11347Y23778
T03
X9912Y16297
X8912Y16297
X32640Y18734
X35002Y18734
X35002Y21734
X32640Y21734
T04
X30168Y17451
X30168Y16451
X29168Y16451
X29168Y17451
X28168Y17451
X28168Y16451
T05
X24010Y16691
X20010Y16691
X16105Y18234
X16105Y22234
T06
X7244Y31652
X5774Y31652
X4294Y31652
X51538Y31652
X53018Y31652
X54488Y31652
T07
X2916Y2911
X2916Y42282
X56065Y42282
X56065Y2911
T08
X55058Y35592
X50968Y35592
X7814Y35592
X3724Y35592
M30
