G75*
G70*
%OFA0B0*%
%FSLAX24Y24*%
%IPPOS*%
%LPD*%
%AMOC8*
5,1,8,0,0,1.08239X$1,22.5*
%
%ADD10C,0.0060*%
%ADD11C,0.0050*%
%ADD12C,0.0400*%
%ADD13R,0.0800X0.0200*%
%ADD14C,0.0100*%
%ADD15R,0.1000X0.0200*%
%ADD16R,0.0300X0.0750*%
%ADD17R,0.0200X0.1000*%
%ADD18R,0.0750X0.0300*%
%ADD19C,0.0120*%
%ADD20C,0.0080*%
%ADD21C,0.0200*%
D10*
X001766Y002911D02*
X001768Y002978D01*
X001774Y003046D01*
X001784Y003113D01*
X001798Y003179D01*
X001815Y003244D01*
X001837Y003308D01*
X001862Y003371D01*
X001891Y003432D01*
X001923Y003491D01*
X001959Y003548D01*
X001998Y003603D01*
X002040Y003656D01*
X002085Y003706D01*
X002133Y003753D01*
X002184Y003798D01*
X002237Y003839D01*
X002293Y003878D01*
X002351Y003913D01*
X002411Y003944D01*
X002472Y003972D01*
X002535Y003996D01*
X002599Y004017D01*
X002665Y004033D01*
X002731Y004046D01*
X002798Y004055D01*
X002865Y004060D01*
X002933Y004061D01*
X003000Y004058D01*
X003067Y004051D01*
X003134Y004040D01*
X003200Y004025D01*
X003265Y004007D01*
X003329Y003984D01*
X003391Y003958D01*
X003452Y003929D01*
X003510Y003895D01*
X003567Y003859D01*
X003622Y003819D01*
X003674Y003776D01*
X003723Y003730D01*
X003770Y003681D01*
X003814Y003630D01*
X003854Y003576D01*
X003892Y003520D01*
X003926Y003461D01*
X003956Y003401D01*
X003983Y003339D01*
X004007Y003276D01*
X004026Y003211D01*
X004042Y003146D01*
X004054Y003079D01*
X004062Y003012D01*
X004066Y002945D01*
X004066Y002877D01*
X004062Y002810D01*
X004054Y002743D01*
X004042Y002676D01*
X004026Y002611D01*
X004007Y002546D01*
X003983Y002483D01*
X003956Y002421D01*
X003926Y002361D01*
X003892Y002302D01*
X003854Y002246D01*
X003814Y002192D01*
X003770Y002141D01*
X003723Y002092D01*
X003674Y002046D01*
X003622Y002003D01*
X003567Y001963D01*
X003510Y001927D01*
X003452Y001893D01*
X003391Y001864D01*
X003329Y001838D01*
X003265Y001815D01*
X003200Y001797D01*
X003134Y001782D01*
X003067Y001771D01*
X003000Y001764D01*
X002933Y001761D01*
X002865Y001762D01*
X002798Y001767D01*
X002731Y001776D01*
X002665Y001789D01*
X002599Y001805D01*
X002535Y001826D01*
X002472Y001850D01*
X002411Y001878D01*
X002351Y001909D01*
X002293Y001944D01*
X002237Y001983D01*
X002184Y002024D01*
X002133Y002069D01*
X002085Y002116D01*
X002040Y002166D01*
X001998Y002219D01*
X001959Y002274D01*
X001923Y002331D01*
X001891Y002390D01*
X001862Y002451D01*
X001837Y002514D01*
X001815Y002578D01*
X001798Y002643D01*
X001784Y002709D01*
X001774Y002776D01*
X001768Y002844D01*
X001766Y002911D01*
X008762Y015847D02*
X010062Y015847D01*
X010088Y015849D01*
X010114Y015854D01*
X010139Y015862D01*
X010162Y015874D01*
X010184Y015888D01*
X010203Y015906D01*
X010221Y015925D01*
X010235Y015947D01*
X010247Y015970D01*
X010255Y015995D01*
X010260Y016021D01*
X010262Y016047D01*
X010262Y016547D01*
X010260Y016573D01*
X010255Y016599D01*
X010247Y016624D01*
X010235Y016647D01*
X010221Y016669D01*
X010203Y016688D01*
X010184Y016706D01*
X010162Y016720D01*
X010139Y016732D01*
X010114Y016740D01*
X010088Y016745D01*
X010062Y016747D01*
X008762Y016747D01*
X008736Y016745D01*
X008710Y016740D01*
X008685Y016732D01*
X008662Y016720D01*
X008640Y016706D01*
X008621Y016688D01*
X008603Y016669D01*
X008589Y016647D01*
X008577Y016624D01*
X008569Y016599D01*
X008564Y016573D01*
X008562Y016547D01*
X008562Y016047D01*
X008564Y016021D01*
X008569Y015995D01*
X008577Y015970D01*
X008589Y015947D01*
X008603Y015925D01*
X008621Y015906D01*
X008640Y015888D01*
X008662Y015874D01*
X008685Y015862D01*
X008710Y015854D01*
X008736Y015849D01*
X008762Y015847D01*
X008728Y017115D02*
X008874Y017115D01*
X008948Y017188D01*
X009115Y017115D02*
X009408Y017115D01*
X009261Y017115D02*
X009261Y017555D01*
X009115Y017408D01*
X008948Y017482D02*
X008874Y017555D01*
X008728Y017555D01*
X008654Y017482D01*
X008654Y017188D01*
X008728Y017115D01*
X009575Y017188D02*
X009648Y017115D01*
X009795Y017115D01*
X009869Y017188D01*
X009869Y017261D01*
X009795Y017335D01*
X009575Y017335D01*
X009575Y017188D01*
X009575Y017335D02*
X009722Y017482D01*
X009869Y017555D01*
X009909Y020658D02*
X010056Y020658D01*
X010129Y020731D01*
X010129Y021098D01*
X010296Y021098D02*
X010296Y020878D01*
X010442Y020952D01*
X010516Y020952D01*
X010589Y020878D01*
X010589Y020731D01*
X010516Y020658D01*
X010369Y020658D01*
X010296Y020731D01*
X010296Y021098D02*
X010589Y021098D01*
X009835Y021098D02*
X009835Y020731D01*
X009909Y020658D01*
X014059Y019837D02*
X014059Y019544D01*
X014280Y019544D01*
X014206Y019690D01*
X014206Y019764D01*
X014280Y019837D01*
X014426Y019837D01*
X014500Y019764D01*
X014500Y019617D01*
X014426Y019544D01*
X014500Y019377D02*
X014353Y019230D01*
X014353Y019303D02*
X014353Y019083D01*
X014500Y019083D02*
X014059Y019083D01*
X014059Y019303D01*
X014133Y019377D01*
X014280Y019377D01*
X014353Y019303D01*
X014847Y019871D02*
X014847Y020091D01*
X014920Y020164D01*
X015214Y020164D01*
X015287Y020091D01*
X015287Y019871D01*
X014847Y019871D01*
X014847Y020331D02*
X014847Y020625D01*
X014920Y020625D01*
X015214Y020331D01*
X015287Y020331D01*
X015855Y020234D02*
X016105Y020234D01*
X016355Y020234D01*
X016105Y020234D02*
X015855Y020634D01*
X016355Y020634D01*
X016105Y020234D01*
X016105Y020834D01*
X016605Y021034D02*
X015605Y021034D01*
X015605Y019434D01*
X016605Y019434D01*
X016605Y021034D01*
X016105Y020234D02*
X016105Y019984D01*
X014426Y017869D02*
X014353Y017869D01*
X014280Y017795D01*
X014280Y017575D01*
X014426Y017575D01*
X014500Y017648D01*
X014500Y017795D01*
X014426Y017869D01*
X014133Y017722D02*
X014280Y017575D01*
X014280Y017408D02*
X014353Y017335D01*
X014353Y017115D01*
X014353Y017261D02*
X014500Y017408D01*
X014280Y017408D02*
X014133Y017408D01*
X014059Y017335D01*
X014059Y017115D01*
X014500Y017115D01*
X014133Y017722D02*
X014059Y017869D01*
X021210Y017191D02*
X021210Y016191D01*
X022810Y016191D01*
X022810Y017191D01*
X021210Y017191D01*
X021760Y016691D02*
X022010Y016691D01*
X022010Y016441D01*
X022010Y016691D02*
X022010Y016941D01*
X022010Y016691D02*
X022410Y016941D01*
X022410Y016441D01*
X022010Y016691D01*
X022610Y016691D01*
X022327Y015980D02*
X022400Y015907D01*
X022400Y015834D01*
X022327Y015760D01*
X022180Y015760D01*
X022107Y015834D01*
X022107Y015907D01*
X022180Y015980D01*
X022327Y015980D01*
X022327Y015760D02*
X022400Y015687D01*
X022400Y015613D01*
X022327Y015540D01*
X022180Y015540D01*
X022107Y015613D01*
X022107Y015687D01*
X022180Y015760D01*
X021940Y015613D02*
X021940Y015907D01*
X021867Y015980D01*
X021646Y015980D01*
X021646Y015540D01*
X021867Y015540D01*
X021940Y015613D01*
X025583Y013151D02*
X025583Y013078D01*
X025657Y013004D01*
X025804Y013004D01*
X025877Y012931D01*
X025877Y012857D01*
X025804Y012784D01*
X025657Y012784D01*
X025583Y012857D01*
X025583Y013151D02*
X025657Y013224D01*
X025804Y013224D01*
X025877Y013151D01*
X026044Y013151D02*
X026044Y012857D01*
X026117Y012784D01*
X026264Y012784D01*
X026337Y012857D01*
X026504Y012784D02*
X026798Y012784D01*
X026504Y012784D02*
X026504Y013224D01*
X026337Y013151D02*
X026264Y013224D01*
X026117Y013224D01*
X026044Y013151D01*
X027552Y013151D02*
X027552Y013078D01*
X027625Y013004D01*
X027772Y013004D01*
X027845Y012931D01*
X027845Y012857D01*
X027772Y012784D01*
X027625Y012784D01*
X027552Y012857D01*
X027552Y013151D02*
X027625Y013224D01*
X027772Y013224D01*
X027845Y013151D01*
X028012Y013224D02*
X028232Y013224D01*
X028306Y013151D01*
X028306Y012857D01*
X028232Y012784D01*
X028012Y012784D01*
X028012Y013224D01*
X028473Y013078D02*
X028619Y013224D01*
X028766Y013078D01*
X028766Y012784D01*
X028766Y013004D02*
X028473Y013004D01*
X028473Y013078D02*
X028473Y012784D01*
X029520Y012857D02*
X029594Y012784D01*
X029741Y012784D01*
X029814Y012857D01*
X029814Y012931D01*
X029741Y013004D01*
X029594Y013004D01*
X029520Y013078D01*
X029520Y013151D01*
X029594Y013224D01*
X029741Y013224D01*
X029814Y013151D01*
X029981Y013151D02*
X029981Y013078D01*
X030054Y013004D01*
X030201Y013004D01*
X030274Y012931D01*
X030274Y012857D01*
X030201Y012784D01*
X030054Y012784D01*
X029981Y012857D01*
X029981Y013151D02*
X030054Y013224D01*
X030201Y013224D01*
X030274Y013151D01*
X031095Y013224D02*
X031095Y012931D01*
X031242Y012784D01*
X031389Y012931D01*
X031389Y013224D01*
X031556Y013004D02*
X031849Y013004D01*
X031702Y013151D02*
X031702Y012857D01*
X033457Y012931D02*
X033604Y012784D01*
X033751Y012931D01*
X033751Y013224D01*
X033918Y013004D02*
X034211Y013004D01*
X033457Y012931D02*
X033457Y013224D01*
X035426Y013224D02*
X035426Y012931D01*
X035573Y012784D01*
X035719Y012931D01*
X035719Y013224D01*
X035886Y013151D02*
X035886Y012857D01*
X035960Y012784D01*
X036106Y012784D01*
X036180Y012857D01*
X036347Y012857D02*
X036420Y012784D01*
X036567Y012784D01*
X036640Y012857D01*
X036347Y012857D02*
X036347Y013151D01*
X036420Y013224D01*
X036567Y013224D01*
X036640Y013151D01*
X036180Y013151D02*
X036106Y013224D01*
X035960Y013224D01*
X035886Y013151D01*
X034185Y016721D02*
X033744Y016721D01*
X033744Y016941D01*
X033818Y017015D01*
X033965Y017015D01*
X034038Y016941D01*
X034038Y016721D01*
X034038Y016868D02*
X034185Y017015D01*
X034185Y017181D02*
X034111Y017181D01*
X033818Y017475D01*
X033744Y017475D01*
X033744Y017181D01*
X031823Y017255D02*
X031749Y017181D01*
X031823Y017255D02*
X031823Y017402D01*
X031749Y017475D01*
X031676Y017475D01*
X031602Y017402D01*
X031602Y017328D01*
X031602Y017402D02*
X031529Y017475D01*
X031456Y017475D01*
X031382Y017402D01*
X031382Y017255D01*
X031456Y017181D01*
X031456Y017015D02*
X031602Y017015D01*
X031676Y016941D01*
X031676Y016721D01*
X031823Y016721D02*
X031382Y016721D01*
X031382Y016941D01*
X031456Y017015D01*
X031676Y016868D02*
X031823Y017015D01*
X031749Y017642D02*
X031823Y017715D01*
X031823Y017862D01*
X031749Y017935D01*
X031676Y017935D01*
X031602Y017862D01*
X031602Y017642D01*
X031749Y017642D01*
X031602Y017642D02*
X031456Y017789D01*
X031382Y017935D01*
X031325Y018296D02*
X031032Y018296D01*
X031178Y018296D02*
X031178Y018736D01*
X031032Y018589D01*
X030865Y018663D02*
X030865Y018516D01*
X030791Y018443D01*
X030571Y018443D01*
X030571Y018296D02*
X030571Y018736D01*
X030791Y018736D01*
X030865Y018663D01*
X030405Y018736D02*
X030258Y018736D01*
X030331Y018736D02*
X030331Y018369D01*
X030258Y018296D01*
X030184Y018296D01*
X030111Y018369D01*
X032240Y019434D02*
X032240Y021034D01*
X032242Y021051D01*
X032246Y021068D01*
X032253Y021084D01*
X032263Y021098D01*
X032276Y021111D01*
X032290Y021121D01*
X032306Y021128D01*
X032323Y021132D01*
X032340Y021134D01*
X032940Y021134D02*
X032957Y021132D01*
X032974Y021128D01*
X032990Y021121D01*
X033004Y021111D01*
X033017Y021098D01*
X033027Y021084D01*
X033034Y021068D01*
X033038Y021051D01*
X033040Y021034D01*
X033040Y019434D01*
X033038Y019417D01*
X033034Y019400D01*
X033027Y019384D01*
X033017Y019370D01*
X033004Y019357D01*
X032990Y019347D01*
X032974Y019340D01*
X032957Y019336D01*
X032940Y019334D01*
X032640Y019634D02*
X032640Y020234D01*
X032390Y020234D01*
X032640Y020234D02*
X032390Y019834D01*
X032890Y019834D01*
X032640Y020234D01*
X032890Y020234D01*
X032640Y020234D02*
X032640Y020484D01*
X033351Y020625D02*
X033424Y020478D01*
X033571Y020331D01*
X033571Y020551D01*
X033644Y020625D01*
X033718Y020625D01*
X033791Y020551D01*
X033791Y020404D01*
X033718Y020331D01*
X033571Y020331D01*
X033718Y020164D02*
X033424Y020164D01*
X033351Y020091D01*
X033351Y019871D01*
X033791Y019871D01*
X033791Y020091D01*
X033718Y020164D01*
X034752Y020234D02*
X035002Y020234D01*
X035252Y020234D01*
X035002Y020234D02*
X035252Y019834D01*
X034752Y019834D01*
X035002Y020234D01*
X035002Y019634D01*
X034702Y019334D02*
X034685Y019336D01*
X034668Y019340D01*
X034652Y019347D01*
X034638Y019357D01*
X034625Y019370D01*
X034615Y019384D01*
X034608Y019400D01*
X034604Y019417D01*
X034602Y019434D01*
X034602Y021034D01*
X034604Y021051D01*
X034608Y021068D01*
X034615Y021084D01*
X034625Y021098D01*
X034638Y021111D01*
X034652Y021121D01*
X034668Y021128D01*
X034685Y021132D01*
X034702Y021134D01*
X035302Y021134D02*
X035319Y021132D01*
X035336Y021128D01*
X035352Y021121D01*
X035366Y021111D01*
X035379Y021098D01*
X035389Y021084D01*
X035396Y021068D01*
X035400Y021051D01*
X035402Y021034D01*
X035402Y019434D01*
X035400Y019417D01*
X035396Y019400D01*
X035389Y019384D01*
X035379Y019370D01*
X035366Y019357D01*
X035352Y019347D01*
X035336Y019340D01*
X035319Y019336D01*
X035302Y019334D01*
X035713Y019871D02*
X035713Y020091D01*
X035786Y020164D01*
X036080Y020164D01*
X036153Y020091D01*
X036153Y019871D01*
X035713Y019871D01*
X035713Y020331D02*
X035933Y020331D01*
X035860Y020478D01*
X035860Y020551D01*
X035933Y020625D01*
X036080Y020625D01*
X036153Y020551D01*
X036153Y020404D01*
X036080Y020331D01*
X035713Y020331D02*
X035713Y020625D01*
X035002Y020484D02*
X035002Y020234D01*
X032340Y019334D02*
X032323Y019336D01*
X032306Y019340D01*
X032290Y019347D01*
X032276Y019357D01*
X032263Y019370D01*
X032253Y019384D01*
X032246Y019400D01*
X032242Y019417D01*
X032240Y019434D01*
X030870Y021217D02*
X028110Y021217D01*
X028110Y023837D01*
X028250Y023976D01*
X030870Y023976D01*
X030870Y021217D01*
X028269Y023677D02*
X028271Y023700D01*
X028277Y023723D01*
X028286Y023744D01*
X028299Y023764D01*
X028315Y023781D01*
X028333Y023795D01*
X028353Y023806D01*
X028375Y023814D01*
X028398Y023818D01*
X028422Y023818D01*
X028445Y023814D01*
X028467Y023806D01*
X028487Y023795D01*
X028505Y023781D01*
X028521Y023764D01*
X028534Y023744D01*
X028543Y023723D01*
X028549Y023700D01*
X028551Y023677D01*
X028549Y023654D01*
X028543Y023631D01*
X028534Y023610D01*
X028521Y023590D01*
X028505Y023573D01*
X028487Y023559D01*
X028467Y023548D01*
X028445Y023540D01*
X028422Y023536D01*
X028398Y023536D01*
X028375Y023540D01*
X028353Y023548D01*
X028333Y023559D01*
X028315Y023573D01*
X028299Y023590D01*
X028286Y023610D01*
X028277Y023631D01*
X028271Y023654D01*
X028269Y023677D01*
X028326Y024989D02*
X028252Y025062D01*
X028252Y025356D01*
X028326Y025429D01*
X028473Y025429D01*
X028546Y025356D01*
X028713Y025282D02*
X028860Y025429D01*
X028860Y024989D01*
X029006Y024989D02*
X028713Y024989D01*
X028546Y025062D02*
X028473Y024989D01*
X028326Y024989D01*
X028092Y024989D02*
X027946Y024989D01*
X028019Y024989D02*
X028019Y025429D01*
X027946Y025429D02*
X028092Y025429D01*
X032670Y025456D02*
X032743Y025382D01*
X032890Y025382D01*
X032964Y025456D01*
X032964Y025823D01*
X033130Y025749D02*
X033130Y025676D01*
X033204Y025603D01*
X033351Y025603D01*
X033424Y025529D01*
X033424Y025456D01*
X033351Y025382D01*
X033204Y025382D01*
X033130Y025456D01*
X033130Y025529D01*
X033204Y025603D01*
X033351Y025603D02*
X033424Y025676D01*
X033424Y025749D01*
X033351Y025823D01*
X033204Y025823D01*
X033130Y025749D01*
X032670Y025823D02*
X032670Y025456D01*
X034212Y026957D02*
X034505Y026957D01*
X034579Y027031D01*
X034579Y027177D01*
X034505Y027251D01*
X034579Y027418D02*
X034579Y027711D01*
X034579Y027564D02*
X034138Y027564D01*
X034285Y027418D01*
X034212Y027251D02*
X034138Y027177D01*
X034138Y027031D01*
X034212Y026957D01*
X034285Y027878D02*
X034138Y028025D01*
X034579Y028025D01*
X034579Y027878D02*
X034579Y028172D01*
X035786Y026400D02*
X035860Y026400D01*
X035933Y026326D01*
X036007Y026400D01*
X036080Y026400D01*
X036153Y026326D01*
X036153Y026180D01*
X036080Y026106D01*
X036153Y025940D02*
X036153Y025646D01*
X036153Y025793D02*
X035713Y025793D01*
X035860Y025646D01*
X035786Y025479D02*
X035713Y025406D01*
X035713Y025259D01*
X035786Y025186D01*
X036080Y025186D01*
X036153Y025259D01*
X036153Y025406D01*
X036080Y025479D01*
X035786Y026106D02*
X035713Y026180D01*
X035713Y026326D01*
X035786Y026400D01*
X035933Y026326D02*
X035933Y026253D01*
X037288Y026180D02*
X037361Y026106D01*
X037288Y026180D02*
X037288Y026326D01*
X037361Y026400D01*
X037435Y026400D01*
X037728Y026106D01*
X037728Y026400D01*
X037728Y025940D02*
X037728Y025646D01*
X037728Y025793D02*
X037288Y025793D01*
X037435Y025646D01*
X037361Y025479D02*
X037288Y025406D01*
X037288Y025259D01*
X037361Y025186D01*
X037655Y025186D01*
X037728Y025259D01*
X037728Y025406D01*
X037655Y025479D01*
X034995Y023194D02*
X034995Y023121D01*
X034921Y023047D01*
X034775Y023047D01*
X034701Y023121D01*
X034701Y023194D01*
X034775Y023268D01*
X034921Y023268D01*
X034995Y023194D01*
X034921Y023047D02*
X034995Y022974D01*
X034995Y022901D01*
X034921Y022827D01*
X034775Y022827D01*
X034701Y022901D01*
X034701Y022974D01*
X034775Y023047D01*
X034534Y023047D02*
X034461Y022974D01*
X034241Y022974D01*
X034388Y022974D02*
X034534Y022827D01*
X034534Y023047D02*
X034534Y023194D01*
X034461Y023268D01*
X034241Y023268D01*
X034241Y022827D01*
X034311Y031288D02*
X034605Y031582D01*
X034605Y031655D01*
X034532Y031728D01*
X034385Y031728D01*
X034311Y031655D01*
X034145Y031655D02*
X034145Y031508D01*
X034071Y031435D01*
X033851Y031435D01*
X033998Y031435D02*
X034145Y031288D01*
X034311Y031288D02*
X034605Y031288D01*
X034772Y031288D02*
X035065Y031288D01*
X034919Y031288D02*
X034919Y031728D01*
X034772Y031582D01*
X034145Y031655D02*
X034071Y031728D01*
X033851Y031728D01*
X033851Y031288D01*
X033097Y031361D02*
X033097Y031655D01*
X032803Y031361D01*
X032877Y031288D01*
X033023Y031288D01*
X033097Y031361D01*
X032803Y031361D02*
X032803Y031655D01*
X032877Y031728D01*
X033023Y031728D01*
X033097Y031655D01*
X032637Y031655D02*
X032637Y031582D01*
X032563Y031508D01*
X032637Y031435D01*
X032637Y031361D01*
X032563Y031288D01*
X032416Y031288D01*
X032343Y031361D01*
X032176Y031288D02*
X032029Y031435D01*
X032103Y031435D02*
X031883Y031435D01*
X031883Y031288D02*
X031883Y031728D01*
X032103Y031728D01*
X032176Y031655D01*
X032176Y031508D01*
X032103Y031435D01*
X032343Y031655D02*
X032416Y031728D01*
X032563Y031728D01*
X032637Y031655D01*
X032563Y031508D02*
X032490Y031508D01*
X031128Y031508D02*
X030835Y031508D01*
X031055Y031728D01*
X031055Y031288D01*
X030668Y031288D02*
X030374Y031288D01*
X030521Y031288D02*
X030521Y031728D01*
X030374Y031582D01*
X030208Y031655D02*
X030208Y031508D01*
X030134Y031435D01*
X029914Y031435D01*
X030061Y031435D02*
X030208Y031288D01*
X029914Y031288D02*
X029914Y031728D01*
X030134Y031728D01*
X030208Y031655D01*
X029160Y031728D02*
X028866Y031728D01*
X028866Y031508D01*
X029013Y031582D01*
X029086Y031582D01*
X029160Y031508D01*
X029160Y031361D01*
X029086Y031288D01*
X028940Y031288D01*
X028866Y031361D01*
X028700Y031288D02*
X028406Y031288D01*
X028553Y031288D02*
X028553Y031728D01*
X028406Y031582D01*
X028239Y031655D02*
X028239Y031508D01*
X028166Y031435D01*
X027946Y031435D01*
X028092Y031435D02*
X028239Y031288D01*
X027946Y031288D02*
X027946Y031728D01*
X028166Y031728D01*
X028239Y031655D01*
X027191Y031728D02*
X027045Y031655D01*
X026898Y031508D01*
X027118Y031508D01*
X027191Y031435D01*
X027191Y031361D01*
X027118Y031288D01*
X026971Y031288D01*
X026898Y031361D01*
X026898Y031508D01*
X026731Y031288D02*
X026437Y031288D01*
X026584Y031288D02*
X026584Y031728D01*
X026437Y031582D01*
X026271Y031655D02*
X026271Y031508D01*
X026197Y031435D01*
X025977Y031435D01*
X026124Y031435D02*
X026271Y031288D01*
X025977Y031288D02*
X025977Y031728D01*
X026197Y031728D01*
X026271Y031655D01*
X025223Y031655D02*
X024929Y031361D01*
X024929Y031288D01*
X024763Y031288D02*
X024469Y031288D01*
X024616Y031288D02*
X024616Y031728D01*
X024469Y031582D01*
X024302Y031655D02*
X024302Y031508D01*
X024229Y031435D01*
X024009Y031435D01*
X024155Y031435D02*
X024302Y031288D01*
X024009Y031288D02*
X024009Y031728D01*
X024229Y031728D01*
X024302Y031655D01*
X024929Y031728D02*
X025223Y031728D01*
X025223Y031655D01*
X023254Y031655D02*
X023254Y031582D01*
X023181Y031508D01*
X023034Y031508D01*
X022961Y031582D01*
X022961Y031655D01*
X023034Y031728D01*
X023181Y031728D01*
X023254Y031655D01*
X023181Y031508D02*
X023254Y031435D01*
X023254Y031361D01*
X023181Y031288D01*
X023034Y031288D01*
X022961Y031361D01*
X022961Y031435D01*
X023034Y031508D01*
X022794Y031288D02*
X022500Y031288D01*
X022647Y031288D02*
X022647Y031728D01*
X022500Y031582D01*
X022334Y031655D02*
X022334Y031508D01*
X022260Y031435D01*
X022040Y031435D01*
X022187Y031435D02*
X022334Y031288D01*
X022040Y031288D02*
X022040Y031728D01*
X022260Y031728D01*
X022334Y031655D01*
X016348Y028579D02*
X016348Y028138D01*
X016201Y028138D02*
X016495Y028138D01*
X016201Y028432D02*
X016348Y028579D01*
X016034Y028505D02*
X016034Y028359D01*
X015961Y028285D01*
X015741Y028285D01*
X015888Y028285D02*
X016034Y028138D01*
X015741Y028138D02*
X015741Y028579D01*
X015961Y028579D01*
X016034Y028505D01*
X015961Y027004D02*
X015741Y027004D01*
X015741Y026564D01*
X015741Y026710D02*
X015961Y026710D01*
X016034Y026784D01*
X016034Y026931D01*
X015961Y027004D01*
X016201Y026931D02*
X016275Y027004D01*
X016421Y027004D01*
X016495Y026931D01*
X016495Y026857D01*
X016201Y026564D01*
X016495Y026564D01*
X016034Y026564D02*
X015888Y026710D01*
X018890Y025823D02*
X018890Y025456D01*
X018964Y025382D01*
X019111Y025382D01*
X019184Y025456D01*
X019184Y025823D01*
X019351Y025823D02*
X019644Y025823D01*
X019644Y025749D01*
X019351Y025456D01*
X019351Y025382D01*
X021146Y020618D02*
X021366Y020398D01*
X021366Y020691D01*
X021586Y020618D02*
X021146Y020618D01*
X021146Y020084D02*
X021586Y020084D01*
X021586Y019937D02*
X021586Y020231D01*
X021293Y019937D02*
X021146Y020084D01*
X021219Y019771D02*
X021146Y019697D01*
X021146Y019550D01*
X021219Y019477D01*
X021513Y019477D01*
X021586Y019550D01*
X021586Y019697D01*
X021513Y019771D01*
X022327Y019697D02*
X022327Y019550D01*
X022401Y019477D01*
X022694Y019477D01*
X022767Y019550D01*
X022767Y019697D01*
X022694Y019771D01*
X022767Y019937D02*
X022767Y020231D01*
X022767Y020084D02*
X022327Y020084D01*
X022474Y019937D01*
X022401Y019771D02*
X022327Y019697D01*
X022327Y020398D02*
X022547Y020398D01*
X022474Y020544D01*
X022474Y020618D01*
X022547Y020691D01*
X022694Y020691D01*
X022767Y020618D01*
X022767Y020471D01*
X022694Y020398D01*
X022327Y020398D02*
X022327Y020691D01*
X035820Y031288D02*
X035820Y031728D01*
X036040Y031728D01*
X036113Y031655D01*
X036113Y031508D01*
X036040Y031435D01*
X035820Y031435D01*
X035966Y031435D02*
X036113Y031288D01*
X036280Y031288D02*
X036574Y031288D01*
X036427Y031288D02*
X036427Y031728D01*
X036280Y031582D01*
X036740Y031582D02*
X036740Y031655D01*
X036814Y031728D01*
X036960Y031728D01*
X037034Y031655D01*
X037034Y031361D01*
X036960Y031288D01*
X036814Y031288D01*
X036740Y031361D01*
X036814Y031508D02*
X037034Y031508D01*
X036814Y031508D02*
X036740Y031582D01*
X034345Y041524D02*
X034051Y041524D01*
X034198Y041524D02*
X034198Y041965D01*
X034051Y041818D01*
X033884Y041891D02*
X033811Y041965D01*
X033664Y041965D01*
X033591Y041891D01*
X033591Y041598D01*
X033664Y041524D01*
X033811Y041524D01*
X033884Y041598D01*
X033884Y041744D01*
X033737Y041744D01*
X033424Y041524D02*
X033130Y041524D01*
X033130Y041965D01*
X033424Y041965D01*
X033277Y041744D02*
X033130Y041744D01*
X032964Y041671D02*
X032964Y041598D01*
X032890Y041524D01*
X032743Y041524D01*
X032670Y041598D01*
X032743Y041744D02*
X032890Y041744D01*
X032964Y041671D01*
X032964Y041891D02*
X032890Y041965D01*
X032743Y041965D01*
X032670Y041891D01*
X032670Y041818D01*
X032743Y041744D01*
X050408Y038082D02*
X050408Y036417D01*
X050408Y034766D02*
X050408Y031602D01*
X051078Y031602D01*
X051998Y031602D02*
X052548Y031602D01*
X053478Y031602D02*
X054028Y031602D01*
X054958Y031602D02*
X055628Y031602D01*
X055628Y034766D01*
X055628Y036417D02*
X055628Y038082D01*
X050408Y038082D01*
X052355Y038768D02*
X052355Y039209D01*
X052575Y039209D01*
X052649Y039135D01*
X052649Y038988D01*
X052575Y038915D01*
X052355Y038915D01*
X052502Y038915D02*
X052649Y038768D01*
X052815Y038842D02*
X052889Y038768D01*
X053036Y038768D01*
X053109Y038842D01*
X053109Y038915D01*
X053036Y038988D01*
X052962Y038988D01*
X053036Y038988D02*
X053109Y039062D01*
X053109Y039135D01*
X053036Y039209D01*
X052889Y039209D01*
X052815Y039135D01*
X054915Y042282D02*
X054917Y042349D01*
X054923Y042417D01*
X054933Y042484D01*
X054947Y042550D01*
X054964Y042615D01*
X054986Y042679D01*
X055011Y042742D01*
X055040Y042803D01*
X055072Y042862D01*
X055108Y042919D01*
X055147Y042974D01*
X055189Y043027D01*
X055234Y043077D01*
X055282Y043124D01*
X055333Y043169D01*
X055386Y043210D01*
X055442Y043249D01*
X055500Y043284D01*
X055560Y043315D01*
X055621Y043343D01*
X055684Y043367D01*
X055748Y043388D01*
X055814Y043404D01*
X055880Y043417D01*
X055947Y043426D01*
X056014Y043431D01*
X056082Y043432D01*
X056149Y043429D01*
X056216Y043422D01*
X056283Y043411D01*
X056349Y043396D01*
X056414Y043378D01*
X056478Y043355D01*
X056540Y043329D01*
X056601Y043300D01*
X056659Y043266D01*
X056716Y043230D01*
X056771Y043190D01*
X056823Y043147D01*
X056872Y043101D01*
X056919Y043052D01*
X056963Y043001D01*
X057003Y042947D01*
X057041Y042891D01*
X057075Y042832D01*
X057105Y042772D01*
X057132Y042710D01*
X057156Y042647D01*
X057175Y042582D01*
X057191Y042517D01*
X057203Y042450D01*
X057211Y042383D01*
X057215Y042316D01*
X057215Y042248D01*
X057211Y042181D01*
X057203Y042114D01*
X057191Y042047D01*
X057175Y041982D01*
X057156Y041917D01*
X057132Y041854D01*
X057105Y041792D01*
X057075Y041732D01*
X057041Y041673D01*
X057003Y041617D01*
X056963Y041563D01*
X056919Y041512D01*
X056872Y041463D01*
X056823Y041417D01*
X056771Y041374D01*
X056716Y041334D01*
X056659Y041298D01*
X056601Y041264D01*
X056540Y041235D01*
X056478Y041209D01*
X056414Y041186D01*
X056349Y041168D01*
X056283Y041153D01*
X056216Y041142D01*
X056149Y041135D01*
X056082Y041132D01*
X056014Y041133D01*
X055947Y041138D01*
X055880Y041147D01*
X055814Y041160D01*
X055748Y041176D01*
X055684Y041197D01*
X055621Y041221D01*
X055560Y041249D01*
X055500Y041280D01*
X055442Y041315D01*
X055386Y041354D01*
X055333Y041395D01*
X055282Y041440D01*
X055234Y041487D01*
X055189Y041537D01*
X055147Y041590D01*
X055108Y041645D01*
X055072Y041702D01*
X055040Y041761D01*
X055011Y041822D01*
X054986Y041885D01*
X054964Y041949D01*
X054947Y042014D01*
X054933Y042080D01*
X054923Y042147D01*
X054917Y042215D01*
X054915Y042282D01*
X012297Y041891D02*
X012224Y041965D01*
X012077Y041965D01*
X012004Y041891D01*
X011837Y041891D02*
X011764Y041965D01*
X011617Y041965D01*
X011543Y041891D01*
X011543Y041598D01*
X011617Y041524D01*
X011764Y041524D01*
X011837Y041598D01*
X011837Y041744D01*
X011690Y041744D01*
X011377Y041524D02*
X011083Y041524D01*
X011083Y041965D01*
X011377Y041965D01*
X011230Y041744D02*
X011083Y041744D01*
X010916Y041671D02*
X010916Y041598D01*
X010843Y041524D01*
X010696Y041524D01*
X010623Y041598D01*
X010696Y041744D02*
X010843Y041744D01*
X010916Y041671D01*
X010916Y041891D02*
X010843Y041965D01*
X010696Y041965D01*
X010623Y041891D01*
X010623Y041818D01*
X010696Y041744D01*
X012004Y041524D02*
X012297Y041818D01*
X012297Y041891D01*
X012297Y041524D02*
X012004Y041524D01*
X008384Y038082D02*
X008384Y036417D01*
X008384Y034766D02*
X008384Y031602D01*
X007714Y031602D01*
X006784Y031602D02*
X006234Y031602D01*
X005304Y031602D02*
X004754Y031602D01*
X003834Y031602D02*
X003164Y031602D01*
X003164Y034766D01*
X003164Y036417D02*
X003164Y038082D01*
X008384Y038082D01*
X005865Y038988D02*
X005571Y038988D01*
X005791Y039209D01*
X005791Y038768D01*
X005405Y038768D02*
X005258Y038915D01*
X005331Y038915D02*
X005111Y038915D01*
X005111Y038768D02*
X005111Y039209D01*
X005331Y039209D01*
X005405Y039135D01*
X005405Y038988D01*
X005331Y038915D01*
X001766Y042282D02*
X001768Y042349D01*
X001774Y042417D01*
X001784Y042484D01*
X001798Y042550D01*
X001815Y042615D01*
X001837Y042679D01*
X001862Y042742D01*
X001891Y042803D01*
X001923Y042862D01*
X001959Y042919D01*
X001998Y042974D01*
X002040Y043027D01*
X002085Y043077D01*
X002133Y043124D01*
X002184Y043169D01*
X002237Y043210D01*
X002293Y043249D01*
X002351Y043284D01*
X002411Y043315D01*
X002472Y043343D01*
X002535Y043367D01*
X002599Y043388D01*
X002665Y043404D01*
X002731Y043417D01*
X002798Y043426D01*
X002865Y043431D01*
X002933Y043432D01*
X003000Y043429D01*
X003067Y043422D01*
X003134Y043411D01*
X003200Y043396D01*
X003265Y043378D01*
X003329Y043355D01*
X003391Y043329D01*
X003452Y043300D01*
X003510Y043266D01*
X003567Y043230D01*
X003622Y043190D01*
X003674Y043147D01*
X003723Y043101D01*
X003770Y043052D01*
X003814Y043001D01*
X003854Y042947D01*
X003892Y042891D01*
X003926Y042832D01*
X003956Y042772D01*
X003983Y042710D01*
X004007Y042647D01*
X004026Y042582D01*
X004042Y042517D01*
X004054Y042450D01*
X004062Y042383D01*
X004066Y042316D01*
X004066Y042248D01*
X004062Y042181D01*
X004054Y042114D01*
X004042Y042047D01*
X004026Y041982D01*
X004007Y041917D01*
X003983Y041854D01*
X003956Y041792D01*
X003926Y041732D01*
X003892Y041673D01*
X003854Y041617D01*
X003814Y041563D01*
X003770Y041512D01*
X003723Y041463D01*
X003674Y041417D01*
X003622Y041374D01*
X003567Y041334D01*
X003510Y041298D01*
X003452Y041264D01*
X003391Y041235D01*
X003329Y041209D01*
X003265Y041186D01*
X003200Y041168D01*
X003134Y041153D01*
X003067Y041142D01*
X003000Y041135D01*
X002933Y041132D01*
X002865Y041133D01*
X002798Y041138D01*
X002731Y041147D01*
X002665Y041160D01*
X002599Y041176D01*
X002535Y041197D01*
X002472Y041221D01*
X002411Y041249D01*
X002351Y041280D01*
X002293Y041315D01*
X002237Y041354D01*
X002184Y041395D01*
X002133Y041440D01*
X002085Y041487D01*
X002040Y041537D01*
X001998Y041590D01*
X001959Y041645D01*
X001923Y041702D01*
X001891Y041761D01*
X001862Y041822D01*
X001837Y041885D01*
X001815Y041949D01*
X001798Y042014D01*
X001784Y042080D01*
X001774Y042147D01*
X001768Y042215D01*
X001766Y042282D01*
X054915Y002911D02*
X054917Y002978D01*
X054923Y003046D01*
X054933Y003113D01*
X054947Y003179D01*
X054964Y003244D01*
X054986Y003308D01*
X055011Y003371D01*
X055040Y003432D01*
X055072Y003491D01*
X055108Y003548D01*
X055147Y003603D01*
X055189Y003656D01*
X055234Y003706D01*
X055282Y003753D01*
X055333Y003798D01*
X055386Y003839D01*
X055442Y003878D01*
X055500Y003913D01*
X055560Y003944D01*
X055621Y003972D01*
X055684Y003996D01*
X055748Y004017D01*
X055814Y004033D01*
X055880Y004046D01*
X055947Y004055D01*
X056014Y004060D01*
X056082Y004061D01*
X056149Y004058D01*
X056216Y004051D01*
X056283Y004040D01*
X056349Y004025D01*
X056414Y004007D01*
X056478Y003984D01*
X056540Y003958D01*
X056601Y003929D01*
X056659Y003895D01*
X056716Y003859D01*
X056771Y003819D01*
X056823Y003776D01*
X056872Y003730D01*
X056919Y003681D01*
X056963Y003630D01*
X057003Y003576D01*
X057041Y003520D01*
X057075Y003461D01*
X057105Y003401D01*
X057132Y003339D01*
X057156Y003276D01*
X057175Y003211D01*
X057191Y003146D01*
X057203Y003079D01*
X057211Y003012D01*
X057215Y002945D01*
X057215Y002877D01*
X057211Y002810D01*
X057203Y002743D01*
X057191Y002676D01*
X057175Y002611D01*
X057156Y002546D01*
X057132Y002483D01*
X057105Y002421D01*
X057075Y002361D01*
X057041Y002302D01*
X057003Y002246D01*
X056963Y002192D01*
X056919Y002141D01*
X056872Y002092D01*
X056823Y002046D01*
X056771Y002003D01*
X056716Y001963D01*
X056659Y001927D01*
X056601Y001893D01*
X056540Y001864D01*
X056478Y001838D01*
X056414Y001815D01*
X056349Y001797D01*
X056283Y001782D01*
X056216Y001771D01*
X056149Y001764D01*
X056082Y001761D01*
X056014Y001762D01*
X055947Y001767D01*
X055880Y001776D01*
X055814Y001789D01*
X055748Y001805D01*
X055684Y001826D01*
X055621Y001850D01*
X055560Y001878D01*
X055500Y001909D01*
X055442Y001944D01*
X055386Y001983D01*
X055333Y002024D01*
X055282Y002069D01*
X055234Y002116D01*
X055189Y002166D01*
X055147Y002219D01*
X055108Y002274D01*
X055072Y002331D01*
X055040Y002390D01*
X055011Y002451D01*
X054986Y002514D01*
X054964Y002578D01*
X054947Y002643D01*
X054933Y002709D01*
X054923Y002776D01*
X054917Y002844D01*
X054915Y002911D01*
D11*
X021542Y021990D02*
X021542Y023990D01*
X021042Y023990D01*
X019042Y023990D02*
X018542Y023990D01*
X018542Y021990D01*
X021967Y035825D02*
X026382Y035825D01*
X026382Y040865D01*
X021967Y040865D01*
X014967Y040865D02*
X010552Y040865D01*
X010552Y035825D01*
X014967Y035825D01*
X014263Y036345D02*
X014265Y036373D01*
X014271Y036401D01*
X014281Y036428D01*
X014294Y036453D01*
X014311Y036476D01*
X014330Y036497D01*
X014353Y036514D01*
X014378Y036528D01*
X014404Y036539D01*
X014432Y036546D01*
X014460Y036549D01*
X014488Y036548D01*
X014516Y036543D01*
X014543Y036534D01*
X014569Y036522D01*
X014593Y036506D01*
X014614Y036487D01*
X014632Y036465D01*
X014647Y036441D01*
X014659Y036415D01*
X014667Y036387D01*
X014671Y036359D01*
X014671Y036331D01*
X014667Y036303D01*
X014659Y036275D01*
X014647Y036249D01*
X014632Y036225D01*
X014614Y036203D01*
X014593Y036184D01*
X014569Y036168D01*
X014543Y036156D01*
X014516Y036147D01*
X014488Y036142D01*
X014460Y036141D01*
X014432Y036144D01*
X014404Y036151D01*
X014378Y036162D01*
X014353Y036176D01*
X014330Y036193D01*
X014311Y036214D01*
X014294Y036237D01*
X014281Y036262D01*
X014271Y036289D01*
X014265Y036317D01*
X014263Y036345D01*
X032599Y035825D02*
X037014Y035825D01*
X036310Y036345D02*
X036312Y036373D01*
X036318Y036401D01*
X036328Y036428D01*
X036341Y036453D01*
X036358Y036476D01*
X036377Y036497D01*
X036400Y036514D01*
X036425Y036528D01*
X036451Y036539D01*
X036479Y036546D01*
X036507Y036549D01*
X036535Y036548D01*
X036563Y036543D01*
X036590Y036534D01*
X036616Y036522D01*
X036640Y036506D01*
X036661Y036487D01*
X036679Y036465D01*
X036694Y036441D01*
X036706Y036415D01*
X036714Y036387D01*
X036718Y036359D01*
X036718Y036331D01*
X036714Y036303D01*
X036706Y036275D01*
X036694Y036249D01*
X036679Y036225D01*
X036661Y036203D01*
X036640Y036184D01*
X036616Y036168D01*
X036590Y036156D01*
X036563Y036147D01*
X036535Y036142D01*
X036507Y036141D01*
X036479Y036144D01*
X036451Y036151D01*
X036425Y036162D01*
X036400Y036176D01*
X036377Y036193D01*
X036358Y036214D01*
X036341Y036237D01*
X036328Y036262D01*
X036318Y036289D01*
X036312Y036317D01*
X036310Y036345D01*
X032599Y035825D02*
X032599Y040865D01*
X037014Y040865D01*
X044014Y040865D02*
X048429Y040865D01*
X048429Y035825D01*
X044014Y035825D01*
D12*
X043514Y038345D02*
X042514Y038345D01*
X045514Y038345D02*
X046514Y038345D01*
X038514Y038345D02*
X037514Y038345D01*
X035514Y038345D02*
X034514Y038345D01*
X024467Y038345D02*
X023467Y038345D01*
X021467Y038345D02*
X020467Y038345D01*
X016467Y038345D02*
X015467Y038345D01*
X013467Y038345D02*
X012467Y038345D01*
D13*
X032640Y020884D03*
X035002Y020884D03*
D14*
X030668Y017951D02*
X030668Y015951D01*
X027668Y015951D01*
X027668Y017951D01*
X030668Y017951D01*
D15*
X016105Y019684D03*
D16*
X016105Y019059D03*
X016105Y021409D03*
D17*
X021460Y016691D03*
D18*
X020835Y016691D03*
X023185Y016691D03*
D19*
X009532Y016597D02*
X009532Y015997D01*
X009282Y015997D02*
X009282Y016597D01*
D20*
X002325Y002911D02*
X002327Y002959D01*
X002333Y003007D01*
X002343Y003054D01*
X002356Y003100D01*
X002374Y003145D01*
X002394Y003189D01*
X002419Y003231D01*
X002447Y003270D01*
X002477Y003307D01*
X002511Y003341D01*
X002548Y003373D01*
X002586Y003402D01*
X002627Y003427D01*
X002670Y003449D01*
X002715Y003467D01*
X002761Y003481D01*
X002808Y003492D01*
X002856Y003499D01*
X002904Y003502D01*
X002952Y003501D01*
X003000Y003496D01*
X003048Y003487D01*
X003094Y003475D01*
X003139Y003458D01*
X003183Y003438D01*
X003225Y003415D01*
X003265Y003388D01*
X003303Y003358D01*
X003338Y003325D01*
X003370Y003289D01*
X003400Y003251D01*
X003426Y003210D01*
X003448Y003167D01*
X003468Y003123D01*
X003483Y003078D01*
X003495Y003031D01*
X003503Y002983D01*
X003507Y002935D01*
X003507Y002887D01*
X003503Y002839D01*
X003495Y002791D01*
X003483Y002744D01*
X003468Y002699D01*
X003448Y002655D01*
X003426Y002612D01*
X003400Y002571D01*
X003370Y002533D01*
X003338Y002497D01*
X003303Y002464D01*
X003265Y002434D01*
X003225Y002407D01*
X003183Y002384D01*
X003139Y002364D01*
X003094Y002347D01*
X003048Y002335D01*
X003000Y002326D01*
X002952Y002321D01*
X002904Y002320D01*
X002856Y002323D01*
X002808Y002330D01*
X002761Y002341D01*
X002715Y002355D01*
X002670Y002373D01*
X002627Y002395D01*
X002586Y002420D01*
X002548Y002449D01*
X002511Y002481D01*
X002477Y002515D01*
X002447Y002552D01*
X002419Y002591D01*
X002394Y002633D01*
X002374Y002677D01*
X002356Y002722D01*
X002343Y002768D01*
X002333Y002815D01*
X002327Y002863D01*
X002325Y002911D01*
X002325Y042282D02*
X002327Y042330D01*
X002333Y042378D01*
X002343Y042425D01*
X002356Y042471D01*
X002374Y042516D01*
X002394Y042560D01*
X002419Y042602D01*
X002447Y042641D01*
X002477Y042678D01*
X002511Y042712D01*
X002548Y042744D01*
X002586Y042773D01*
X002627Y042798D01*
X002670Y042820D01*
X002715Y042838D01*
X002761Y042852D01*
X002808Y042863D01*
X002856Y042870D01*
X002904Y042873D01*
X002952Y042872D01*
X003000Y042867D01*
X003048Y042858D01*
X003094Y042846D01*
X003139Y042829D01*
X003183Y042809D01*
X003225Y042786D01*
X003265Y042759D01*
X003303Y042729D01*
X003338Y042696D01*
X003370Y042660D01*
X003400Y042622D01*
X003426Y042581D01*
X003448Y042538D01*
X003468Y042494D01*
X003483Y042449D01*
X003495Y042402D01*
X003503Y042354D01*
X003507Y042306D01*
X003507Y042258D01*
X003503Y042210D01*
X003495Y042162D01*
X003483Y042115D01*
X003468Y042070D01*
X003448Y042026D01*
X003426Y041983D01*
X003400Y041942D01*
X003370Y041904D01*
X003338Y041868D01*
X003303Y041835D01*
X003265Y041805D01*
X003225Y041778D01*
X003183Y041755D01*
X003139Y041735D01*
X003094Y041718D01*
X003048Y041706D01*
X003000Y041697D01*
X002952Y041692D01*
X002904Y041691D01*
X002856Y041694D01*
X002808Y041701D01*
X002761Y041712D01*
X002715Y041726D01*
X002670Y041744D01*
X002627Y041766D01*
X002586Y041791D01*
X002548Y041820D01*
X002511Y041852D01*
X002477Y041886D01*
X002447Y041923D01*
X002419Y041962D01*
X002394Y042004D01*
X002374Y042048D01*
X002356Y042093D01*
X002343Y042139D01*
X002333Y042186D01*
X002327Y042234D01*
X002325Y042282D01*
X055474Y042282D02*
X055476Y042330D01*
X055482Y042378D01*
X055492Y042425D01*
X055505Y042471D01*
X055523Y042516D01*
X055543Y042560D01*
X055568Y042602D01*
X055596Y042641D01*
X055626Y042678D01*
X055660Y042712D01*
X055697Y042744D01*
X055735Y042773D01*
X055776Y042798D01*
X055819Y042820D01*
X055864Y042838D01*
X055910Y042852D01*
X055957Y042863D01*
X056005Y042870D01*
X056053Y042873D01*
X056101Y042872D01*
X056149Y042867D01*
X056197Y042858D01*
X056243Y042846D01*
X056288Y042829D01*
X056332Y042809D01*
X056374Y042786D01*
X056414Y042759D01*
X056452Y042729D01*
X056487Y042696D01*
X056519Y042660D01*
X056549Y042622D01*
X056575Y042581D01*
X056597Y042538D01*
X056617Y042494D01*
X056632Y042449D01*
X056644Y042402D01*
X056652Y042354D01*
X056656Y042306D01*
X056656Y042258D01*
X056652Y042210D01*
X056644Y042162D01*
X056632Y042115D01*
X056617Y042070D01*
X056597Y042026D01*
X056575Y041983D01*
X056549Y041942D01*
X056519Y041904D01*
X056487Y041868D01*
X056452Y041835D01*
X056414Y041805D01*
X056374Y041778D01*
X056332Y041755D01*
X056288Y041735D01*
X056243Y041718D01*
X056197Y041706D01*
X056149Y041697D01*
X056101Y041692D01*
X056053Y041691D01*
X056005Y041694D01*
X055957Y041701D01*
X055910Y041712D01*
X055864Y041726D01*
X055819Y041744D01*
X055776Y041766D01*
X055735Y041791D01*
X055697Y041820D01*
X055660Y041852D01*
X055626Y041886D01*
X055596Y041923D01*
X055568Y041962D01*
X055543Y042004D01*
X055523Y042048D01*
X055505Y042093D01*
X055492Y042139D01*
X055482Y042186D01*
X055476Y042234D01*
X055474Y042282D01*
X055474Y002911D02*
X055476Y002959D01*
X055482Y003007D01*
X055492Y003054D01*
X055505Y003100D01*
X055523Y003145D01*
X055543Y003189D01*
X055568Y003231D01*
X055596Y003270D01*
X055626Y003307D01*
X055660Y003341D01*
X055697Y003373D01*
X055735Y003402D01*
X055776Y003427D01*
X055819Y003449D01*
X055864Y003467D01*
X055910Y003481D01*
X055957Y003492D01*
X056005Y003499D01*
X056053Y003502D01*
X056101Y003501D01*
X056149Y003496D01*
X056197Y003487D01*
X056243Y003475D01*
X056288Y003458D01*
X056332Y003438D01*
X056374Y003415D01*
X056414Y003388D01*
X056452Y003358D01*
X056487Y003325D01*
X056519Y003289D01*
X056549Y003251D01*
X056575Y003210D01*
X056597Y003167D01*
X056617Y003123D01*
X056632Y003078D01*
X056644Y003031D01*
X056652Y002983D01*
X056656Y002935D01*
X056656Y002887D01*
X056652Y002839D01*
X056644Y002791D01*
X056632Y002744D01*
X056617Y002699D01*
X056597Y002655D01*
X056575Y002612D01*
X056549Y002571D01*
X056519Y002533D01*
X056487Y002497D01*
X056452Y002464D01*
X056414Y002434D01*
X056374Y002407D01*
X056332Y002384D01*
X056288Y002364D01*
X056243Y002347D01*
X056197Y002335D01*
X056149Y002326D01*
X056101Y002321D01*
X056053Y002320D01*
X056005Y002323D01*
X055957Y002330D01*
X055910Y002341D01*
X055864Y002355D01*
X055819Y002373D01*
X055776Y002395D01*
X055735Y002420D01*
X055697Y002449D01*
X055660Y002481D01*
X055626Y002515D01*
X055596Y002552D01*
X055568Y002591D01*
X055543Y002633D01*
X055523Y002677D01*
X055505Y002722D01*
X055492Y002768D01*
X055482Y002815D01*
X055476Y002863D01*
X055474Y002911D01*
D21*
X049858Y031652D02*
X049856Y031675D01*
X049851Y031698D01*
X049842Y031720D01*
X049829Y031740D01*
X049814Y031758D01*
X049796Y031773D01*
X049776Y031786D01*
X049754Y031795D01*
X049731Y031800D01*
X049708Y031802D01*
X049685Y031800D01*
X049662Y031795D01*
X049640Y031786D01*
X049620Y031773D01*
X049602Y031758D01*
X049587Y031740D01*
X049574Y031720D01*
X049565Y031698D01*
X049560Y031675D01*
X049558Y031652D01*
X049560Y031629D01*
X049565Y031606D01*
X049574Y031584D01*
X049587Y031564D01*
X049602Y031546D01*
X049620Y031531D01*
X049640Y031518D01*
X049662Y031509D01*
X049685Y031504D01*
X049708Y031502D01*
X049731Y031504D01*
X049754Y031509D01*
X049776Y031518D01*
X049796Y031531D01*
X049814Y031546D01*
X049829Y031564D01*
X049842Y031584D01*
X049851Y031606D01*
X049856Y031629D01*
X049858Y031652D01*
X002614Y031652D02*
X002612Y031675D01*
X002607Y031698D01*
X002598Y031720D01*
X002585Y031740D01*
X002570Y031758D01*
X002552Y031773D01*
X002532Y031786D01*
X002510Y031795D01*
X002487Y031800D01*
X002464Y031802D01*
X002441Y031800D01*
X002418Y031795D01*
X002396Y031786D01*
X002376Y031773D01*
X002358Y031758D01*
X002343Y031740D01*
X002330Y031720D01*
X002321Y031698D01*
X002316Y031675D01*
X002314Y031652D01*
X002316Y031629D01*
X002321Y031606D01*
X002330Y031584D01*
X002343Y031564D01*
X002358Y031546D01*
X002376Y031531D01*
X002396Y031518D01*
X002418Y031509D01*
X002441Y031504D01*
X002464Y031502D01*
X002487Y031504D01*
X002510Y031509D01*
X002532Y031518D01*
X002552Y031531D01*
X002570Y031546D01*
X002585Y031564D01*
X002598Y031584D01*
X002607Y031606D01*
X002612Y031629D01*
X002614Y031652D01*
M02*
