G75*
G70*
%OFA0B0*%
%FSLAX24Y24*%
%IPPOS*%
%LPD*%
%AMOC8*
5,1,8,0,0,1.08239X$1,22.5*
%
%ADD10R,0.0580X0.0300*%
%ADD11R,0.0300X0.0580*%
%ADD12C,0.0595*%
%ADD13R,0.0474X0.0513*%
%ADD14C,0.0600*%
%ADD15R,0.0513X0.0474*%
%ADD16R,0.0550X0.0950*%
%ADD17R,0.1460X0.0950*%
%ADD18R,0.0867X0.0867*%
%ADD19R,0.0474X0.0631*%
%ADD20R,0.0680X0.0680*%
%ADD21OC8,0.0680*%
%ADD22C,0.0740*%
%ADD23R,0.0710X0.0710*%
%ADD24R,0.0946X0.0316*%
%ADD25OC8,0.0600*%
%ADD26C,0.0946*%
%ADD27C,0.0785*%
%ADD28C,0.1790*%
D10*
X027788Y021494D03*
X027788Y021809D03*
X027788Y022124D03*
X027788Y022439D03*
X027788Y022754D03*
X027788Y023069D03*
X027788Y023384D03*
X027788Y023699D03*
X031193Y023699D03*
X031193Y023384D03*
X031193Y023069D03*
X031193Y022754D03*
X031193Y022439D03*
X031193Y022124D03*
X031193Y021809D03*
X031193Y021494D03*
D11*
X030593Y020894D03*
X030278Y020894D03*
X029963Y020894D03*
X029648Y020894D03*
X029333Y020894D03*
X029018Y020894D03*
X028703Y020894D03*
X028388Y020894D03*
X028388Y024299D03*
X028703Y024299D03*
X029018Y024299D03*
X029333Y024299D03*
X029648Y024299D03*
X029963Y024299D03*
X030278Y024299D03*
X030593Y024299D03*
D12*
X037451Y035587D02*
X037451Y036102D01*
X038326Y036102D02*
X038326Y035587D01*
X039201Y035587D02*
X039201Y036102D01*
X040076Y036102D02*
X040076Y035587D01*
X040952Y035587D02*
X040952Y036102D01*
X041827Y036102D02*
X041827Y035587D01*
X042702Y035587D02*
X042702Y036102D01*
X043577Y036102D02*
X043577Y035587D01*
X043577Y040587D02*
X043577Y041102D01*
X042702Y041102D02*
X042702Y040587D01*
X041827Y040587D02*
X041827Y041102D01*
X040952Y041102D02*
X040952Y040587D01*
X040076Y040587D02*
X040076Y041102D01*
X039201Y041102D02*
X039201Y040587D01*
X038326Y040587D02*
X038326Y041102D01*
X037451Y041102D02*
X037451Y040587D01*
X021529Y040587D02*
X021529Y041102D01*
X020654Y041102D02*
X020654Y040587D01*
X019779Y040587D02*
X019779Y041102D01*
X018904Y041102D02*
X018904Y040587D01*
X018029Y040587D02*
X018029Y041102D01*
X017154Y041102D02*
X017154Y040587D01*
X016279Y040587D02*
X016279Y041102D01*
X015404Y041102D02*
X015404Y040587D01*
X015404Y036102D02*
X015404Y035587D01*
X016279Y035587D02*
X016279Y036102D01*
X017154Y036102D02*
X017154Y035587D01*
X018029Y035587D02*
X018029Y036102D01*
X018904Y036102D02*
X018904Y035587D01*
X019779Y035587D02*
X019779Y036102D01*
X020654Y036102D02*
X020654Y035587D01*
X021529Y035587D02*
X021529Y036102D01*
D13*
X022266Y030471D03*
X022935Y030471D03*
X024234Y030471D03*
X024904Y030471D03*
X026203Y030471D03*
X026872Y030471D03*
X028171Y030471D03*
X028841Y030471D03*
X030140Y030471D03*
X030809Y030471D03*
X032109Y030471D03*
X032778Y030471D03*
X034077Y030471D03*
X034746Y030471D03*
X036046Y030471D03*
X036715Y030471D03*
X034636Y026203D03*
X034636Y025534D03*
X036183Y024506D03*
X036183Y023837D03*
X037758Y023837D03*
X037758Y024506D03*
X022797Y018994D03*
X022797Y018325D03*
X021616Y018325D03*
X021616Y018994D03*
X014864Y026927D03*
X014195Y026927D03*
X014195Y028502D03*
X014864Y028502D03*
D14*
X032640Y021994D02*
X032640Y021474D01*
X035002Y021474D02*
X035002Y021994D01*
X035002Y018994D02*
X035002Y018474D01*
X032640Y018474D02*
X032640Y018994D01*
D15*
X032640Y017419D03*
X032640Y016750D03*
X035002Y016750D03*
X035002Y017419D03*
X034609Y023837D03*
X034609Y024506D03*
X013349Y020175D03*
X013349Y019506D03*
X013349Y017813D03*
X013349Y017144D03*
D16*
X019132Y021770D03*
X020042Y021770D03*
X020952Y021770D03*
D17*
X020042Y024210D03*
D18*
X026341Y011967D03*
X028309Y011967D03*
X030278Y011967D03*
X031853Y011967D03*
X034215Y011967D03*
X036183Y011967D03*
D19*
X033034Y023738D03*
X033408Y024604D03*
X032660Y024604D03*
D20*
X030168Y017451D03*
D21*
X030168Y016451D03*
X029168Y016451D03*
X029168Y017451D03*
X028168Y017451D03*
X028168Y016451D03*
D22*
X024010Y016691D03*
X020010Y016691D03*
X016105Y018234D03*
X016105Y022234D03*
D23*
X011347Y023778D03*
X011347Y024565D03*
X011347Y025352D03*
X011347Y026140D03*
X011347Y026927D03*
X011347Y027715D03*
X011347Y028502D03*
X011347Y029289D03*
D24*
X011616Y019803D03*
X011616Y019303D03*
X011616Y018803D03*
X011616Y018303D03*
X009569Y018303D03*
X009569Y018803D03*
X009569Y019303D03*
X009569Y019803D03*
D25*
X009912Y016297D03*
X008912Y016297D03*
D26*
X002916Y002911D03*
X002916Y042282D03*
X056065Y042282D03*
X056065Y002911D03*
D27*
X054488Y031652D03*
X053018Y031652D03*
X051538Y031652D03*
X007244Y031652D03*
X005774Y031652D03*
X004294Y031652D03*
D28*
X003724Y035592D03*
X007814Y035592D03*
X050968Y035592D03*
X055058Y035592D03*
M02*
